<svg width="133.714844" height="138.765778" viewBox="0 0 133.715 138.766" fill="none" xmlns="http://www.w3.org/2000/svg" xmlns:xlink="http://www.w3.org/1999/xlink">
	<desc>
			Created with Pixso.
	</desc>
	<defs/>
	<path id="vector" d="M129.47 104.08C125.94 109.66 120.38 114.75 121.03 119.93C121.18 121.08 121.64 122.18 122.36 123.1C123.09 124.01 124.04 124.72 125.13 125.13C127.65 126.1 130.5 125.45 132.94 124.26C130.01 126.65 126.31 127.91 122.53 127.81C118.77 127.67 115.07 126.78 111.65 125.21C105.66 122.57 100.21 118.85 95.56 114.25L109.68 100.37C112 97.85 114.62 95.62 117.49 93.74C125.14 88.81 132.43 91.54 132.63 95.16C132.79 98.17 131.06 101.56 129.47 104.08Z" fill="#FFFFFF" fill-opacity="1.000000" fill-rule="nonzero"/>
	<path id="vector_2" d="M122.87 128.12C113.39 128.12 102.34 121.45 95.35 114.46C95.32 114.43 95.3 114.4 95.28 114.36C95.27 114.33 95.26 114.29 95.26 114.25C95.26 114.05 95.48 114.47 109.47 100.16C111.84 97.67 114.47 95.44 117.32 93.5C120.69 91.4 124.11 90.48 127.22 90.84C129.15 91.05 132.83 92.22 132.92 95.16C133.17 98.31 131.23 101.86 129.72 104.24C126.26 109.72 120.73 114.83 121.33 119.89C121.48 120.99 121.92 122.03 122.61 122.9C123.3 123.78 124.21 124.45 125.24 124.85C127.94 125.86 130.85 124.94 132.81 123.99C132.87 123.96 132.95 123.95 133.02 123.98C133.09 124 133.15 124.04 133.19 124.1C133.23 124.16 133.25 124.24 133.23 124.31C133.22 124.39 133.18 124.45 133.13 124.5C130.22 126.84 126.6 128.12 122.87 128.12ZM95.99 114.25C100.54 118.76 105.89 122.38 111.77 124.94C115.15 126.5 118.82 127.38 122.54 127.51C125.38 127.57 128.18 126.86 130.65 125.47C128.82 126.05 126.84 126.03 125.02 125.41C123.89 124.97 122.89 124.23 122.14 123.27C121.38 122.32 120.9 121.17 120.73 119.97C120.39 117.07 121.93 114.29 123.3 112.19C126.3 107.7 132.75 100.69 132.32 95.19C132.22 91.88 125.4 89.17 117.64 94C114.81 95.89 112.21 98.09 109.89 100.58L95.99 114.25Z" fill="#000000" fill-opacity="1.000000" fill-rule="nonzero"/>
	<path id="vector_3" d="M97.92 123.63C100.22 122.57 102.22 120.98 103.76 118.98C114.72 104.89 114.93 102.64 119.38 97.37C121.33 95.09 123.82 93.33 126.63 92.25C127.81 91.75 129.14 91.72 130.34 92.17C132.55 93.19 132.39 95.64 132.47 97.69C133.01 96.72 133.18 95.6 132.97 94.51C132.75 93.43 132.15 92.46 131.28 91.78C130.19 91.05 128.95 90.59 127.66 90.43C120.32 88.93 112.75 88.62 105.34 87.43C89.06 84.84 84.86 78.44 84.44 78.44C80.38 90.36 80.55 103.31 84.91 115.11C86 118.04 87.39 121.01 89.88 122.84C91.03 123.67 92.38 124.18 93.8 124.32C95.21 124.46 96.63 124.22 97.92 123.63Z" fill="#4880FF" fill-opacity="1.000000" fill-rule="nonzero"/>
	<path id="vector_4" d="M94.62 124.64C89.24 124.64 86.54 120.26 84.63 115.22C80.29 103.34 80.12 90.34 84.16 78.35C84.31 77.9 85.09 78.25 85.15 78.79C96.59 88.83 113.04 87.14 127.72 90.14C129.05 90.3 130.33 90.78 131.45 91.52C132.37 92.25 133.01 93.29 133.25 94.44C133.48 95.6 133.3 96.8 132.73 97.83C132.7 97.89 132.65 97.94 132.59 97.96C132.53 97.99 132.46 97.99 132.4 97.98C132.33 97.96 132.28 97.93 132.23 97.88C132.19 97.83 132.17 97.76 132.17 97.7C132.09 95.52 132.19 93.36 130.21 92.44C129.09 92.02 127.85 92.05 126.74 92.53C117.99 95.93 117.18 102.62 104 119.17C102.43 121.21 100.39 122.84 98.05 123.91C96.97 124.39 95.81 124.64 94.62 124.64ZM84.56 79.04C80.74 90.76 80.96 103.43 85.2 115.01C86.21 117.69 87.58 120.68 90.07 122.61C91.18 123.39 92.48 123.87 93.83 124C95.19 124.13 96.56 123.91 97.8 123.36C100.05 122.33 102.02 120.76 103.52 118.8C107.11 114.3 110.61 109.47 113.92 104.46C115.5 101.92 117.25 99.49 119.14 97.18C121.14 94.86 123.67 93.07 126.52 91.96C127.77 91.43 129.18 91.41 130.45 91.89C130.79 92.05 131.42 92.26 131.1 92.01C130.05 91.32 128.86 90.88 127.62 90.73C112.92 87.73 96.21 89.41 84.64 79.14C84.6 79.12 84.58 79.08 84.56 79.04Z" fill="#000000" fill-opacity="1.000000" fill-rule="nonzero"/>
	<path id="vector_5" d="M86.17 110.62C87.44 115.51 90.76 122.89 96.58 123.55C97.72 123.73 98.89 123.44 99.82 122.77C94.38 125.77 89.17 125.47 83.26 125.37C76.26 125.21 69.29 124.42 62.44 123C30.99 116.7 24.74 103.23 29.71 80.1C36.62 47.95 55.74 18.85 83.57 1C84.06 0.69 84.59 0.45 85.15 0.3C86.01 0.29 86.87 0.53 87.59 1C102.5 9.05 117.8 16.38 133.41 23.16C114.33 33.89 100.46 52.38 91.69 72.53C86.47 84.54 82.88 97.92 86.17 110.62Z" fill="#FFFFFF" fill-opacity="1.000000" fill-rule="nonzero"/>
	<path id="vector_6" d="M87.19 125.72C78.85 125.78 70.54 124.97 62.38 123.3C50.65 121.02 38.33 117.23 31.67 107.24C27.51 100.64 26.79 91.99 29.42 80.04C36.5 46.43 56.18 17.53 83.42 0.75C83.95 0.4 84.54 0.14 85.15 0C86.08 -0.01 86.99 0.25 87.77 0.75C101.96 8.42 117.37 15.87 133.53 22.89C133.58 22.91 133.63 22.95 133.66 22.99C133.69 23.04 133.71 23.09 133.71 23.15C133.71 23.21 133.7 23.26 133.67 23.31C133.64 23.36 133.61 23.4 133.56 23.43C111.29 35.94 98.65 57.1 91.97 72.65C85.46 87.41 83.68 99.8 86.46 110.55C87.97 116.37 91.42 122.76 96.61 123.26C97.21 123.34 97.82 123.31 98.4 123.14C98.82 122.95 99.25 122.74 99.67 122.5C99.74 122.47 99.82 122.45 99.89 122.47C99.96 122.49 100.03 122.54 100.07 122.6C100.11 122.67 100.13 122.74 100.11 122.82C100.1 122.89 100.06 122.96 100 123.01C99.57 123.32 99.1 123.56 98.59 123.72C94.81 125.44 91.06 125.72 87.19 125.72ZM85.19 0.6C84.68 0.74 84.19 0.96 83.74 1.25C56.64 17.96 37.06 46.72 30 80.16C24.91 103.38 31.8 116.76 62.5 122.71C69.33 124.13 76.28 124.92 83.26 125.07C87.99 125.16 92.34 125.35 96.63 123.86C90.73 123.15 87.34 116.34 85.88 110.7C83.05 99.82 84.86 87.3 91.42 72.41C98.08 56.9 110.65 35.83 132.75 23.2C116.77 16.24 101.53 8.87 87.46 1.27C86.78 0.83 86 0.6 85.19 0.6Z" fill="#000000" fill-opacity="1.000000" fill-rule="nonzero"/>
	<path id="vector_7" d="M40.91 66.14C54.59 71.16 66.37 75.76 80.97 80.42C79.86 83.93 78.99 87.51 78.37 91.14C68.96 86.96 65.47 87.92 37.6 76.47L40.91 66.14Z" fill="#4880FF" fill-opacity="1.000000" fill-rule="nonzero"/>
	<path id="vector_8" d="M78.37 91.44C75.53 90.19 72.6 89.13 69.62 88.28C58.03 84.64 47.52 80.87 37.48 76.75C37.41 76.72 37.36 76.67 37.33 76.6C37.29 76.53 37.29 76.45 37.31 76.38C40.69 65.85 40.6 65.96 40.78 65.87C40.96 65.79 40.82 65.75 48.11 68.46C81.15 80.75 81.5 79.74 81.26 80.51C80.16 84.01 79.29 87.58 78.67 91.19C78.66 91.26 78.62 91.33 78.56 91.37C78.51 91.42 78.44 91.44 78.37 91.44ZM37.97 76.3C47.91 80.37 58.32 84.1 69.78 87.7C72.64 88.48 75.44 89.49 78.14 90.71C78.74 87.3 79.56 83.92 80.59 80.61C66.05 75.96 54.33 71.38 41.1 66.53L37.97 76.3Z" fill="#000000" fill-opacity="1.000000" fill-rule="nonzero"/>
	<path id="vector_9" d="M75.29 82.53L43.18 71.24C43.1 71.21 43.04 71.15 43.01 71.08C42.98 71.01 42.98 70.93 43 70.86C43.03 70.78 43.08 70.72 43.15 70.69C43.22 70.65 43.3 70.65 43.38 70.67L75.39 81.95C75.46 81.97 75.52 82.02 75.55 82.08C75.59 82.14 75.6 82.21 75.59 82.28C75.58 82.35 75.54 82.42 75.49 82.46C75.43 82.51 75.36 82.53 75.29 82.53Z" fill="#000000" fill-opacity="1.000000" fill-rule="nonzero"/>
	<path id="vector_10" d="M69.77 84.9L42.31 75.1C42.23 75.07 42.17 75.02 42.14 74.95C42.1 74.88 42.1 74.79 42.12 74.72C42.15 74.64 42.21 74.58 42.28 74.55C42.35 74.51 42.43 74.51 42.51 74.54L69.87 84.31C69.94 84.34 70 84.39 70.03 84.45C70.07 84.51 70.08 84.58 70.07 84.65C70.06 84.72 70.02 84.78 69.96 84.83C69.91 84.87 69.84 84.9 69.77 84.9Z" fill="#000000" fill-opacity="1.000000" fill-rule="nonzero"/>
	<path id="vector_11" d="M50.45 46.51C61.8 50.98 74.98 55.74 88.23 62.36C86.57 65.83 85.63 67.33 84.29 70.24C82.87 69.61 57.08 59.99 46.43 55.18L50.45 46.51Z" fill="#4880FF" fill-opacity="1.000000" fill-rule="nonzero"/>
	<path id="vector_12" d="M84.28 70.54C84.01 70.54 46.42 56.03 46.15 55.29C46.08 55.1 46.07 55.25 50.18 46.38C50.21 46.31 50.27 46.26 50.34 46.23C50.41 46.2 50.49 46.2 50.56 46.23C61.87 50.7 75.16 55.49 88.36 62.09C88.43 62.13 88.49 62.19 88.51 62.26C88.54 62.34 88.53 62.42 88.5 62.49C86.96 65.72 85.82 67.63 84.56 70.37C84.53 70.42 84.49 70.47 84.45 70.5C84.4 70.53 84.34 70.55 84.28 70.54ZM46.83 55.03C57.64 59.88 80.56 68.42 84.13 69.86C85.33 67.29 86.37 65.53 87.83 62.49C74.8 56.01 61.4 51.14 50.61 46.89L46.83 55.03Z" fill="#000000" fill-opacity="1.000000" fill-rule="nonzero"/>
	<path id="vector_13" d="M82.55 64.95L51.36 52.31C51.29 52.27 51.24 52.22 51.21 52.14C51.18 52.07 51.18 51.99 51.21 51.92C51.24 51.85 51.29 51.79 51.37 51.76C51.44 51.73 51.52 51.72 51.59 51.75L82.66 64.37C82.72 64.39 82.78 64.44 82.81 64.5C82.84 64.56 82.86 64.63 82.84 64.7C82.83 64.77 82.79 64.83 82.74 64.88C82.69 64.92 82.62 64.95 82.55 64.95Z" fill="#000000" fill-opacity="1.000000" fill-rule="nonzero"/>
	<path id="vector_14" d="M43.59 90.04L37.75 98.16C49.82 101 61.89 103.68 74.03 106.13C74.63 103.17 74.94 100.15 74.98 97.13C66.54 95.48 51.48 91.54 43.59 90.04Z" fill="#4880FF" fill-opacity="1.000000" fill-rule="nonzero"/>
	<path id="vector_15" d="M73.97 106.42C62.67 104.15 50.8 101.54 37.69 98.45C37.61 98.43 37.54 98.39 37.5 98.32C37.46 98.25 37.45 98.17 37.46 98.09C37.48 98.01 37.53 97.95 37.6 97.91C37.66 97.86 37.75 97.85 37.82 97.87C50.82 100.93 62.59 103.51 73.79 105.77C74.34 103.01 74.63 100.2 74.68 97.38C66.32 95.72 51.22 91.79 43.54 90.33C43.5 90.33 43.46 90.31 43.43 90.29C43.39 90.27 43.37 90.24 43.34 90.21C43.32 90.17 43.3 90.14 43.3 90.1C43.29 90.06 43.29 90.02 43.3 89.98C43.3 89.94 43.32 89.91 43.34 89.87C43.36 89.84 43.39 89.81 43.42 89.79C43.45 89.77 43.49 89.75 43.53 89.74C43.57 89.74 43.61 89.73 43.65 89.74C51.49 91.23 66.66 95.2 75.04 96.84C75.1 96.85 75.16 96.89 75.21 96.94C75.25 97 75.28 97.07 75.28 97.14C75.25 100.17 74.93 103.2 74.33 106.18C74.32 106.22 74.3 106.26 74.28 106.29C74.26 106.32 74.23 106.35 74.2 106.37C74.17 106.4 74.13 106.41 74.09 106.42C74.05 106.43 74.01 106.43 73.97 106.42Z" fill="#000000" fill-opacity="1.000000" fill-rule="nonzero"/>
	<path id="vector_16" d="M69.69 101.06L42.58 95.14C42.5 95.12 42.44 95.07 42.4 95.01C42.36 94.94 42.34 94.86 42.36 94.78C42.38 94.71 42.42 94.64 42.49 94.6C42.55 94.56 42.63 94.54 42.71 94.55L69.76 100.47C69.83 100.48 69.91 100.52 69.95 100.58C70 100.64 70.02 100.72 70.01 100.8C70.01 100.87 69.97 100.95 69.91 101C69.85 101.04 69.77 101.07 69.69 101.06Z" fill="#000000" fill-opacity="1.000000" fill-rule="nonzero"/>
	<path id="vector_17" d="M53.27 101.72C51.18 101.25 49.1 100.78 47.01 100.31C45.49 103 44.72 105.06 39.82 106.94C37.3 105.29 36.52 101.87 37.44 99.11C38.12 97.42 39.36 96.01 40.96 95.14C42.55 94.26 44.4 93.96 46.19 94.3C47.46 94.53 48.8 95.16 49.98 94.61C50.52 94.31 50.94 93.83 51.19 93.26C51.43 92.69 51.47 92.06 51.32 91.46C50.95 90.28 50.2 89.25 49.19 88.54C44.38 84.98 37.21 84.97 31.7 88.02C29.93 87.49 24.07 88.3 20.17 89.72C17.98 90.57 15.99 91.87 14.32 93.52C12.65 95.18 11.34 97.16 10.47 99.34C8.8 103.78 8.5 108.61 9.6 113.22L10.31 112.67C10.63 114.09 12.13 114.8 13.39 115.43L31.45 123.63C34.87 125.2 36.97 125.62 40.25 123.71C49.53 118.63 54.75 106.14 53.27 101.72Z" fill="#FFFFFF" fill-opacity="1.000000" fill-rule="nonzero"/>
	<path id="vector_18" d="M53.59 102.07C53.56 101.82 53.53 101.5 53.28 101.45L47.11 100.01C47.07 100.01 47.03 100 46.99 100.01C46.95 100.02 46.91 100.03 46.88 100.06C46.84 100.08 46.82 100.11 46.79 100.14C46.77 100.18 46.76 100.22 46.75 100.26C46.12 101.13 45.73 102.17 45.08 103.03C43.75 104.83 41.81 106.08 39.63 106.56C38.64 105.65 37.93 104.47 37.59 103.17C37.26 101.87 37.3 100.5 37.72 99.22C38.37 97.6 39.57 96.25 41.1 95.41C42.64 94.57 44.42 94.28 46.14 94.59C47.41 94.83 48.8 95.49 50.13 94.87C50.73 94.53 51.2 94.01 51.46 93.37C51.73 92.74 51.78 92.03 51.6 91.36C51.21 90.13 50.43 89.05 49.37 88.3C44.47 84.68 37.34 84.71 31.95 87.53C27.91 87.54 23.9 88.19 20.06 89.44C17.83 90.31 15.8 91.63 14.11 93.32C12.41 95 11.08 97.02 10.19 99.24C8.56 103.59 8.21 108.31 9.21 112.85C8.95 112.96 8.7 113.07 8.45 113.19C8.33 113.25 8.4 113.18 0.05 125.6C0 125.66 -0.01 125.74 0 125.82C0.02 125.9 0.06 125.97 0.13 126.01C0.27 126.11 33.57 138.7 33.73 138.75C33.77 138.76 33.8 138.76 33.84 138.76C33.88 138.76 33.92 138.74 33.96 138.73C33.99 138.71 34.02 138.68 34.05 138.65C34.07 138.62 34.09 138.58 34.1 138.55C37.13 128.31 38.77 127.28 38.44 124.9C45.09 121.71 50.21 116.02 52.71 109.08C53.53 106.84 53.83 104.45 53.59 102.07ZM52.14 108.87C49.72 115.61 44.76 121.15 38.32 124.29C37.31 120.18 33.61 116.96 29.76 115.16C24.5 112.75 16.84 109.96 9.77 112.62C8.83 108.23 9.17 103.66 10.75 99.45C11.6 97.31 12.89 95.37 14.53 93.74C16.16 92.12 18.12 90.85 20.26 90.01C23.69 88.89 27.25 88.26 30.85 88.15C29.68 88.87 28.59 89.73 27.61 90.69C27.55 90.75 27.52 90.82 27.52 90.9C27.52 90.98 27.55 91.06 27.6 91.12C27.66 91.17 27.73 91.2 27.81 91.21C27.89 91.21 27.97 91.18 28.03 91.12C34.23 85.04 43.54 84.74 49.02 88.79C49.97 89.46 50.67 90.42 51.03 91.53C51.17 92.06 51.13 92.63 50.91 93.13C50.7 93.64 50.33 94.07 49.85 94.34C48.78 94.84 47.51 94.24 46.25 94C44.39 93.66 42.47 93.97 40.81 94.89C39.15 95.8 37.86 97.26 37.16 99.01C36.57 100.8 36.66 102.75 37.42 104.47C38.18 106.2 39.54 107.59 41.26 108.37C41.33 108.4 41.41 108.4 41.48 108.37C41.55 108.35 41.61 108.29 41.64 108.22C41.68 108.15 41.68 108.07 41.66 108C41.63 107.92 41.58 107.86 41.51 107.83C41.04 107.61 40.6 107.35 40.2 107.04C42.34 106.46 44.24 105.17 45.57 103.39C46.24 102.5 46.63 101.47 47.2 100.65L52.98 101.99C53.24 104.32 52.95 106.67 52.14 108.87Z" fill="#000000" fill-opacity="1.000000" fill-rule="nonzero"/>
	<path id="vector_19" d="M85.67 46.69C81.88 47.53 78.02 48.19 74.16 48.74C74.08 43.3 72.42 38.02 71.24 32.65C69.66 25.55 68.44 14.22 77.39 11.83C79.08 11.38 80.86 11.39 82.55 11.84C84.24 12.3 85.78 13.2 87.01 14.44C89.61 17.04 89.37 22.09 88.82 25.48C91.51 23.15 94.97 21.91 98.52 22.01C105.94 22.29 109.93 29.28 107.36 36.05C106.27 38.88 104.12 41.17 101.36 42.43C96.46 44.7 90.86 45.54 85.67 46.69Z" fill="#5A8CFF" fill-opacity="1.000000" fill-rule="nonzero"/>
	<path id="vector_20" d="M73.86 48.75C73.78 43.36 72.11 38.01 70.95 32.72C68.3 20.79 70.5 13.47 77.31 11.55C79.05 11.09 80.88 11.1 82.62 11.57C84.36 12.04 85.95 12.95 87.22 14.22C89.7 16.7 89.73 21.17 89.24 24.76C91.9 22.71 95.17 21.64 98.53 21.71C106.17 22.11 110.23 29.17 107.64 36.15C106.52 39.06 104.32 41.41 101.49 42.71C97.39 44.62 92.81 45.55 88.38 46.44C83.63 47.4 81.83 47.95 74.2 49.04C74.16 49.04 74.11 49.04 74.07 49.03C74.03 49.02 73.99 49 73.96 48.97C73.93 48.94 73.9 48.91 73.88 48.87C73.87 48.83 73.86 48.79 73.86 48.75ZM77.46 12.13C70.92 13.98 68.92 20.86 71.53 32.59C72.68 37.79 74.31 43.04 74.45 48.4C81.76 47.35 83.59 46.79 88.26 45.85C92.66 44.96 97.2 44.05 101.24 42.16C103.93 40.93 106.02 38.7 107.08 35.94C109.53 29.35 105.73 22.69 98.51 22.31C95.04 22.24 91.66 23.44 89.02 25.7C88.98 25.74 88.92 25.77 88.86 25.77C88.79 25.78 88.73 25.77 88.68 25.74C88.63 25.71 88.58 25.66 88.56 25.61C88.53 25.55 88.52 25.49 88.53 25.43C89 22.52 89.41 17.25 86.8 14.65C85.6 13.45 84.11 12.59 82.47 12.14C80.83 11.7 79.1 11.7 77.46 12.13Z" fill="#000000" fill-opacity="1.000000" fill-rule="nonzero"/>
</svg>
