<svg width="8.597656" height="44.250000" viewBox="0 0 8.59766 44.25" fill="none" xmlns="http://www.w3.org/2000/svg" xmlns:xlink="http://www.w3.org/1999/xlink">
	<desc>
			Created with Pixso.
	</desc>
	<defs/>
	<path id="Vector 6" d="M0 36.8L8.59 36.8L4.29 44.25L0 36.8ZM3.54 35.98L3.54 29.69L5.04 29.69L5.04 35.98L3.54 35.98ZM3.54 26.05L3.54 20.01L5.04 20.01L5.04 26.05L3.54 26.05ZM3.54 10.42L3.54 10.38L5.04 10.38L5.04 16.38L3.54 16.38L3.54 10.42ZM7.11 0.93Q8.04 1.87 8.04 3.75Q8.04 5.62 7.11 6.56Q6.17 7.5 4.29 7.5Q2.42 7.5 1.48 6.56Q0.54 5.62 0.54 3.75Q0.54 1.87 1.48 0.93Q2.42 0 4.29 0Q6.17 0 7.11 0.93Z" fill="#000000" fill-opacity="1.000000" fill-rule="evenodd"/>
</svg>
