<svg width="143.111328" height="128.362061" viewBox="0 0 143.111 128.362" fill="none" xmlns="http://www.w3.org/2000/svg" xmlns:xlink="http://www.w3.org/1999/xlink">
	<desc>
			Created with Pixso.
	</desc>
	<defs/>
	<path id="line" d="M29.48 128.36C29.41 128.36 29.34 128.33 29.29 128.29C29.23 128.25 29.2 128.19 29.18 128.12C29.17 128.05 29.18 127.98 29.21 127.92C29.25 127.85 29.3 127.81 29.36 127.78L130.69 85.54C130.77 85.52 130.85 85.52 130.92 85.55C130.99 85.58 131.05 85.64 131.08 85.71C131.11 85.78 131.11 85.86 131.08 85.93C131.05 86.01 131 86.07 130.92 86.1L29.48 128.36Z" fill="#000000" fill-opacity="1.000000" fill-rule="nonzero"/>
	<path id="vector" d="M71.88 92.06C70.19 90.66 68.55 88.58 69.28 86.47C70.01 84.36 72.93 83.31 72.77 81.04C72.61 78.77 69.57 78.06 68.39 76.18C67.92 75.4 67.77 74.46 67.96 73.57C68.16 72.69 68.69 71.9 69.44 71.39C69.12 72 69.02 72.7 69.17 73.37C69.32 74.03 69.7 74.63 70.25 75.04C71.34 75.86 72.7 76.27 74.06 76.18C77.7 76.31 83.16 74.95 86.14 78.2C86.8 78.92 87.26 79.75 88 80.47C90.23 82.62 93.98 81.87 96.76 80.63C98.86 79.72 100.72 78.34 102.19 76.58C102.91 75.68 103.4 74.63 103.64 73.5C103.88 72.38 103.86 71.21 103.57 70.1C102.92 68.07 101.3 66.61 100.25 64.83C99.19 63.04 98.87 60.38 100.57 59.15C101.46 58.51 102.6 58.42 103.65 58.1C104.59 57.71 105.38 57.04 105.92 56.19C106.45 55.33 106.71 54.33 106.65 53.32C106.49 51.7 105.6 50.24 105.03 48.7C104.46 47.16 104.61 45.1 106 44.32C107.05 43.73 108.27 43.99 109.49 43.99C111.27 43.99 113.3 43.1 113.62 41.4C113.95 39.7 112.55 38.17 111.76 36.62C110.02 33.23 111.52 28.92 114.11 26.16C115.69 24.72 117.43 23.47 119.3 22.43C120.68 21.63 121.89 20.16 121 18.38C121.73 19.84 122.46 21.3 121.49 22.92C120.52 24.54 119.39 25.6 119.22 27.87C118.71 34.63 124.92 39.39 129.43 37.67C130.97 37.09 132.27 36.05 131.3 34.35C130.73 33.62 130.25 32.83 129.84 32C129.57 31.05 129.68 30.03 130.16 29.16C130.66 28.31 131.29 27.55 132.03 26.89C131.8 27.25 131.65 27.65 131.59 28.07C131.53 28.49 131.57 28.92 131.7 29.32C132.35 31.11 134.46 31.68 135.68 32.81C137.41 34.65 138.89 36.72 140.05 38.97C144.85 48.01 142.99 60.07 135.6 67.18C133.65 69.05 131.38 70.67 129.6 72.69C127.81 74.72 126.64 77.55 127.24 80.15C127.36 80.71 127.6 81.24 127.96 81.68C128.31 82.13 128.76 82.5 129.27 82.75C130 82.93 130.78 82.86 131.47 82.55C132.16 82.25 132.73 81.71 133.08 81.04C133.73 79.68 134.06 78.18 134.05 76.67C135.1 78.05 135.78 79.67 136.04 81.38C136.29 83.1 136.11 84.85 135.51 86.48C133.62 91.95 127.79 96.53 122.87 97.5C115.74 98.91 109.65 93.31 101.87 94.83C99.68 95.25 97.74 96.54 95.54 97.18C90.2 98.72 84.51 98.58 79.25 96.77C76.62 95.49 74.15 93.91 71.88 92.06Z" fill="#FFFFFF" fill-opacity="1.000000" fill-rule="nonzero"/>
	<path id="vector_2" d="M79.16 97.05C76.48 95.78 73.97 94.18 71.68 92.29C70.57 91.39 68.08 89.01 69 86.37C69.75 84.2 72.62 83.14 72.47 81.06C72.32 79.03 69.34 78.18 68.14 76.33C67.63 75.49 67.47 74.48 67.68 73.51C67.89 72.55 68.46 71.7 69.27 71.14C69.33 71.1 69.4 71.08 69.46 71.09C69.53 71.09 69.59 71.12 69.64 71.16C69.69 71.21 69.73 71.27 69.74 71.33C69.75 71.4 69.74 71.47 69.71 71.53C69.43 72.07 69.34 72.7 69.48 73.3C69.61 73.89 69.95 74.43 70.44 74.8C71.48 75.57 72.76 75.94 74.05 75.87C77.74 76.01 83.17 74.62 86.36 77.99C87.03 78.74 87.51 79.54 88.22 80.25C90.36 82.24 93.97 81.61 96.63 80.36C98.71 79.48 100.53 78.12 101.96 76.38C102.65 75.52 103.12 74.5 103.35 73.42C103.58 72.34 103.56 71.23 103.28 70.16C102.66 68.22 101.05 66.76 99.99 64.97C98.82 63 98.57 60.2 100.4 58.9C101.35 58.21 102.52 58.12 103.56 57.8C104.44 57.44 105.18 56.81 105.68 56C106.18 55.2 106.41 54.26 106.35 53.32C106.2 51.78 105.31 50.32 104.75 48.79C104.13 47.12 104.31 44.95 105.85 44.05C107 43.43 108.28 43.68 109.49 43.68C111.13 43.68 113.04 42.86 113.33 41.33C113.63 39.76 112.31 38.3 111.49 36.74C109.64 33.04 111.44 28.55 113.89 25.94C115.48 24.47 117.25 23.2 119.15 22.16C119.77 21.8 121.71 20.46 120.73 18.5C120.7 18.43 120.69 18.35 120.72 18.27C120.74 18.2 120.8 18.13 120.87 18.1C120.94 18.06 121.02 18.06 121.1 18.08C121.17 18.11 121.24 18.16 121.27 18.24C122.02 19.74 122.8 21.3 121.75 23.06C120.76 24.71 119.67 25.69 119.52 27.87C118.99 34.49 125.13 39.03 129.32 37.38C130.86 36.82 131.85 35.91 131.04 34.49C130.47 33.75 129.98 32.96 129.57 32.12C129.27 31.08 129.39 29.96 129.9 29.01C130.42 28.13 131.07 27.34 131.83 26.65C131.88 26.61 131.95 26.58 132.03 26.58C132.1 26.58 132.17 26.6 132.23 26.65C132.28 26.7 132.32 26.77 132.33 26.84C132.34 26.91 132.32 26.98 132.28 27.05C132.07 27.37 131.94 27.73 131.89 28.1C131.84 28.48 131.88 28.86 131.99 29.23C132.59 30.86 134.64 31.42 135.88 32.58C137.67 34.42 139.17 36.53 140.32 38.82C145.35 47.74 143.41 60.03 135.8 67.38C133.87 69.24 131.58 70.88 129.82 72.88C126.81 76.3 126.48 81.11 129.4 82.46C130.06 82.61 130.76 82.54 131.38 82.26C132 81.97 132.5 81.49 132.82 80.89C133.44 79.56 133.76 78.12 133.75 76.66C133.75 76.59 133.77 76.53 133.81 76.48C133.85 76.43 133.89 76.39 133.95 76.37C134.01 76.35 134.08 76.35 134.14 76.37C134.19 76.38 134.25 76.42 134.29 76.47C136.38 79.03 136.96 82.89 135.8 86.56C134.55 89.86 132.33 92.71 129.45 94.74C119.15 102.8 111.39 93.17 101.93 95.11C99.83 95.5 97.79 96.82 95.63 97.46C90.23 99.01 84.48 98.87 79.16 97.05ZM68.83 72.39C68.44 72.91 68.22 73.53 68.19 74.18C68.16 74.83 68.32 75.47 68.65 76.02C69.81 77.8 72.89 78.58 73.07 81.02C73.24 83.48 70.27 84.53 69.57 86.57C68.77 88.85 71.07 90.99 72.07 91.83C74.32 93.66 76.77 95.23 79.39 96.5C84.58 98.26 90.19 98.4 95.46 96.88C97.63 96.24 99.58 94.94 101.82 94.52C109.4 92.97 115.78 98.52 122.81 97.2C125.1 96.71 127.25 95.71 129.09 94.26C131.88 92.3 134.02 89.55 135.23 86.36C135.73 84.91 135.91 83.37 135.75 81.85C135.6 80.32 135.1 78.85 134.32 77.53C134.22 78.79 133.89 80.02 133.35 81.17C132.97 81.9 132.35 82.49 131.59 82.83C130.83 83.17 129.98 83.23 129.18 83.02C128.61 82.76 128.11 82.37 127.72 81.88C127.34 81.4 127.07 80.82 126.95 80.21C126.35 77.79 127.25 74.9 129.37 72.49C131.18 70.44 133.44 68.82 135.39 66.96C142.8 59.79 144.7 47.82 139.79 39.11C138.66 36.87 137.2 34.81 135.46 33.01C134.11 31.76 130.99 30.95 131.29 28.09C130.28 29.31 129.73 30.34 130.13 31.92C130.53 32.71 131 33.46 131.53 34.16C132.57 35.96 131.47 37.24 129.54 37.95C124.9 39.77 118.36 34.86 118.92 27.84C119.2 23.94 122.35 23.22 121.5 20.3C121.14 21.33 120.41 22.18 119.45 22.69C117.6 23.7 115.87 24.94 114.32 26.37C112.02 28.82 110.31 33.04 112.03 36.48C112.84 38.02 114.27 39.61 113.92 41.45C113.56 43.32 111.42 44.29 109.49 44.29C108.28 44.29 107.11 44.06 106.15 44.58C104.92 45.3 104.8 47.19 105.31 48.59C105.88 50.12 106.78 51.61 106.95 53.28C107.02 54.36 106.75 55.43 106.18 56.34C105.61 57.25 104.77 57.97 103.77 58.37C102.7 58.71 101.59 58.78 100.75 59.39C99.27 60.45 99.46 62.91 100.51 64.67C101.55 66.44 103.19 67.92 103.86 70C104.16 71.17 104.19 72.38 103.94 73.56C103.69 74.73 103.18 75.83 102.43 76.77C100.94 78.58 99.03 80 96.88 80.91C94.05 82.24 90.17 82.89 87.8 80.69C87.02 79.91 86.58 79.14 85.92 78.4C82.95 75.27 77.7 76.62 74.05 76.47C72.63 76.55 71.22 76.13 70.08 75.28C69.64 74.95 69.3 74.5 69.08 74C68.86 73.49 68.78 72.94 68.83 72.39Z" fill="#000000" fill-opacity="1.000000" fill-rule="nonzero"/>
	<path id="vector_3" d="M71.04 67.99C72.04 67.23 72.9 66.3 73.57 65.24C74.35 64.06 74.76 62.44 73.92 61.45C72.41 59.95 70.31 60.83 68.39 60.83C68.33 60.83 68.27 60.81 68.21 60.77C68.16 60.74 68.12 60.68 68.11 60.62C68.08 60.56 68.08 60.5 68.1 60.44C68.12 60.38 68.16 60.33 68.21 60.29C68.86 59.8 69.44 59.22 69.93 58.56C70.15 58.26 70.29 57.9 70.34 57.53C70.39 57.16 70.35 56.78 70.22 56.42C69.6 55.19 67.85 55.08 66.48 55.23C66.4 55.24 66.32 55.22 66.26 55.17C66.2 55.12 66.16 55.05 66.15 54.97C66.14 54.89 66.17 54.81 66.22 54.75C66.26 54.69 66.33 54.65 66.41 54.64C68.09 54.45 70.01 54.67 70.77 56.18C70.94 56.63 71 57.11 70.94 57.59C70.88 58.07 70.7 58.52 70.42 58.91C70.08 59.37 69.69 59.79 69.28 60.18C71.16 59.98 72.89 59.58 74.35 61.05C75.42 62.29 74.97 64.2 74.07 65.56C73.36 66.68 72.46 67.67 71.41 68.47C71.34 68.51 71.27 68.53 71.19 68.51C71.12 68.5 71.05 68.46 71 68.4C70.96 68.34 70.94 68.26 70.95 68.19C70.95 68.11 70.99 68.04 71.04 67.99Z" fill="#4880FF" fill-opacity="1.000000" fill-rule="nonzero"/>
	<path id="vector_4" d="M95.07 35.73C94.12 35.72 93.18 35.44 92.38 34.92C92.32 34.88 92.27 34.81 92.26 34.73C92.24 34.66 92.26 34.58 92.3 34.51C92.34 34.45 92.41 34.4 92.48 34.38C92.56 34.36 92.64 34.38 92.71 34.42C93.23 34.76 93.81 34.99 94.43 35.08C95.04 35.17 95.67 35.13 96.27 34.95C98.97 33.93 99.05 29.01 99.14 26.15C99.14 26.07 99.17 25.99 99.22 25.94C99.28 25.88 99.36 25.85 99.44 25.85C99.52 25.85 99.59 25.88 99.65 25.94C99.71 25.99 99.74 26.07 99.74 26.15C99.79 28.07 100.55 31.42 102.41 32.77C103.08 33.2 103.87 33.38 104.66 33.27C105.44 33.17 106.16 32.78 106.68 32.19C107.69 31.28 108.48 30.15 108.97 28.89C108.99 28.82 109.03 28.77 109.09 28.74C109.15 28.7 109.22 28.69 109.29 28.7C109.35 28.7 109.41 28.74 109.46 28.78C109.51 28.83 109.54 28.89 109.54 28.96C109.71 30.46 109 31.97 109.6 33.25C109.8 33.57 110.06 33.84 110.38 34.06C110.69 34.27 111.04 34.41 111.41 34.48C111.79 34.54 112.17 34.53 112.53 34.43C112.9 34.34 113.24 34.17 113.54 33.93C113.6 33.89 113.69 33.87 113.76 33.89C113.84 33.9 113.91 33.95 113.96 34.02C114 34.08 114.02 34.16 114 34.24C113.98 34.32 113.94 34.39 113.87 34.43C113.51 34.72 113.08 34.92 112.64 35.02C112.18 35.13 111.72 35.14 111.26 35.06C110.81 34.97 110.38 34.79 110 34.52C109.62 34.26 109.3 33.92 109.07 33.52C108.71 32.52 108.65 31.44 108.9 30.41C108.41 31.23 107.81 31.98 107.1 32.62C106.59 33.12 105.97 33.5 105.3 33.73C102.29 34.64 100.44 32.14 99.61 29.12C99.32 32.42 98.39 35.73 95.07 35.73Z" fill="#4880FF" fill-opacity="1.000000" fill-rule="nonzero"/>
	<path id="vector_5" d="M110.06 0.3C111.3 4.25 113.6 7.78 116.7 10.51C112.24 11.82 108.06 13.97 104.38 16.84C102.52 18.29 100.73 20.16 100.65 22.51C100.76 21.57 96.35 18.42 93.28 14.57C91.62 12.49 91.8 10.91 93.52 8.89C97.54 4.16 103.9 1.11 110.06 0.3Z" fill="#FFFFFF" fill-opacity="1.000000" fill-rule="nonzero"/>
	<path id="vector_6" d="M100.65 22.81C100.61 22.81 100.57 22.8 100.54 22.79C100.5 22.77 100.47 22.75 100.44 22.72C100.41 22.69 100.39 22.66 100.37 22.62C100.36 22.58 100.35 22.54 100.35 22.5C100.38 21.76 96.38 18.8 93.04 14.76C91.38 12.59 91.45 10.89 93.29 8.7C97.25 4.11 103.5 0.86 110.02 0C110.09 -0.01 110.16 0 110.22 0.04C110.28 0.08 110.32 0.14 110.34 0.21C111.57 4.1 113.84 7.59 116.9 10.29C116.94 10.32 116.97 10.37 116.99 10.42C117.01 10.47 117.01 10.52 117 10.58C116.98 10.63 116.96 10.68 116.92 10.72C116.88 10.75 116.84 10.78 116.79 10.8C112.35 12.1 108.21 14.23 104.56 17.07C99.82 20.78 101.51 22.81 100.65 22.81ZM109.85 0.63C103.56 1.52 97.56 4.67 93.75 9.09C92.09 11.06 92.03 12.45 93.51 14.38C96.49 18 99.26 20.02 100.48 21.54C100.97 19.36 102.79 17.7 104.2 16.6C107.76 13.82 111.8 11.72 116.11 10.37C113.22 7.71 111.07 4.36 109.85 0.63Z" fill="#000000" fill-opacity="1.000000" fill-rule="nonzero"/>
	<path id="vector_7" d="M107.56 11.11C105.98 9.35 104.63 7.4 103.55 5.3C103.51 5.23 103.51 5.14 103.53 5.07C103.56 4.99 103.61 4.93 103.68 4.89C103.75 4.86 103.83 4.85 103.91 4.88C103.99 4.9 104.05 4.96 104.08 5.03C105.15 7.08 106.47 9 108.01 10.72C108.06 10.78 108.09 10.86 108.08 10.94C108.07 11.01 108.04 11.09 107.98 11.14C107.92 11.19 107.84 11.22 107.77 11.21C107.69 11.21 107.61 11.17 107.56 11.11Z" fill="#000000" fill-opacity="1.000000" fill-rule="nonzero"/>
	<path id="vector_8" d="M104.16 11.52C102.82 10.02 101.76 8.28 101.02 6.41C101.01 6.37 101 6.33 101 6.29C101 6.25 101.01 6.21 101.03 6.18C101.04 6.14 101.07 6.11 101.1 6.08C101.12 6.05 101.16 6.03 101.19 6.02C101.23 6 101.27 6 101.31 6C101.35 6 101.39 6.01 101.42 6.02C101.46 6.04 101.49 6.06 101.52 6.09C101.55 6.12 101.57 6.15 101.58 6.19C102.29 8 103.31 9.67 104.61 11.12C104.63 11.15 104.65 11.19 104.67 11.22C104.68 11.26 104.69 11.3 104.68 11.34C104.68 11.38 104.67 11.42 104.65 11.45C104.64 11.49 104.61 11.52 104.58 11.55C104.55 11.57 104.52 11.59 104.48 11.61C104.45 11.62 104.41 11.62 104.37 11.62C104.33 11.62 104.29 11.61 104.25 11.59C104.22 11.58 104.19 11.55 104.16 11.52Z" fill="#000000" fill-opacity="1.000000" fill-rule="nonzero"/>
	<path id="vector_9" d="M102.64 14.13C100.77 12.36 99.33 10.19 98.43 7.78C98.4 7.71 98.4 7.62 98.43 7.55C98.47 7.48 98.53 7.42 98.6 7.39C98.68 7.37 98.76 7.37 98.83 7.4C98.9 7.43 98.96 7.49 98.99 7.57C99.87 9.89 101.25 11.99 103.05 13.7C103.11 13.76 103.14 13.83 103.14 13.91C103.14 13.99 103.11 14.07 103.06 14.12C103 14.18 102.93 14.22 102.85 14.22C102.77 14.22 102.69 14.19 102.64 14.13Z" fill="#000000" fill-opacity="1.000000" fill-rule="nonzero"/>
	<path id="vector_10" d="M100.05 15.03C98.63 13.79 97.47 12.27 96.65 10.56C96.62 10.49 96.62 10.41 96.65 10.33C96.67 10.26 96.73 10.2 96.8 10.17C96.87 10.13 96.95 10.13 97.02 10.15C97.1 10.18 97.16 10.23 97.2 10.3C97.98 11.93 99.08 13.39 100.45 14.58C100.51 14.64 100.54 14.71 100.54 14.79C100.55 14.87 100.52 14.94 100.47 15C100.42 15.06 100.35 15.1 100.27 15.1C100.19 15.11 100.11 15.08 100.05 15.03Z" fill="#000000" fill-opacity="1.000000" fill-rule="nonzero"/>
	<path id="vector_11" d="M18.86 62.88C17.69 60.79 17.56 58.26 17.32 55.83C21.03 54.84 24.66 53.57 28.18 52.02C28.71 54.75 29.87 57.32 31.58 59.51C33.28 61.71 35.48 63.47 37.99 64.66C37.5 64.42 33.04 68.07 32.32 68.56C30.86 69.53 29.32 70.91 27.45 70.26C23.84 68.83 20.82 66.23 18.86 62.88Z" fill="#FFFFFF" fill-opacity="1.000000" fill-rule="nonzero"/>
	<path id="vector_12" d="M27.35 70.54C23.69 69.07 20.61 66.43 18.6 63.03C17.44 61.03 17.25 58.16 17.02 55.86C17.01 55.79 17.03 55.71 17.07 55.66C17.11 55.6 17.18 55.56 17.25 55.54C20.94 54.55 24.56 53.28 28.06 51.74C28.11 51.72 28.15 51.72 28.2 51.72C28.24 51.72 28.28 51.73 28.32 51.75C28.36 51.77 28.4 51.8 28.42 51.84C28.45 51.88 28.47 51.92 28.48 51.96C29 54.64 30.15 57.16 31.82 59.32C33.5 61.48 35.65 63.21 38.12 64.39C38.18 64.42 38.24 64.48 38.27 64.55C38.29 64.62 38.3 64.69 38.27 64.76C38.25 64.83 38.2 64.89 38.13 64.93C38.07 64.96 37.99 64.97 37.92 64.95C37.25 65.07 33.86 67.83 31.9 69.21C30.46 70.21 29.05 71.13 27.35 70.54ZM19.12 62.73C21.04 66.03 24.02 68.58 27.57 69.98C29.02 70.48 30.31 69.59 31.55 68.72C33.54 67.33 35.91 65.35 37.23 64.62C34.89 63.39 32.84 61.66 31.24 59.56C29.64 57.45 28.52 55.02 27.96 52.44C24.61 53.89 21.16 55.1 17.64 56.05C17.86 58.31 18.02 60.77 19.12 62.73Z" fill="#000000" fill-opacity="1.000000" fill-rule="nonzero"/>
	<path id="vector_13" d="M40.58 83.07C41.1 83.77 41.49 84.57 41.72 85.42C45.53 81.77 49.26 77.96 53.31 74.63C51.27 71.85 48.49 69.69 45.29 68.39C42.14 67.14 38.84 66.3 35.48 65.88C33.2 65.58 31.58 66.77 29.8 68.15C26.79 70.49 23.32 73.09 21.21 76.34C24.02 76.3 26.82 76.6 29.56 77.23C32.14 77.77 36.12 78.61 38.07 80.55C39.02 81.27 39.87 82.11 40.58 83.07Z" fill="#FFFFFF" fill-opacity="1.000000" fill-rule="nonzero"/>
	<path id="vector_14" d="M41.43 85.5C41.21 84.69 40.84 83.93 40.35 83.25C39.65 82.32 38.82 81.49 37.89 80.79C36.01 78.92 32.21 78.03 29.5 77.52C26.79 76.87 24.01 76.57 21.22 76.64C21.16 76.64 21.11 76.63 21.06 76.6C21.02 76.57 20.98 76.53 20.95 76.48C20.92 76.44 20.91 76.38 20.91 76.33C20.91 76.27 20.93 76.22 20.96 76.17C23.07 72.93 26.54 70.3 29.62 67.91C31.32 66.59 33.09 65.23 35.52 65.58C38.91 65.98 42.23 66.83 45.4 68.11C48.66 69.43 51.48 71.62 53.55 74.46C53.6 74.52 53.62 74.6 53.61 74.67C53.6 74.75 53.56 74.82 53.5 74.87C49.47 78.17 45.7 82.02 41.93 85.63C41.89 85.67 41.84 85.69 41.79 85.71C41.74 85.72 41.69 85.72 41.64 85.71C41.59 85.69 41.55 85.67 41.51 85.63C41.47 85.6 41.45 85.55 41.43 85.5ZM40.82 82.88C41.27 83.48 41.62 84.16 41.86 84.87C45.44 81.42 49.05 77.77 52.9 74.59C50.91 71.95 48.24 69.9 45.17 68.67C42.06 67.41 38.78 66.57 35.44 66.18C33.25 65.86 31.66 67.09 29.99 68.39C27.12 70.61 23.87 73.07 21.78 76.03C24.43 76.01 27.06 76.31 29.63 76.94C32.39 77.46 36.32 78.38 38.28 80.34C39.24 81.07 40.1 81.92 40.82 82.88Z" fill="#000000" fill-opacity="1.000000" fill-rule="nonzero"/>
	<path id="vector_15" d="M15.37 55.83C14.07 56.85 12.83 57.93 11.64 59.07C9.74 56.6 4.74 54.05 0.29 54.05L5.4 50.72C6.18 50.11 7.08 49.67 8.05 49.45C9.02 49.22 10.02 49.22 10.99 49.43C12.85 49.69 14.66 50.23 16.34 51.05C17.65 51.68 18.94 52.1 19.99 53.15C19.67 52.67 17.49 54.22 15.37 55.83Z" fill="#FFFFFF" fill-opacity="1.000000" fill-rule="nonzero"/>
	<path id="vector_16" d="M11.41 59.25C9.55 56.85 4.63 54.34 0.29 54.34C0.23 54.34 0.17 54.32 0.12 54.28C0.06 54.25 0.03 54.19 0.01 54.13C-0.01 54.07 -0.01 54 0.01 53.94C0.04 53.88 0.08 53.83 0.13 53.79C6.24 49.82 6.58 49.49 8.01 49.13C10.71 48.68 14.03 49.61 16.48 50.77C17.77 51.42 19.05 51.82 20.13 52.87C20.52 53.16 20.12 53.69 19.74 53.32C19.6 53.33 18.82 53.59 15.56 56.07C14.28 57.04 13.04 58.18 11.85 59.29C11.82 59.32 11.78 59.34 11.74 59.36C11.7 59.37 11.66 59.37 11.62 59.37C11.58 59.37 11.54 59.36 11.5 59.33C11.46 59.31 11.43 59.29 11.41 59.25ZM1.25 53.78C5.27 54.06 9.74 56.35 11.68 58.63C12.8 57.56 13.97 56.54 15.2 55.59C16.43 54.54 17.79 53.63 19.24 52.89C18.28 52.27 17.27 51.75 16.21 51.31C13.9 50.21 10.68 49.3 8.13 49.72C6.81 50.05 6.36 50.45 1.25 53.78Z" fill="#000000" fill-opacity="1.000000" fill-rule="nonzero"/>
	<path id="vector_17" d="M30.74 73.68C32.57 72.01 34.43 70.4 36.26 68.89C36.32 68.84 36.4 68.82 36.48 68.83C36.55 68.84 36.63 68.87 36.68 68.94C36.73 69 36.75 69.07 36.74 69.15C36.74 69.23 36.7 69.3 36.64 69.35C34.82 70.85 32.97 72.46 31.14 74.13C31.08 74.18 31 74.2 30.93 74.2C30.85 74.19 30.78 74.16 30.73 74.1C30.67 74.04 30.65 73.97 30.65 73.89C30.65 73.81 30.68 73.74 30.74 73.68Z" fill="#000000" fill-opacity="1.000000" fill-rule="nonzero"/>
	<path id="vector_18" d="M33.63 74.27C35.01 72.71 36.58 71.34 38.31 70.17C38.38 70.13 38.46 70.12 38.53 70.13C38.61 70.15 38.67 70.19 38.72 70.26C38.76 70.32 38.78 70.4 38.76 70.48C38.75 70.56 38.71 70.62 38.64 70.67C36.96 71.81 35.43 73.15 34.08 74.67C34.03 74.73 33.95 74.77 33.87 74.77C33.79 74.78 33.71 74.75 33.66 74.7C33.6 74.64 33.56 74.57 33.56 74.49C33.55 74.41 33.58 74.33 33.63 74.27Z" fill="#000000" fill-opacity="1.000000" fill-rule="nonzero"/>
	<path id="vector_19" d="M36.15 75.32C37.91 73.46 39.96 71.91 42.23 70.72C42.3 70.68 42.38 70.68 42.46 70.7C42.53 70.72 42.59 70.78 42.63 70.85C42.67 70.92 42.67 71 42.65 71.08C42.63 71.15 42.57 71.22 42.5 71.25C40.3 72.41 38.3 73.92 36.58 75.73C36.53 75.78 36.45 75.81 36.38 75.81C36.3 75.81 36.23 75.78 36.17 75.73C36.12 75.67 36.09 75.6 36.08 75.53C36.08 75.45 36.1 75.38 36.15 75.32Z" fill="#000000" fill-opacity="1.000000" fill-rule="nonzero"/>
	<path id="vector_20" d="M22.75 61.48C22.68 61.48 22.61 61.45 22.56 61.41C22.51 61.37 22.47 61.31 22.46 61.24C22.44 61.17 22.45 61.1 22.48 61.04C22.51 60.98 22.56 60.93 22.63 60.9L27.65 58.63C27.72 58.6 27.8 58.6 27.88 58.63C27.95 58.66 28.01 58.72 28.04 58.79C28.07 58.86 28.08 58.94 28.05 59.01C28.02 59.09 27.97 59.15 27.9 59.18C22.56 61.59 22.85 61.48 22.75 61.48Z" fill="#000000" fill-opacity="1.000000" fill-rule="nonzero"/>
	<path id="vector_21" d="M22.79 63.41C28.68 60.92 28.93 60 29.25 60.54C29.29 60.61 29.3 60.69 29.28 60.77C29.26 60.85 29.21 60.91 29.14 60.95C27.17 62.09 25.13 63.09 23.03 63.97C22.95 64 22.87 64 22.8 63.97C22.73 63.94 22.67 63.88 22.64 63.81C22.61 63.73 22.61 63.65 22.64 63.58C22.66 63.51 22.72 63.45 22.79 63.41Z" fill="#000000" fill-opacity="1.000000" fill-rule="nonzero"/>
	<path id="vector_22" d="M25.67 65.53C25.6 65.53 25.53 65.51 25.48 65.46C25.43 65.42 25.39 65.36 25.38 65.29C25.36 65.23 25.37 65.16 25.4 65.1C25.43 65.03 25.48 64.99 25.55 64.96C26.99 64.32 28.46 63.58 29.9 62.78C29.97 62.74 30.05 62.73 30.13 62.76C30.21 62.78 30.27 62.83 30.31 62.9C30.35 62.97 30.36 63.05 30.33 63.13C30.31 63.2 30.26 63.27 30.19 63.31C28.72 64.13 27.21 64.87 25.67 65.53Z" fill="#000000" fill-opacity="1.000000" fill-rule="nonzero"/>
	<path id="vector_23" d="M6.05 53.13C5.99 53.13 5.93 53.11 5.88 53.07C5.83 53.04 5.79 52.99 5.77 52.93C5.75 52.87 5.75 52.81 5.76 52.75C5.78 52.69 5.81 52.64 5.86 52.6C6.87 51.76 7.98 51.04 9.16 50.45C9.23 50.42 9.31 50.42 9.38 50.44C9.46 50.47 9.52 50.52 9.55 50.59C9.59 50.66 9.59 50.74 9.57 50.82C9.55 50.89 9.5 50.95 9.43 50.99C6.96 52.22 6.37 53.13 6.05 53.13Z" fill="#000000" fill-opacity="1.000000" fill-rule="nonzero"/>
	<path id="vector_24" d="M7.47 53.5C8.81 52.29 10.34 51.32 12.01 50.61C12.08 50.58 12.16 50.58 12.23 50.61C12.3 50.64 12.36 50.69 12.39 50.76C12.43 50.84 12.43 50.92 12.4 50.99C12.38 51.06 12.32 51.12 12.25 51.16C10.65 51.83 9.17 52.77 7.88 53.94C7.82 53.99 7.74 54.02 7.66 54.02C7.58 54.02 7.51 53.98 7.45 53.93C7.4 53.87 7.37 53.79 7.37 53.71C7.37 53.63 7.41 53.56 7.47 53.5Z" fill="#000000" fill-opacity="1.000000" fill-rule="nonzero"/>
	<path id="vector_25" d="M9.72 54.49C10.78 53.32 12.05 52.36 13.46 51.67C13.53 51.63 13.62 51.63 13.69 51.65C13.77 51.68 13.83 51.74 13.86 51.81C13.9 51.88 13.9 51.96 13.87 52.04C13.84 52.11 13.79 52.17 13.72 52.21C12.37 52.87 11.16 53.78 10.16 54.9C10.11 54.96 10.03 54.99 9.95 54.99C9.87 55 9.8 54.97 9.74 54.91C9.68 54.86 9.64 54.78 9.64 54.7C9.64 54.62 9.67 54.55 9.72 54.49Z" fill="#000000" fill-opacity="1.000000" fill-rule="nonzero"/>
	<path id="vector_26" d="M37.26 110.47C37.09 111.84 36.69 114.28 38.31 115.01C38.78 115.18 39.28 115.23 39.77 115.17C47.63 114.62 55.4 113.23 62.96 111.03C65.15 110.39 68.37 109.52 69.44 107.22C71.18 103.54 72.44 97.07 73.01 93.04C73.27 91.17 73.82 87.28 70.82 87.93L49.82 92.23C50.07 90.28 50.15 88.01 48.61 86.71C47.07 85.42 44.73 86.08 43.42 87.44C40.76 90.22 40.22 95.14 39.37 98.71C38.44 102.59 37.74 106.51 37.26 110.47Z" fill="#4880FF" fill-opacity="1.000000" fill-rule="nonzero"/>
	<path id="vector_27" d="M38.22 115.29C36.46 114.5 36.76 112.11 36.93 110.68C37.44 106.64 38.16 102.62 39.08 98.64C39.98 95.04 40.46 90.06 43.21 87.23C44.58 85.77 47.12 85.06 48.8 86.48C50.33 87.77 50.38 89.87 50.17 91.85L70.76 87.64C71.09 87.53 71.45 87.51 71.79 87.58C72.13 87.65 72.45 87.8 72.72 88.02C73.85 89.06 73.52 91.56 73.31 93.08C72.66 97.67 71.59 103.09 69.72 107.34C68.55 109.69 65.52 110.6 63.04 111.32C55.46 113.52 47.67 114.91 39.79 115.47C39.26 115.54 38.72 115.48 38.22 115.29ZM37.56 110.5C37.38 111.98 37.07 114.12 38.44 114.73C38.85 114.88 39.29 114.93 39.72 114.87C47.57 114.32 55.33 112.94 62.87 110.75C65.14 110.08 68.11 109.21 69.17 107.09C71.01 102.91 72.07 97.52 72.71 92.99C73.07 90.48 73.28 87.7 70.88 88.22L49.88 92.52C49.84 92.53 49.79 92.53 49.74 92.51C49.7 92.5 49.66 92.48 49.62 92.44C49.58 92.41 49.56 92.37 49.54 92.33C49.53 92.28 49.52 92.23 49.53 92.19C49.77 90.26 49.83 88.13 48.41 86.94C47 85.75 44.83 86.38 43.64 87.65C41.03 90.33 40.54 95.25 39.66 98.78C38.76 102.65 38.06 106.56 37.56 110.5Z" fill="#000000" fill-opacity="1.000000" fill-rule="nonzero"/>
	<path id="vector_28" d="M67.25 95.79C67.25 96.12 49.91 98.71 48.04 98.79C49.52 92.86 46.81 84.83 43.34 79.74C42.85 79.02 40.1 74.8 39.21 74.96C56.59 72.21 56.49 72.2 56.96 72.2C57.7 72.38 58.34 72.85 58.74 73.5C63.81 79.88 66.79 87.66 67.25 95.79Z" fill="#FFFFFF" fill-opacity="1.000000" fill-rule="nonzero"/>
	<path id="vector_29" d="M48.04 99.09C48 99.09 47.95 99.08 47.91 99.06C47.87 99.04 47.83 99.01 47.8 98.98C47.78 98.94 47.76 98.9 47.75 98.85C47.74 98.81 47.74 98.76 47.75 98.72C49.19 92.98 46.46 84.86 43.09 79.91C40.29 75.79 39.46 75.25 39.26 75.25C39.18 75.26 39.1 75.25 39.04 75.2C38.97 75.15 38.93 75.09 38.92 75.01C38.9 74.93 38.92 74.85 38.96 74.79C39.01 74.72 39.08 74.68 39.15 74.66L56.1 71.99C56.38 71.91 56.67 71.89 56.96 71.9C57.38 71.99 57.78 72.16 58.13 72.41C58.48 72.66 58.77 72.97 59 73.34C64.1 79.75 67.09 87.59 67.55 95.77C67.55 96.11 67.55 96.28 58.39 97.68C57.18 97.87 49.12 99.08 48.04 99.09ZM40.14 75.11C41.43 76.48 42.59 77.98 43.59 79.58C46.96 84.54 49.69 92.59 48.43 98.46C51.54 98.18 65.26 96.06 66.94 95.6C66.45 87.6 63.5 79.95 58.51 73.69C58.33 73.39 58.1 73.13 57.82 72.93C57.54 72.73 57.23 72.58 56.89 72.5C56.48 72.52 56.88 72.47 40.14 75.11Z" fill="#000000" fill-opacity="1.000000" fill-rule="nonzero"/>
	<path id="vector_30" d="M49.57 80.43C51.99 79.69 54.5 79.27 57.03 79.2C57.11 79.2 57.19 79.23 57.25 79.28C57.3 79.33 57.34 79.41 57.34 79.49C57.34 79.57 57.31 79.65 57.26 79.7C57.21 79.76 57.13 79.8 57.05 79.8C54.58 79.87 52.12 80.27 49.75 81C49.68 81.02 49.6 81 49.54 80.97C49.47 80.93 49.42 80.87 49.4 80.8C49.38 80.72 49.38 80.65 49.41 80.58C49.45 80.51 49.5 80.46 49.57 80.43Z" fill="#000000" fill-opacity="1.000000" fill-rule="nonzero"/>
	<path id="vector_31" d="M50.47 83.45C50.4 83.45 50.33 83.42 50.27 83.37C50.22 83.32 50.18 83.26 50.18 83.18C50.17 83.11 50.19 83.04 50.23 82.98C50.27 82.92 50.33 82.87 50.4 82.86C53.14 82.22 55.91 81.76 58.71 81.47C58.79 81.46 58.87 81.48 58.93 81.53C58.99 81.58 59.03 81.66 59.04 81.74C59.05 81.82 59.03 81.9 58.98 81.96C58.93 82.02 58.86 82.06 58.78 82.07C55.98 82.34 53.21 82.8 50.47 83.45Z" fill="#000000" fill-opacity="1.000000" fill-rule="nonzero"/>
	<path id="vector_32" d="M51.28 86.12C51.21 86.12 51.14 86.09 51.08 86.04C51.03 85.99 50.99 85.93 50.99 85.85C50.98 85.78 51 85.7 51.04 85.64C51.09 85.58 51.15 85.54 51.23 85.53C53.25 85.14 55.29 84.86 57.34 84.71C57.38 84.71 57.42 84.71 57.46 84.73C57.49 84.74 57.53 84.76 57.56 84.78C57.59 84.81 57.61 84.84 57.63 84.88C57.65 84.91 57.66 84.95 57.66 84.99C57.67 85.03 57.66 85.07 57.65 85.11C57.64 85.14 57.62 85.18 57.59 85.21C57.57 85.24 57.54 85.26 57.5 85.28C57.47 85.3 57.43 85.31 57.39 85.31C55.34 85.45 53.3 85.72 51.28 86.12Z" fill="#000000" fill-opacity="1.000000" fill-rule="nonzero"/>
	<path id="vector_33" d="M51.61 88.8C51.53 88.8 51.45 88.78 51.39 88.72C51.33 88.67 51.29 88.6 51.29 88.52C51.29 88.44 51.31 88.36 51.36 88.3C51.42 88.24 51.49 88.2 51.57 88.2C61.02 87.02 61.36 86.38 61.47 86.98C61.49 87.06 61.47 87.14 61.42 87.21C61.38 87.27 61.31 87.32 61.23 87.33C57.06 88.08 51.88 88.8 51.61 88.8Z" fill="#000000" fill-opacity="1.000000" fill-rule="nonzero"/>
	<path id="vector_34" d="M59.15 112.17C55.5 112.87 41.07 115.9 37.91 115.01C39.69 114.82 42.92 104.06 45.85 97.58C46.59 95.96 47.8 96.29 49.5 95.95C57.46 94.39 65.37 92.73 73.42 91.58C74.06 91.48 74.87 91.42 75.2 91.98C75.32 92.21 75.38 92.46 75.38 92.71C75.38 92.97 75.32 93.22 75.2 93.44C73.88 98.22 71.97 102.83 69.52 107.14C69.14 107.98 68.58 108.73 67.88 109.33C67.18 109.93 66.36 110.37 65.47 110.63C63.45 111.2 61.33 111.75 59.15 112.17Z" fill="#4880FF" fill-opacity="1.000000" fill-rule="nonzero"/>
	<path id="vector_35" d="M37.83 115.29C37.76 115.27 37.7 115.23 37.66 115.18C37.62 115.12 37.61 115.05 37.61 114.98C37.62 114.91 37.65 114.85 37.7 114.8C37.74 114.75 37.81 114.72 37.88 114.71C39.37 114.55 42.98 103.16 45.58 97.45C46.39 95.66 47.78 95.98 49.45 95.66C57.46 94.03 65.5 92.55 73.37 91.28C74 91.2 75.03 91.07 75.46 91.83C75.61 92.1 75.68 92.4 75.68 92.7C75.68 93.01 75.61 93.31 75.47 93.58C74.16 98.37 72.25 102.97 69.79 107.29C69.38 108.16 68.8 108.93 68.08 109.56C67.35 110.18 66.5 110.64 65.58 110.91C61.94 111.93 61.01 112.1 58.49 112.61C55.16 113.28 41.03 116.2 37.83 115.29ZM38.68 114.84C42.73 115.21 55.18 112.63 59.09 111.87C61.32 111.44 63.51 110.87 65.39 110.34C66.24 110.1 67.03 109.67 67.7 109.09C68.36 108.52 68.9 107.8 69.26 107C71.71 102.71 73.61 98.13 74.91 93.36C75.02 93.17 75.08 92.96 75.08 92.74C75.08 92.53 75.03 92.31 74.93 92.12C74.72 91.75 74.09 91.8 73.46 91.87C56.49 94.62 50.89 96.13 48.44 96.4C47.31 96.53 46.62 96.61 46.13 97.7C43.36 103.79 40.76 112.61 38.68 114.84Z" fill="#000000" fill-opacity="1.000000" fill-rule="nonzero"/>
	<path id="vector_36" d="M83.47 48.61C82.04 44.95 82.17 45.36 82.17 45.29C82.17 44.88 82.5 44.72 82.74 44.4C83.05 44.16 83.25 43.81 83.31 43.42C83.31 42.72 82.77 41.57 82.25 41.4C81.62 41.08 78.66 41.1 77.8 41.96C77.66 42.08 77.56 42.22 77.48 42.38C77.41 42.54 77.37 42.71 77.36 42.88C77.35 43.05 77.38 43.23 77.44 43.39C77.5 43.55 77.59 43.7 77.71 43.83C77.8 43.91 77.88 43.99 77.96 43.99C77.72 44.21 77.55 44.49 77.46 44.79C77.38 45.1 77.37 45.43 77.46 45.74C77.54 46.04 77.71 46.32 77.94 46.55C78.17 46.77 78.46 46.92 78.77 46.99L79.09 49.26C79.2 50.94 82.92 49.7 83.47 48.61Z" fill="#4880FF" fill-opacity="1.000000" fill-rule="nonzero"/>
	<path id="vector_37" d="M86.22 57.67C84.46 55.33 83.02 52.77 81.91 50.05C82.56 49.82 83.13 49.43 83.57 48.91C83.66 48.74 83.72 48.65 83.67 48.5L82.39 45.24C82.41 45.11 82.49 45.02 82.64 44.87C83.11 44.52 83.42 44 83.52 43.43C83.54 43.21 83.51 42.99 83.43 42.79C83.34 42.45 83.2 42.13 83.01 41.83C82.82 41.45 82.49 41.16 82.09 41.02C81.69 40.87 81.25 40.89 80.87 41.06C80.5 40.9 80.09 40.85 79.69 40.91C79.29 40.98 78.93 41.16 78.63 41.43C78.43 41.38 78.22 41.38 78.02 41.44C77.82 41.49 77.64 41.6 77.5 41.75C76.79 42.47 76.63 43.82 77.62 44.22C76.68 45.17 76.9 46.91 78.25 47.27C78.27 47.29 78.29 47.3 78.31 47.32C78.55 48.18 78.71 48.97 78.87 49.88C79 50.55 80.61 50.39 81.33 50.23C82.46 53.01 83.94 55.63 85.74 58.03C85.76 58.07 85.79 58.09 85.83 58.11C85.86 58.13 85.9 58.15 85.94 58.15C85.98 58.16 86.02 58.16 86.05 58.15C86.09 58.14 86.13 58.12 86.16 58.1C86.19 58.07 86.22 58.04 86.24 58.01C86.26 57.98 86.27 57.94 86.28 57.9C86.28 57.86 86.28 57.82 86.27 57.78C86.26 57.74 86.25 57.71 86.22 57.67ZM78.2 42.02C78.12 42.13 78.04 42.27 78.01 42.41C77.97 42.54 77.96 42.68 77.98 42.81C78 42.95 78.04 43.08 78.12 43.2C78.19 43.32 78.28 43.42 78.39 43.5C78.26 43.6 78.1 43.67 77.93 43.7C77.13 43.54 77.66 42.1 78.2 42.02ZM78.25 47.27C78.26 47.27 78.3 47.31 78.31 47.32C78.3 47.31 78.26 47.27 78.25 47.27ZM78.31 47.32L78.36 47.29L78.31 47.32ZM79.45 49.67C79.29 48.79 79.13 48.03 78.9 47.19C78.89 46.9 78.73 46.81 78.62 46.78C78.56 46.73 78.49 46.7 78.42 46.69C77.57 46.53 77.34 45.24 78.11 44.58C78.53 44.28 78.93 43.96 79.29 43.6C79.31 43.56 79.31 43.52 79.31 43.48C79.31 43.44 79.3 43.41 79.28 43.37C79.26 43.34 79.24 43.3 79.21 43.28C79.18 43.25 79.14 43.23 79.11 43.22C78.9 43.16 78.73 43.03 78.61 42.85C78.53 42.73 78.59 42.52 78.71 42.34C78.84 42.06 79.06 41.82 79.34 41.67C79.61 41.52 79.93 41.46 80.24 41.5C79.35 42.45 79.63 43.91 80.94 43.32C81.1 43.24 81.27 43.18 81.44 43.16C81.52 43.16 81.6 43.13 81.65 43.07C81.71 43.01 81.74 42.94 81.74 42.86C81.74 42.78 81.71 42.7 81.65 42.65C81.6 42.59 81.52 42.56 81.44 42.56C80.75 42.56 80.14 43.33 80.35 42.47C80.43 42.18 80.6 41.93 80.85 41.76C81.09 41.59 81.39 41.51 81.69 41.54C82.29 41.54 82.74 42.47 82.88 42.99C82.91 43.11 82.93 43.24 82.93 43.37C82.83 43.87 82.7 43.94 82.21 44.45C82.08 44.55 81.98 44.69 81.91 44.84C81.83 44.99 81.79 45.16 81.79 45.33C81.79 45.4 81.7 45.12 83.06 48.6C82.58 49.05 82.01 49.37 81.38 49.56C80.75 49.75 80.09 49.78 79.45 49.67Z" fill="#000000" fill-opacity="1.000000" fill-rule="nonzero"/>
	<path id="vector_38" d="M75.28 43.99C74.83 43.94 74.39 43.8 73.98 43.59C73.48 43.25 73.09 42.77 72.85 42.21C69.61 36.05 71.23 27.13 75.2 21.7C79.98 22.59 84.85 23.32 89.63 23.97C85.55 29.47 84.08 37.12 87.52 43.67C87.52 43.91 82.25 44.32 81.85 44.32C79.65 44.48 77.45 44.37 75.28 43.99Z" fill="#FFFFFF" fill-opacity="1.000000" fill-rule="nonzero"/>
	<path id="vector_39" d="M80.04 44.68C78.84 44.68 74.81 44.5 73.81 43.83C73.26 43.46 72.83 42.94 72.57 42.32C69.09 35.71 71.2 26.66 74.96 21.52C75.24 21.13 75.21 21.71 89.67 23.67C89.72 23.68 89.77 23.7 89.81 23.73C89.85 23.76 89.88 23.8 89.9 23.85C89.92 23.9 89.93 23.95 89.92 24C89.92 24.05 89.9 24.1 89.87 24.14C87.81 26.91 86.49 30.16 86.03 33.58C85.59 37.04 86.22 40.56 87.82 43.67C87.82 44.48 80.84 44.68 80.04 44.68ZM75.33 43.69C77.47 44.07 79.66 44.18 81.82 44.01C82.34 44.01 86.05 43.7 87.1 43.5C83.92 37.16 85.16 29.75 89.09 24.2C83.76 23.47 79.37 22.78 75.33 22.03C71.75 27.05 69.77 35.71 73.12 42.07C73.33 42.59 73.69 43.03 74.15 43.34C74.52 43.53 74.92 43.65 75.33 43.69Z" fill="#000000" fill-opacity="1.000000" fill-rule="nonzero"/>
	<path id="vector_40" d="M81.2 42.94C80.55 42.21 79.17 42.7 78.76 43.42C78.67 43.52 78.63 43.83 78.76 43.83C79.01 44.07 79.32 44.24 79.66 44.32C79.52 44.47 79.42 44.65 79.36 44.84C79.29 45.04 79.27 45.24 79.28 45.44C79.3 45.65 79.35 45.85 79.44 46.03C79.54 46.21 79.66 46.37 79.82 46.51L79.9 46.59L81.76 44.96C81.78 44.25 81.58 43.54 81.2 42.94Z" fill="#4880FF" fill-opacity="1.000000" fill-rule="nonzero"/>
	<path id="vector_41" d="M79.9 46.89C79.77 46.89 79.71 46.82 79.61 46.72C79.29 46.44 79.08 46.07 79.01 45.66C78.93 45.26 79 44.84 79.19 44.47C78.98 44.38 78.79 44.25 78.61 44.1C78.32 43.98 78.32 43.47 78.52 43.24C79.06 42.34 80.65 41.86 81.42 42.73C81.86 43.39 82.08 44.17 82.06 44.96C82.06 45.04 82.03 45.12 81.98 45.17C81.92 45.23 81.84 45.26 81.76 45.26C81.68 45.26 81.61 45.23 81.55 45.17C81.5 45.12 81.46 45.04 81.46 44.96C81.48 44.3 81.3 43.66 80.95 43.1C80.5 42.61 79.36 42.97 79.03 43.57C79.02 43.59 79 43.61 78.99 43.62C79.2 43.82 79.45 43.96 79.73 44.02C79.78 44.03 79.82 44.06 79.86 44.1C79.9 44.13 79.93 44.18 79.94 44.22C79.96 44.27 79.96 44.32 79.95 44.38C79.94 44.43 79.91 44.47 79.88 44.51C79.66 44.76 79.56 45.09 79.58 45.42C79.61 45.75 79.76 46.06 80.01 46.28L80.11 46.37C80.15 46.41 80.18 46.46 80.19 46.52C80.21 46.58 80.2 46.64 80.18 46.7C80.16 46.75 80.12 46.8 80.07 46.83C80.02 46.87 79.96 46.89 79.9 46.89Z" fill="#000000" fill-opacity="1.000000" fill-rule="nonzero"/>
	<path id="vector_42" d="M79.74 82.34C78.6 83.57 77.57 84.9 76.66 86.31C76.2 87.22 76.64 87.41 77.14 87.29C78.9 86.87 80.58 86.16 82.09 85.18L79.74 82.34Z" fill="#5A8CFF" fill-opacity="1.000000" fill-rule="nonzero"/>
	<path id="vector_43" d="M76.39 86.18C77.31 84.74 78.36 83.38 79.52 82.13C79.57 82.07 79.65 82.04 79.73 82.04C79.81 82.03 79.89 82.06 79.94 82.12C80 82.17 80.04 82.25 80.04 82.33C80.04 82.4 80.01 82.48 79.96 82.54C78.83 83.76 77.81 85.07 76.91 86.47C76.75 86.8 76.54 87.12 77.07 86.99C78.8 86.58 80.44 85.88 81.93 84.92C82 84.88 82.08 84.86 82.16 84.88C82.23 84.9 82.3 84.95 82.34 85.01C82.39 85.08 82.4 85.16 82.38 85.24C82.36 85.32 82.32 85.38 82.25 85.43C80.71 86.43 79 87.15 77.21 87.57C76.39 87.78 75.83 87.29 76.39 86.18Z" fill="#000000" fill-opacity="1.000000" fill-rule="nonzero"/>
	<path id="vector_44" d="M102.92 51.37C102.28 51.21 101.71 51.04 101.14 50.88C109.25 53.88 113.3 64.58 110.14 75.36C106.98 86.25 97.54 93.17 89.04 91.22C89.74 91.44 90.45 91.62 91.17 91.74C106.09 95.31 114.35 88.42 117.6 77.23C120.84 66.04 118.57 55.02 102.92 51.37Z" fill="#FFFFFF" fill-opacity="1.000000" fill-rule="nonzero"/>
	<path id="vector_45" d="M98.52 92.97C93.94 92.97 88.53 91.57 86.82 90.71C86.75 90.68 86.7 90.62 86.67 90.54C86.64 90.47 86.65 90.39 86.68 90.32C86.71 90.25 86.77 90.19 86.84 90.16C86.92 90.13 87 90.13 87.07 90.16C96.96 94.24 106.78 85.87 109.85 75.28C112.95 64.73 109.07 54.14 101.04 51.16C100.97 51.14 100.9 51.08 100.87 51.01C100.84 50.94 100.83 50.86 100.85 50.79C100.88 50.71 100.93 50.65 101 50.62C101.07 50.58 101.15 50.57 101.22 50.59C101.79 50.76 102.35 50.92 103 51.08C117.16 54.38 121.72 64.1 117.89 77.31C114.91 87.58 108.14 92.97 98.52 92.97ZM92.87 91.8C105.23 94.17 113.87 89.01 117.31 77.15C120.99 64.44 116.76 55.31 103.86 51.91C110.39 56.11 113.25 65.81 110.43 75.45C107.69 84.89 100.36 91.41 92.87 91.8Z" fill="#000000" fill-opacity="1.000000" fill-rule="nonzero"/>
	<path id="vector_46" d="M110.26 75.33C113.48 64.14 109.05 53.05 100.36 50.54C91.67 48.04 82.01 55.08 78.79 66.26C75.57 77.45 80 88.55 88.69 91.05C97.38 93.55 107.04 86.51 110.26 75.33Z" fill="#5A8CFF" fill-opacity="1.000000" fill-rule="nonzero"/>
	<path id="vector_47" d="M92.26 91.84C81.75 91.84 74.62 79.7 78.51 66.19C81.78 54.87 91.61 47.73 100.44 50.27C109.26 52.81 113.79 64.09 110.53 75.41C107.72 85.18 100 91.84 92.26 91.84ZM96.77 50.32C89.29 50.32 81.8 56.82 79.06 66.34C75.89 77.36 80.24 88.32 88.77 90.78C97.29 93.23 106.81 86.27 109.98 75.25C113.56 62.85 107.5 50.32 96.77 50.32Z" fill="#000000" fill-opacity="1.000000" fill-rule="nonzero"/>
	<path id="vector_48" d="M95.39 63.97C90.34 62.52 84.72 66.59 82.86 73.06C81 79.52 83.59 85.96 88.64 87.42C94.07 88.98 99.45 84.29 101.17 78.33C103.03 71.87 100.44 65.42 95.39 63.97Z" fill="#000000" fill-opacity="1.000000" fill-rule="nonzero"/>
	<path id="vector_49" d="M84.68 79.64C84.61 79.64 84.55 79.61 84.49 79.57C84.44 79.53 84.4 79.46 84.39 79.4C84.37 79.33 84.39 79.26 84.42 79.2C84.45 79.14 84.5 79.09 84.57 79.06L91.75 76.03L95.51 66.9C95.54 66.83 95.6 66.77 95.68 66.75C95.75 66.72 95.83 66.72 95.9 66.75C95.97 66.78 96.03 66.83 96.06 66.91C96.09 66.98 96.09 67.06 96.07 67.13C92.17 76.57 92.27 76.46 92.1 76.53C84.7 79.66 84.78 79.64 84.68 79.64Z" fill="#FFFFFF" fill-opacity="1.000000" fill-rule="nonzero"/>
	<path id="vector_50" d="M92.21 55.43C91.95 55.63 91.74 55.89 91.59 56.19C91.45 56.49 91.39 56.82 91.4 57.15C91.48 58.22 92.71 58.29 93.31 57C93.9 55.74 93.1 54.8 92.21 55.43Z" fill="#000000" fill-opacity="1.000000" fill-rule="nonzero"/>
	<path id="vector_51" d="M101.03 58.23C100.24 57.85 99.29 59.09 99.37 60.08C99.36 60.19 99.38 60.29 99.41 60.38C99.45 60.48 99.5 60.57 99.57 60.64C99.64 60.72 99.72 60.78 99.81 60.82C99.91 60.86 100.01 60.89 100.11 60.89C101.2 60.89 102.04 58.7 101.03 58.23Z" fill="#000000" fill-opacity="1.000000" fill-rule="nonzero"/>
	<path id="vector_52" d="M94.09 56.7C93.93 56.7 94.09 56.79 91.62 54.68C91.56 54.62 91.53 54.55 91.52 54.47C91.52 54.39 91.54 54.32 91.59 54.26C91.64 54.2 91.72 54.16 91.8 54.15C91.87 54.15 91.95 54.17 92.01 54.22L94.28 56.17C94.33 56.21 94.36 56.26 94.38 56.32C94.39 56.38 94.39 56.44 94.37 56.5C94.35 56.56 94.31 56.61 94.26 56.64C94.21 56.68 94.15 56.7 94.09 56.7Z" fill="#000000" fill-opacity="1.000000" fill-rule="nonzero"/>
	<path id="vector_53" d="M99.92 56.86C99.84 56.86 99.77 56.83 99.71 56.77C99.66 56.71 99.62 56.64 99.62 56.56C99.62 56.48 99.66 56.4 99.71 56.35C99.77 56.29 99.84 56.26 99.92 56.26C101.02 56.26 102.12 56.18 103.2 56.02C103.28 56.01 103.36 56.02 103.43 56.07C103.49 56.12 103.53 56.19 103.54 56.27C103.56 56.35 103.54 56.43 103.49 56.49C103.44 56.56 103.37 56.6 103.29 56.61C102.18 56.78 101.05 56.86 99.92 56.86Z" fill="#000000" fill-opacity="1.000000" fill-rule="nonzero"/>
	<path id="vector_54" d="M95.14 61.99C94.47 61.81 93.8 61.68 93.12 61.58C92.47 61.58 91.98 61.26 91.98 60.61C92.31 59.23 94.41 58.59 95.63 59.07C96.68 59.48 98 60.2 98.14 61.5C98.23 62.31 98.06 63.69 97.01 63.2C96.19 62.71 95.91 62.25 95.14 61.99Z" fill="#FFFFFF" fill-opacity="1.000000" fill-rule="nonzero"/>
	<path id="vector_55" d="M97.41 63.61C96.6 63.61 95.96 62.59 95.06 62.28C94.4 62.11 93.74 61.97 93.08 61.88C92.9 61.89 92.73 61.86 92.56 61.81C92.39 61.75 92.24 61.66 92.11 61.54C91.98 61.42 91.88 61.28 91.8 61.12C91.73 60.96 91.69 60.79 91.68 60.61C92.04 58.98 94.33 58.23 95.74 58.79C97.39 59.43 98.29 60.33 98.44 61.47C98.53 62.39 98.33 63.61 97.41 63.61ZM93.11 61.28C93.82 61.38 94.52 61.51 95.21 61.7C96.07 61.91 96.24 62.39 97.16 62.95C97.41 63.06 97.52 62.98 97.56 62.96C97.7 62.75 97.8 62.52 97.85 62.27C97.9 62.03 97.89 61.77 97.84 61.53C97.73 60.63 96.95 59.9 95.52 59.35C94.43 58.91 92.54 59.51 92.27 60.68C92.29 61.17 92.95 61.28 93.11 61.28Z" fill="#000000" fill-opacity="1.000000" fill-rule="nonzero"/>
	<path id="vector_56" d="M83.63 30.02C80.93 29.8 78.25 29.36 75.61 28.72C75.54 28.7 75.47 28.65 75.43 28.58C75.39 28.51 75.38 28.43 75.4 28.36C75.42 28.28 75.47 28.21 75.53 28.17C75.6 28.13 75.68 28.12 75.76 28.14C78.35 28.77 81 29.2 83.66 29.43C83.73 29.43 83.8 29.47 83.85 29.53C83.91 29.59 83.93 29.66 83.93 29.74C83.92 29.81 83.89 29.89 83.84 29.94C83.78 29.99 83.71 30.02 83.63 30.02Z" fill="#000000" fill-opacity="1.000000" fill-rule="nonzero"/>
	<path id="vector_57" d="M82.66 32.86C80 32.88 77.35 32.52 74.79 31.8C74.71 31.77 74.65 31.72 74.61 31.65C74.57 31.58 74.56 31.5 74.59 31.42C74.61 31.35 74.66 31.28 74.73 31.25C74.8 31.21 74.88 31.2 74.96 31.22C77.46 31.93 80.05 32.28 82.66 32.26C82.74 32.26 82.81 32.29 82.87 32.35C82.93 32.41 82.96 32.48 82.96 32.56C82.96 32.64 82.93 32.72 82.87 32.77C82.81 32.83 82.74 32.86 82.66 32.86Z" fill="#000000" fill-opacity="1.000000" fill-rule="nonzero"/>
	<path id="vector_58" d="M74.54 34.71C74.46 34.68 74.41 34.63 74.37 34.56C74.34 34.49 74.34 34.41 74.36 34.34C74.38 34.26 74.44 34.2 74.5 34.17C74.57 34.13 74.65 34.12 74.73 34.14C77.37 35.05 80.17 35.4 82.96 35.18C83.04 35.17 83.11 35.2 83.18 35.25C83.24 35.3 83.27 35.38 83.28 35.46C83.29 35.54 83.26 35.61 83.21 35.68C83.16 35.74 83.09 35.77 83.01 35.78C80.14 36.01 77.26 35.64 74.54 34.71Z" fill="#000000" fill-opacity="1.000000" fill-rule="nonzero"/>
	<path id="vector_59" d="M74.63 38.04C74.55 38.01 74.49 37.96 74.46 37.89C74.42 37.82 74.41 37.74 74.43 37.67C74.45 37.59 74.5 37.53 74.57 37.49C74.64 37.45 74.72 37.44 74.8 37.46C77.3 38.21 79.94 38.4 82.53 38.02C82.57 38.02 82.61 38.02 82.65 38.03C82.69 38.04 82.72 38.05 82.75 38.08C82.79 38.1 82.81 38.13 82.83 38.16C82.85 38.2 82.87 38.23 82.87 38.27C82.88 38.31 82.88 38.35 82.87 38.39C82.86 38.43 82.84 38.46 82.82 38.5C82.79 38.53 82.76 38.55 82.73 38.57C82.7 38.59 82.66 38.61 82.62 38.61C79.95 39.01 77.22 38.81 74.63 38.04Z" fill="#000000" fill-opacity="1.000000" fill-rule="nonzero"/>
	<path id="vector_60" d="M104.22 49.18L103.57 50.88C103.46 51.1 103.41 51.61 103.73 51.77C104.41 52.41 105.25 52.83 106.17 52.99C106.8 52.99 106.75 52.83 107.71 50.15L104.22 49.18Z" fill="#5A8CFF" fill-opacity="1.000000" fill-rule="nonzero"/>
	<path id="vector_61" d="M106.17 53.29C105.19 53.14 104.28 52.69 103.55 52.02C103.44 51.95 103.35 51.85 103.29 51.74C103.22 51.63 103.19 51.5 103.19 51.37C103.19 50.96 103.15 51.15 103.94 49.07C103.97 49 104.03 48.95 104.1 48.92C104.17 48.89 104.25 48.88 104.32 48.91C104.39 48.94 104.45 48.99 104.49 49.06C104.52 49.13 104.53 49.21 104.5 49.29C103.74 51.28 103.79 51.07 103.79 51.37C103.79 51.5 103.87 51.48 103.95 51.56C104.57 52.16 105.37 52.55 106.22 52.69C106.53 52.68 106.48 52.69 107.35 50.26C107.33 50.22 107.32 50.17 107.33 50.12C107.33 50.07 107.34 50.02 107.37 49.98C107.39 49.93 107.42 49.9 107.46 49.87C107.5 49.84 107.55 49.82 107.6 49.8C107.67 49.79 107.74 49.79 107.81 49.82C107.88 49.85 107.94 49.89 107.98 49.95C108.01 50 108.02 50.05 108.02 50.11C108.02 50.16 108.01 50.21 107.98 50.26C107.06 52.85 107.05 53.29 106.17 53.29Z" fill="#000000" fill-opacity="1.000000" fill-rule="nonzero"/>
	<path id="vector_62" d="M97.01 46.02C101.14 50.48 109.57 53.31 115.49 52.1C115.49 52.1 117.29 42.97 109 40.1C101.88 37.63 97.01 46.02 97.01 46.02Z" fill="#5A8CFF" fill-opacity="1.000000" fill-rule="nonzero"/>
	<path id="vector_63" d="M96.79 46.22C96.74 46.18 96.71 46.12 96.71 46.05C96.7 45.99 96.71 45.92 96.75 45.87C96.8 45.78 101.82 37.34 109.1 39.82C117.52 42.79 115.8 52.06 115.78 52.16C115.77 52.21 115.74 52.27 115.7 52.31C115.66 52.35 115.61 52.38 115.55 52.39C109.62 53.61 101.02 50.79 96.79 46.22ZM97.38 45.98C101.49 50.26 109.55 52.91 115.23 51.84C115.44 50.49 116.26 42.98 108.9 40.38C102.68 38.26 98.16 44.77 97.38 45.98Z" fill="#000000" fill-opacity="1.000000" fill-rule="nonzero"/>
	<path id="vector_64" d="M130.24 62.56C130.24 62.47 130.32 62.47 130.4 62.39C130.72 62.47 131.06 62.45 131.37 62.33C131.68 62.21 131.94 62 132.12 61.72C132.29 61.44 132.38 61.11 132.37 60.78C132.35 60.46 132.23 60.14 132.03 59.88L132.92 59.48C129.25 63.83 126.88 66.76 130.24 62.56Z" fill="#4880FF" fill-opacity="1.000000" fill-rule="nonzero"/>
	<path id="vector_65" d="M128.39 64.39C130.36 61.93 130.12 62.09 130.57 62.09C130.82 62.13 131.08 62.09 131.31 61.98C131.54 61.87 131.73 61.7 131.86 61.48C131.99 61.26 132.05 61 132.04 60.75C132.02 60.49 131.93 60.25 131.78 60.05C131.75 60.01 131.74 59.97 131.73 59.93C131.72 59.88 131.73 59.84 131.74 59.8C131.75 59.76 131.77 59.72 131.8 59.69C131.83 59.65 131.86 59.63 131.9 59.61L132.79 59.2C132.87 59.17 132.95 59.17 133.02 59.19C133.1 59.22 133.16 59.28 133.19 59.35C133.23 59.42 133.23 59.51 133.2 59.58C133.17 59.66 133.12 59.72 133.05 59.75L132.44 60.02C133.01 61.32 132.06 63 130.51 62.7C130.47 62.77 130.18 63.12 128.86 64.77C128.81 64.84 128.73 64.88 128.65 64.89C128.57 64.89 128.49 64.87 128.43 64.82C128.37 64.77 128.33 64.7 128.32 64.62C128.31 64.54 128.34 64.46 128.39 64.39Z" fill="#000000" fill-opacity="1.000000" fill-rule="nonzero"/>
	<path id="vector_66" d="M130.24 62.56C130.24 62.47 130.32 62.47 130.4 62.39C130.72 62.47 131.06 62.45 131.37 62.33C131.68 62.21 131.94 62 132.12 61.72C132.29 61.44 132.38 61.11 132.37 60.78C132.35 60.46 132.23 60.14 132.03 59.88L132.92 59.48C129.25 63.83 126.88 66.76 130.24 62.56Z" fill="#4880FF" fill-opacity="1.000000" fill-rule="nonzero"/>
	<path id="vector_67" d="M132.75 57.97C132.75 57.74 132.69 57.51 132.6 57.3C132.5 57.09 132.36 56.91 132.19 56.75C132.02 56.6 131.82 56.48 131.6 56.4C131.38 56.33 131.15 56.3 130.92 56.31C130.25 55.43 129.46 55.71 128.61 56.43C127.15 57.66 128.39 58.09 128.19 59.07L125.38 61.58C125.68 64.1 128.44 64.64 128.57 64.64C128.89 64.64 130.24 62.56 130.4 62.56C131.48 62.56 132.3 61.94 132.3 61.1C132.3 60.77 132.3 60.47 132.27 60.21C133.53 60.45 133.9 58.46 132.75 57.97Z" fill="#4880FF" fill-opacity="1.000000" fill-rule="nonzero"/>
	<path id="vector_68" d="M133.05 57.78C132.99 57.3 132.77 56.86 132.41 56.54C132.06 56.21 131.6 56.02 131.11 56.01C130.95 55.82 130.76 55.67 130.54 55.56C130.31 55.46 130.06 55.42 129.82 55.46C128.97 55.73 128.24 56.29 127.76 57.05C127.52 58.03 128.04 58.38 127.98 58.97C127.91 59.02 127.61 59.29 125.26 61.36C125.23 61.39 125.21 61.43 125.19 61.48C125.18 61.52 125.18 61.57 125.18 61.61C125.19 62.23 125.39 62.83 125.77 63.32C122.31 65.93 118.3 67.73 114.05 68.59C113.97 68.6 113.91 68.65 113.86 68.71C113.82 68.78 113.8 68.86 113.82 68.94C113.84 69.02 113.88 69.08 113.95 69.13C114.01 69.17 114.09 69.19 114.17 69.17C118.52 68.3 122.62 66.46 126.16 63.77C126.78 64.44 127.63 64.83 128.54 64.88C128.86 64.88 128.66 65.02 130.48 62.74C130.49 62.73 130.5 62.71 130.51 62.69C130.8 62.74 131.1 62.71 131.38 62.62C131.66 62.53 131.92 62.36 132.12 62.15C132.33 61.94 132.47 61.68 132.56 61.39C132.64 61.11 132.65 60.81 132.59 60.52C133.91 60.41 134.13 58.38 133.05 57.78ZM131.52 61.91C130.94 62.35 130.45 61.92 130.16 62.21C129.55 62.86 128.99 63.55 128.48 64.28C127.82 64.2 127.21 63.92 126.72 63.47C126.24 63.03 125.9 62.44 125.77 61.79C125.79 61.76 125.8 61.72 125.8 61.69C128.53 59.29 128.63 59.38 128.57 58.63C128.4 58.2 128.32 57.73 128.33 57.26C128.74 56.7 129.32 56.28 129.97 56.05C130.07 56.04 130.18 56.06 130.27 56.1C130.52 56.22 130.72 56.42 130.84 56.66C130.95 56.91 130.99 57.19 130.93 57.46C130.89 57.6 130.77 57.84 130.64 57.81C130.58 57.79 130.47 57.63 130.39 57.52C130.27 57.31 130.1 57.14 129.89 57.02C129.82 56.99 129.74 56.98 129.67 57.01C129.6 57.03 129.53 57.09 129.5 57.16C129.47 57.23 129.46 57.31 129.48 57.38C129.51 57.46 129.56 57.52 129.63 57.55C129.86 57.67 130.03 58.27 130.5 58.39C131.2 58.56 131.78 57.64 131.49 56.68C131.74 56.76 131.97 56.91 132.15 57.12C132.32 57.33 132.43 57.58 132.46 57.85L132.46 58.18C132.46 58.34 132.42 58.51 132.35 58.66C132.15 58.75 131.93 58.79 131.71 58.77C131.24 58.77 131.41 59.65 131.46 59.72C131.59 59.93 131.74 60.13 131.91 60.3C132.02 60.58 132.04 60.88 131.97 61.17C131.9 61.46 131.74 61.71 131.52 61.91ZM132.97 59.67C132.91 59.76 132.82 59.84 132.72 59.88C132.61 59.93 132.5 59.94 132.39 59.92C132.21 59.76 132.06 59.57 131.94 59.37C132.22 59.36 132.49 59.27 132.73 59.12C132.88 58.96 132.98 58.76 133.02 58.54C133.1 58.72 133.14 58.91 133.13 59.11C133.12 59.3 133.07 59.5 132.97 59.67Z" fill="#000000" fill-opacity="1.000000" fill-rule="nonzero"/>
	<path id="vector_69" d="M130 57.45C129.39 57.83 128.89 58.36 128.54 58.99L129.35 61.18C129.56 61.15 129.76 61.07 129.94 60.96C130.13 60.85 130.28 60.7 130.4 60.53C130.52 60.35 130.61 60.15 130.65 59.94C130.69 59.74 130.69 59.52 130.65 59.31C130.81 59.39 130.99 59.43 131.17 59.43C131.36 59.43 131.54 59.39 131.7 59.31C131.78 59.31 131.86 59.31 131.86 59.23C131.89 59.2 131.92 59.16 131.93 59.12C131.95 59.08 131.95 59.03 131.94 58.99C131.94 58.18 130.89 57.13 130 57.45Z" fill="#4880FF" fill-opacity="1.000000" fill-rule="nonzero"/>
	<path id="vector_70" d="M129.35 61.48C129.28 61.48 129.2 61.45 129.15 61.4C129.09 61.35 129.06 61.28 129.05 61.21C129.04 61.13 129.06 61.06 129.11 61C129.15 60.94 129.22 60.9 129.29 60.88C129.46 60.86 129.63 60.8 129.78 60.71C129.92 60.62 130.05 60.5 130.15 60.36C130.25 60.22 130.32 60.06 130.36 59.89C130.39 59.72 130.39 59.54 130.35 59.37C130.34 59.32 130.35 59.26 130.37 59.21C130.39 59.15 130.42 59.11 130.47 59.07C130.51 59.04 130.56 59.02 130.62 59.01C130.67 59.01 130.73 59.02 130.78 59.04C130.92 59.1 131.07 59.13 131.22 59.13C131.37 59.12 131.52 59.09 131.65 59.02C131.64 58.33 130.76 57.49 130.1 57.73C129.56 58.09 129.12 58.58 128.8 59.14C128.75 59.21 128.69 59.26 128.61 59.27C128.54 59.29 128.46 59.28 128.39 59.24C128.32 59.2 128.27 59.13 128.25 59.06C128.23 58.98 128.24 58.9 128.28 58.83C128.66 58.14 129.22 57.56 129.9 57.16C130.97 56.78 132.24 57.95 132.24 58.99C132.25 59.12 132.22 59.26 132.14 59.37C132.11 59.44 132.06 59.5 131.99 59.55C131.93 59.59 131.85 59.61 131.77 59.61C131.52 59.72 131.25 59.76 130.98 59.72C130.96 60.08 130.85 60.42 130.64 60.71C130.33 61.12 129.86 61.39 129.35 61.48Z" fill="#000000" fill-opacity="1.000000" fill-rule="nonzero"/>
	<path id="vector_71" d="M104.06 91.01C104.14 92.61 104.06 94.21 103.82 95.79C103.65 96.72 103.37 97.13 102.68 96.44C101.64 95.24 100.82 93.87 100.25 92.39C101.17 89.64 104.04 90.14 104.06 91.01Z" fill="#5A8CFF" fill-opacity="1.000000" fill-rule="nonzero"/>
	<path id="vector_72" d="M102.47 96.65C101.39 95.43 100.54 94.02 99.97 92.5C99.94 92.43 99.94 92.36 99.96 92.29C100.63 90.29 102.6 89.49 103.97 90.35C104.2 90.57 104.36 90.72 104.36 91C104.44 92.62 104.36 94.24 104.11 95.84C103.82 97.3 103.13 97.38 102.47 96.65ZM100.57 92.38C101.11 93.8 101.9 95.11 102.91 96.24C103.22 96.58 103.33 96.69 103.51 95.79C103.76 94.21 103.84 92.61 103.76 91.01C103.76 90.5 101.4 90.09 100.57 92.38Z" fill="#000000" fill-opacity="1.000000" fill-rule="nonzero"/>
	<path id="vector_73" d="M110.55 42.94C112.75 44.62 113.63 47.56 113.63 50.23C113.63 50.4 113.79 50.48 113.95 50.48C114.01 50.47 114.07 50.45 114.12 50.4C114.16 50.36 114.19 50.3 114.19 50.23C114.15 47.32 113.25 44.28 110.87 42.45C110.55 42.2 110.22 42.69 110.55 42.94Z" fill="#FFFFFF" fill-opacity="1.000000" fill-rule="nonzero"/>
</svg>
