<svg width="150.000000" height="150.000000" viewBox="0 0 150 150" fill="none" xmlns="http://www.w3.org/2000/svg" xmlns:xlink="http://www.w3.org/1999/xlink">
	<desc>
			Created with Pixso.
	</desc>
	<defs>
		<clipPath id="clip115_200">
			<rect id="Documents-1--Streamline-Lagos" width="150.000000" height="150.000000" fill="white" fill-opacity="0"/>
		</clipPath>
	</defs>
	<g clip-path="url(#clip115_200)">
		<path id="Vector" d="M146.16 62.19C143.21 60.44 118.2 44.9 115.71 44.28C115.64 44.26 115.57 44.27 115.51 44.29C115.45 44.32 115.4 44.37 115.37 44.43C112.23 50.36 107.94 55.61 102.75 59.85C97.55 64.1 91.56 67.26 85.12 69.15C85.08 69.16 85.04 69.18 85 69.21C84.97 69.24 84.94 69.27 84.93 69.32C84.91 69.36 84.9 69.4 84.9 69.44C84.9 69.49 84.91 69.53 84.93 69.57C87.07 73.85 93.96 79.37 97.9 82.12C100.04 83.59 112.7 91.8 115.27 91.21C122.06 89.62 136.34 77.67 142.85 69.33C143.27 68.63 147.9 62.44 146.16 62.19Z" fill="#000000" fill-opacity="1.000000" fill-rule="nonzero"/>
		<path id="Vector_2" d="M133.88 65.82C127.37 63.67 121.32 60.32 116.05 55.94C115.99 55.88 115.95 55.81 115.94 55.73C115.93 55.65 115.96 55.57 116.01 55.51C116.06 55.45 116.14 55.41 116.22 55.4C116.3 55.39 116.38 55.42 116.44 55.47C121.65 59.8 127.64 63.11 134.08 65.24C134.15 65.27 134.21 65.32 134.24 65.39C134.28 65.46 134.28 65.54 134.26 65.62C134.23 65.69 134.18 65.76 134.11 65.79C134.04 65.83 133.96 65.84 133.88 65.82Z" fill="#FFFFFF" fill-opacity="1.000000" fill-rule="nonzero"/>
		<path id="Vector_3" d="M124.9 69.11C120.36 66.98 116.09 64.34 112.15 61.25C112.08 61.2 112.04 61.12 112.03 61.04C112.02 60.96 112.05 60.88 112.1 60.82C112.14 60.75 112.22 60.71 112.3 60.7C112.38 60.69 112.46 60.72 112.52 60.77C116.42 63.83 120.66 66.45 125.16 68.55C125.23 68.59 125.29 68.65 125.31 68.73C125.34 68.8 125.34 68.89 125.3 68.96C125.27 69.03 125.21 69.09 125.13 69.12C125.06 69.15 124.97 69.14 124.9 69.11Z" fill="#FFFFFF" fill-opacity="1.000000" fill-rule="nonzero"/>
		<path id="Vector_4" d="M123.61 76.33C117.28 73.87 111.45 70.29 106.39 65.75C106.34 65.7 106.31 65.63 106.31 65.55C106.31 65.47 106.33 65.4 106.39 65.34C106.44 65.28 106.51 65.25 106.58 65.24C106.66 65.23 106.74 65.26 106.8 65.3C111.8 69.79 117.57 73.34 123.83 75.77C123.9 75.8 123.95 75.86 123.97 75.93C124 76 124 76.08 123.97 76.15C123.94 76.22 123.89 76.27 123.83 76.31C123.76 76.34 123.68 76.35 123.61 76.33Z" fill="#FFFFFF" fill-opacity="1.000000" fill-rule="nonzero"/>
		<path id="Vector_5" d="M117.08 81.97C110.86 79.16 105.16 75.32 100.21 70.62C100.16 70.56 100.13 70.48 100.13 70.41C100.13 70.33 100.16 70.25 100.21 70.19C100.26 70.14 100.34 70.1 100.42 70.1C100.49 70.1 100.57 70.12 100.63 70.17C105.53 74.83 111.17 78.63 117.33 81.42C117.4 81.45 117.45 81.52 117.48 81.59C117.5 81.66 117.5 81.75 117.47 81.82C117.44 81.89 117.38 81.95 117.3 81.98C117.23 82 117.15 82 117.08 81.97Z" fill="#FFFFFF" fill-opacity="1.000000" fill-rule="nonzero"/>
		<path id="Vector_6" d="M99.56 88.19C92.74 85.95 87.7 85.44 63.9 82.01C63.54 81.86 63.14 81.86 62.79 82C62.43 82.14 62.14 82.42 61.98 82.78C61.95 82.85 61.83 83.61 57.09 107.46C57.07 107.54 57.09 107.62 57.13 107.69C57.18 107.75 57.24 107.8 57.32 107.82L88.18 114.68C91.62 115.54 92.87 114.65 93.84 112.05C95.12 108.3 100.89 90.49 100.89 90.49C101.29 89.26 100.76 88.59 99.56 88.19Z" fill="#000000" fill-opacity="1.000000" fill-rule="nonzero"/>
		<path id="Vector_7" d="M97.9 92.56C101.14 87.79 106.04 84.39 111.64 83L74.77 72.13C73.04 71.61 71.12 71.09 69.38 71.7C68.22 72.22 67.18 72.99 66.34 73.96C62.54 77.58 59.29 81.74 56.7 86.31C55.05 89.18 53.93 92.33 53.39 95.61C52.77 98.64 52.48 101.73 52.52 104.82C66.05 106.27 79.42 109.01 92.43 113C91.64 106.04 93.95 98.34 97.9 92.56Z" fill="#5A8CFF" fill-opacity="1.000000" fill-rule="nonzero"/>
		<path id="Vector_8" d="M92.42 113.3C79.4 109.31 66.03 106.57 52.49 105.13C52.41 105.12 52.35 105.09 52.3 105.03C52.25 104.98 52.22 104.91 52.21 104.84C52.16 102.18 52.39 99.52 52.88 96.91C53.36 93.13 54.56 89.48 56.43 86.15C59.04 81.56 62.31 77.38 66.13 73.74C66.99 72.75 68.06 71.96 69.26 71.42C71.05 70.79 72.93 71.26 74.86 71.84L111.72 82.71C111.79 82.73 111.84 82.77 111.88 82.82C111.92 82.88 111.94 82.94 111.94 83.01C111.94 83.07 111.92 83.14 111.87 83.19C111.83 83.24 111.77 83.28 111.71 83.3C106.18 84.67 101.35 88.03 98.15 92.74C94.11 98.64 91.98 106.36 92.73 112.96C92.73 113 92.73 113.05 92.71 113.09C92.7 113.13 92.68 113.17 92.65 113.2C92.62 113.23 92.59 113.26 92.55 113.27C92.51 113.29 92.47 113.3 92.42 113.3ZM52.81 104.55C66.12 105.99 79.26 108.68 92.07 112.57C91.46 105.93 93.57 98.24 97.65 92.4C100.71 87.85 105.26 84.53 110.52 82.99L74.69 72.43C72.86 71.88 71.08 71.43 69.48 71.99C68.37 72.49 67.38 73.23 66.58 74.15C62.78 77.75 59.53 81.9 56.96 86.45C55.34 89.31 54.24 92.43 53.69 95.66C53.27 98.53 52.68 101.61 52.81 104.55Z" fill="#000000" fill-opacity="1.000000" fill-rule="nonzero"/>
		<path id="Vector_9" d="M91.38 82.96C91.08 82.96 79.61 80.03 76.52 79.21C76.45 79.19 76.38 79.13 76.34 79.06C76.3 79 76.29 78.91 76.32 78.84C76.34 78.76 76.38 78.7 76.45 78.66C76.52 78.61 76.6 78.6 76.68 78.62C81.54 79.92 86.58 81.16 91.45 82.36C91.53 82.37 91.59 82.42 91.63 82.48C91.68 82.54 91.7 82.62 91.69 82.69C91.68 82.76 91.64 82.83 91.58 82.88C91.53 82.93 91.46 82.96 91.38 82.96Z" fill="#FFFFFF" fill-opacity="1.000000" fill-rule="nonzero"/>
		<path id="Vector_10" d="M90.25 88.17C90.04 88.17 89.8 87.93 82.43 86.09C78.08 85.1 73.8 83.82 69.62 82.24C69.55 82.21 69.49 82.15 69.46 82.08C69.44 82 69.44 81.92 69.46 81.85C69.49 81.78 69.55 81.72 69.62 81.69C69.69 81.66 69.77 81.65 69.84 81.68C76.49 84.35 83.5 85.5 90.34 87.58C90.41 87.6 90.47 87.65 90.5 87.71C90.54 87.77 90.56 87.84 90.55 87.91C90.54 87.99 90.5 88.05 90.45 88.1C90.39 88.15 90.32 88.17 90.25 88.17Z" fill="#FFFFFF" fill-opacity="1.000000" fill-rule="nonzero"/>
		<path id="Vector_11" d="M80.25 90.96C77.56 90.53 74.92 89.79 72.4 88.76C72.33 88.73 72.27 88.67 72.24 88.59C72.21 88.52 72.21 88.44 72.24 88.37C72.27 88.29 72.33 88.23 72.4 88.2C72.48 88.17 72.56 88.17 72.63 88.2C75.1 89.2 77.67 89.93 80.3 90.35C80.38 90.36 80.45 90.41 80.49 90.47C80.54 90.53 80.56 90.6 80.55 90.68C80.55 90.75 80.51 90.82 80.46 90.88C80.4 90.93 80.33 90.96 80.25 90.96Z" fill="#FFFFFF" fill-opacity="1.000000" fill-rule="nonzero"/>
		<path id="Vector_12" d="M83.51 100.54L82.51 96.91C82.25 95.92 81.72 95.01 80.99 94.29C80.25 93.57 79.34 93.07 78.34 92.83L51.82 86.4L49.99 83C47.96 79.71 43.31 80 42.34 82.66C41.91 83.96 42.69 86.05 43.21 87.26L54.25 112.39L89.28 122.07C90.47 122.81 92.13 121.62 92.68 120.39C93.6 118.4 94.24 116.29 94.59 114.13C95.91 106.97 97.2 102.39 98.95 95.35C93.35 97.68 88.87 98.83 83.51 100.54Z" fill="#4880FF" fill-opacity="1.000000" fill-rule="nonzero"/>
		<path id="Vector_13" d="M99.15 95.12C98.75 94.78 99.16 95.43 87.41 99.01C86.21 99.38 84.99 99.75 83.72 100.15L82.81 96.84C82.53 95.79 81.98 94.84 81.2 94.08C80.43 93.32 79.47 92.79 78.41 92.53L52.03 86.13L50.26 82.84C48.07 79.3 43.11 79.68 42.06 82.56C41.71 83.61 42 85.18 42.94 87.38L53.98 112.51C54.08 112.72 53.95 112.62 89.18 122.36C90.58 123.15 92.35 121.85 92.96 120.52C93.89 118.5 94.54 116.37 94.9 114.19C96.18 107.18 97.44 102.73 99.24 95.42C99.26 95.36 99.25 95.31 99.24 95.25C99.22 95.2 99.19 95.15 99.15 95.12ZM43.5 87.15C42.63 85.12 42.34 83.64 42.63 82.76C43.49 80.39 47.81 80.05 49.73 83.15C51.69 86.8 51.56 86.65 51.75 86.69L78.27 93.12C79.21 93.36 80.08 93.84 80.78 94.52C81.47 95.2 81.97 96.05 82.22 97L89.03 121.69L54.48 112.13L43.5 87.15ZM94.3 114.08C93.95 116.22 93.31 118.3 92.41 120.26C91.85 121.49 90.5 122.19 89.73 121.95L83.88 100.74C88.99 99.12 93.27 98 98.51 95.86C96.78 102.84 95.55 107.24 94.3 114.08Z" fill="#000000" fill-opacity="1.000000" fill-rule="nonzero"/>
		<path id="Vector_14" d="M22.7 92.04C25.13 91.33 26.7 89 27.83 86.74C28.96 84.48 29.91 81.96 31.83 80.31C35.54 77.58 36.54 78.21 37.22 76.39C37.41 74.85 36.06 74.24 34.52 74.05C32.55 73.93 30.62 74.58 29.13 75.87C30.78 72.39 34.78 71 37.56 68.31C37.81 68.14 38.01 67.9 38.13 67.63C38.26 67.36 38.31 67.05 38.29 66.76C38.26 66.46 38.16 66.17 37.98 65.92C37.81 65.68 37.58 65.48 37.3 65.35C36.6 65.02 35.81 64.9 35.04 65.01C31.3 65.21 27.77 66.79 25.13 69.44C26.79 67.02 28.85 64.91 31.22 63.18C31.89 62.77 32.46 62.2 32.87 61.53C33.03 61.27 33.12 60.98 33.11 60.67C33.1 60.37 33 60.08 32.82 59.83C32.64 59.59 32.39 59.4 32.11 59.3C31.82 59.2 31.51 59.19 31.22 59.27C26 59.62 21.22 62.92 18.09 67.09C14.97 71.27 13.25 76.4 11.92 81.52C11.54 82.98 11.51 84.52 11.83 86C12.15 87.47 12.8 88.86 13.75 90.04C15.66 92.48 19.82 92.89 22.7 92.04Z" fill="#FFFFFF" fill-opacity="1.000000" fill-rule="nonzero"/>
		<path id="Vector_15" d="M13.5 90.23C12.53 89.02 11.84 87.59 11.52 86.06C11.19 84.54 11.23 82.95 11.62 81.44C12.74 77.05 14.45 71.43 17.84 66.91C21.33 62.26 26.32 59.29 31.19 58.96C31.66 58.88 32.15 58.95 32.57 59.17C32.97 59.43 33.25 59.85 33.36 60.32C33.46 60.79 33.38 61.28 33.12 61.69C32.69 62.4 32.09 63 31.38 63.44C29.78 64.61 28.33 65.96 27.03 67.46C29.39 65.81 32.16 64.86 35.03 64.7C35.85 64.59 36.69 64.72 37.44 65.08C37.76 65.23 38.03 65.46 38.23 65.75C38.43 66.04 38.56 66.37 38.59 66.72C38.62 67.08 38.56 67.43 38.41 67.75C38.26 68.07 38.03 68.34 37.74 68.55C35.44 70.8 31.98 72.3 30.14 74.77C33.16 73.04 37.89 73.43 37.52 76.43C36.77 78.48 35.69 77.85 32 80.55C28.46 83.61 27.91 90.87 22.78 92.33C19.75 93.25 15.45 92.71 13.5 90.23ZM31.28 59.57C26.54 59.88 21.72 62.76 18.33 67.27C15.01 71.71 13.32 77.26 12.21 81.6C11.84 83.02 11.81 84.5 12.12 85.94C12.42 87.37 13.06 88.71 13.98 89.86C15.78 92.14 19.77 92.59 22.61 91.75C25.08 91.03 26.62 88.48 27.56 86.61C28.7 84.33 29.66 81.78 31.63 80.08C32.94 79.14 34.33 78.31 35.78 77.61C36.05 77.48 36.29 77.3 36.49 77.07C36.69 76.84 36.84 76.58 36.93 76.29C37.18 74.01 32.32 73.47 29.33 76.11C29.28 76.15 29.21 76.18 29.14 76.18C29.07 76.18 29 76.16 28.95 76.12C28.89 76.08 28.85 76.02 28.84 75.95C28.82 75.88 28.83 75.81 28.86 75.75C30.55 72.18 34.59 70.77 37.35 68.1C38.7 67.08 37.92 64.99 35.08 65.31C31.41 65.52 27.95 67.07 25.35 69.66C25.29 69.72 25.22 69.75 25.15 69.75C25.07 69.75 25 69.73 24.94 69.68C24.88 69.63 24.85 69.56 24.83 69.49C24.82 69.42 24.84 69.34 24.88 69.28C26.56 66.83 28.64 64.69 31.04 62.94C31.68 62.55 32.22 62.02 32.61 61.38C32.78 61.1 32.84 60.78 32.77 60.46C32.71 60.15 32.52 59.87 32.25 59.69C31.95 59.55 31.61 59.5 31.28 59.57Z" fill="#000000" fill-opacity="1.000000" fill-rule="nonzero"/>
		<path id="Vector_16" d="M23.31 91.96C20.52 92.48 17.05 90.57 15.05 88.74C14.02 87.78 13.19 86.63 12.61 85.35C12.3 84.68 12.07 83.98 11.92 83.26C11.83 82.57 12 81.52 11.74 81C9.14 83.52 6.53 85.7 3.75 88.48L14.7 103.87C22.52 92.73 23.93 91.75 23.31 91.96Z" fill="#4880FF" fill-opacity="1.000000" fill-rule="nonzero"/>
		<path id="Vector_17" d="M14.45 103.69C17.32 99.61 20.06 95.88 22.81 92.33C20.1 92.54 16.84 90.79 14.84 88.96C13.78 87.98 12.93 86.79 12.34 85.48C12.02 84.79 11.78 84.07 11.62 83.34C11.55 82.75 11.62 82.13 11.57 81.59C9.03 84.01 6.63 86.02 3.96 88.69C3.9 88.75 3.83 88.78 3.75 88.78C3.67 88.78 3.59 88.74 3.54 88.69C3.48 88.63 3.45 88.56 3.45 88.48C3.45 88.4 3.48 88.32 3.53 88.26C6.38 85.41 8.86 83.36 11.53 80.78C11.57 80.75 11.61 80.73 11.65 80.71C11.7 80.7 11.75 80.69 11.8 80.7C11.84 80.71 11.89 80.73 11.93 80.76C11.96 80.79 12 80.82 12.02 80.87C12.32 81.48 12.13 82.54 12.22 83.22C12.37 83.91 12.59 84.58 12.89 85.21C13.45 86.46 14.25 87.58 15.25 88.51C17.28 90.37 20.65 92.14 23.25 91.65C23.62 91.51 23.9 91.91 23.72 92.14C20.83 95.85 17.96 99.75 14.95 104.04C14.9 104.09 14.83 104.13 14.75 104.14C14.68 104.15 14.61 104.13 14.55 104.08C14.49 104.04 14.44 103.98 14.42 103.91C14.41 103.83 14.42 103.76 14.45 103.69Z" fill="#000000" fill-opacity="1.000000" fill-rule="nonzero"/>
		<path id="Vector_18" d="M39.39 27.79C39.65 27.27 46.35 28.65 47.13 28.75C49.92 29.13 52.69 29.64 55.47 30.23C60.6 31.31 66.08 32.14 70.95 33.97C72.44 36.76 76.08 42.58 76.17 42.4C70.69 49.1 68.33 57 66.52 65.35C64.85 73 63.73 81.26 66.86 88.48C58.87 87.52 50.78 86.49 42.78 85.09C37.39 84.14 32 82.91 26.52 83.09C24.8 64.5 29.64 44.56 39.39 27.79Z" fill="#5A8CFF" fill-opacity="1.000000" fill-rule="nonzero"/>
		<path id="Vector_19" d="M76.33 42.15C76.11 42 74 38.57 73.84 38.32C73.01 36.97 71.96 35.22 71.21 33.82C71.18 33.76 71.12 33.71 71.05 33.68C66.92 32.28 62.69 31.21 58.38 30.49C54.05 29.65 51.67 29.05 47.16 28.45C46.98 28.42 46.47 28.34 45.79 28.21C40.09 27.18 39.34 27.25 39.12 27.65C29.45 45.06 24.42 63.75 26.22 83.12C26.22 83.19 26.26 83.27 26.32 83.32C26.38 83.37 26.45 83.4 26.53 83.39C31.97 83.22 37.44 84.45 42.73 85.39C51 86.83 59.2 87.87 66.82 88.78C66.88 88.79 66.93 88.78 66.98 88.76C67.03 88.74 67.07 88.7 67.1 88.66C67.14 88.62 67.16 88.57 67.16 88.51C67.17 88.46 67.16 88.41 67.14 88.36C64.04 81.21 65.15 73.11 66.81 65.42C68.8 56.32 71.17 48.93 76.4 42.6C76.43 42.56 76.45 42.52 76.46 42.48C76.47 42.44 76.47 42.4 76.47 42.35C76.46 42.31 76.45 42.27 76.42 42.24C76.4 42.2 76.37 42.17 76.33 42.15ZM75.42 41.95C73.31 41.28 71.06 40.67 68.59 40.1C69.36 38.29 70.25 36.53 70.97 34.64C72.31 37.08 74.75 40.97 75.42 41.95ZM66.22 65.29C64.58 72.91 63.47 80.93 66.38 88.11C36.71 84.55 35.08 82.59 26.8 82.78C25.14 64.09 30.12 44.36 39.62 28C40.43 27.78 46.27 28.94 47.08 29.05C51.53 29.64 53.94 30.25 58.27 31.09C62.42 31.79 66.52 32.81 70.51 34.13C69.37 37.23 67.71 40.1 67.9 40.45C67.92 40.49 67.95 40.53 67.98 40.56C68.02 40.58 68.06 40.6 68.1 40.61C70.83 41.23 73.28 41.89 75.58 42.64C70.54 49 68.18 56.31 66.22 65.29Z" fill="#000000" fill-opacity="1.000000" fill-rule="nonzero"/>
		<path id="Vector_20" d="M61.65 44.27L42.64 40.79C42.56 40.77 42.49 40.73 42.44 40.66C42.4 40.59 42.38 40.51 42.39 40.43C42.41 40.35 42.46 40.28 42.52 40.24C42.59 40.19 42.67 40.17 42.75 40.19L61.7 43.66C61.78 43.68 61.85 43.72 61.9 43.78C61.94 43.84 61.97 43.92 61.96 43.99C61.95 44.07 61.91 44.14 61.86 44.19C61.8 44.25 61.72 44.27 61.65 44.27Z" fill="#000000" fill-opacity="1.000000" fill-rule="nonzero"/>
		<path id="Vector_21" d="M55.39 49.75L44.72 47.65C44.68 47.65 44.65 47.63 44.61 47.61C44.58 47.59 44.55 47.56 44.53 47.53C44.5 47.49 44.49 47.45 44.48 47.42C44.47 47.38 44.47 47.34 44.48 47.3C44.49 47.26 44.5 47.22 44.53 47.19C44.55 47.15 44.58 47.12 44.61 47.1C44.64 47.08 44.68 47.06 44.72 47.06C44.76 47.05 44.8 47.05 44.84 47.05L55.45 49.14C55.52 49.15 55.6 49.19 55.65 49.25C55.7 49.31 55.72 49.39 55.71 49.47C55.7 49.55 55.67 49.62 55.61 49.68C55.55 49.73 55.47 49.75 55.39 49.75Z" fill="#000000" fill-opacity="1.000000" fill-rule="nonzero"/>
		<path id="Vector_22" d="M60.78 55.83L38.48 52.44C38.4 52.42 38.33 52.38 38.29 52.31C38.24 52.25 38.22 52.17 38.23 52.09C38.25 52.02 38.29 51.95 38.35 51.9C38.41 51.85 38.49 51.83 38.57 51.84L60.82 55.23C60.9 55.24 60.97 55.28 61.01 55.34C61.06 55.4 61.09 55.47 61.08 55.55C61.08 55.63 61.04 55.7 60.99 55.75C60.93 55.8 60.86 55.83 60.78 55.83Z" fill="#000000" fill-opacity="1.000000" fill-rule="nonzero"/>
		<path id="Vector_23" d="M57.91 61.74C56.53 61.74 45.68 59.08 37.36 58.18C37.28 58.17 37.21 58.13 37.16 58.06C37.11 58 37.09 57.92 37.1 57.84C37.1 57.77 37.14 57.69 37.21 57.64C37.27 57.59 37.34 57.57 37.42 57.57C44.74 58.37 51.15 59.99 57.96 61.14C58.03 61.15 58.1 61.19 58.15 61.25C58.19 61.31 58.22 61.39 58.21 61.47C58.2 61.54 58.17 61.61 58.11 61.66C58.06 61.72 57.98 61.74 57.91 61.74Z" fill="#000000" fill-opacity="1.000000" fill-rule="nonzero"/>
		<path id="Vector_24" d="M53.91 67.66L39.77 65.22C39.69 65.2 39.62 65.16 39.58 65.09C39.53 65.03 39.51 64.95 39.53 64.87C39.54 64.79 39.58 64.72 39.65 64.67C39.72 64.62 39.8 64.6 39.88 64.62L53.96 67.05C54.04 67.07 54.1 67.11 54.15 67.17C54.19 67.23 54.21 67.3 54.21 67.38C54.2 67.45 54.17 67.52 54.11 67.57C54.06 67.63 53.99 67.66 53.91 67.66Z" fill="#000000" fill-opacity="1.000000" fill-rule="nonzero"/>
		<path id="Vector_25" d="M56.08 74.7L36.3 71.74C36.23 71.72 36.16 71.68 36.11 71.62C36.07 71.55 36.05 71.47 36.06 71.4C36.07 71.32 36.12 71.25 36.18 71.2C36.24 71.15 36.32 71.13 36.39 71.14L56.13 74.1C56.2 74.11 56.27 74.15 56.31 74.21C56.36 74.27 56.38 74.34 56.38 74.42C56.37 74.49 56.34 74.56 56.28 74.61C56.23 74.67 56.16 74.7 56.08 74.7Z" fill="#000000" fill-opacity="1.000000" fill-rule="nonzero"/>
		<path id="Vector_26" d="M33.13 67.18C33.04 66.65 32.43 66.31 31.83 66.22C27.13 65.27 22.44 70.31 19.13 72.92L21.75 86.4C23.08 85.76 24.23 84.81 25.11 83.63C25.99 82.45 26.56 81.07 26.79 79.61C26.85 78.36 26.99 77.11 27.22 75.88C28.09 72.83 31.39 71.09 32.87 68.23C33 68.09 33.09 67.92 33.13 67.73C33.18 67.55 33.18 67.36 33.13 67.18Z" fill="#FFFFFF" fill-opacity="1.000000" fill-rule="nonzero"/>
		<path id="Vector_27" d="M21.61 86.12C22.89 85.51 24.01 84.59 24.86 83.45C25.71 82.31 26.27 80.97 26.48 79.57C26.76 75.25 26.98 74.49 29.99 71.36C31.02 70.4 31.89 69.29 32.6 68.08C32.61 68.05 32.63 68.03 32.66 68.01C32.74 67.91 32.81 67.78 32.84 67.65C32.87 67.52 32.87 67.38 32.84 67.25C32.77 66.86 32.26 66.59 31.79 66.52C27.24 65.6 22.64 70.54 19.33 73.16C19.26 73.2 19.18 73.22 19.11 73.2C19.03 73.19 18.96 73.15 18.92 73.09C18.87 73.03 18.85 72.95 18.85 72.88C18.86 72.8 18.89 72.73 18.95 72.68C22.46 69.91 27.06 64.94 31.89 65.93C32.24 65.95 32.58 66.07 32.85 66.29C33.13 66.5 33.33 66.8 33.44 67.13C33.49 67.35 33.49 67.59 33.43 67.81C33.38 68.03 33.27 68.24 33.12 68.41C31.62 71.28 28.35 73.04 27.52 75.96C27.29 77.18 27.15 78.41 27.09 79.64C26.87 81.15 26.27 82.58 25.36 83.8C24.45 85.03 23.26 86.02 21.88 86.67C21.81 86.71 21.72 86.71 21.64 86.69C21.57 86.66 21.5 86.6 21.47 86.53C21.43 86.46 21.43 86.37 21.45 86.3C21.48 86.22 21.54 86.15 21.61 86.12Z" fill="#000000" fill-opacity="1.000000" fill-rule="nonzero"/>
	</g>
</svg>
