<svg width="147.706055" height="125.226807" viewBox="0 0 147.706 125.227" fill="none" xmlns="http://www.w3.org/2000/svg" xmlns:xlink="http://www.w3.org/1999/xlink">
	<desc>
			Created with Pixso.
	</desc>
	<defs/>
	<path id="vector" d="M29.9 30.55C29.98 30.23 35.96 13.69 35.96 13.69L44.08 34.56L29.9 30.55Z" fill="#4880FF" fill-opacity="1.000000" fill-rule="nonzero"/>
	<path id="vector_2" d="M72.74 0.3L81.16 20.23L44.08 34.56L35.96 13.69L72.74 0.3Z" fill="#FFFFFF" fill-opacity="1.000000" fill-rule="nonzero"/>
	<path id="vector_3" d="M73.02 0.18C72.99 0.11 72.93 0.05 72.86 0.02C72.79 -0.01 72.71 -0.01 72.63 0.01C35.69 13.52 35.76 13.41 35.7 13.53C35.66 13.61 29.67 30.17 29.6 30.47C29.58 30.54 29.59 30.63 29.63 30.7C29.67 30.77 29.74 30.82 29.82 30.84C44.08 34.87 44.01 34.88 44.11 34.87C44.18 34.86 81.36 20.56 81.45 20.35C81.53 20.16 81.53 20.31 73.02 0.18ZM35.97 14.57L43.56 34.09L30.3 30.33C30.9 28.61 34.05 19.89 35.97 14.57ZM44.25 34.16L36.37 13.87L72.57 0.7L80.75 20.05L44.25 34.16Z" fill="#191919" fill-opacity="1.000000" fill-rule="nonzero"/>
	<path id="vector_4" d="M65.49 62.51L76.04 10.07L122.43 21.17L105.5 73.06L65.49 62.51Z" fill="#4880FF" fill-opacity="1.000000" fill-rule="nonzero"/>
	<path id="vector_5" d="M76.04 10.07L90.61 4.32L112.66 9.2L122.43 21.17L76.04 10.07Z" fill="#FFFFFF" fill-opacity="1.000000" fill-rule="nonzero"/>
	<path id="vector_6" d="M122.67 20.97L112.9 9.01C112.86 8.95 112.8 8.91 112.73 8.9C90.52 3.97 90.64 3.98 90.5 4.03C75.76 9.87 75.86 9.77 75.77 9.92L65.19 62.45C65.17 62.53 65.19 62.61 65.23 62.67C65.27 62.74 65.34 62.79 65.41 62.81L105.5 73.37C105.56 73.37 105.62 73.35 105.68 73.31C105.73 73.27 105.77 73.22 105.79 73.16C122.85 21.04 122.83 21.18 122.67 20.97ZM90.64 4.64L112.49 9.48L121.6 20.66L77.07 10L90.64 4.64ZM105.29 72.69L65.86 62.29L76.29 10.44L122.03 21.39L105.29 72.69Z" fill="#191919" fill-opacity="1.000000" fill-rule="nonzero"/>
	<path id="vector_7" d="M55.57 16.6L85.18 16.37L91.71 57.71L68.25 63.3L55.57 16.6Z" fill="#FFFFFF" fill-opacity="1.000000" fill-rule="nonzero"/>
	<path id="vector_8" d="M35.81 66.69C32.89 59.44 24.55 38.89 21.63 31.72C25.57 29.28 55.1 16.44 55.49 16.6C56.21 16.91 61.54 38.26 64.08 47.39C65.33 51.89 66.99 58.73 68.17 63.3L35.81 66.69Z" fill="#4880FF" fill-opacity="1.000000" fill-rule="nonzero"/>
	<path id="vector_9" d="M92.02 57.66L85.48 16.32C85.47 16.25 85.43 16.18 85.37 16.14C85.32 16.09 85.25 16.06 85.17 16.06L55.44 16.32C52.85 16.79 23.61 30.13 21.47 31.46C21.41 31.5 21.36 31.56 21.34 31.63C21.31 31.7 21.32 31.77 21.34 31.84C24.59 39.83 32.68 59.74 35.52 66.8C35.54 66.86 35.58 66.91 35.63 66.94C35.68 66.98 35.74 66.99 35.8 66.99L68.2 63.61L91.79 58.01C91.86 57.99 91.93 57.95 91.97 57.88C92.01 57.82 92.03 57.74 92.02 57.66ZM36.01 66.35C33.12 59.18 25.3 39.92 22.02 31.85C26.66 29.14 52.89 17.81 55.34 16.96C55.34 16.96 67.46 61.79 67.78 63.03L36.01 66.35ZM68.47 62.93C65.81 52.85 56.72 18.58 55.99 16.91L84.91 16.68L91.36 57.47L68.47 62.93Z" fill="#191919" fill-opacity="1.000000" fill-rule="nonzero"/>
	<path id="vector_10" d="M61 20.3C60.92 20.3 60.84 20.27 60.79 20.21C60.73 20.15 60.69 20.07 60.69 19.99C60.69 19.91 60.72 19.83 60.78 19.77C60.84 19.71 60.92 19.68 61 19.68L66.51 19.6C66.59 19.6 66.67 19.63 66.73 19.69C66.79 19.75 66.83 19.83 66.83 19.91C66.83 19.99 66.8 20.07 66.74 20.13C66.68 20.19 66.6 20.22 66.52 20.22L61 20.3Z" fill="#191919" fill-opacity="1.000000" fill-rule="nonzero"/>
	<path id="vector_11" d="M61.87 22.98C61.83 22.98 61.79 22.97 61.75 22.96C61.71 22.94 61.68 22.92 61.65 22.89C61.62 22.86 61.6 22.83 61.58 22.79C61.57 22.75 61.56 22.71 61.56 22.67C61.55 22.63 61.56 22.59 61.58 22.55C61.59 22.52 61.61 22.48 61.64 22.45C61.67 22.42 61.71 22.4 61.74 22.38C61.78 22.37 61.82 22.36 61.86 22.36L66.59 22.2C66.67 22.2 66.75 22.23 66.81 22.29C66.87 22.34 66.91 22.42 66.91 22.5C66.91 22.58 66.88 22.66 66.83 22.72C66.77 22.78 66.69 22.82 66.61 22.82L61.87 22.98Z" fill="#191919" fill-opacity="1.000000" fill-rule="nonzero"/>
	<path id="vector_12" d="M69.19 57.7C69.12 57.7 69.05 57.68 69 57.63C68.94 57.59 68.9 57.53 68.89 57.46C68.75 56.86 67.57 50.32 67.14 49.55C67.09 49.52 67.04 49.47 67.02 49.41C66.99 49.35 66.99 49.29 67 49.23C67.01 49.17 67.04 49.11 67.08 49.07C67.12 49.02 67.18 48.99 67.24 48.98L73.71 48.03C73.79 48.02 73.87 48.04 73.94 48.09C74 48.13 74.05 48.2 74.06 48.28C75.52 56.3 75.54 56.15 75.43 56.31C75.38 56.38 75.31 56.43 75.22 56.44C73.19 56.75 71.18 57.17 69.19 57.7ZM67.8 49.52C68.28 50.82 69.11 55.37 69.43 57.01C71.21 56.54 73.01 56.16 74.82 55.88L73.51 48.69L67.8 49.52Z" fill="#191919" fill-opacity="1.000000" fill-rule="nonzero"/>
	<path id="vector_13" d="M118.17 24L111.26 22.58C111.18 22.56 111.11 22.51 111.07 22.44C111.02 22.37 111.01 22.29 111.03 22.21C111.04 22.13 111.09 22.06 111.16 22.02C111.22 21.97 111.3 21.96 111.38 21.97L118.23 23.39C118.31 23.4 118.38 23.45 118.42 23.51C118.47 23.57 118.49 23.65 118.48 23.72C118.47 23.8 118.44 23.87 118.38 23.92C118.32 23.97 118.25 24 118.17 24Z" fill="#191919" fill-opacity="1.000000" fill-rule="nonzero"/>
	<path id="vector_14" d="M117.15 26.76C117.07 26.76 117.3 26.8 111.02 25.33C110.94 25.31 110.87 25.26 110.83 25.19C110.79 25.12 110.78 25.04 110.8 24.96C110.82 24.88 110.86 24.82 110.93 24.77C111 24.73 111.08 24.71 111.16 24.73L117.22 26.14C117.29 26.16 117.36 26.21 117.4 26.27C117.45 26.33 117.47 26.41 117.46 26.48C117.45 26.56 117.41 26.63 117.36 26.68C117.3 26.73 117.23 26.76 117.15 26.76Z" fill="#191919" fill-opacity="1.000000" fill-rule="nonzero"/>
	<path id="vector_15" d="M37.93 89.36C37.93 89.36 30.69 91.8 30.61 92.12C31.38 91.78 32.21 91.59 33.05 91.57C36.99 91.57 40.69 95.27 41.32 99.84C41.44 101.2 41.28 102.57 40.83 103.86C40.39 105.15 39.68 106.34 38.74 107.34C40.27 106.62 41.72 105.75 43.05 104.72C44.06 104 44.9 103.05 45.49 101.96C48.01 97.24 42.97 89.36 37.93 89.36Z" fill="#4880FF" fill-opacity="1.000000" fill-rule="nonzero"/>
	<path id="vector_16" d="M44.88 93.85C42.78 90.34 39.42 88.81 37.82 88.98C35.48 89.47 33.22 90.29 31.11 91.41C28.92 92.65 27.62 93.87 26.99 96.3C25.25 103.03 31.79 110.95 38.95 107.58C40.46 106.85 41.89 105.97 43.23 104.97C44.27 104.21 45.14 103.23 45.77 102.1C46.95 99.89 46.61 96.73 44.88 93.85ZM45.22 101.81C44.64 102.86 43.83 103.77 42.86 104.47C41.93 105.17 40.95 105.81 39.94 106.38C40.65 105.46 41.17 104.4 41.46 103.26C41.75 102.13 41.81 100.95 41.63 99.79C40.93 94.75 36.73 91.1 32.86 91.26C34.51 90.63 36.21 90.1 37.93 89.67C42.78 89.67 47.61 97.33 45.22 101.81Z" fill="#191919" fill-opacity="1.000000" fill-rule="nonzero"/>
	<path id="vector_17" d="M36.71 98.54C36.06 96.54 34.2 94.68 32.3 95.29C29.6 96.17 29.74 101.22 32.54 103.24C35.31 105.23 37.92 102.27 36.71 98.54Z" fill="#FFFFFF" fill-opacity="1.000000" fill-rule="nonzero"/>
	<path id="vector_18" d="M99.68 102.05C96.79 102.59 91.55 105.06 91.48 105.43C96.11 103.11 103.39 107.21 104.47 114.88C104.64 116.54 104.45 118.21 103.91 119.8C103.38 121.38 102.51 122.83 101.37 124.05C103.23 123.2 104.99 122.13 106.6 120.86C107.78 119.94 108.79 118.82 109.59 117.55C112.99 111.1 105.55 100.96 99.68 102.05Z" fill="#4880FF" fill-opacity="1.000000" fill-rule="nonzero"/>
	<path id="vector_19" d="M99.25 101.83C96.6 102.53 94.06 103.56 91.68 104.9C86.45 108.34 85.76 113.53 87.98 118.44C90.38 123.75 95.8 126.88 101.56 124.3C103.42 123.45 105.17 122.38 106.78 121.11C108 120.16 109.05 119.01 109.86 117.7C113.41 110.97 105.68 100.33 99.25 101.83ZM109.33 117.39C108.55 118.63 107.56 119.72 106.4 120.62C105.15 121.61 103.81 122.48 102.4 123.21C103.38 122.07 104.1 120.73 104.51 119.29C104.92 117.84 105.01 116.32 104.78 114.83C103.98 109.17 99.19 104.1 93.72 104.51C95.65 103.58 97.67 102.85 99.75 102.35C101.8 101.98 105.7 103.52 108.28 107.8C110.29 111.12 110.69 114.81 109.33 117.39Z" fill="#191919" fill-opacity="1.000000" fill-rule="nonzero"/>
	<path id="vector_20" d="M91.49 115.7C92.97 120.28 97.78 121.34 99.12 117.33C100.48 113.28 96.94 108.18 93.58 109.27C91.5 109.95 90.56 112.83 91.49 115.7Z" fill="#FFFFFF" fill-opacity="1.000000" fill-rule="nonzero"/>
	<path id="vector_21" d="M83.55 102.44L78.8 105.11L44.12 96.48C44.43 97.35 44.55 98.28 44.47 99.21C44.42 99.47 44.44 99.74 44.55 99.99C44.94 100.62 82.81 110.69 83.45 110.47C83.74 110.36 86.19 107.06 88.57 103.67L83.55 102.44Z" fill="#4880FF" fill-opacity="1.000000" fill-rule="nonzero"/>
	<path id="vector_22" d="M83.48 110.77C81.94 110.77 44.8 100.99 44.28 100.16C44.13 99.83 44.1 99.46 44.17 99.11C44.23 98.25 44.11 97.39 43.83 96.58C43.81 96.53 43.8 96.47 43.82 96.41C43.83 96.36 43.85 96.31 43.89 96.27C43.93 96.23 43.98 96.2 44.03 96.18C44.08 96.17 44.14 96.16 44.19 96.18L78.76 104.78L83.4 102.17C83.56 102.08 83.19 102.03 88.64 103.36C88.69 103.38 88.74 103.4 88.78 103.43C88.81 103.47 88.84 103.51 88.86 103.56C88.88 103.6 88.88 103.65 88.88 103.7C88.87 103.75 88.85 103.8 88.82 103.84C88.5 104.31 84.01 110.77 83.48 110.77ZM44.81 99.79C46.74 100.7 81.16 109.95 83.35 110.16C83.75 109.79 85.54 107.43 88.05 103.86L83.6 102.77L78.95 105.38C78.78 105.48 78.9 105.46 44.57 96.91C44.77 97.67 44.84 98.45 44.77 99.24C44.73 99.42 44.74 99.62 44.81 99.79Z" fill="#191919" fill-opacity="1.000000" fill-rule="nonzero"/>
	<path id="vector_23" d="M24 47.47L78.8 54.72L78.8 105.11L23.44 91.33L24 47.47Z" fill="#4880FF" fill-opacity="1.000000" fill-rule="nonzero"/>
	<path id="vector_24" d="M118.53 38.76L78.76 54.4C23.81 47.13 23.96 47.09 23.79 47.24C23.62 47.38 23.7 47.25 23.13 91.33C23.13 91.4 23.16 91.47 23.2 91.52C23.24 91.58 23.3 91.62 23.37 91.63L78.72 105.41C78.9 105.46 78.78 105.51 115.33 84.91C115.38 84.88 115.41 84.85 115.44 84.8C115.47 84.76 115.48 84.71 115.49 84.66L118.95 39.07C118.96 39.02 118.95 38.97 118.93 38.92C118.9 38.87 118.87 38.83 118.83 38.8C118.79 38.77 118.74 38.75 118.68 38.74C118.63 38.73 118.58 38.74 118.53 38.76ZM24.3 47.83L78.49 54.99L78.49 104.71L23.76 91.09L24.3 47.83Z" fill="#191919" fill-opacity="1.000000" fill-rule="nonzero"/>
	<path id="vector_25" d="M81.79 67.87L106.28 76.53C110.15 77.9 113.47 80.47 115.75 83.88C118.04 87.28 119.16 91.33 118.96 95.43L117.7 121.1L147.39 98.42L147.39 77.55C146.76 70.31 145.59 66.75 140.22 63.14C136.59 60.7 114.87 52.83 114.87 52.83C114.87 52.83 106.4 56.59 81.79 67.87Z" fill="#FFFFFF" fill-opacity="1.000000" fill-rule="nonzero"/>
	<path id="vector_26" d="M147.39 86.53C146.68 86.46 145.02 90.15 144.94 90.47C144.86 90.82 144.89 90.58 144.64 100.24C145.66 99.7 146.6 99.03 147.46 98.26C147.54 98.02 147.47 89.68 147.39 86.53Z" fill="#4880FF" fill-opacity="1.000000" fill-rule="nonzero"/>
	<path id="vector_27" d="M122.03 104.95L118.54 103.54C118.59 108.41 118.26 109.57 117.86 120.55C117.86 120.55 120.45 118.97 121.64 118.03C122.58 117.24 122.58 116.61 122.58 115.35C122.66 112.2 122.66 108.97 122.66 105.82C122.68 105.72 122.68 105.62 122.65 105.52C122.63 105.43 122.59 105.33 122.53 105.25C122.47 105.17 122.4 105.1 122.31 105.05C122.22 105 122.13 104.97 122.03 104.95Z" fill="#4880FF" fill-opacity="1.000000" fill-rule="nonzero"/>
	<path id="vector_28" d="M81.56 84.24C81.56 87.32 81.08 101.26 81.79 101.8C82.69 102.49 81.82 101.68 104.15 107.63C104.67 107.62 105.16 107.82 105.53 108.17C105.9 108.52 106.11 109.01 106.12 109.52L107.38 116.37C107.54 117.32 107.46 118.34 108.25 118.89C109.04 119.44 110.45 119.44 111.32 119.68C111.71 119.76 117.7 121.1 117.62 121.25L118.88 95.35C119.08 91.25 117.95 87.2 115.67 83.8C113.39 80.39 110.07 77.82 106.2 76.45L81.71 67.79C81.47 68.76 81.56 67.79 81.56 84.24Z" fill="#FFFFFF" fill-opacity="1.000000" fill-rule="nonzero"/>
	<path id="vector_29" d="M121.72 97.55C121.71 97.94 121.85 98.31 122.12 98.59C122.39 98.87 122.75 99.03 123.13 99.05C123.4 99.03 123.67 98.98 123.92 98.89C130.3 95.19 136.85 91.59 142.9 87.4C144.48 86.3 145.38 85.11 145.42 83.14C145.45 81.32 145.32 79.51 145.02 77.71C144.52 74.57 143.92 70.55 141.56 68.18C137.86 70.15 118.96 79.92 116.84 81.1C117.61 82.01 118.27 83.02 118.81 84.09C121.07 89.37 121.77 93.33 121.72 97.55Z" fill="#4880FF" fill-opacity="1.000000" fill-rule="nonzero"/>
	<path id="vector_30" d="M145.33 77.67C144.87 74.61 144.25 70.43 141.78 67.96C141.73 67.92 141.67 67.89 141.6 67.88C141.54 67.87 141.47 67.88 141.41 67.91C139.81 68.76 117.89 80.15 116.68 80.83C116.64 80.85 116.61 80.88 116.58 80.92C116.56 80.95 116.54 81 116.53 81.04C116.52 81.08 116.52 81.13 116.53 81.17C116.55 81.22 116.57 81.26 116.6 81.3C117.35 82.19 117.99 83.17 118.52 84.21C120.97 89.95 121.41 93.53 121.41 97.55C121.4 98.02 121.58 98.47 121.9 98.81C122.23 99.15 122.67 99.34 123.13 99.36C123.46 99.34 123.77 99.28 124.08 99.16C130.4 95.49 137.01 91.83 143.08 87.65C144.88 86.39 145.69 85.08 145.73 83.14C145.78 81.31 145.64 79.47 145.33 77.67ZM142.72 87.14C136.2 91.64 128.79 95.68 123.82 98.6C123.6 98.68 123.37 98.73 123.13 98.74C122.83 98.73 122.55 98.59 122.34 98.37C122.13 98.15 122.02 97.86 122.03 97.56C122.13 93.66 121.46 89.5 119.08 83.95C118.59 82.97 118 82.04 117.31 81.19C119.08 80.24 139.74 69.5 141.5 68.57C143.69 70.91 144.28 74.86 144.72 77.76C145.03 79.54 145.16 81.33 145.11 83.13C145.07 84.86 144.37 85.99 142.72 87.14Z" fill="#191919" fill-opacity="1.000000" fill-rule="nonzero"/>
	<path id="vector_31" d="M98.88 94.09C98.8 89.36 99.11 82.67 98.96 78.5C102.37 79.62 105.69 81.02 108.88 82.67C111.56 84.4 113.28 86.37 113.68 88.5C114.3 91.73 114.16 95.58 114.23 98.97C105.89 96.37 104.24 95.74 98.88 94.09Z" fill="#4880FF" fill-opacity="1.000000" fill-rule="nonzero"/>
	<path id="vector_32" d="M114.23 99.28C114.07 99.28 100.96 95.06 98.79 94.38C98.73 94.36 98.67 94.33 98.63 94.27C98.59 94.22 98.57 94.16 98.57 94.09C98.49 89.61 98.8 82.53 98.65 78.51C98.65 78.46 98.66 78.41 98.68 78.36C98.7 78.32 98.73 78.28 98.77 78.25C98.81 78.22 98.86 78.2 98.91 78.19C98.96 78.18 99.01 78.19 99.05 78.2C102.48 79.33 105.81 80.74 109.02 82.39C111.93 84.27 113.59 86.3 113.99 88.44C114.41 91.12 114.58 93.83 114.52 96.54C114.53 99.21 114.6 99.08 114.42 99.22C114.37 99.26 114.3 99.28 114.23 99.28ZM99.18 93.86C101.57 94.6 109.72 97.24 113.91 98.55C113.85 95.24 113.97 91.61 113.38 88.56C113.01 86.59 111.44 84.7 108.71 82.93C105.67 81.36 102.52 80.03 99.28 78.93C99.4 83.07 99.12 89.31 99.18 93.86Z" fill="#191919" fill-opacity="1.000000" fill-rule="nonzero"/>
	<path id="vector_33" d="M90.14 100.78C90.06 100.78 90.43 100.86 84.31 99.27C84.25 99.25 84.18 99.21 84.14 99.15C84.1 99.1 84.08 99.03 84.08 98.96L84.47 90.22C84.48 90.17 84.49 90.13 84.51 90.08C84.53 90.04 84.56 90.01 84.6 89.98C84.63 89.95 84.68 89.94 84.72 89.93C84.76 89.92 84.81 89.92 84.86 89.93L90.53 91.27C90.59 91.28 90.66 91.32 90.7 91.38C90.74 91.43 90.77 91.5 90.76 91.58C90.45 100.55 90.58 100.78 90.14 100.78ZM84.71 98.73L89.84 100.07L90.14 91.81L85.08 90.62L84.71 98.73Z" fill="#191919" fill-opacity="1.000000" fill-rule="nonzero"/>
	<path id="vector_38" d="M147.7 77.52C147.07 70.26 145.92 66.61 140.39 62.88C136.66 60.39 135.38 60.14 115.26 52.64C115.25 52.59 115.24 52.54 115.21 52.5C115.18 52.46 115.15 52.42 115.1 52.4C115.06 52.38 115.01 52.36 114.96 52.36C114.91 52.36 114.86 52.37 114.82 52.39L81.82 67.49C81.64 67.56 81.48 67.69 81.38 67.86C81.27 68.03 81.23 68.22 81.25 68.42C81.23 95.55 80.81 101.43 81.61 102.05C81.97 102.31 82.39 102.49 82.83 102.58C93.38 104.92 103.84 107.94 104.16 107.94C104.38 107.94 104.59 107.98 104.79 108.06C104.99 108.14 105.18 108.26 105.33 108.41C105.49 108.57 105.61 108.75 105.69 108.95C105.78 109.15 105.82 109.36 105.82 109.58C105.82 109.58 107.14 116.81 107.16 117.01C107.36 118.82 107.68 119.41 110.28 119.8C111.69 120.01 116.94 121.28 117.41 121.48C117.45 121.52 117.5 121.54 117.56 121.55C117.61 121.57 117.67 121.56 117.72 121.55C117.77 121.53 117.82 121.5 117.86 121.46C117.89 121.42 117.92 121.37 117.93 121.31C147.77 98.52 147.7 98.66 147.7 98.42L147.7 77.52ZM82.96 101.97C82.63 101.91 82.31 101.78 82.02 101.59C81.57 100.85 81.74 91.93 81.82 87.64C81.84 86.25 81.87 70.33 81.87 68.22L94.72 72.76L94.09 104.71C90.35 103.78 86.64 102.79 82.96 101.97ZM117.34 120.83C115.75 120.28 111.45 119.39 111.41 119.38C110.54 119.15 109.14 119.13 108.43 118.64C107.78 118.18 107.85 117.27 107.69 116.31L106.44 109.52C106.43 108.93 106.19 108.37 105.77 107.96C105.35 107.55 104.79 107.32 104.2 107.32C101.05 106.48 97.87 105.66 94.71 104.87L95.33 72.98L106.18 76.82C109.97 78.15 113.23 80.67 115.46 84.01C117.69 87.35 118.79 91.32 118.57 95.34L117.34 120.83ZM122.28 117.13L118.05 120.36L118.65 108.12C119.92 107.41 121.15 106.63 122.35 105.83L122.28 117.13ZM118.69 107.39L118.85 104C122.05 105.29 121.64 105.13 122.06 105.28C120.95 106.02 119.84 106.73 118.69 107.39ZM144.33 100.29L122.9 116.66L122.94 110.85C123.08 110.84 136.46 101.98 144.43 96.31L144.33 100.29ZM144.45 95.59C144.1 95.62 144.46 95.88 122.94 110.15C122.98 105.04 122.98 105.52 122.95 105.42C130.73 100.14 129.44 100.65 144.56 91.38L144.45 95.59ZM147.08 98.19L144.96 99.8C144.96 99.8 145.18 91.11 145.18 91L147.08 89.83L147.08 98.19ZM147.08 89.11L145.35 90.17C145.51 89.77 146.75 87.68 147.08 87.14L147.08 89.11ZM147.08 86.02C147.03 86.05 147 86.08 146.97 86.13C146.1 87.47 145.33 88.87 144.65 90.31C144.62 90.42 144.6 90.53 144.59 90.64C131.86 98.44 134.97 96.5 122.63 104.9C122.52 104.8 123.02 105.02 118.89 103.35L119.27 95.44C119.47 91.26 118.32 87.12 115.99 83.65C113.65 80.18 110.26 77.55 106.31 76.16L82.68 67.8L114.74 53.11C134.17 60.35 136.16 60.81 140.05 63.4C145.35 66.99 146.47 70.52 147.08 77.55L147.08 86.02Z" fill="#191919" fill-opacity="1.000000" fill-rule="nonzero"/>
	<path id="vector_39" d="M40.85 88.26L0.22 78.4C0.14 78.38 0.08 78.33 0.04 78.26C0 78.19 -0.01 78.11 0 78.03C0.02 77.95 0.07 77.89 0.14 77.84C0.21 77.8 0.29 77.79 0.37 77.8L40.92 87.64C40.99 87.66 41.06 87.71 41.1 87.77C41.14 87.83 41.16 87.91 41.15 87.98C41.15 88.06 41.11 88.13 41.05 88.18C41 88.23 40.92 88.26 40.85 88.26Z" fill="#191919" fill-opacity="1.000000" fill-rule="nonzero"/>
	<path id="vector_40" d="M39.59 82.74L12.74 76.2C12.66 76.18 12.59 76.13 12.55 76.06C12.51 75.99 12.5 75.9 12.52 75.83C12.54 75.75 12.59 75.68 12.66 75.64C12.72 75.59 12.81 75.58 12.89 75.6L39.66 82.13C39.74 82.15 39.8 82.2 39.84 82.26C39.89 82.32 39.91 82.4 39.9 82.47C39.89 82.55 39.85 82.62 39.79 82.67C39.74 82.72 39.66 82.74 39.59 82.74Z" fill="#191919" fill-opacity="1.000000" fill-rule="nonzero"/>
</svg>
