<svg width="150.000000" height="150.000000" viewBox="0 0 150 150" fill="none" xmlns="http://www.w3.org/2000/svg" xmlns:xlink="http://www.w3.org/1999/xlink">
	<desc>
			Created with Pixso.
	</desc>
	<defs>
		<clipPath id="clip115_234">
			<rect id="Hr-Human-Resources--Streamline-Lagos" width="150.000000" height="150.000000" fill="white" fill-opacity="0"/>
		</clipPath>
	</defs>
	<g clip-path="url(#clip115_234)">
		<path id="vector" d="M109.09 139.66C109.09 139.66 108.55 144.26 99.08 144.26C89.61 144.26 89.43 139.66 89.43 139.66L89.43 125.95C89.43 123.85 90.27 121.83 91.76 120.34C93.25 118.86 95.26 118.02 97.37 118.02L101.07 118.02C102.11 118.01 103.14 118.21 104.11 118.61C105.08 119 105.95 119.59 106.69 120.33C107.43 121.07 108.01 121.94 108.41 122.91C108.81 123.87 109.01 124.91 109 125.95L109 139.66L109.09 139.66Z" fill="#5A8CFF" fill-opacity="1.000000" fill-rule="nonzero"/>
		<path id="vector_2" d="M109.33 139.45L109.32 125.95C109.33 124.87 109.12 123.79 108.71 122.78C108.3 121.78 107.7 120.86 106.93 120.09C106.16 119.32 105.24 118.72 104.24 118.31C103.23 117.9 102.15 117.69 101.07 117.7L97.37 117.7C95.18 117.7 93.09 118.58 91.54 120.12C89.99 121.67 89.12 123.76 89.12 125.95L89.12 139.67C89.13 139.87 89.42 144.58 99.08 144.58C108.73 144.58 109.39 139.9 109.41 139.7C109.42 139.66 109.41 139.61 109.4 139.57C109.38 139.52 109.36 139.49 109.33 139.45ZM97.37 118.33C101.09 118.33 102.21 118.19 103.91 118.86C104.15 122.55 103.39 126.23 101.71 129.51C100.61 125.4 98.49 121.63 95.55 118.55C96.14 118.41 96.75 118.33 97.37 118.33ZM89.75 139.66L89.75 125.95C89.75 124.37 90.24 122.83 91.16 121.54C92.07 120.25 93.37 119.27 94.86 118.75C98.03 121.98 100.25 126.01 101.29 130.4C101.13 134.42 101.1 138.82 101.2 143.86C100.55 143.91 99.85 143.94 99.08 143.94C90.07 143.95 89.75 139.69 89.75 139.66ZM101.83 143.79C101.73 138.81 101.76 134.44 101.92 130.46C103.84 127.01 104.76 123.09 104.56 119.15C105.82 119.79 106.87 120.76 107.59 121.96C108.32 123.17 108.7 124.55 108.69 125.95C108.69 139.82 108.66 139.71 108.73 139.82C108.51 140.56 107.34 143.14 101.83 143.79Z" fill="#000000" fill-opacity="1.000000" fill-rule="nonzero"/>
		<path id="vector_3" d="M99.76 132.27L99.76 131.82C99.76 131.73 99.79 131.65 99.85 131.59C99.91 131.53 99.99 131.5 100.07 131.5C100.16 131.5 100.24 131.53 100.3 131.59C100.36 131.65 100.39 131.73 100.39 131.82L100.39 132.27C100.39 132.35 100.36 132.43 100.3 132.49C100.24 132.55 100.16 132.58 100.07 132.58C99.99 132.58 99.91 132.55 99.85 132.49C99.79 132.43 99.76 132.35 99.76 132.27Z" fill="#000000" fill-opacity="1.000000" fill-rule="nonzero"/>
		<path id="vector_4" d="M99.4 138.31L99.4 137.77C99.4 137.69 99.43 137.61 99.49 137.55C99.55 137.49 99.63 137.45 99.71 137.45C99.8 137.45 99.88 137.49 99.94 137.55C100 137.61 100.03 137.69 100.03 137.77L100.03 138.31C100.03 138.39 99.99 138.48 99.93 138.53C99.87 138.59 99.79 138.63 99.71 138.63C99.67 138.63 99.63 138.62 99.59 138.6C99.55 138.59 99.52 138.56 99.49 138.53C99.43 138.47 99.4 138.39 99.4 138.31Z" fill="#000000" fill-opacity="1.000000" fill-rule="nonzero"/>
		<path id="vector_5" d="M99.44 119.46C104.92 119.46 109.36 115.02 109.36 109.54C109.36 104.06 104.92 99.62 99.44 99.62C93.96 99.62 89.52 104.06 89.52 109.54C89.52 115.02 93.96 119.46 99.44 119.46Z" fill="#FFFFFF" fill-opacity="1.000000" fill-rule="nonzero"/>
		<path id="vector_6" d="M99.44 119.77C97.42 119.77 95.44 119.17 93.76 118.05C92.07 116.92 90.76 115.33 89.99 113.46C89.21 111.58 89.01 109.53 89.4 107.54C89.8 105.56 90.77 103.73 92.21 102.3C93.64 100.87 95.46 99.89 97.45 99.5C99.43 99.1 101.49 99.31 103.36 100.08C105.23 100.86 106.83 102.17 107.96 103.85C109.08 105.53 109.68 107.51 109.68 109.54C109.68 112.25 108.6 114.85 106.68 116.77C104.76 118.69 102.16 119.77 99.44 119.77ZM99.44 99.93C97.54 99.93 95.69 100.49 94.11 101.55C92.53 102.6 91.29 104.1 90.57 105.86C89.84 107.61 89.65 109.54 90.02 111.41C90.39 113.27 91.3 114.98 92.65 116.33C93.99 117.67 95.7 118.59 97.56 118.96C99.43 119.33 101.36 119.14 103.11 118.41C104.87 117.69 106.37 116.45 107.43 114.88C108.48 113.3 109.05 111.44 109.05 109.54C109.04 106.99 108.03 104.55 106.23 102.75C104.43 100.95 101.99 99.94 99.44 99.93Z" fill="#000000" fill-opacity="1.000000" fill-rule="nonzero"/>
		<path id="vector_7" d="M109.09 108.73C109.48 110.61 109.36 113.96 108.37 115.67C109.67 113.41 110.21 110.79 109.92 108.19C109.63 105.6 108.52 103.16 106.75 101.24C100.63 95.89 89.86 99.78 88.8 108.46C88.56 110.39 88.58 112.63 89.7 114.23C90.6 115.24 91.71 116.04 92.95 116.58C92.05 115.36 91.66 113.84 91.86 112.34C92.02 110.61 92.58 108.94 93.49 107.47C94.47 106.05 95.17 104.46 95.56 102.78C95.94 104.25 95.81 105.8 95.2 107.2C95.2 107.29 100.16 107.56 100.61 107.65C102.87 107.89 105.16 107.76 107.38 107.29C107.49 106.04 107.36 104.79 107.02 103.59C107.98 105.18 108.68 106.91 109.09 108.73Z" fill="#4880FF" fill-opacity="1.000000" fill-rule="nonzero"/>
		<path id="vector_8" d="M92.82 116.86C91.54 116.31 90.4 115.48 89.47 114.44C88.21 112.65 88.28 110.45 88.49 108.42C89.79 99.39 100.58 95.43 106.96 101C108.77 102.97 109.91 105.47 110.22 108.14C110.52 110.8 109.97 113.49 108.64 115.83C108.6 115.9 108.53 115.95 108.45 115.97C108.37 115.99 108.29 115.98 108.22 115.94C108.15 115.9 108.09 115.83 108.07 115.75C108.05 115.67 108.06 115.59 108.09 115.51C109.06 113.77 109.12 110.56 108.78 108.78C108.49 107.65 108.13 106.54 107.69 105.45C107.74 106.07 107.74 106.69 107.69 107.3C107.69 107.37 107.66 107.44 107.62 107.49C107.57 107.54 107.51 107.58 107.44 107.59C103.39 108.4 101.83 108.01 98.13 107.76C92.97 107.4 95.53 107.89 95.46 104.33C95.04 105.5 94.46 106.62 93.75 107.64C92.88 109.08 92.34 110.69 92.18 112.36C91.98 113.78 92.35 115.22 93.2 116.38C93.24 116.43 93.27 116.5 93.27 116.57C93.27 116.64 93.24 116.71 93.2 116.77C93.16 116.82 93.1 116.86 93.03 116.88C92.96 116.9 92.89 116.89 92.82 116.86ZM89.11 108.5C88.93 110.32 88.83 112.43 89.96 114.05C90.58 114.73 91.3 115.32 92.1 115.79C91.59 114.7 91.4 113.49 91.55 112.3C91.72 110.53 92.29 108.82 93.22 107.3C94.2 105.92 94.89 104.36 95.25 102.71C95.27 102.64 95.31 102.58 95.36 102.53C95.42 102.49 95.49 102.46 95.56 102.46C95.63 102.46 95.7 102.48 95.76 102.52C95.81 102.57 95.85 102.63 95.87 102.7C96.23 104.1 96.15 105.58 95.64 106.94C96.2 107 97.31 107.07 98.18 107.13C101.71 107.38 103.24 107.75 107.08 107.02C107.23 104.1 106.36 103.57 106.88 103.3C106.94 103.27 107.02 103.26 107.09 103.28C107.16 103.3 107.23 103.34 107.27 103.4C107.88 104.28 108.36 105.25 108.67 106.28C109.27 107.68 109.58 109.19 109.6 110.71C109.78 109.04 109.6 107.35 109.06 105.75C108.53 104.15 107.66 102.68 106.51 101.45C100.62 96.31 90.36 99.89 89.11 108.5Z" fill="#000000" fill-opacity="1.000000" fill-rule="nonzero"/>
		<path id="vector_9" d="M97.82 108.23C96.56 108.23 96.56 111.03 97.82 111.03C99.08 111.03 99.08 108.23 97.82 108.23Z" fill="#000000" fill-opacity="1.000000" fill-rule="nonzero"/>
		<path id="vector_10" d="M106.21 108.23C104.95 108.23 104.95 111.03 106.21 111.03C107.47 111.03 107.47 108.23 106.21 108.23Z" fill="#000000" fill-opacity="1.000000" fill-rule="nonzero"/>
		<path id="vector_11" d="M102.2 113.02C101.86 113.02 101.53 112.95 101.23 112.8C100.93 112.65 100.66 112.43 100.46 112.17C100.41 112.1 100.38 112.02 100.39 111.93C100.4 111.85 100.45 111.78 100.51 111.72C100.58 111.67 100.66 111.65 100.74 111.66C100.83 111.67 100.9 111.71 100.95 111.78C101.1 111.97 101.28 112.12 101.49 112.22C101.7 112.33 101.93 112.39 102.16 112.39C102.4 112.4 102.63 112.35 102.85 112.25C103.06 112.16 103.25 112.01 103.4 111.83C103.44 111.76 103.5 111.71 103.58 111.68C103.66 111.66 103.74 111.66 103.82 111.7C103.89 111.74 103.95 111.8 103.98 111.88C104 111.95 104 112.04 103.96 112.11C103.76 112.4 103.5 112.63 103.19 112.78C102.88 112.94 102.54 113.02 102.2 113.02Z" fill="#000000" fill-opacity="1.000000" fill-rule="nonzero"/>
		<path id="vector_12" d="M135.7 146.25C126.23 146.25 126.05 141.64 126.05 141.64L126.05 127.94C126.05 125.83 126.89 123.82 128.38 122.33C129.86 120.84 131.88 120 133.98 120L137.68 120C139.79 120 141.8 120.84 143.29 122.33C144.78 123.82 145.62 125.83 145.62 127.94L145.62 141.64C145.62 141.64 145.17 146.25 135.7 146.25Z" fill="#5A8CFF" fill-opacity="1.000000" fill-rule="nonzero"/>
		<path id="vector_13" d="M145.93 127.94C145.93 125.75 145.06 123.65 143.52 122.11C141.97 120.56 139.87 119.69 137.68 119.69L133.99 119.69C131.8 119.69 129.7 120.56 128.16 122.11C126.61 123.65 125.74 125.75 125.74 127.94L125.74 141.66C125.75 141.86 126.04 146.56 135.7 146.56C143.64 146.56 145.49 143.39 145.91 142.16C145.95 142.02 145.93 142.14 145.93 127.94ZM138.33 131.5C137.23 127.38 135.1 123.62 132.16 120.55C132.76 120.39 133.37 120.32 133.99 120.32C137.72 120.32 138.8 120.17 140.53 120.87C140.76 124.55 140 128.22 138.33 131.5Z" fill="#000000" fill-opacity="1.000000" fill-rule="nonzero"/>
		<path id="vector_14" d="M138.14 146.38C138.05 146.38 137.97 146.35 137.91 146.29C137.85 146.23 137.82 146.15 137.82 146.07C137.74 141.89 137.79 137.56 138 132.43C138 132.35 138.04 132.27 138.1 132.22C138.16 132.16 138.24 132.14 138.33 132.14C138.41 132.14 138.49 132.18 138.54 132.24C138.6 132.3 138.63 132.38 138.63 132.46C138.09 145.96 138.82 146.37 138.14 146.38Z" fill="#FFFFFF" fill-opacity="1.000000" fill-rule="nonzero"/>
		<path id="vector_15" d="M136.37 134.25L136.37 133.8C136.37 133.72 136.41 133.64 136.47 133.58C136.53 133.52 136.61 133.48 136.69 133.48C136.77 133.48 136.85 133.52 136.91 133.58C136.97 133.64 137.01 133.72 137.01 133.8L137.01 134.25C137.01 134.33 136.97 134.41 136.91 134.47C136.85 134.53 136.77 134.57 136.69 134.57C136.61 134.57 136.53 134.53 136.47 134.47C136.41 134.41 136.37 134.33 136.37 134.25Z" fill="#FFFFFF" fill-opacity="1.000000" fill-rule="nonzero"/>
		<path id="vector_16" d="M136.01 140.29L136.01 139.75C136.01 139.67 136.05 139.59 136.11 139.53C136.17 139.47 136.25 139.44 136.33 139.44C136.41 139.44 136.49 139.47 136.55 139.53C136.61 139.59 136.64 139.67 136.64 139.75L136.64 140.29C136.64 140.38 136.61 140.46 136.55 140.52C136.49 140.58 136.41 140.61 136.33 140.61C136.25 140.61 136.17 140.58 136.11 140.52C136.05 140.46 136.01 140.38 136.01 140.29Z" fill="#FFFFFF" fill-opacity="1.000000" fill-rule="nonzero"/>
		<path id="vector_17" d="M136.06 121.44C141.54 121.44 145.98 117 145.98 111.52C145.98 106.04 141.54 101.6 136.06 101.6C130.58 101.6 126.14 106.04 126.14 111.52C126.14 117 130.58 121.44 136.06 121.44Z" fill="#FFFFFF" fill-opacity="1.000000" fill-rule="nonzero"/>
		<path id="vector_18" d="M136.06 101.29C134.03 101.29 132.05 101.89 130.37 103.01C128.69 104.14 127.38 105.74 126.6 107.61C125.83 109.48 125.62 111.53 126.02 113.52C126.41 115.51 127.39 117.33 128.82 118.76C130.25 120.19 132.08 121.17 134.06 121.56C136.05 121.96 138.11 121.76 139.98 120.98C141.85 120.2 143.45 118.89 144.57 117.21C145.7 115.52 146.3 113.55 146.3 111.52C146.29 108.81 145.21 106.21 143.29 104.29C141.37 102.37 138.77 101.29 136.06 101.29ZM136.06 121.13C133.6 121.12 131.23 120.18 129.45 118.48C127.67 116.78 126.6 114.47 126.48 112.01C128.93 111.95 131.31 111.21 133.37 109.87C135.42 108.53 137.07 106.65 138.11 104.43C142.25 106.05 145.21 109.24 145.6 112.58C145.34 114.93 144.22 117.1 142.46 118.68C140.7 120.25 138.42 121.12 136.06 121.13Z" fill="#000000" fill-opacity="1.000000" fill-rule="nonzero"/>
		<path id="vector_19" d="M134.44 110.21C133.18 110.21 133.18 113.01 134.44 113.01C135.7 113.01 135.7 110.21 134.44 110.21Z" fill="#000000" fill-opacity="1.000000" fill-rule="nonzero"/>
		<path id="vector_20" d="M142.73 110.21C141.47 110.21 141.47 113.01 142.73 113.01C143.99 113.01 144 110.21 142.73 110.21Z" fill="#000000" fill-opacity="1.000000" fill-rule="nonzero"/>
		<path id="vector_21" d="M137.07 114.15C137.02 114.09 137 114.01 137.01 113.92C137.02 113.84 137.06 113.76 137.12 113.71C137.19 113.66 137.27 113.63 137.36 113.64C137.44 113.65 137.52 113.69 137.57 113.76C137.71 113.94 137.89 114.08 138.1 114.18C138.31 114.28 138.53 114.33 138.76 114.33C138.99 114.33 139.22 114.28 139.43 114.18C139.63 114.08 139.82 113.94 139.96 113.76C139.99 113.73 140.02 113.7 140.06 113.68C140.09 113.66 140.13 113.65 140.17 113.64C140.21 113.64 140.25 113.64 140.3 113.65C140.34 113.67 140.37 113.68 140.4 113.71C140.44 113.74 140.46 113.77 140.48 113.8C140.5 113.84 140.52 113.88 140.52 113.92C140.53 113.96 140.52 114.01 140.51 114.04C140.5 114.08 140.48 114.12 140.45 114.15C140.26 114.41 140 114.63 139.71 114.77C139.41 114.92 139.09 114.99 138.76 114.99C138.44 114.99 138.11 114.92 137.82 114.77C137.53 114.63 137.27 114.41 137.07 114.15Z" fill="#000000" fill-opacity="1.000000" fill-rule="nonzero"/>
		<path id="vector_22" d="M87.36 62.19C98.11 37.91 116.06 17.51 138.76 3.75C117.3 27.01 97.82 53.53 86.45 83.38C84.74 85.82 80.53 71.68 79.24 68.14C76.19 59.6 72.13 51.46 67.15 43.88C75.46 48.03 82.45 54.4 87.36 62.28L87.36 62.19Z" fill="#4880FF" fill-opacity="1.000000" fill-rule="nonzero"/>
		<path id="vector_23" d="M85.9 83.97C84.34 83.75 82.33 78.17 80.06 71.45C76.78 61.75 73.17 53.47 66.9 44.05C66.86 44 66.84 43.93 66.84 43.86C66.85 43.79 66.88 43.72 66.92 43.67C66.97 43.62 67.03 43.58 67.1 43.57C67.17 43.56 67.24 43.57 67.3 43.6C75.46 47.67 82.37 53.88 87.29 61.57C98.06 37.42 115.97 17.15 138.6 3.47C138.67 3.44 138.74 3.42 138.82 3.43C138.89 3.45 138.96 3.49 139.01 3.55C139.06 3.6 139.08 3.68 139.08 3.75C139.08 3.83 139.05 3.9 139 3.96C96.33 50.21 88.23 81.41 86.71 83.56C86.63 83.7 86.51 83.82 86.37 83.89C86.22 83.96 86.06 83.99 85.9 83.97ZM68.08 44.71C74.09 53.94 77.52 61.96 80.66 71.25C81.22 72.9 85.08 84.64 86.17 83.23C95.99 57.47 112.62 31.94 136.99 5.22C115.23 18.89 98.06 38.75 87.67 62.25C87.68 62.33 87.66 62.4 87.62 62.45C87.58 62.51 87.52 62.56 87.45 62.58C87.39 62.6 87.31 62.6 87.25 62.58C87.18 62.55 87.12 62.5 87.09 62.44C82.43 54.96 75.87 48.84 68.08 44.71Z" fill="#000000" fill-opacity="1.000000" fill-rule="nonzero"/>
		<path id="vector_24" d="M59.49 142.82C66.21 142.82 71.66 140.88 71.66 138.49C71.66 136.1 66.21 134.16 59.49 134.16C52.76 134.16 47.31 136.1 47.31 138.49C47.31 140.88 52.76 142.82 59.49 142.82Z" fill="#5A8CFF" fill-opacity="1.000000" fill-rule="nonzero"/>
		<path id="vector_25" d="M70.04 115.31C70.04 115.31 70.22 120 60.93 121.62C51.64 123.25 50.65 118.74 50.65 118.74L48.3 105.3C47.95 103.22 48.43 101.08 49.65 99.36C50.87 97.63 52.72 96.46 54.8 96.1L58.5 95.47C60.58 95.11 62.71 95.6 64.44 96.82C66.16 98.03 67.33 99.88 67.69 101.96L70.04 115.31Z" fill="#4880FF" fill-opacity="1.000000" fill-rule="nonzero"/>
		<path id="vector_26" d="M70.36 115.3L68.01 101.91C67.63 99.75 66.41 97.82 64.62 96.56C62.83 95.29 60.61 94.79 58.44 95.16L54.75 95.79C52.58 96.16 50.66 97.38 49.39 99.17C48.13 100.97 47.62 103.19 48 105.35L50.34 118.81C50.38 118.97 51.19 122.29 57.21 122.29C58.48 122.28 59.74 122.16 60.99 121.93C70.44 120.28 70.36 115.5 70.36 115.3ZM60.88 121.31C52.04 122.86 50.97 118.71 50.96 118.69L48.62 105.25C48.35 103.68 48.58 102.07 49.27 100.64C49.95 99.2 51.07 98.02 52.46 97.24C56.14 99.93 59.05 103.54 60.9 107.71C61.49 111.89 62.18 116.2 63.02 120.85C62.37 121.02 61.66 121.18 60.88 121.31ZM63.63 120.67C62.78 115.94 62.08 111.57 61.49 107.32C62.69 103.67 62.9 99.77 62.09 96.01C63.44 96.42 64.66 97.2 65.59 98.26C66.53 99.32 67.15 100.62 67.39 102.02L69.73 115.34C69.72 115.61 69.52 118.86 63.63 120.67Z" fill="#000000" fill-opacity="1.000000" fill-rule="nonzero"/>
		<path id="vector_27" d="M59.63 109.69L59.54 109.24C59.53 109.16 59.54 109.08 59.59 109.01C59.64 108.94 59.71 108.9 59.79 108.88C59.87 108.87 59.95 108.88 60.02 108.92C60.09 108.97 60.14 109.04 60.16 109.12L60.25 109.57C60.26 109.65 60.24 109.73 60.2 109.8C60.15 109.86 60.08 109.91 60 109.93C59.92 109.94 59.83 109.93 59.77 109.88C59.7 109.84 59.65 109.77 59.63 109.69Z" fill="#000000" fill-opacity="1.000000" fill-rule="nonzero"/>
		<path id="vector_28" d="M60.26 115.72L60.17 115.18C60.16 115.1 60.18 115.02 60.23 114.95C60.28 114.88 60.35 114.84 60.43 114.83C60.51 114.81 60.59 114.83 60.66 114.88C60.73 114.92 60.77 115 60.79 115.08L60.88 115.62C60.89 115.7 60.87 115.78 60.83 115.85C60.78 115.92 60.7 115.97 60.62 115.98C60.54 115.99 60.45 115.97 60.39 115.93C60.32 115.88 60.27 115.8 60.26 115.72Z" fill="#000000" fill-opacity="1.000000" fill-rule="nonzero"/>
		<path id="vector_29" d="M53.6 72.47C53.71 74.78 53.41 78.11 55.7 79.41C56.28 79.69 56.92 79.83 57.56 79.82C58.21 79.8 58.84 79.63 59.4 79.32C60.39 78.77 61.23 78 61.88 77.07C59.91 74.19 57.01 72.92 53.6 72.47Z" fill="#FFFFFF" fill-opacity="1.000000" fill-rule="nonzero"/>
		<path id="vector_30" d="M61.68 76.79C61.06 77.73 60.22 78.5 59.25 79.04C58.73 79.33 58.15 79.48 57.56 79.5C56.97 79.52 56.39 79.39 55.86 79.14C53.68 77.89 54 74.35 53.92 72.51C53.71 72.48 53.5 72.45 53.29 72.43C53.3 72.77 53.31 73.12 53.31 73.46C53.31 76.03 53.58 78.56 55.57 79.7C56.19 80 56.88 80.14 57.57 80.12C58.27 80.11 58.95 79.92 59.56 79.59C60.54 79.04 61.4 78.27 62.06 77.35C61.94 77.16 61.81 76.98 61.68 76.79Z" fill="#000000" fill-opacity="1.000000" fill-rule="nonzero"/>
		<path id="vector_31" d="M55.34 97.27C60.82 97.27 65.26 92.83 65.26 87.35C65.26 81.87 60.82 77.43 55.34 77.43C49.86 77.43 45.42 81.87 45.42 87.35C45.42 92.83 49.86 97.27 55.34 97.27Z" fill="#FFFFFF" fill-opacity="1.000000" fill-rule="nonzero"/>
		<path id="vector_32" d="M55.34 77.11C53.31 77.11 51.34 77.71 49.65 78.84C47.97 79.96 46.66 81.56 45.88 83.43C45.11 85.3 44.9 87.36 45.3 89.35C45.69 91.33 46.67 93.16 48.1 94.59C49.53 96.02 51.36 97 53.34 97.39C55.33 97.79 57.39 97.58 59.26 96.81C61.13 96.03 62.73 94.72 63.85 93.04C64.98 91.35 65.58 89.38 65.58 87.35C65.57 84.64 64.49 82.04 62.57 80.12C60.66 78.2 58.05 77.12 55.34 77.11ZM55.34 96.96C53.18 96.95 51.08 96.22 49.38 94.88C47.69 93.54 46.49 91.67 45.99 89.56C46.5 89.7 54.13 87.57 56.12 79.96C60.31 80.74 63.84 83.67 64.94 86.93C64.99 88.22 64.79 89.51 64.33 90.73C63.87 91.94 63.17 93.05 62.28 93.99C61.38 94.92 60.3 95.67 59.11 96.18C57.92 96.69 56.64 96.95 55.34 96.96Z" fill="#000000" fill-opacity="1.000000" fill-rule="nonzero"/>
		<path id="vector_33" d="M54.64 87.55C54.32 85.72 52.45 86.04 52.78 87.88C53.1 89.72 54.96 89.37 54.64 87.55Z" fill="#000000" fill-opacity="1.000000" fill-rule="nonzero"/>
		<path id="vector_34" d="M62.85 86.1C62.53 84.27 60.66 84.6 60.99 86.43C61.1 87.09 61.55 87.75 62.16 87.64C62.77 87.54 62.96 86.74 62.85 86.1Z" fill="#000000" fill-opacity="1.000000" fill-rule="nonzero"/>
		<path id="vector_35" d="M58.23 90.37C57.95 90.37 57.67 90.31 57.42 90.2C57.16 90.09 56.93 89.94 56.74 89.74C56.68 89.68 56.65 89.6 56.66 89.52C56.66 89.43 56.69 89.36 56.75 89.3C56.81 89.24 56.88 89.21 56.96 89.21C57.05 89.2 57.13 89.23 57.19 89.29C57.35 89.45 57.56 89.58 57.78 89.65C58 89.72 58.24 89.74 58.47 89.7C58.7 89.67 58.92 89.58 59.11 89.44C59.3 89.31 59.46 89.13 59.57 88.92C59.6 88.85 59.67 88.79 59.75 88.76C59.83 88.74 59.91 88.74 59.99 88.78C60.07 88.82 60.12 88.88 60.15 88.96C60.17 89.04 60.17 89.13 60.13 89.2C59.94 89.55 59.67 89.83 59.33 90.04C59 90.24 58.62 90.36 58.23 90.37Z" fill="#000000" fill-opacity="1.000000" fill-rule="nonzero"/>
		<path id="vector_36" d="M63.6 62.16C63.27 59.2 60.1 56.06 57.92 54.49C52.34 50.44 39.75 49.76 32.88 52.45C26.48 54.95 19.33 71.01 25.12 81.04C28.18 86.36 33.14 90.33 39.01 92.13C40.6 92.75 42.36 92.78 43.97 92.22C44.94 91.72 45.72 90.93 46.2 89.95C46.69 88.98 46.86 87.88 46.68 86.81C46.35 84.65 45.34 82.66 43.79 81.13C42.98 80.36 42.34 79.44 41.9 78.42C41.76 77.71 41.83 76.97 42.08 76.28C42.34 75.6 42.77 75 43.35 74.54C44.51 73.67 45.87 73.08 47.31 72.83C50.44 72.05 53.73 72.17 56.78 73.19C58.31 73.71 59.68 74.59 60.8 75.75C61.91 76.91 62.73 78.32 63.19 79.87C63.46 80.95 63.55 82.21 64.36 83.02C65.62 84.29 67.95 83.63 69.32 82.3C74.23 77.55 71.48 67.36 63.6 62.16Z" fill="#FFFFFF" fill-opacity="1.000000" fill-rule="nonzero"/>
		<path id="vector_37" d="M64.18 62.17C62.85 57.91 59.2 54.25 54.37 52.42C45.58 49.02 36.1 51.16 36.01 51.14C30.13 49.83 21.85 47.18 15.89 46.09C15.87 46.09 15.84 46.09 15.81 46.09C15.45 46.12 6.88 47.01 4.07 62.76C1.27 78.48 10.52 84.58 10.62 84.64C10.75 84.73 10.64 84.7 27.06 83.79C29.9 87.96 34.08 91.03 38.9 92.52C40.57 93.16 42.42 93.19 44.11 92.6C45.14 92.07 45.97 91.23 46.49 90.2C47.01 89.16 47.19 87.99 46.99 86.85C46.66 84.62 45.61 82.56 44 80.98C43.24 80.26 42.63 79.38 42.2 78.42C42.09 77.76 42.15 77.09 42.38 76.47C42.62 75.84 43.02 75.3 43.54 74.88C44.67 74.03 45.99 73.47 47.39 73.23C50.46 72.46 53.68 72.58 56.68 73.58C58.26 74.12 59.68 75.06 60.8 76.31C61.91 77.56 62.68 79.08 63.03 80.72C63.13 81.68 63.52 82.59 64.13 83.34C65.54 84.74 68.06 84.09 69.54 82.61C73.97 78.19 72.4 67.91 64.18 62.17ZM69.09 82.17C67.86 83.4 65.7 84.01 64.58 82.89C64.06 82.23 63.74 81.43 63.65 80.59C63.28 78.85 62.46 77.23 61.27 75.89C60.08 74.56 58.57 73.55 56.88 72.98C53.77 71.95 50.43 71.82 47.25 72.61C45.76 72.87 44.36 73.48 43.15 74.38C42.53 74.87 42.06 75.52 41.79 76.26C41.51 77 41.44 77.8 41.59 78.57C41.6 78.6 41.6 78.62 41.61 78.64C42.07 79.7 42.74 80.65 43.57 81.44C45.07 82.93 46.05 84.86 46.37 86.94C46.53 87.94 46.38 88.97 45.94 89.88C45.49 90.79 44.77 91.54 43.87 92.02C42.32 92.55 40.63 92.52 39.11 91.92C34.58 90.54 30.64 87.71 27.87 83.87C20.25 73.21 24.34 57.84 33.46 52.4C39.85 50.55 48.23 50.73 54.15 53.01C58.06 54.4 61.27 57.28 63.07 61.03C61.5 58.51 59.13 56.59 56.35 55.58C56.27 55.55 56.18 55.56 56.11 55.59C56.03 55.63 55.98 55.69 55.95 55.77C55.92 55.85 55.92 55.93 55.96 56.01C55.99 56.08 56.05 56.14 56.13 56.17C58.66 57.09 60.82 58.79 62.32 61.03C60.03 59.79 57.51 59.03 54.91 58.81C54.87 58.8 54.83 58.81 54.79 58.82C54.75 58.83 54.71 58.85 54.68 58.88C54.65 58.91 54.62 58.94 54.61 58.98C54.59 59.01 54.58 59.05 54.57 59.09C54.57 59.14 54.57 59.18 54.58 59.22C54.6 59.26 54.62 59.29 54.64 59.32C54.67 59.36 54.7 59.38 54.74 59.4C54.78 59.42 54.82 59.43 54.86 59.44C68.97 60.67 74.99 76.28 69.09 82.17Z" fill="#000000" fill-opacity="1.000000" fill-rule="nonzero"/>
		<path id="vector_38" d="M29.18 137.32C29.18 137.32 28.55 141.92 19.17 141.92C9.79 141.92 9.52 137.32 9.52 137.32L9.52 123.61C9.52 121.5 10.36 119.49 11.85 118C13.34 116.51 15.35 115.67 17.46 115.67L21.16 115.67C23.26 115.67 25.28 116.51 26.77 118C28.25 119.49 29.09 121.5 29.1 123.61L29.1 137.32L29.18 137.32Z" fill="#5A8CFF" fill-opacity="1.000000" fill-rule="nonzero"/>
		<path id="vector_39" d="M21.79 128.21C20.45 122.4 18.02 119.25 15.17 116.19C15.62 115.74 17.01 115.76 17.64 115.76C19.91 115.76 24.09 115.64 24.49 116.3C24.74 120.45 23.8 124.58 21.79 128.21Z" fill="#4880FF" fill-opacity="1.000000" fill-rule="nonzero"/>
		<path id="vector_40" d="M29.41 137.1L29.41 123.61C29.41 121.42 28.54 119.32 26.99 117.78C25.44 116.23 23.35 115.36 21.16 115.36L17.46 115.36C15.27 115.36 13.18 116.23 11.63 117.78C10.08 119.32 9.21 121.42 9.21 123.61L9.21 137.33C9.22 137.53 9.61 142.23 19.17 142.23C28.72 142.23 29.47 137.56 29.5 137.36C29.5 137.31 29.5 137.26 29.48 137.22C29.47 137.17 29.44 137.13 29.41 137.1ZM17.46 115.99C21.16 115.99 22.32 115.83 24.1 116.58C24.33 120.24 23.56 123.9 21.9 127.17C20.79 123.04 18.67 119.27 15.71 116.19C16.29 116.06 16.87 115.99 17.46 115.99ZM9.84 137.32L9.84 123.61C9.84 122.01 10.34 120.46 11.27 119.17C12.2 117.87 13.51 116.9 15.02 116.39C18.2 119.62 20.43 123.66 21.47 128.07C21.27 133.09 21.21 137.49 21.29 141.51C20.64 141.57 19.94 141.6 19.17 141.6C10.25 141.6 9.84 137.34 9.84 137.32ZM21.92 141.45C21.84 137.45 21.91 133.09 22.1 128.11C24.01 124.69 24.92 120.8 24.75 116.89C25.96 117.54 26.98 118.51 27.69 119.69C28.4 120.87 28.78 122.23 28.78 123.61C28.78 137.47 28.75 137.36 28.82 137.47C28.58 138.21 27.38 140.79 21.92 141.45Z" fill="#000000" fill-opacity="1.000000" fill-rule="nonzero"/>
		<path id="vector_41" d="M19.94 129.83L19.94 129.38C19.94 129.3 19.97 129.22 20.03 129.16C20.09 129.1 20.17 129.07 20.25 129.07C20.34 129.07 20.42 129.1 20.48 129.16C20.54 129.22 20.57 129.3 20.57 129.38L20.57 129.83C20.57 129.91 20.54 130 20.48 130.05C20.42 130.11 20.34 130.15 20.25 130.15C20.17 130.15 20.09 130.11 20.03 130.05C19.97 130 19.94 129.91 19.94 129.83Z" fill="#000000" fill-opacity="1.000000" fill-rule="nonzero"/>
		<path id="vector_42" d="M19.58 135.96L19.58 135.42C19.58 135.34 19.61 135.26 19.67 135.2C19.73 135.14 19.81 135.11 19.89 135.11C19.98 135.11 20.06 135.14 20.12 135.2C20.18 135.26 20.21 135.34 20.21 135.42L20.21 135.96C20.21 136.05 20.18 136.13 20.12 136.19C20.06 136.25 19.98 136.28 19.89 136.28C19.81 136.28 19.73 136.25 19.67 136.19C19.61 136.13 19.58 136.05 19.58 135.96Z" fill="#000000" fill-opacity="1.000000" fill-rule="nonzero"/>
		<path id="vector_43" d="M29.27 107.19C30.08 111.42 25.65 117.07 19.62 117.02C17.01 116.99 14.51 115.94 12.65 114.11C10.78 112.28 9.7 109.8 9.61 107.19C13.01 107.64 18.92 104.89 21.61 99.62C24.94 100.61 28.61 103.68 29.27 107.19Z" fill="#FFFFFF" fill-opacity="1.000000" fill-rule="nonzero"/>
		<path id="vector_44" d="M17.91 105.89C16.65 105.89 16.65 108.68 17.91 108.68C19.17 108.68 19.17 105.89 17.91 105.89Z" fill="#000000" fill-opacity="1.000000" fill-rule="nonzero"/>
		<path id="vector_45" d="M26.3 105.89C25.04 105.89 25.04 108.68 26.3 108.68C27.56 108.68 27.56 105.89 26.3 105.89Z" fill="#000000" fill-opacity="1.000000" fill-rule="nonzero"/>
		<path id="vector_46" d="M22.29 110.68C21.95 110.68 21.62 110.6 21.32 110.45C21.02 110.3 20.75 110.09 20.55 109.82C20.5 109.76 20.48 109.67 20.49 109.59C20.5 109.51 20.54 109.44 20.61 109.39C20.67 109.34 20.75 109.31 20.84 109.32C20.92 109.33 20.99 109.37 21.05 109.43C21.29 109.76 21.66 109.98 22.07 110.04C22.48 110.09 22.89 109.99 23.22 109.74C23.25 109.71 23.29 109.68 23.32 109.65C23.39 109.61 23.45 109.55 23.49 109.49C23.53 109.41 23.6 109.36 23.68 109.34C23.75 109.31 23.84 109.32 23.91 109.35C23.99 109.39 24.04 109.45 24.07 109.53C24.1 109.61 24.09 109.7 24.06 109.77C23.86 110.05 23.59 110.28 23.28 110.44C22.98 110.6 22.63 110.68 22.29 110.68Z" fill="#000000" fill-opacity="1.000000" fill-rule="nonzero"/>
		<path id="vector_47" d="M19.62 96.96C17.79 96.96 15.99 97.45 14.41 98.38C12.84 99.32 11.54 100.66 10.66 102.26C10.09 101.94 9.45 101.79 8.81 101.81C8.16 101.84 7.54 102.05 7.01 102.42C6 103.14 5.27 104.17 4.92 105.36C4.58 106.54 4.63 107.81 5.09 108.96C6.24 111.36 7.34 111.51 8.04 113.86C8.17 114.26 8.16 114.68 8.02 115.08C7.88 115.47 7.62 115.81 7.27 116.04C7.21 116.08 7.16 116.15 7.14 116.23C7.12 116.3 7.13 116.38 7.17 116.45C7.21 116.52 7.27 116.57 7.34 116.6C7.41 116.63 7.49 116.62 7.57 116.59C9.16 115.95 10.53 114.86 11.54 113.47C12.61 114.84 14.01 115.92 15.6 116.6C17.2 117.29 18.95 117.55 20.67 117.37C22.4 117.19 24.06 116.58 25.48 115.58C26.9 114.59 28.05 113.25 28.82 111.69C29.58 110.13 29.93 108.4 29.84 106.66C29.75 104.93 29.22 103.25 28.3 101.77C27.38 100.3 26.1 99.08 24.58 98.24C23.07 97.4 21.36 96.96 19.62 96.96ZM19.62 116.8C17.16 116.8 14.8 115.85 13.01 114.15C11.23 112.46 10.16 110.14 10.03 107.69C12.48 107.63 14.87 106.89 16.93 105.55C18.99 104.21 20.63 102.33 21.68 100.11C25.8 101.71 28.78 105.09 29.16 108.38C28.86 110.7 27.73 112.84 25.98 114.39C24.22 115.94 21.96 116.8 19.62 116.8Z" fill="#000000" fill-opacity="1.000000" fill-rule="nonzero"/>
	</g>
</svg>
