<svg width="184.697266" height="149.484375" viewBox="0 0 184.697 149.484" fill="none" xmlns="http://www.w3.org/2000/svg" xmlns:xlink="http://www.w3.org/1999/xlink">
	<desc>
			Created with Pixso.
	</desc>
	<defs/>
	<path id="path" d="M73.63 29.2L73.63 29.44L69.51 29.68L69.75 31.62C68.34 31.62 66 32.28 64.71 31.72C63.4 31.15 63.01 29.39 61.51 28.81C57.5 27.28 53.91 27.45 52.22 22.65C50.95 19.06 53.6 14.43 50.34 11.58C47.35 8.96 43.16 7.45 39.44 9.27C38.16 9.89 36.04 12.71 34.59 12.36C33.02 11.98 32.02 9.3 31.17 8.11C30.21 6.73 28.68 6.1 27.07 5.79C24.21 5.24 17.81 4.84 16.32 8.1C14.91 11.19 16.57 15.69 13.41 18.18C12.4 18.99 10.7 17.67 9.61 17.44C7.29 16.95 4.51 17.82 3.08 19.75C1.81 21.45 0.74 23.64 1.25 25.8C2.19 29.74 5.84 31.47 5.73 35.99C5.62 40.25 2.15 40.66 0.43 43.75C-0.58 45.57 0.39 48.27 1.05 50.05C2.68 54.47 8.85 52.98 11.7 56.6C14.72 60.44 11.11 66.12 14.25 69.44C16.91 72.27 22.21 73.9 25.86 72.28C27.16 71.7 28.9 69.28 30.23 69.32C32.56 69.41 34.16 74.4 36.05 75.62C39.01 77.54 46.95 76.8 48.64 73.33C49.97 70.61 49.14 67.07 50.35 64.12C51.44 66.7 51.48 69.86 52 72.61C53.35 79.61 54.41 86.68 55.63 93.7C56.11 96.5 57.98 101.41 55.93 103.65C52.84 96.47 48.62 88.98 44.53 82.31C41.62 84.36 39.35 87.67 36.97 90.31L22.44 106.56L15.96 113.83C15.07 114.83 13.62 115.96 13.15 117.23C12.55 118.85 12.77 121.55 12.77 123.29L12.52 133.23C16.19 131.45 19.53 126.07 22.26 123.05C28.79 115.82 35.22 108.35 42.11 101.46C44.96 108.31 48.94 115.89 53.02 122.08C55.63 120.86 57.23 117.91 59.57 116.26C59.73 120.12 60.81 124.08 61.45 127.9C62.65 135.09 63.8 142.31 65.15 149.48C72.64 149.46 80.5 147.62 87.94 146.64L126.98 141.55C132 140.92 137.02 140.32 142.02 139.6C144.52 139.24 146.86 139.39 148.66 137.33C149.97 135.83 149.37 134.5 148.97 132.75L146.63 122.56C151.35 121.48 150.35 127.61 152.74 129.74C153.8 130.67 155.25 130.56 156.57 130.56C162.51 130.56 163.56 127.09 165.78 122.32C167 122.84 168.1 123.7 169.42 123.94C172.76 124.52 178.19 122.27 178.61 118.44C178.96 115.23 176.24 112.47 177.64 109.22C179.53 104.81 185.19 105.61 184.66 99.77C184.27 95.54 180.13 96.2 178.43 92.73C175.84 87.47 182.73 82.75 176.45 78.6C175.12 77.72 172.8 77.65 171.36 78.32C170.49 78.73 169.51 80.02 168.46 79.59C165.51 78.38 166.13 74.01 164.03 72.25C162.9 71.29 160.83 71.57 159.48 71.78C154.43 72.57 152.59 75.14 151.23 79.88C149.46 79.05 147.65 78.03 145.66 77.95C141.66 77.79 138.14 81.34 138.14 85.22L137.89 85.22C137.17 76.05 133.72 66.55 131.73 57.57L130 50.05C129.79 49.13 129.24 47.84 129.42 46.9C129.64 45.75 131.05 44.78 131.83 43.99L137.89 37.93C138.57 37.26 139.95 35.27 141.05 35.55C142.1 35.83 143.2 37.39 143.89 38.17C145.61 40.12 147.41 42.49 149.53 43.99C150.1 40.96 150.01 37.83 150.3 34.78C150.85 29 151.72 23.13 151.72 17.32C142.83 17.32 133.93 17.8 125.04 17.8C126.67 20.11 128.88 21.98 130.72 24.11C131.25 24.72 132.55 25.65 132.55 26.53C132.55 27.29 131.59 27.99 131.11 28.47C129.48 30.11 127.9 31.99 126.01 33.32C125.91 32.04 125.68 28.58 124.62 27.75C123.66 26.99 120.4 27.78 119.22 27.92C114.4 28.49 109.49 28.35 104.67 28.96C104.57 26.64 106.86 26 107.41 23.86C108.71 18.82 102.28 18.44 99.65 16.38C98.04 15.13 97.4 11.13 96.13 9.31C92.27 3.8 85.57 -0.01 78.73 0C75.68 0 74.25 1.39 71.93 3.02C66.17 7.07 62.96 11.58 62.96 18.77C62.96 20.24 62.36 23.44 63.21 24.68C63.74 25.45 65.06 25.95 65.87 26.34C68.28 27.5 70.96 28.84 73.63 29.2Z" fill="#282D32" fill-opacity="1.000000" fill-rule="nonzero"/>
	<path id="path" d="M86.24 2.52C89.86 7.66 94.48 12.17 95.46 18.77C99.12 16.81 98.28 14.5 96.46 11.25C94.38 7.54 90.64 3.31 86.24 2.52Z" fill="#4880FF" fill-opacity="1.000000" fill-rule="nonzero"/>
	<path id="path" d="" fill="#9C7B7A" fill-opacity="1.000000" fill-rule="nonzero"/>
	<path id="path" d="" fill="#CFBFBF" fill-opacity="1.000000" fill-rule="nonzero"/>
	<path id="path" d="" fill="#784C4C" fill-opacity="1.000000" fill-rule="nonzero"/>
	<path id="path" d="" fill="#9C7B7A" fill-opacity="1.000000" fill-rule="nonzero"/>
	<path id="path" d="M98.13 12.95L98.37 13.19L98.13 12.95ZM15.43 13.19L15.43 13.92L15.68 13.92C15.61 13.57 15.6 13.5 15.43 13.19Z" fill="#9C7B7A" fill-opacity="1.000000" fill-rule="nonzero"/>
	<path id="path" d="M97.4 13.19L97.64 13.44L97.4 13.19ZM87.46 13.44L87.7 13.68L87.46 13.44Z" fill="#7F4923" fill-opacity="1.000000" fill-rule="nonzero"/>
	<path id="path" d="" fill="#CFBFBF" fill-opacity="1.000000" fill-rule="nonzero"/>
	<path id="path" d="" fill="#7F4923" fill-opacity="1.000000" fill-rule="nonzero"/>
	<path id="path" d="" fill="#9C7B7A" fill-opacity="1.000000" fill-rule="nonzero"/>
	<path id="path" d="" fill="#BD782B" fill-opacity="1.000000" fill-rule="nonzero"/>
	<path id="path" d="" fill="#CFBFBF" fill-opacity="1.000000" fill-rule="nonzero"/>
	<path id="path" d="" fill="#7F4923" fill-opacity="1.000000" fill-rule="nonzero"/>
	<path id="path" d="" fill="#9C7B7A" fill-opacity="1.000000" fill-rule="nonzero"/>
	<path id="path" d="M97.88 14.65L98.13 14.89L97.88 14.65ZM15.92 14.89L16.16 15.13L15.92 14.89Z" fill="#BD782B" fill-opacity="1.000000" fill-rule="nonzero"/>
	<path id="path" d="" fill="#CFBFBF" fill-opacity="1.000000" fill-rule="nonzero"/>
	<path id="path" d="" fill="#9C7B7A" fill-opacity="1.000000" fill-rule="nonzero"/>
	<path id="path" d="M98.21 15.54C98.19 15.55 98.18 15.81 98.29 15.7C98.3 15.69 98.31 15.43 98.21 15.54Z" fill="#C59B40" fill-opacity="1.000000" fill-rule="nonzero"/>
	<path id="path" d="" fill="#784C4C" fill-opacity="1.000000" fill-rule="nonzero"/>
	<path id="path" d="" fill="#CFBFBF" fill-opacity="1.000000" fill-rule="nonzero"/>
	<path id="path" d="" fill="#9C7B7A" fill-opacity="1.000000" fill-rule="nonzero"/>
	<path id="path" d="" fill="#9C662C" fill-opacity="1.000000" fill-rule="nonzero"/>
	<path id="path" d="" fill="#9C7B7A" fill-opacity="1.000000" fill-rule="nonzero"/>
	<path id="path" d="" fill="#CFBFBF" fill-opacity="1.000000" fill-rule="nonzero"/>
	<path id="path" d="" fill="#784C4C" fill-opacity="1.000000" fill-rule="nonzero"/>
	<path id="path" d="M100.31 16.59L100.55 16.83L100.31 16.59ZM14.22 16.83L14.46 17.08L14.22 16.83Z" fill="#BAA4A4" fill-opacity="1.000000" fill-rule="nonzero"/>
	<path id="path" d="M99.01 17.16C98.91 17.26 99.16 17.25 99.18 17.24C99.28 17.13 99.03 17.14 99.01 17.16Z" fill="#9C662C" fill-opacity="1.000000" fill-rule="nonzero"/>
	<path id="path" d="M101.76 17.08L102.01 17.32L101.76 17.08ZM149.05 17.08L149.05 17.32L151.72 17.32C150.89 16.97 149.95 17.08 149.05 17.08ZM6.46 17.32L6.7 17.56L6.46 17.32Z" fill="#CFBFBF" fill-opacity="1.000000" fill-rule="nonzero"/>
	<path id="path" d="" fill="#BD782B" fill-opacity="1.000000" fill-rule="nonzero"/>
	<path id="path" d="M98.61 17.32L98.37 17.8C98.67 17.57 98.71 17.63 98.61 17.32Z" fill="#7F4923" fill-opacity="1.000000" fill-rule="nonzero"/>
	<path id="path" d="M68.78 25.08C70.48 26.35 73.07 26.73 75.09 27.26C82.42 29.16 90.27 28.84 97.64 27.36C100.05 26.87 108.34 25.17 106.23 21.2C105.29 19.42 101.19 16.97 99.1 17.48C98.03 17.73 97.12 18.74 96.19 19.29C94.42 20.31 92.51 21.1 90.61 21.82C83.27 24.61 76.56 25.41 68.78 25.08Z" fill="#4880FF" fill-opacity="1.000000" fill-rule="nonzero"/>
	<path id="path" d="" fill="#BD782B" fill-opacity="1.000000" fill-rule="nonzero"/>
	<path id="path" d="M98.13 17.8L98.37 18.04L98.13 17.8ZM101.28 17.8L101.52 18.04L101.28 17.8Z" fill="#BD782B" fill-opacity="1.000000" fill-rule="nonzero"/>
	<path id="path" d="M103.22 17.8L103.46 18.04L103.22 17.8ZM151.8 17.96C151.78 17.98 151.77 18.23 151.88 18.12C151.89 18.11 151.91 17.86 151.8 17.96ZM4.76 18.04L5.01 18.29L4.76 18.04Z" fill="#9C7B7A" fill-opacity="1.000000" fill-rule="nonzero"/>
	<path id="path" d="M96.43 18.04L96.67 18.29L96.43 18.04ZM102.01 18.04L102.25 18.29L102.01 18.04Z" fill="#9C662C" fill-opacity="1.000000" fill-rule="nonzero"/>
	<path id="path" d="M89.64 18.29L89.88 18.53L89.64 18.29ZM94.49 18.29L94.73 18.53L94.49 18.29ZM95.94 18.29L96.19 18.53L95.94 18.29ZM102.49 18.29L102.73 18.53L102.49 18.29Z" fill="#BD782B" fill-opacity="1.000000" fill-rule="nonzero"/>
	<path id="path" d="M97.16 18.53L97.4 18.77L97.16 18.53ZM102.98 18.53L103.22 18.77L102.98 18.53Z" fill="#BD782B" fill-opacity="1.000000" fill-rule="nonzero"/>
	<path id="path" d="M45.02 18.77L45.02 20.71L45.26 20.71C45.26 20.03 45.28 19.41 45.02 18.77ZM103.46 18.77L103.7 19.01L103.46 18.77Z" fill="#BD782B" fill-opacity="1.000000" fill-rule="nonzero"/>
	<path id="path" d="M95.46 19.5L95.7 19.74L95.46 19.5ZM104.67 19.5L104.92 19.74L104.67 19.5Z" fill="#9C662C" fill-opacity="1.000000" fill-rule="nonzero"/>
	<path id="path" d="M127.71 19.74L127.95 19.98L127.71 19.74ZM7.92 19.98L8.16 20.23L7.92 19.98Z" fill="#BD782B" fill-opacity="1.000000" fill-rule="nonzero"/>
	<path id="path" d="M85.76 20.71L86 20.95L85.76 20.71ZM90.85 20.71L91.09 20.95L90.85 20.71ZM93.03 20.71L93.28 20.95L93.03 20.71ZM105.89 20.71L106.13 20.95L105.89 20.71Z" fill="#BD782B" fill-opacity="1.000000" fill-rule="nonzero"/>
	<path id="path" d="M106.86 20.71L107.1 20.95L106.86 20.71ZM151.56 20.87C151.54 20.89 151.53 21.14 151.64 21.04C151.65 21.02 151.66 20.77 151.56 20.87ZM2.1 20.95L2.34 21.2L2.1 20.95Z" fill="#9C7B7A" fill-opacity="1.000000" fill-rule="nonzero"/>
	<path id="path" d="M87.21 22.89L87.46 23.14L87.21 22.89ZM106.37 22.89L106.61 23.14L106.37 22.89Z" fill="#BD782B" fill-opacity="1.000000" fill-rule="nonzero"/>
	<path id="path" d="M151.31 23.06C151.3 23.07 151.29 23.33 151.39 23.22C151.41 23.21 151.42 22.95 151.31 23.06ZM1.13 23.14L1.37 23.38L1.13 23.14Z" fill="#784C4C" fill-opacity="1.000000" fill-rule="nonzero"/>
	<path id="path" d="M150.59 23.3C150.57 23.31 150.56 23.57 150.67 23.46C150.68 23.45 150.69 23.19 150.59 23.3ZM1.85 23.38L2.1 23.62L1.85 23.38Z" fill="#C59B40" fill-opacity="1.000000" fill-rule="nonzero"/>
	<path id="path" d="M63.69 23.87C65.05 26.34 70.54 27.8 73.15 28.5C80.88 30.58 89.03 31.55 96.91 29.59C99.47 28.96 102.93 28.15 104.67 26.05C101.25 27.03 98.04 28.29 94.49 28.89C83.44 30.73 73.77 28.06 63.69 23.87Z" fill="#282D32" fill-opacity="1.000000" fill-rule="nonzero"/>
	<path id="path" d="M131.59 25.08L131.83 25.32L131.59 25.08ZM0.88 25.32L1.13 25.56L0.88 25.32Z" fill="#CFBFBF" fill-opacity="1.000000" fill-rule="nonzero"/>
	<path id="path" d="M69.03 25.32L69.27 25.56L69.03 25.32ZM103.7 25.32L103.95 25.56L103.7 25.32Z" fill="#9C662C" fill-opacity="1.000000" fill-rule="nonzero"/>
	<path id="path" d="M70.48 25.8L70.72 26.05L70.48 25.8ZM102.49 25.8L102.73 26.05L102.49 25.8Z" fill="#BD782B" fill-opacity="1.000000" fill-rule="nonzero"/>
	<path id="path" d="M71.94 26.29L72.18 26.53L71.94 26.29ZM101.28 26.29L101.52 26.53L101.28 26.29Z" fill="#BD782B" fill-opacity="1.000000" fill-rule="nonzero"/>
	<path id="path" d="M151.07 26.45C151.06 26.46 151.04 26.72 151.15 26.61C151.17 26.6 151.18 26.34 151.07 26.45ZM1.37 26.53L1.61 26.77L1.37 26.53Z" fill="#9C7B7A" fill-opacity="1.000000" fill-rule="nonzero"/>
	<path id="path" d="M70 26.53L70.24 26.77L70 26.53ZM72.42 26.53L72.66 26.77L72.42 26.53ZM100.71 26.61C100.6 26.72 100.86 26.71 100.87 26.69C100.98 26.59 100.73 26.6 100.71 26.61Z" fill="#7F4923" fill-opacity="1.000000" fill-rule="nonzero"/>
	<path id="path" d="M99.74 26.86C99.63 26.96 99.89 26.95 99.9 26.94C100.01 26.83 99.76 26.84 99.74 26.86Z" fill="#7F4923" fill-opacity="1.000000" fill-rule="nonzero"/>
	<path id="path" d="M151.07 26.94C151.06 26.95 151.04 27.21 151.15 27.1C151.17 27.08 151.18 26.83 151.07 26.94ZM1.61 27.02L1.85 27.26L1.61 27.02ZM34.35 27.02L34.59 27.26L34.35 27.02Z" fill="#B59A94" fill-opacity="1.000000" fill-rule="nonzero"/>
	<path id="path" d="M98.77 27.1C98.66 27.21 98.92 27.19 98.93 27.18C99.04 27.07 98.79 27.08 98.77 27.1ZM101.52 27.02L101.76 27.26L101.52 27.02Z" fill="#7F4923" fill-opacity="1.000000" fill-rule="nonzero"/>
	<path id="path" d="M97.56 27.34C97.45 27.45 97.71 27.43 97.72 27.42C97.83 27.31 97.57 27.33 97.56 27.34ZM100.79 27.26L101.04 27.5L100.79 27.26Z" fill="#9C662C" fill-opacity="1.000000" fill-rule="nonzero"/>
	<path id="path" d="M99.98 27.58C99.88 27.69 100.13 27.68 100.15 27.66C100.25 27.56 100 27.57 99.98 27.58Z" fill="#BD782B" fill-opacity="1.000000" fill-rule="nonzero"/>
	<path id="path" d="M95.13 27.83C95.03 27.93 95.28 27.92 95.3 27.91C95.4 27.8 95.15 27.81 95.13 27.83ZM99.1 27.75L99.34 27.99L99.1 27.75Z" fill="#9C662C" fill-opacity="1.000000" fill-rule="nonzero"/>
	<path id="path" d="M98.04 28.07C97.94 28.18 98.19 28.16 98.21 28.15C98.31 28.04 98.06 28.05 98.04 28.07ZM101.28 27.99L101.52 28.23L101.28 27.99Z" fill="#BD782B" fill-opacity="1.000000" fill-rule="nonzero"/>
	<path id="path" d="M70.48 30.41C70.52 32.44 71.06 34.49 71.45 36.47C71.57 37.09 71.56 38.24 72.12 38.64C72.68 39.05 73.94 38.67 74.6 38.66C74.65 36.6 75.95 35.57 77.76 34.78C77.34 36.27 78.07 37.02 78.48 38.41C85.42 37.54 92.83 36.78 99.82 36.72C99.87 34.66 101.11 33.88 102.73 32.84L102.98 33.08L102.25 34.05L102.25 34.29C102.87 35 103.27 35.55 103.46 36.47L105.4 36.23C105.18 33.45 104.07 30.78 103.95 27.99C98.83 28.9 94.26 31.24 88.91 31.6C82.71 32.03 76.69 30.15 70.48 30.41Z" fill="#FFFFFF" fill-opacity="1.000000" fill-rule="nonzero"/>
	<path id="path" d="M97.07 28.31C96.97 28.42 97.22 28.4 97.24 28.39C97.34 28.28 97.09 28.3 97.07 28.31ZM100.79 28.23L101.04 28.47L100.79 28.23ZM102.49 28.23L102.73 28.47L102.49 28.23Z" fill="#BD782B" fill-opacity="1.000000" fill-rule="nonzero"/>
	<path id="path" d="M105.16 29.68L105.64 32.84C110.95 32.83 116.92 32.59 122.13 31.62C128.79 65.94 138.7 99.61 145.17 133.96C138.82 134.09 132.32 135.59 126.01 136.35C107.38 138.58 88.7 141.94 70 143.42C69.33 135 67.05 126.53 65.65 118.2C62.6 100.08 59.46 81.96 56.27 63.88L52.83 44.23C52.57 42.91 51.1 38.41 52 37.35C52.81 36.37 55.52 36.78 56.66 36.68C61.17 36.25 65.74 36.07 70.24 35.5C70.19 34.43 69.96 33.4 69.75 32.35C63.15 32.35 56.17 32.98 49.63 33.81C49.74 39.38 51.4 45.29 52.39 50.78L56.75 76.49C60.9 99.56 64.2 122.8 68.54 145.84C95.48 143.72 122.11 137.78 149.05 135.66C142.79 113.38 138.55 90.31 133.37 67.76L127.31 41.57C126.32 37.23 124.68 32.66 124.32 28.23C118.03 28.23 111.4 28.9 105.16 29.68Z" fill="#4880FF" fill-opacity="1.000000" fill-rule="nonzero"/>
	<path id="path" d="" fill="#BD782B" fill-opacity="1.000000" fill-rule="nonzero"/>
	<path id="path" d="" fill="#7F4923" fill-opacity="1.000000" fill-rule="nonzero"/>
	<path id="path" d="M98.61 28.96L98.85 29.2L98.61 28.96ZM100.79 28.96L101.04 29.2L100.79 28.96Z" fill="#BD782B" fill-opacity="1.000000" fill-rule="nonzero"/>
	<path id="path" d="M150.75 28.96L150.75 29.68L150.99 29.68C150.93 29.33 150.91 29.26 150.75 28.96ZM3.31 29.2L3.55 29.44L3.31 29.2Z" fill="#9C7B7A" fill-opacity="1.000000" fill-rule="nonzero"/>
	<path id="path" d="M98.04 29.28C97.94 29.39 98.19 29.37 98.21 29.36C98.31 29.25 98.06 29.27 98.04 29.28Z" fill="#7F4923" fill-opacity="1.000000" fill-rule="nonzero"/>
	<path id="path" d="" fill="#BD782B" fill-opacity="1.000000" fill-rule="nonzero"/>
	<path id="path" d="M96.1 29.77C96 29.87 96.25 29.86 96.27 29.85C96.37 29.74 96.12 29.75 96.1 29.77ZM98.37 29.68L98.61 29.93L98.37 29.68Z" fill="#7F4923" fill-opacity="1.000000" fill-rule="nonzero"/>
	<path id="path" d="M130.38 30.17L130.62 30.41L130.38 30.17ZM5.01 30.41L5.25 30.66L5.01 30.41Z" fill="#7F4923" fill-opacity="1.000000" fill-rule="nonzero"/>
	<path id="path" d="M91.74 31.22C91.63 31.33 91.89 31.32 91.9 31.3C92.01 31.19 91.75 31.21 91.74 31.22ZM104.51 31.3C104.5 31.32 104.48 31.57 104.59 31.46C104.61 31.45 104.62 31.19 104.51 31.3Z" fill="#C59B40" fill-opacity="1.000000" fill-rule="nonzero"/>
	<path id="path" d="M106.13 33.56C106.18 36.16 106.55 37.19 103.46 37.2C102.98 39.57 101.21 39.05 100.07 37.44C93.67 38.63 86.89 38.31 80.42 38.94C78.86 39.09 78.03 40.87 76.78 40.87C75.84 40.87 75.37 39.84 74.56 39.53C72.05 38.6 71.01 40.14 70.72 36.47C65.22 36.49 59.74 37.69 54.23 37.69C55.98 51.47 58.94 65.24 61.4 78.91C64.96 98.61 67.99 118.41 71.69 138.08C89.02 136.72 106.33 133.81 123.59 131.74C130.09 130.96 136.69 129.63 143.23 129.35C142.45 123.32 140.52 117.34 139.21 111.41C135.33 93.85 131.33 76.31 127.31 58.79C125.33 50.17 122.58 41.34 121.41 32.59C116.3 32.59 111.23 33.56 106.13 33.56Z" fill="#FFFFFF" fill-opacity="1.000000" fill-rule="nonzero"/>
	<path id="path" d="M127.23 33.32L127.47 33.56L127.23 33.32ZM16.4 33.56L16.65 33.81L16.4 33.56Z" fill="#7F4923" fill-opacity="1.000000" fill-rule="nonzero"/>
	<path id="path" d="M49.38 34.29L49.63 34.29C50 33.98 50.12 33.93 50.6 33.81C49.96 33.44 49.54 33.56 49.38 34.29ZM101.52 33.56L101.76 33.81L101.52 33.56Z" fill="#BD782B" fill-opacity="1.000000" fill-rule="nonzero"/>
	<path id="path" d="M41.38 33.81L41.62 34.05L41.38 33.81ZM70.08 33.97C70.06 33.98 70.05 34.24 70.16 34.13C70.17 34.12 70.18 33.86 70.08 33.97ZM100.95 33.89C100.85 34 101.1 33.98 101.12 33.97C101.22 33.86 100.97 33.87 100.95 33.89Z" fill="#C59B40" fill-opacity="1.000000" fill-rule="nonzero"/>
	<path id="path" d="" fill="#9C662C" fill-opacity="1.000000" fill-rule="nonzero"/>
	<path id="path" d="M70.24 34.78L70.24 35.75L70.48 35.75C70.44 35.34 70.4 35.14 70.24 34.78ZM126.5 34.78L126.5 35.5L126.74 35.5C126.68 35.15 126.66 35.08 126.5 34.78Z" fill="#9C662C" fill-opacity="1.000000" fill-rule="nonzero"/>
	<path id="path" d="M76.79 35.02L77.03 35.26L76.79 35.02ZM99.82 35.02L100.07 35.26L99.82 35.02ZM102.98 35.02L103.22 35.26L102.98 35.02Z" fill="#BD782B" fill-opacity="1.000000" fill-rule="nonzero"/>
	<path id="path" d="M150.34 35.67C150.33 35.68 150.32 35.94 150.42 35.83C150.44 35.81 150.45 35.56 150.34 35.67ZM22.55 35.91C22.53 35.92 22.52 36.18 22.63 36.07C22.64 36.06 22.65 35.8 22.55 35.91Z" fill="#CFBFBF" fill-opacity="1.000000" fill-rule="nonzero"/>
	<path id="path" d="M142.02 36.23L142.26 36.47L142.02 36.23ZM41.62 36.47L41.87 36.72L41.62 36.47Z" fill="#CFBFBF" fill-opacity="1.000000" fill-rule="nonzero"/>
	<path id="path" d="M98.77 36.8C98.66 36.91 98.92 36.89 98.93 36.88C99.04 36.77 98.79 36.78 98.77 36.8Z" fill="#C59B40" fill-opacity="1.000000" fill-rule="nonzero"/>
	<path id="path" d="M98.53 37.53C98.42 37.63 98.68 37.62 98.69 37.61C98.8 37.5 98.54 37.51 98.53 37.53Z" fill="#BAA4A4" fill-opacity="1.000000" fill-rule="nonzero"/>
	<path id="path" d="" fill="#784C4C" fill-opacity="1.000000" fill-rule="nonzero"/>
	<path id="path" d="" fill="#CFBFBF" fill-opacity="1.000000" fill-rule="nonzero"/>
	<path id="path" d="M52.54 37.93C53.33 47.92 55.99 58.14 57.77 68L66.5 117.96C67.61 124.1 68.87 130.22 69.82 136.39C70.14 138.45 70.06 141.92 72.42 142.45C73.14 141.91 73.75 142.05 74.6 142.21C74.6 141.35 77.19 141.55 78 141.4C81.83 140.65 85.79 140.57 89.64 139.98C99.76 138.44 110 137.13 120.19 136.14C123.83 135.79 127.46 134.89 131.11 134.69C134.43 134.5 137.72 133.66 141.05 133.47C142.12 133.42 144.06 133.51 144.2 132.26C138.35 132.27 132.3 133.66 126.5 134.38L90.61 138.85L76.79 140.58C75.61 140.73 72.83 141.65 71.8 140.98C70.54 140.16 70.58 136.09 70.33 134.69C69.24 128.64 68.44 122.5 67.17 116.5C64.28 102.88 62.37 88.99 59.99 75.27C57.84 62.86 55.09 50.43 53.51 37.93L52.54 37.93Z" fill="#4880FF" fill-opacity="1.000000" fill-rule="nonzero"/>
	<path id="path" d="M135.47 38.66L135.71 38.9L135.47 38.66ZM5.73 38.9L5.98 39.14L5.73 38.9Z" fill="#BD782B" fill-opacity="1.000000" fill-rule="nonzero"/>
	<path id="path" d="M89.64 42.29L89.88 42.54L89.64 42.29ZM127.47 42.29L127.47 43.02L127.71 43.02C127.65 42.67 127.63 42.6 127.47 42.29Z" fill="#9C662C" fill-opacity="1.000000" fill-rule="nonzero"/>
	<path id="path" d="M123.59 42.54L123.83 42.78L123.59 42.54ZM0.88 42.78L1.13 43.02L0.88 42.78Z" fill="#9C7B7A" fill-opacity="1.000000" fill-rule="nonzero"/>
	<path id="path" d="M93.28 43.99L93.52 44.23L93.28 43.99ZM123.83 43.99L124.07 44.23L123.83 43.99Z" fill="#CFBFBF" fill-opacity="1.000000" fill-rule="nonzero"/>
	<path id="path" d="M72.34 45.77C72.23 45.88 72.49 45.86 72.5 45.85C72.61 45.74 72.35 45.76 72.34 45.77ZM79.53 45.85C79.52 45.86 79.51 46.12 79.61 46.01C79.63 46 79.64 45.74 79.53 45.85ZM124.32 45.69L124.56 45.93L124.32 45.69Z" fill="#784C4C" fill-opacity="1.000000" fill-rule="nonzero"/>
	<path id="path" d="M79.78 46.58C79.76 46.59 79.75 46.85 79.86 46.74C79.87 46.73 79.88 46.47 79.78 46.58ZM129.17 46.42L129.41 46.66L129.17 46.42Z" fill="#BAA4A4" fill-opacity="1.000000" fill-rule="nonzero"/>
	<path id="path" d="M129.17 46.66L129.41 46.9L129.17 46.66ZM42.11 46.9L42.35 47.14L42.11 46.9Z" fill="#9C7B7A" fill-opacity="1.000000" fill-rule="nonzero"/>
	<path id="path" d="M100.53 60.09L95.2 60.54L92.04 60.82C91.04 60.95 89.34 60.63 88.48 61.2C87.74 61.7 87.87 62.89 88.69 63.23C89.76 63.69 91.87 63.15 93.01 63C95.65 62.65 98.36 62.58 101.02 62.39C101.87 62.33 104.08 62.45 104.65 61.75C106.36 59.61 101.35 59.98 100.53 60.09Z" fill="#282D32" fill-opacity="1.000000" fill-rule="nonzero"/>
	<path id="path" d="M73.63 51.75L73.88 51.99L73.63 51.75ZM129.65 51.75L129.65 52.48L129.89 52.48C129.83 52.13 129.82 52.05 129.65 51.75Z" fill="#9C662C" fill-opacity="1.000000" fill-rule="nonzero"/>
	<path id="path" d="M130.38 51.75L130.62 51.99L130.38 51.75ZM2.1 51.99L2.34 52.24L2.1 51.99Z" fill="#BAA4A4" fill-opacity="1.000000" fill-rule="nonzero"/>
	<path id="path" d="M80.75 52.16C80.73 52.17 80.72 52.43 80.83 52.32C80.84 52.3 80.85 52.05 80.75 52.16ZM125.77 51.99L126.01 52.24L125.77 51.99ZM130.46 52.16C130.45 52.17 130.43 52.43 130.54 52.32C130.55 52.3 130.57 52.05 130.46 52.16Z" fill="#784C4C" fill-opacity="1.000000" fill-rule="nonzero"/>
	<path id="path" d="M52.54 52.48L52.54 53.21L52.78 53.21C52.72 52.85 52.7 52.78 52.54 52.48ZM54.31 52.64C54.3 52.65 54.29 52.91 54.39 52.8C54.41 52.79 54.42 52.53 54.31 52.64ZM67.33 52.48L67.57 52.72L67.33 52.48ZM126.74 52.48L126.74 53.21L126.98 53.21C126.92 52.85 126.91 52.78 126.74 52.48Z" fill="#9C662C" fill-opacity="1.000000" fill-rule="nonzero"/>
	<path id="path" d="M130.62 52.96L130.86 53.21L130.62 52.96ZM4.92 53.29C4.82 53.4 5.07 53.38 5.09 53.37C5.19 53.26 4.94 53.27 4.92 53.29Z" fill="#9C7B7A" fill-opacity="1.000000" fill-rule="nonzero"/>
	<path id="path" d="M96.67 55.63L96.91 55.87L96.67 55.63ZM101.04 55.63L101.04 55.87L102.01 55.87C101.64 55.71 101.44 55.67 101.04 55.63Z" fill="#FFF3B3" fill-opacity="1.000000" fill-rule="nonzero"/>
	<path id="path" d="M127.55 55.79C127.54 55.81 127.52 56.06 127.63 55.96C127.64 55.94 127.66 55.69 127.55 55.79ZM12.04 55.87L12.28 56.12L12.04 55.87Z" fill="#9C662C" fill-opacity="1.000000" fill-rule="nonzero"/>
	<path id="path" d="M131.35 56.12L131.59 56.36L131.35 56.12ZM11.55 56.36L11.8 56.6L11.55 56.36Z" fill="#9C7B7A" fill-opacity="1.000000" fill-rule="nonzero"/>
	<path id="path" d="M126.74 56.36L126.98 56.6L126.74 56.36ZM131.35 56.36L131.59 56.6L131.35 56.36ZM11.8 56.6L12.04 56.84L11.8 56.6Z" fill="#784C4C" fill-opacity="1.000000" fill-rule="nonzero"/>
	<path id="path" d="M126.82 56.76C126.81 56.78 126.79 57.03 126.9 56.92C126.92 56.91 126.93 56.66 126.82 56.76ZM11.8 56.84L12.04 57.09L11.8 56.84Z" fill="#CFBFBF" fill-opacity="1.000000" fill-rule="nonzero"/>
	<path id="path" d="M69.51 57.09L69.75 57.33L69.51 57.09ZM73.63 57.09L73.88 57.33L73.63 57.09ZM130.94 57.25C130.93 57.26 130.92 57.52 131.02 57.41C131.04 57.4 131.05 57.14 130.94 57.25Z" fill="#BD782B" fill-opacity="1.000000" fill-rule="nonzero"/>
	<path id="path" d="M131.59 57.33L131.83 57.57L131.59 57.33ZM12.28 57.57L12.52 57.82L12.28 57.57Z" fill="#9C7B7A" fill-opacity="1.000000" fill-rule="nonzero"/>
	<path id="path" d="M131.83 58.54L132.08 58.78L131.83 58.54ZM12.77 58.78L13.01 59.03L12.77 58.78Z" fill="#784C4C" fill-opacity="1.000000" fill-rule="nonzero"/>
	<path id="path" d="M132.08 59.03L132.32 59.27L132.08 59.03ZM12.77 59.27L13.01 59.51L12.77 59.27Z" fill="#CFBFBF" fill-opacity="1.000000" fill-rule="nonzero"/>
	<path id="path" d="M127.47 59.51L127.71 59.75L127.47 59.51ZM132.08 59.51L132.32 59.75L132.08 59.51ZM13.09 59.92C13.08 59.93 13.06 60.19 13.17 60.08C13.18 60.07 13.2 59.81 13.09 59.92Z" fill="#784C4C" fill-opacity="1.000000" fill-rule="nonzero"/>
	<path id="path" d="M82.69 62.34C82.67 62.35 82.66 62.61 82.77 62.5C82.78 62.49 82.79 62.23 82.69 62.34ZM128.92 62.18L128.92 62.91L129.17 62.91C129.1 62.55 129.09 62.48 128.92 62.18Z" fill="#7F4923" fill-opacity="1.000000" fill-rule="nonzero"/>
	<path id="path" d="M54.23 62.42L54.23 63.15L54.48 63.15C54.41 62.8 54.4 62.72 54.23 62.42ZM56.74 62.58C56.73 62.6 56.71 62.85 56.82 62.75C56.83 62.73 56.85 62.48 56.74 62.58ZM132.16 62.58C132.14 62.6 132.13 62.85 132.24 62.75C132.25 62.73 132.26 62.48 132.16 62.58Z" fill="#BD782B" fill-opacity="1.000000" fill-rule="nonzero"/>
	<path id="path" d="M82.93 63.07C82.92 63.08 82.9 63.34 83.01 63.23C83.02 63.22 83.04 62.96 82.93 63.07ZM128.28 63.07C128.26 63.08 128.25 63.34 128.36 63.23C128.37 63.22 128.38 62.96 128.28 63.07Z" fill="#BAA4A4" fill-opacity="1.000000" fill-rule="nonzero"/>
	<path id="path" d="M82.12 63.15L82.12 63.88L82.36 63.88C82.3 63.52 82.29 63.45 82.12 63.15ZM129.25 63.31C129.23 63.32 129.22 63.58 129.33 63.47C129.34 63.46 129.35 63.2 129.25 63.31Z" fill="#9C662C" fill-opacity="1.000000" fill-rule="nonzero"/>
	<path id="path" d="M133.29 64.6L133.53 64.85L133.29 64.6ZM49.87 64.85L50.11 65.09L49.87 64.85ZM50.6 64.85L50.6 65.57L50.84 65.57C50.78 65.22 50.76 65.15 50.6 64.85Z" fill="#9C7B7A" fill-opacity="1.000000" fill-rule="nonzero"/>
	<path id="path" d="M75.09 65.33L75.09 65.57L75.82 65.57C75.51 65.41 75.44 65.39 75.09 65.33ZM128.68 65.33L128.92 65.57L128.68 65.33Z" fill="#CFBFBF" fill-opacity="1.000000" fill-rule="nonzero"/>
	<path id="path" d="M133.53 65.33L133.77 65.57L133.53 65.33ZM12.77 65.57L12.77 66.79L13.01 66.79C12.99 66.31 12.95 66 12.77 65.57Z" fill="#CFBFBF" fill-opacity="1.000000" fill-rule="nonzero"/>
	<path id="path" d="M128.92 66.06L129.17 66.3L128.92 66.06ZM50.92 66.46C50.91 66.48 50.89 66.73 51 66.62C51.01 66.61 51.03 66.36 50.92 66.46Z" fill="#9C7B7A" fill-opacity="1.000000" fill-rule="nonzero"/>
	<path id="path" d="M129.17 67.03L129.41 67.27L129.17 67.03ZM133.77 67.03L134.02 67.27L133.77 67.03ZM13.01 67.27L13.25 67.51L13.01 67.27Z" fill="#784C4C" fill-opacity="1.000000" fill-rule="nonzero"/>
	<path id="path" d="M134.02 67.51L134.26 67.76L134.02 67.51ZM13.01 67.76L13.25 68L13.01 67.76Z" fill="#CFBFBF" fill-opacity="1.000000" fill-rule="nonzero"/>
	<path id="path" d="M59.41 68.16C59.39 68.17 59.38 68.43 59.49 68.32C59.5 68.31 59.51 68.05 59.41 68.16ZM129.41 68L129.65 68.24L129.41 68ZM134.02 68L134.26 68.24L134.02 68Z" fill="#784C4C" fill-opacity="1.000000" fill-rule="nonzero"/>
	<path id="path" d="M54.48 68.48L54.48 69.21L54.72 69.21C54.66 68.86 54.64 68.79 54.48 68.48ZM130.38 68.48L130.38 69.21L130.62 69.21C130.56 68.86 130.54 68.79 130.38 68.48Z" fill="#9C662C" fill-opacity="1.000000" fill-rule="nonzero"/>
	<path id="path" d="M57.95 69.86C57.94 69.87 57.92 70.13 58.03 70.02C58.05 70.01 58.06 69.75 57.95 69.86ZM130.62 69.7L130.62 70.42L130.86 70.42C130.8 70.07 130.79 70 130.62 69.7Z" fill="#7F4923" fill-opacity="1.000000" fill-rule="nonzero"/>
	<path id="path" d="M31.68 70.18L31.92 70.42L31.68 70.18ZM129.89 70.18L130.14 70.42L129.89 70.18ZM134.5 70.18L134.74 70.42L134.5 70.18Z" fill="#784C4C" fill-opacity="1.000000" fill-rule="nonzero"/>
	<path id="path" d="M123.83 72.85C123.79 69.11 116.03 71.34 113.4 71.6C105.18 72.38 96.86 72.83 88.67 73.92C87.26 74.11 81.53 73.76 81.25 75.53C80.95 77.52 83.73 76.81 84.79 76.71C88.74 76.34 92.71 75.72 96.67 75.53C100.38 75.35 104.14 74.92 107.83 74.48L123.83 72.85Z" fill="#282D32" fill-opacity="1.000000" fill-rule="nonzero"/>
	<path id="path" d="M163.36 71.64L163.6 71.88L163.36 71.64ZM18.1 71.88L18.34 72.12L18.1 71.88Z" fill="#BAA4A4" fill-opacity="1.000000" fill-rule="nonzero"/>
	<path id="path" d="M98.53 72.93C98.42 73.04 98.68 73.03 98.69 73.01C98.8 72.9 98.54 72.92 98.53 72.93Z" fill="#FEEA85" fill-opacity="1.000000" fill-rule="nonzero"/>
	<path id="path" d="M153.66 73.82L153.9 74.06L153.66 73.82ZM34.35 74.06L34.59 74.3L34.35 74.06Z" fill="#9C7B7A" fill-opacity="1.000000" fill-rule="nonzero"/>
	<path id="path" d="M83.25 74.38C83.14 74.49 83.4 74.48 83.41 74.47C83.52 74.36 83.27 74.37 83.25 74.38ZM108.23 74.38C108.12 74.49 108.38 74.48 108.39 74.47C108.5 74.36 108.24 74.37 108.23 74.38Z" fill="#FEEA85" fill-opacity="1.000000" fill-rule="nonzero"/>
	<path id="path" d="M165.3 75.03L165.54 75.27L165.3 75.03ZM35.56 75.27L35.8 75.52L35.56 75.27Z" fill="#784C4C" fill-opacity="1.000000" fill-rule="nonzero"/>
	<path id="path" d="M80.99 75.44C80.98 75.45 80.96 75.71 81.07 75.6C81.08 75.58 81.1 75.33 80.99 75.44ZM98.53 75.36C98.42 75.46 98.68 75.45 98.69 75.44C98.8 75.33 98.54 75.34 98.53 75.36ZM121.16 75.27L121.16 75.52L122.13 75.52C121.77 75.35 121.57 75.32 121.16 75.27Z" fill="#FFF3B3" fill-opacity="1.000000" fill-rule="nonzero"/>
	<path id="path" d="M95.94 75.52L95.94 75.76L96.91 75.76C96.55 75.59 96.35 75.56 95.94 75.52ZM118.74 75.52L118.74 75.76L119.47 75.76C119.16 75.59 119.09 75.58 118.74 75.52Z" fill="#FFF3B3" fill-opacity="1.000000" fill-rule="nonzero"/>
	<path id="path" d="M103.22 77.33C97.72 77.71 92.21 78.4 86.73 78.95C85.88 79.04 80.54 79.21 82.51 81.19C83.49 82.18 86.23 81.41 87.46 81.32L99.34 80.12C100.61 80.03 103.52 80.2 104.53 79.39C105.73 78.43 104.23 77.26 103.22 77.33Z" fill="#282D32" fill-opacity="1.000000" fill-rule="nonzero"/>
	<path id="path" d="M76.3 79.4L76.54 79.64L76.3 79.4ZM136.68 79.4L136.92 79.64L136.68 79.4ZM141.05 79.4L141.29 79.64L141.05 79.4Z" fill="#9C7B7A" fill-opacity="1.000000" fill-rule="nonzero"/>
	<path id="path" d="M178.88 81.09L179.12 81.34L178.88 81.09ZM67.57 81.34L67.81 81.58L67.57 81.34Z" fill="#784C4C" fill-opacity="1.000000" fill-rule="nonzero"/>
	<path id="path" d="M179.36 82.06L179.61 82.31L179.36 82.06ZM44.05 82.31L44.29 82.55L44.05 82.31ZM44.53 82.31L44.78 82.55L44.53 82.31Z" fill="#9C7B7A" fill-opacity="1.000000" fill-rule="nonzero"/>
	<path id="path" d="M75.33 82.55L75.57 82.79L75.33 82.55ZM137.41 82.55L137.65 82.79L137.41 82.55Z" fill="#9C7B7A" fill-opacity="1.000000" fill-rule="nonzero"/>
	<path id="path" d="M137.25 84.65C137.24 84.66 137.22 84.92 137.33 84.81C137.34 84.8 137.36 84.54 137.25 84.65ZM42.84 84.73L43.08 84.97L42.84 84.73ZM45.02 84.73L45.26 84.97L45.02 84.73Z" fill="#BD782B" fill-opacity="1.000000" fill-rule="nonzero"/>
	<path id="path" d="M133.29 85.22L133.53 85.46L133.29 85.22ZM178.88 85.22L179.12 85.46L178.88 85.22ZM41.14 85.46L41.38 85.7L41.14 85.46Z" fill="#784C4C" fill-opacity="1.000000" fill-rule="nonzero"/>
	<path id="path" d="M62.56 86.35C62.55 86.36 62.53 86.62 62.64 86.51C62.65 86.5 62.67 86.24 62.56 86.35ZM133.53 86.19L133.77 86.43L133.53 86.19Z" fill="#784C4C" fill-opacity="1.000000" fill-rule="nonzero"/>
	<path id="path" d="M143.96 86.19L144.2 86.43L143.96 86.19ZM45.99 86.43L46.23 86.67L45.99 86.43Z" fill="#7F4923" fill-opacity="1.000000" fill-rule="nonzero"/>
	<path id="path" d="M144.2 86.67L144.44 86.91L144.2 86.67ZM40.9 86.91L41.14 87.16L40.9 86.91Z" fill="#BD782B" fill-opacity="1.000000" fill-rule="nonzero"/>
	<path id="path" d="M125.53 87.75C114.91 88.96 104.18 90.45 93.52 91.05C91.07 91.18 88.42 91.44 86 91.84C85.06 91.99 84.25 92.61 84.69 93.67C85.12 94.7 86.37 94.27 87.21 94.21L94.73 93.44C102.33 92.74 109.91 91.62 117.53 91.06C119.94 90.88 125.15 91.2 127.15 89.82C128.7 88.75 126.59 87.62 125.53 87.75Z" fill="#282D32" fill-opacity="1.000000" fill-rule="nonzero"/>
	<path id="path" d="M177.91 87.64L178.15 87.88L177.91 87.64ZM38.96 87.88L39.2 88.13L38.96 87.88Z" fill="#784C4C" fill-opacity="1.000000" fill-rule="nonzero"/>
	<path id="path" d="M166.03 88.85L166.27 89.1L166.03 88.85ZM38.96 89.1L39.2 89.34L38.96 89.1Z" fill="#BD782B" fill-opacity="1.000000" fill-rule="nonzero"/>
	<path id="path" d="M99.98 90.39C99.88 90.5 100.13 90.49 100.15 90.47C100.25 90.36 100 90.38 99.98 90.39Z" fill="#FEEA85" fill-opacity="1.000000" fill-rule="nonzero"/>
	<path id="path" d="M178.64 93.22L178.88 93.46L178.64 93.22ZM33.86 93.46L34.11 93.71L33.86 93.46Z" fill="#CFBFBF" fill-opacity="1.000000" fill-rule="nonzero"/>
	<path id="path" d="M105.64 94.78C100.33 95.47 94.95 95.75 89.64 96.44C88.66 96.57 83.97 96.58 85.7 98.72C86.59 99.83 89.61 98.89 90.85 98.78L103.7 97.38C104.84 97.26 107.31 97.49 108.16 96.65C109.81 95.02 106.5 94.66 105.64 94.78Z" fill="#282D32" fill-opacity="1.000000" fill-rule="nonzero"/>
	<path id="path" d="M151.48 94.67L151.72 94.92L151.48 94.67ZM164.57 94.67L164.81 94.92L164.57 94.67ZM32.65 94.92L32.89 95.16L32.65 94.92Z" fill="#784C4C" fill-opacity="1.000000" fill-rule="nonzero"/>
	<path id="path" d="M165.54 97.1L165.78 97.34L165.54 97.1ZM183.97 97.1L184.21 97.34L183.97 97.1ZM30.47 97.34L30.71 97.58L30.47 97.34Z" fill="#784C4C" fill-opacity="1.000000" fill-rule="nonzero"/>
	<path id="path" d="M183.81 98.47C183.8 98.49 183.78 98.74 183.89 98.63C183.9 98.62 183.92 98.37 183.81 98.47ZM30.47 98.55L30.71 98.8L30.47 98.55Z" fill="#BD782B" fill-opacity="1.000000" fill-rule="nonzero"/>
	<path id="path" d="M150.34 99.2C150.33 99.21 150.32 99.47 150.42 99.36C150.44 99.35 150.45 99.09 150.34 99.2ZM28.77 99.28L29.01 99.52L28.77 99.28Z" fill="#784C4C" fill-opacity="1.000000" fill-rule="nonzero"/>
	<path id="path" d="M140.89 100.41C140.87 100.43 140.86 100.68 140.97 100.58C140.98 100.56 140.99 100.31 140.89 100.41ZM41.62 100.5L41.87 100.74L41.62 100.5Z" fill="#BD782B" fill-opacity="1.000000" fill-rule="nonzero"/>
	<path id="path" d="M81.72 100.66C81.7 100.67 81.69 100.93 81.8 100.82C81.81 100.8 81.82 100.55 81.72 100.66ZM136.68 100.49L136.92 100.74L136.68 100.49Z" fill="#BAA4A4" fill-opacity="1.000000" fill-rule="nonzero"/>
	<path id="path" d="M78.4 101.79C78.29 101.9 78.55 101.88 78.56 101.87C78.67 101.76 78.42 101.77 78.4 101.79ZM137.98 101.87C137.96 101.88 137.95 102.14 138.06 102.03C138.07 102.02 138.08 101.76 137.98 101.87Z" fill="#7F4923" fill-opacity="1.000000" fill-rule="nonzero"/>
	<path id="path" d="M74.04 103C73.93 103.11 74.19 103.1 74.2 103.08C74.31 102.97 74.05 102.99 74.04 103ZM150.5 102.92L150.5 103.65L150.75 103.65C150.69 103.3 150.67 103.22 150.5 102.92Z" fill="#CFBFBF" fill-opacity="1.000000" fill-rule="nonzero"/>
	<path id="path" d="M56.9 103.65C57.03 104.04 56.99 104 57.39 104.13L57.39 103.65L56.9 103.65ZM64.98 103.81C64.97 103.82 64.96 104.08 65.06 103.97C65.08 103.96 65.09 103.7 64.98 103.81ZM138.38 103.65L138.38 104.38L138.62 104.38C138.56 104.02 138.55 103.95 138.38 103.65Z" fill="#9C662C" fill-opacity="1.000000" fill-rule="nonzero"/>
	<path id="path" d="M180.58 105.83L180.82 106.07L180.58 105.83ZM22.71 106.07L22.95 106.32L22.71 106.07Z" fill="#784C4C" fill-opacity="1.000000" fill-rule="nonzero"/>
	<path id="path" d="M129.17 107.39C118.62 108.78 107.98 109.96 97.4 110.94C94.98 111.17 92.52 111.39 90.12 111.75C89.15 111.9 87.89 112.28 88.4 113.55C88.82 114.58 90.22 114.33 91.09 114.21L98.37 113.37C106.69 112.59 115.06 111.64 123.35 110.54L129.41 109.85C130.09 109.75 131.17 109.85 131.69 109.32C133.35 107.62 130.1 107.27 129.17 107.39Z" fill="#282D32" fill-opacity="1.000000" fill-rule="nonzero"/>
	<path id="path" d="M176.53 109.87C176.52 109.89 176.51 110.14 176.62 110.03C176.63 110.02 176.64 109.76 176.53 109.87ZM20.28 109.95L20.53 110.19L20.28 109.95Z" fill="#BD782B" fill-opacity="1.000000" fill-rule="nonzero"/>
	<path id="path" d="M177.18 111.17L177.42 111.41L177.18 111.17ZM17.86 111.41L18.1 111.65L17.86 111.41Z" fill="#CFBFBF" fill-opacity="1.000000" fill-rule="nonzero"/>
	<path id="path" d="M177.18 112.38L177.42 112.62L177.18 112.38ZM16.89 112.62L17.13 112.86L16.89 112.62Z" fill="#784C4C" fill-opacity="1.000000" fill-rule="nonzero"/>
	<path id="path" d="M97.56 113.43C97.45 113.54 97.71 113.52 97.72 113.51C97.83 113.4 97.57 113.41 97.56 113.43Z" fill="#FEEA85" fill-opacity="1.000000" fill-rule="nonzero"/>
	<path id="path" d="M177.67 114.32L177.91 114.56L177.67 114.32ZM15.19 114.56L15.43 114.8L15.19 114.56Z" fill="#784C4C" fill-opacity="1.000000" fill-rule="nonzero"/>
	<path id="path" d="M109.77 114.66L93.28 116.54C92.34 116.65 87.57 116.95 89.58 119.02C90.54 120.01 93.51 119.03 94.73 118.93L107.34 117.49C108.55 117.38 111.4 117.52 112.28 116.6C113.9 114.89 110.69 114.54 109.77 114.66Z" fill="#282D32" fill-opacity="1.000000" fill-rule="nonzero"/>
	<path id="path" d="M98.77 115.85C98.66 115.96 98.92 115.95 98.93 115.93C99.04 115.83 98.79 115.84 98.77 115.85Z" fill="#FEEA85" fill-opacity="1.000000" fill-rule="nonzero"/>
	<path id="path" d="M177.91 117.23L177.91 118.44L178.15 118.44C178.13 117.96 178.1 117.66 177.91 117.23ZM13.49 117.47L13.49 118.44L13.74 118.44C13.69 118.03 13.66 117.84 13.49 117.47Z" fill="#7F4923" fill-opacity="1.000000" fill-rule="nonzero"/>
	<path id="path" d="M81.39 119.89L81.64 120.14L81.39 119.89ZM142.1 120.06C142.09 120.07 142.07 120.33 142.18 120.22C142.19 120.2 142.21 119.95 142.1 120.06Z" fill="#9C662C" fill-opacity="1.000000" fill-rule="nonzero"/>
	<path id="path" d="M177.18 120.86L177.42 121.11L177.18 120.86ZM52.29 121.11L52.54 121.35L52.29 121.11Z" fill="#CFBFBF" fill-opacity="1.000000" fill-rule="nonzero"/>
	<path id="path" d="M176.45 121.59L176.7 121.83L176.45 121.59ZM23.19 121.83L23.44 122.08L23.19 121.83Z" fill="#BAA4A4" fill-opacity="1.000000" fill-rule="nonzero"/>
	<path id="path" d="M83.49 122.16C83.39 122.27 83.64 122.25 83.66 122.24C83.76 122.13 83.51 122.14 83.49 122.16ZM142.58 122.24C142.57 122.25 142.56 122.51 142.67 122.4C142.68 122.39 142.69 122.13 142.58 122.24Z" fill="#7F4923" fill-opacity="1.000000" fill-rule="nonzero"/>
	<path id="path" d="M83.74 122.89C83.63 122.99 83.89 122.98 83.9 122.97C84.01 122.86 83.75 122.87 83.74 122.89ZM141.86 122.97C141.84 122.98 141.83 123.24 141.94 123.13C141.95 123.11 141.96 122.86 141.86 122.97Z" fill="#CFBFBF" fill-opacity="1.000000" fill-rule="nonzero"/>
	<path id="path" d="M156.33 125.23L156.57 125.47L156.33 125.23ZM163.36 125.23L163.6 125.47L163.36 125.23ZM18.83 125.47L19.07 125.72L18.83 125.47Z" fill="#9C662C" fill-opacity="1.000000" fill-rule="nonzero"/>
	<path id="path" d="M147.6 126.93L147.84 127.17L147.6 126.93ZM151.23 126.93L151.48 127.17L151.23 126.93ZM163.6 126.93L163.84 127.17L163.6 126.93ZM12.52 127.17L12.52 129.11L12.77 129.11C12.76 128.42 12.79 127.8 12.52 127.17Z" fill="#9C7B7A" fill-opacity="1.000000" fill-rule="nonzero"/>
	<path id="path" d="M71.94 139.05L71.94 140.27C78.33 140.25 84.98 138.69 91.34 137.91C108.74 135.77 126.24 132.67 143.72 131.29L143.72 130.08C127.64 132.11 111.55 134.18 95.46 136.11C87.67 137.04 79.64 137.62 71.94 139.05Z" fill="#4880FF" fill-opacity="1.000000" fill-rule="nonzero"/>
	<path id="path" d="M148.57 131.29L148.81 131.53L148.57 131.29ZM14.22 131.53L14.46 131.78L14.22 131.53ZM62.07 131.7C62.06 131.71 62.05 131.97 62.15 131.86C62.17 131.85 62.18 131.59 62.07 131.7Z" fill="#9C7B7A" fill-opacity="1.000000" fill-rule="nonzero"/>
	<path id="path" d="M98.77 134.77C98.66 134.88 98.92 134.86 98.93 134.85C99.04 134.74 98.79 134.75 98.77 134.77Z" fill="#BAA4A4" fill-opacity="1.000000" fill-rule="nonzero"/>
	<path id="path" d="M99.26 134.77C99.15 134.88 99.41 134.86 99.42 134.85C99.53 134.74 99.27 134.75 99.26 134.77Z" fill="#9C7B7A" fill-opacity="1.000000" fill-rule="nonzero"/>
	<path id="path" d="M99.74 134.77C99.63 134.88 99.89 134.86 99.9 134.85C100.01 134.74 99.76 134.75 99.74 134.77ZM104.84 134.77C104.73 134.88 104.98 134.86 105 134.85C105.1 134.74 104.85 134.75 104.84 134.77Z" fill="#7F4923" fill-opacity="1.000000" fill-rule="nonzero"/>
	<path id="path" d="M97.32 135.01C97.21 135.12 97.47 135.1 97.48 135.09C97.59 134.98 97.33 135 97.32 135.01Z" fill="#9C7B7A" fill-opacity="1.000000" fill-rule="nonzero"/>
	<path id="path" d="M148.89 135.09C148.88 135.11 148.86 135.36 148.97 135.25C148.98 135.24 149 134.98 148.89 135.09ZM66.68 135.33C66.67 135.35 66.65 135.6 66.76 135.5C66.78 135.48 66.79 135.23 66.68 135.33Z" fill="#BD782B" fill-opacity="1.000000" fill-rule="nonzero"/>
	<path id="path" d="M149.53 135.17L149.78 135.42L149.53 135.17ZM92.71 135.5C92.6 135.6 92.86 135.59 92.87 135.58C92.98 135.47 92.72 135.48 92.71 135.5Z" fill="#CFBFBF" fill-opacity="1.000000" fill-rule="nonzero"/>
	<path id="path" d="M99.74 135.5C99.63 135.6 99.89 135.59 99.9 135.58C100.01 135.47 99.76 135.48 99.74 135.5ZM110.17 135.5C110.06 135.6 110.32 135.59 110.33 135.58C110.44 135.47 110.18 135.48 110.17 135.5Z" fill="#C59B40" fill-opacity="1.000000" fill-rule="nonzero"/>
	<path id="path" d="M95.86 135.98C95.75 136.09 96.01 136.08 96.02 136.06C96.13 135.95 95.88 135.97 95.86 135.98ZM106.53 135.98C106.42 136.09 106.68 136.08 106.69 136.06C106.8 135.95 106.55 135.97 106.53 135.98Z" fill="#C59B40" fill-opacity="1.000000" fill-rule="nonzero"/>
	<path id="path" d="M66.84 148.51C73.73 148.45 80.86 146.76 87.7 145.91L127.71 140.82L141.29 139.06C143.9 138.77 146.43 138.96 148.08 136.63C128.21 140.32 107.73 141.64 87.7 144.39L73.15 146.26C70.77 146.56 68.36 146.38 66.84 148.51Z" fill="#4880FF" fill-opacity="1.000000" fill-rule="nonzero"/>
	<path id="path" d="M99.5 136.95C99.39 137.06 99.65 137.05 99.66 137.03C99.77 136.92 99.51 136.94 99.5 136.95Z" fill="#7F4923" fill-opacity="1.000000" fill-rule="nonzero"/>
	<path id="path" d="M97.32 137.19C97.21 137.3 97.47 137.29 97.48 137.27C97.59 137.17 97.33 137.18 97.32 137.19Z" fill="#9C662C" fill-opacity="1.000000" fill-rule="nonzero"/>
	<path id="path" d="M97.8 137.19C97.69 137.3 97.95 137.29 97.96 137.27C98.07 137.17 97.82 137.18 97.8 137.19Z" fill="#7F4923" fill-opacity="1.000000" fill-rule="nonzero"/>
	<path id="path" d="M141.45 137.44C141.34 137.54 141.6 137.53 141.61 137.52C141.72 137.41 141.47 137.42 141.45 137.44ZM66.2 137.76C66.18 137.77 66.17 138.03 66.28 137.92C66.29 137.91 66.3 137.65 66.2 137.76Z" fill="#C59B40" fill-opacity="1.000000" fill-rule="nonzero"/>
	<path id="path" d="M147.11 138.57L147.35 138.81L147.11 138.57ZM63.21 138.81L63.45 139.05L63.21 138.81Z" fill="#282D32" fill-opacity="1.000000" fill-rule="nonzero"/>
	<path id="path" d="M99.74 138.89C99.63 139 99.89 138.99 99.9 138.97C100.01 138.86 99.76 138.88 99.74 138.89Z" fill="#C59B40" fill-opacity="1.000000" fill-rule="nonzero"/>
	<path id="path" d="M97.8 139.13C97.69 139.24 97.95 139.23 97.96 139.21C98.07 139.11 97.82 139.12 97.8 139.13Z" fill="#C59B40" fill-opacity="1.000000" fill-rule="nonzero"/>
	<path id="path" d="M134.91 140.59C134.8 140.7 135.05 140.68 135.07 140.67C135.17 140.56 134.92 140.57 134.91 140.59ZM63.45 140.75L63.69 140.99L63.45 140.75Z" fill="#CFBFBF" fill-opacity="1.000000" fill-rule="nonzero"/>
	<path id="path" d="M99.01 142.04C98.91 142.15 99.16 142.14 99.18 142.12C99.28 142.02 99.03 142.03 99.01 142.04Z" fill="#7F4923" fill-opacity="1.000000" fill-rule="nonzero"/>
	<path id="path" d="M99.01 142.77C98.91 142.88 99.16 142.87 99.18 142.85C99.28 142.74 99.03 142.76 99.01 142.77Z" fill="#7F4923" fill-opacity="1.000000" fill-rule="nonzero"/>
	<path id="path" d="M99.5 142.77C99.39 142.88 99.65 142.87 99.66 142.85C99.77 142.74 99.51 142.76 99.5 142.77Z" fill="#BD782B" fill-opacity="1.000000" fill-rule="nonzero"/>
	<path id="path" d="M99.98 142.77C99.88 142.88 100.13 142.87 100.15 142.85C100.25 142.74 100 142.76 99.98 142.77Z" fill="#FFB53B" fill-opacity="1.000000" fill-rule="nonzero"/>
	<path id="path" d="M97.8 143.01C97.69 143.12 97.95 143.11 97.96 143.09C98.07 142.99 97.82 143 97.8 143.01Z" fill="#C59B40" fill-opacity="1.000000" fill-rule="nonzero"/>
	<path id="path" d="M95.86 143.25C95.75 143.36 96.01 143.35 96.02 143.34C96.13 143.23 95.88 143.24 95.86 143.25ZM108.47 143.25C108.36 143.36 108.62 143.35 108.63 143.34C108.74 143.23 108.49 143.24 108.47 143.25Z" fill="#C59B40" fill-opacity="1.000000" fill-rule="nonzero"/>
	<path id="path" d="M94.16 143.5C94.06 143.61 94.31 143.59 94.33 143.58C94.43 143.47 94.18 143.48 94.16 143.5ZM106.53 143.5C106.42 143.61 106.68 143.59 106.69 143.58C106.8 143.47 106.55 143.48 106.53 143.5Z" fill="#C59B40" fill-opacity="1.000000" fill-rule="nonzero"/>
	<path id="path" d="M91.98 143.74C91.87 143.85 92.13 143.84 92.14 143.82C92.25 143.71 92 143.73 91.98 143.74ZM104.83 143.74C104.73 143.85 104.98 143.84 105 143.82C105.1 143.71 104.85 143.73 104.83 143.74Z" fill="#C59B40" fill-opacity="1.000000" fill-rule="nonzero"/>
	<path id="path" d="M97.8 144.71C97.69 144.82 97.95 144.81 97.96 144.79C98.07 144.68 97.82 144.7 97.8 144.71Z" fill="#7F4923" fill-opacity="1.000000" fill-rule="nonzero"/>
	<path id="path" d="M99.01 145.2C98.91 145.3 99.16 145.29 99.18 145.28C99.28 145.17 99.03 145.18 99.01 145.2Z" fill="#9C7B7A" fill-opacity="1.000000" fill-rule="nonzero"/>
	<path id="path" d="M99.5 145.2C99.39 145.3 99.65 145.29 99.66 145.28C99.77 145.17 99.51 145.18 99.5 145.2Z" fill="#CFBFBF" fill-opacity="1.000000" fill-rule="nonzero"/>
	<path id="path" d="M98.04 145.44C97.94 145.55 98.19 145.53 98.21 145.52C98.31 145.41 98.06 145.42 98.04 145.44Z" fill="#E3DADA" fill-opacity="1.000000" fill-rule="nonzero"/>
	<path id="path" d="M74.18 3.79C83.57 5.56 88.15 13.72 90.91 22.22C92.33 21.74 93.66 21.09 95.04 20.52C94.13 14.4 89.64 6.27 84.12 3.28C81.39 1.8 76.44 1.16 74.18 3.79Z" fill="#4880FF" fill-opacity="1.000000" fill-rule="nonzero"/>
	<path id="path" d="M64 21.98C72.81 23.64 80.69 23.05 89.22 20.28C88.44 15.05 84.17 9.13 79.76 6.41C77.9 5.26 75.18 4.25 72.97 4.92C65.73 7.09 64 15.59 64 21.98Z" fill="#4880FF" fill-opacity="1.000000" fill-rule="nonzero"/>
	<path id="path" d="M64 22.95L64 24.16C72.56 26.43 81.97 26.1 90.18 22.46L89.7 21.01C85.54 21.97 81.66 23.6 77.33 23.9C72.75 24.21 68.49 23.14 64 22.95Z" fill="#4880FF" fill-opacity="1.000000" fill-rule="nonzero"/>
	<path id="path" d="M52.16 60.99C51.9 54.98 50.22 48.73 49.19 42.8C48.86 40.9 47.51 37.33 48.4 35.53C50.38 31.49 56.11 31.89 59.92 31.89C58.64 27.58 52.16 28.86 49.42 25.34C48 23.53 47.23 21.09 47.32 18.79C47.42 16.18 48.32 13.29 45.85 11.47C44.83 10.71 43.31 9.68 41.98 9.88C38.87 10.35 37.36 14.65 33.73 14.1C30.98 13.69 28.99 10.92 27.46 8.85C26.45 7.48 25.52 5.75 23.55 6.02C22.36 6.19 20.33 6.65 19.6 7.67C18.89 8.67 19.07 10.57 18.93 11.76C18.67 13.97 17.97 16.59 16.4 18.24C15.05 19.66 13.09 20.25 11.18 19.84C9.37 19.46 7.48 17.99 5.97 19.78C1.24 25.39 8.13 28.21 8.71 33.59C9 36.23 8.48 38.9 6.55 40.84C5.59 41.8 4.11 42.35 3.4 43.54C2.3 45.4 3.6 49.86 5.16 51.18C7.58 53.25 11.33 52.35 13.84 54.93C17.33 58.53 15.35 62.35 16.11 66.57C16.5 68.71 19.22 70.73 21.36 70.88C24.59 71.09 26.11 66.19 29.85 66.64C35.27 67.3 36.54 76.68 42.22 74.21C45.16 72.94 44.35 70.33 44.75 67.78C45.43 63.4 47.69 60.99 52.16 60.99Z" fill="#FFFFFF" fill-opacity="1.000000" fill-rule="nonzero"/>
	<path id="path" d="M28.4 24.24C21.99 25.37 18.05 31.72 17.97 37.95C17.85 47.58 25.32 58.12 35.91 56.12C41.88 54.98 45.09 49.37 45.65 43.77C46.59 34.42 39.03 22.36 28.4 24.24Z" fill="#282D32" fill-opacity="1.000000" fill-rule="nonzero"/>
	<path id="path" d="M32.76 25.5C22.77 28.07 23.44 42.4 27.93 49.11C29.53 51.49 33.59 55.69 36.88 55.01C47.31 52.85 46.15 37.35 41.38 30.92C39.77 28.76 35.86 24.7 32.76 25.5Z" fill="#FFFFFF" fill-opacity="1.000000" fill-rule="nonzero"/>
	<path id="path" d="M146.51 121.36C148.76 120.95 150.7 118.96 153.06 120.14C154.77 121 155.8 122.76 156.43 124.51C156.94 125.93 157.17 127.81 158.88 128.28C164.3 129.78 163.34 121.41 167.85 120.06C170.46 119.27 173.17 122.75 175.37 121.42C180.82 118.11 175.05 113.07 177.11 108.5C178.39 105.66 183.29 104.97 183.8 102.2C184.03 100.96 184.24 98.21 183.43 97.17C181.7 94.94 178.66 95.3 177.56 92.01C177.06 90.53 176.87 88.93 177.32 87.41C178 85.1 179.7 82.9 177.94 80.62C174.74 76.47 172.91 82.06 169.31 80.53C167.16 79.61 165.89 77.58 165.01 75.52C164.53 74.4 164.38 72.57 162.99 72.21C157.37 70.71 158.17 77.6 154.51 79.95C151.48 81.91 148.92 77.65 146.27 78.93C140.73 81.6 145.99 87.13 144.59 91.29C143.98 93.11 141.11 94.73 141.01 96.39C140.79 100.13 142.9 105.02 144.06 108.5C144.52 109.88 144.36 111.44 144.67 112.87C145.29 115.66 146.28 118.51 146.51 121.36Z" fill="#FFFFFF" fill-opacity="1.000000" fill-rule="nonzero"/>
	<path id="path" d="M158.88 87.28C145.65 89.77 147.46 115.79 161.79 113.2C169.35 111.84 172.94 103.33 171.27 96.38C169.91 90.69 164.98 86.13 158.88 87.28Z" fill="#282D32" fill-opacity="1.000000" fill-rule="nonzero"/>
	<path id="path" d="M156.21 89.31C149.8 91.83 149.41 102.82 152.44 107.78C153.84 110.05 157.54 113.51 160.58 112.3C167.19 109.64 167.25 99.13 164.38 93.95C163.08 91.61 159.25 88.12 156.21 89.31Z" fill="#FFFFFF" fill-opacity="1.000000" fill-rule="nonzero"/>
	<path id="path" d="M69.76 74.06C69.41 74.18 66.75 75.69 66.6 75.91C66.19 76.52 66.59 77.29 66.33 77.95C66.09 78.54 65.54 78.95 65.67 79.66C65.82 80.44 66.68 80.6 67.07 81.21C67.42 81.76 67.29 82.48 67.84 82.93C68.48 83.45 69.22 82.99 69.92 83.21C70.65 83.45 70.97 84.33 71.87 84.05C72.36 83.9 75.07 82.44 75.26 82.07C75.58 81.47 75.15 80.83 75.35 80.21C75.58 79.5 76.31 79.11 76.02 78.26C75.8 77.63 75.09 77.47 74.74 76.95C74.35 76.37 74.6 75.55 73.96 75.12C73.34 74.7 72.6 75.08 71.93 74.89C71.16 74.67 70.66 73.74 69.76 74.06Z" fill="#282D32" fill-opacity="1.000000" fill-rule="nonzero"/>
	<path id="path" d="M69.71 74.59C69.3 75.99 68.38 76.27 67.04 76.05C67.39 77.77 67.07 78.18 66.31 79.69C67.72 80.35 67.9 81.2 68.25 82.6C69.51 82.16 70.3 82.26 71.16 83.32L71.89 83.32C72.53 82.12 73.22 81.77 74.56 81.87C74.22 80.18 74.81 79.75 75.28 78.23C73.92 77.84 73.62 76.9 73.58 75.56C72.12 75.8 71.39 75.87 70.43 74.59L69.71 74.59Z" fill="#4880FF" fill-opacity="1.000000" fill-rule="nonzero"/>
	<path id="path" d="" fill="#9C662C" fill-opacity="1.000000" fill-rule="nonzero"/>
	<path id="path" d="" fill="#784C4C" fill-opacity="1.000000" fill-rule="nonzero"/>
	<path id="path" d="" fill="#9C662C" fill-opacity="1.000000" fill-rule="nonzero"/>
	<path id="path" d="M73.67 75.97C73.65 75.98 73.64 76.24 73.75 76.13C73.76 76.12 73.77 75.86 73.67 75.97Z" fill="#7F4923" fill-opacity="1.000000" fill-rule="nonzero"/>
	<path id="path" d="M74.39 76.45C74.38 76.47 74.37 76.72 74.47 76.61C74.49 76.6 74.5 76.35 74.39 76.45Z" fill="#BAA4A4" fill-opacity="1.000000" fill-rule="nonzero"/>
	<path id="path" d="M69.95 76.71C67 77.85 68.98 82.33 71.88 81.37C75 80.33 72.92 75.57 69.95 76.71Z" fill="#282D32" fill-opacity="1.000000" fill-rule="nonzero"/>
	<path id="path" d="" fill="#BD782B" fill-opacity="1.000000" fill-rule="nonzero"/>
	<path id="path" d="" fill="#BD782B" fill-opacity="1.000000" fill-rule="nonzero"/>
	<path id="path" d="" fill="#9C7B7A" fill-opacity="1.000000" fill-rule="nonzero"/>
	<path id="path" d="M68.98 77.02L69.22 77.26L68.98 77.02ZM73.59 77.02L73.83 77.26L73.59 77.02Z" fill="#9C662C" fill-opacity="1.000000" fill-rule="nonzero"/>
	<path id="path" d="" fill="#CFBFBF" fill-opacity="1.000000" fill-rule="nonzero"/>
	<path id="path" d="M70.2 77.45C68.01 78.27 69.61 81.3 71.63 80.51C73.6 79.74 72.09 76.74 70.2 77.45Z" fill="#FFFFFF" fill-opacity="1.000000" fill-rule="nonzero"/>
	<path id="path" d="" fill="#9C7B7A" fill-opacity="1.000000" fill-rule="nonzero"/>
	<path id="path" d="" fill="#BAA4A4" fill-opacity="1.000000" fill-rule="nonzero"/>
	<path id="path" d="M69.46 77.5L69.71 77.75L69.46 77.5ZM71.89 77.5L72.13 77.75L71.89 77.5Z" fill="#9C7B7A" fill-opacity="1.000000" fill-rule="nonzero"/>
	<path id="path" d="" fill="#9C662C" fill-opacity="1.000000" fill-rule="nonzero"/>
	<path id="path" d="" fill="#CFBFBF" fill-opacity="1.000000" fill-rule="nonzero"/>
	<path id="path" d="" fill="#9C7B7A" fill-opacity="1.000000" fill-rule="nonzero"/>
	<path id="path" d="" fill="#C59B40" fill-opacity="1.000000" fill-rule="nonzero"/>
	<path id="path" d="" fill="#7F4923" fill-opacity="1.000000" fill-rule="nonzero"/>
	<path id="path" d="" fill="#C59B40" fill-opacity="1.000000" fill-rule="nonzero"/>
	<path id="path" d="" fill="#9C7B7A" fill-opacity="1.000000" fill-rule="nonzero"/>
	<path id="path" d="" fill="#CFBFBF" fill-opacity="1.000000" fill-rule="nonzero"/>
	<path id="path" d="" fill="#784C4C" fill-opacity="1.000000" fill-rule="nonzero"/>
	<path id="path" d="" fill="#C59B40" fill-opacity="1.000000" fill-rule="nonzero"/>
	<path id="path" d="" fill="#9C662C" fill-opacity="1.000000" fill-rule="nonzero"/>
	<path id="path" d="" fill="#784C4C" fill-opacity="1.000000" fill-rule="nonzero"/>
	<path id="path" d="" fill="#BD782B" fill-opacity="1.000000" fill-rule="nonzero"/>
	<path id="path" d="" fill="#BAA4A4" fill-opacity="1.000000" fill-rule="nonzero"/>
	<path id="path" d="" fill="#9C662C" fill-opacity="1.000000" fill-rule="nonzero"/>
	<path id="path" d="" fill="#CFBFBF" fill-opacity="1.000000" fill-rule="nonzero"/>
	<path id="path" d="" fill="#9C7B7A" fill-opacity="1.000000" fill-rule="nonzero"/>
	<path id="path" d="" fill="#BAA4A4" fill-opacity="1.000000" fill-rule="nonzero"/>
	<path id="path" d="" fill="#9C7B7A" fill-opacity="1.000000" fill-rule="nonzero"/>
	<path id="path" d="" fill="#7F4923" fill-opacity="1.000000" fill-rule="nonzero"/>
	<path id="path" d="" fill="#C59B40" fill-opacity="1.000000" fill-rule="nonzero"/>
	<path id="path" d="" fill="#784C4C" fill-opacity="1.000000" fill-rule="nonzero"/>
	<path id="path" d="" fill="#9C662C" fill-opacity="1.000000" fill-rule="nonzero"/>
	<path id="path" d="" fill="#B59A94" fill-opacity="1.000000" fill-rule="nonzero"/>
	<path id="path" d="M71.56 81.46C71.46 81.57 71.71 81.56 71.73 81.55C71.83 81.44 71.58 81.45 71.56 81.46Z" fill="#9C662C" fill-opacity="1.000000" fill-rule="nonzero"/>
	<path id="path" d="" fill="#C59B40" fill-opacity="1.000000" fill-rule="nonzero"/>
	<path id="path" d="M74.64 81.54C74.62 81.56 74.61 81.81 74.72 81.71C74.73 81.69 74.74 81.44 74.64 81.54Z" fill="#FFB53B" fill-opacity="1.000000" fill-rule="nonzero"/>
	<path id="path" d="M75.61 81.54C75.59 81.56 75.58 81.81 75.69 81.71C75.7 81.69 75.71 81.44 75.61 81.54Z" fill="#BAA4A4" fill-opacity="1.000000" fill-rule="nonzero"/>
	<path id="path" d="" fill="#C59B40" fill-opacity="1.000000" fill-rule="nonzero"/>
	<path id="path" d="" fill="#9C662C" fill-opacity="1.000000" fill-rule="nonzero"/>
	<path id="path" d="" fill="#C59B40" fill-opacity="1.000000" fill-rule="nonzero"/>
	<path id="path" d="" fill="#9C662C" fill-opacity="1.000000" fill-rule="nonzero"/>
	<path id="path" d="" fill="#9C7B7A" fill-opacity="1.000000" fill-rule="nonzero"/>
	<path id="path" d="" fill="#9C662C" fill-opacity="1.000000" fill-rule="nonzero"/>
	<path id="path" d="M73.1 82.6L73.34 82.84L73.1 82.6ZM73.83 82.6L74.07 82.84L73.83 82.6Z" fill="#CFBFBF" fill-opacity="1.000000" fill-rule="nonzero"/>
	<path id="path" d="" fill="#784C4C" fill-opacity="1.000000" fill-rule="nonzero"/>
	<path id="path" d="" fill="#9C7B7A" fill-opacity="1.000000" fill-rule="nonzero"/>
	<path id="path" d="" fill="#BD782B" fill-opacity="1.000000" fill-rule="nonzero"/>
	<path id="path" d="" fill="#784C4C" fill-opacity="1.000000" fill-rule="nonzero"/>
	<path id="path" d="" fill="#9C7B7A" fill-opacity="1.000000" fill-rule="nonzero"/>
	<path id="path" d="" fill="#784C4C" fill-opacity="1.000000" fill-rule="nonzero"/>
	<path id="path" d="M71.81 84.13C71.7 84.24 71.95 84.23 71.97 84.21C72.08 84.11 71.82 84.12 71.81 84.13Z" fill="#784C4C" fill-opacity="1.000000" fill-rule="nonzero"/>
	<path id="path" d="" fill="#BAA4A4" fill-opacity="1.000000" fill-rule="nonzero"/>
	<path id="path" d="" fill="#CFBFBF" fill-opacity="1.000000" fill-rule="nonzero"/>
	<path id="path" d="M75.69 89.71C75.58 89.82 75.83 89.8 75.85 89.79C75.96 89.68 75.7 89.7 75.69 89.71Z" fill="#CFBFBF" fill-opacity="1.000000" fill-rule="nonzero"/>
	<path id="path" d="M76.17 89.71C76.06 89.82 76.32 89.8 76.33 89.79C76.44 89.68 76.19 89.7 76.17 89.71Z" fill="#9C7B7A" fill-opacity="1.000000" fill-rule="nonzero"/>
	<path id="path" d="M76.5 89.63L76.5 89.87L77.22 89.87C76.92 89.71 76.85 89.69 76.5 89.63Z" fill="#784C4C" fill-opacity="1.000000" fill-rule="nonzero"/>
	<path id="path" d="M66.8 90.84C66.92 93.81 67.69 96.9 68.25 99.81C68.41 100.65 68.38 102.41 69.12 102.96C69.83 103.49 71.55 103 72.37 102.9C75.34 102.53 78.74 102.6 81.59 101.75C81.17 100.04 80.25 97.19 80.58 95.45C80.8 94.32 82.28 93.49 82.24 92.32C82.19 90.97 80.45 90.82 79.89 91.81L79.65 91.81L79.41 89.63C75.24 89.63 70.93 90.32 66.8 90.84Z" fill="#282D32" fill-opacity="1.000000" fill-rule="nonzero"/>
	<path id="path" d="M73.26 89.95C73.15 90.06 73.41 90.05 73.42 90.03C73.53 89.93 73.28 89.94 73.26 89.95Z" fill="#CFBFBF" fill-opacity="1.000000" fill-rule="nonzero"/>
	<path id="path" d="M74.47 89.95C74.37 90.06 74.62 90.05 74.64 90.03C74.74 89.93 74.49 89.94 74.47 89.95Z" fill="#784C4C" fill-opacity="1.000000" fill-rule="nonzero"/>
	<path id="path" d="M72.05 90.19C71.94 90.3 72.2 90.29 72.21 90.28C72.32 90.17 72.06 90.18 72.05 90.19Z" fill="#784C4C" fill-opacity="1.000000" fill-rule="nonzero"/>
	<path id="path" d="M76.17 90.44C76.06 90.54 76.32 90.53 76.33 90.52C76.44 90.41 76.19 90.42 76.17 90.44Z" fill="#7F4923" fill-opacity="1.000000" fill-rule="nonzero"/>
	<path id="path" d="M76.66 90.44C76.55 90.54 76.8 90.53 76.82 90.52C76.93 90.41 76.67 90.42 76.66 90.44Z" fill="#BD782B" fill-opacity="1.000000" fill-rule="nonzero"/>
	<path id="path" d="M76.98 90.36L76.98 90.6L77.71 90.6C77.4 90.43 77.33 90.42 76.98 90.36Z" fill="#C59B40" fill-opacity="1.000000" fill-rule="nonzero"/>
	<path id="path" d="M67.52 91.57C68.01 95.22 68.99 98.82 69.46 102.48C73.03 101.82 76.99 101.34 80.62 101.27C80.55 99.64 80.09 98.04 79.89 96.42C78.51 97.25 77.76 100.04 76.21 100.41C75.21 100.65 72.46 98.59 72.26 97.62C72.08 96.77 73.16 95.62 74 96.09C74.65 96.45 75.15 97.19 75.77 97.63C77.42 95.18 79.06 93.41 78.68 90.36C75 90.65 71.15 90.9 67.52 91.57Z" fill="#4880FF" fill-opacity="1.000000" fill-rule="nonzero"/>
	<path id="path" d="M73.75 90.68C73.64 90.79 73.89 90.77 73.91 90.76C74.02 90.65 73.76 90.67 73.75 90.68Z" fill="#7F4923" fill-opacity="1.000000" fill-rule="nonzero"/>
	<path id="path" d="" fill="#784C4C" fill-opacity="1.000000" fill-rule="nonzero"/>
	<path id="path" d="M80.54 90.68C80.43 90.79 80.68 90.77 80.7 90.76C80.81 90.65 80.55 90.67 80.54 90.68Z" fill="#CFBFBF" fill-opacity="1.000000" fill-rule="nonzero"/>
	<path id="path" d="M72.53 90.92C72.43 91.03 72.68 91.02 72.7 91C72.8 90.9 72.55 90.91 72.53 90.92Z" fill="#C59B40" fill-opacity="1.000000" fill-rule="nonzero"/>
	<path id="path" d="" fill="#BAA4A4" fill-opacity="1.000000" fill-rule="nonzero"/>
	<path id="path" d="" fill="#784C4C" fill-opacity="1.000000" fill-rule="nonzero"/>
	<path id="path" d="" fill="#BAA4A4" fill-opacity="1.000000" fill-rule="nonzero"/>
	<path id="path" d="" fill="#BAA4A4" fill-opacity="1.000000" fill-rule="nonzero"/>
	<path id="path" d="" fill="#784C4C" fill-opacity="1.000000" fill-rule="nonzero"/>
	<path id="path" d="" fill="#784C4C" fill-opacity="1.000000" fill-rule="nonzero"/>
	<path id="path" d="" fill="#7F4923" fill-opacity="1.000000" fill-rule="nonzero"/>
	<path id="path" d="M80.62 91.81C79.09 94.06 77.07 96.33 76.01 98.84C75.14 98.23 74.44 97.54 73.83 96.66L73.34 96.66L72.86 97.63C73.63 98.19 74.95 99.54 75.99 99.36C76.76 99.22 77.31 98.21 77.74 97.63C78.84 96.14 81.42 93.75 81.1 91.81L80.62 91.81Z" fill="#282D32" fill-opacity="1.000000" fill-rule="nonzero"/>
	<path id="path" d="M81.43 92.22C81.41 92.23 81.4 92.49 81.51 92.38C81.52 92.36 81.53 92.11 81.43 92.22Z" fill="#BD782B" fill-opacity="1.000000" fill-rule="nonzero"/>
	<path id="path" d="M79 92.46C78.99 92.47 78.97 92.73 79.08 92.62C79.1 92.61 79.11 92.35 79 92.46Z" fill="#C59B40" fill-opacity="1.000000" fill-rule="nonzero"/>
	<path id="path" d="" fill="#BD782B" fill-opacity="1.000000" fill-rule="nonzero"/>
	<path id="path" d="" fill="#7F4923" fill-opacity="1.000000" fill-rule="nonzero"/>
	<path id="path" d="" fill="#9C662C" fill-opacity="1.000000" fill-rule="nonzero"/>
	<path id="path" d="" fill="#BD782B" fill-opacity="1.000000" fill-rule="nonzero"/>
	<path id="path" d="" fill="#9C662C" fill-opacity="1.000000" fill-rule="nonzero"/>
	<path id="path" d="" fill="#7F4923" fill-opacity="1.000000" fill-rule="nonzero"/>
	<path id="path" d="M78.19 93.75L78.43 93.99L78.19 93.75ZM80.38 93.75L80.62 93.99L80.38 93.75Z" fill="#7F4923" fill-opacity="1.000000" fill-rule="nonzero"/>
	<path id="path" d="" fill="#BAA4A4" fill-opacity="1.000000" fill-rule="nonzero"/>
	<path id="path" d="" fill="#C59B40" fill-opacity="1.000000" fill-rule="nonzero"/>
	<path id="path" d="" fill="#9C662C" fill-opacity="1.000000" fill-rule="nonzero"/>
	<path id="path" d="" fill="#BD782B" fill-opacity="1.000000" fill-rule="nonzero"/>
	<path id="path" d="" fill="#9C7B7A" fill-opacity="1.000000" fill-rule="nonzero"/>
	<path id="path" d="" fill="#BD782B" fill-opacity="1.000000" fill-rule="nonzero"/>
	<path id="path" d="" fill="#9C662C" fill-opacity="1.000000" fill-rule="nonzero"/>
	<path id="path" d="" fill="#7F4923" fill-opacity="1.000000" fill-rule="nonzero"/>
	<path id="path" d="" fill="#BAA4A4" fill-opacity="1.000000" fill-rule="nonzero"/>
	<path id="path" d="" fill="#BD782B" fill-opacity="1.000000" fill-rule="nonzero"/>
	<path id="path" d="" fill="#784C4C" fill-opacity="1.000000" fill-rule="nonzero"/>
	<path id="path" d="M80.46 95.37C80.44 95.38 80.43 95.64 80.54 95.53C80.55 95.52 80.56 95.26 80.46 95.37Z" fill="#9C7B7A" fill-opacity="1.000000" fill-rule="nonzero"/>
	<path id="path" d="" fill="#7F4923" fill-opacity="1.000000" fill-rule="nonzero"/>
	<path id="path" d="" fill="#C59B40" fill-opacity="1.000000" fill-rule="nonzero"/>
	<path id="path" d="" fill="#BD782B" fill-opacity="1.000000" fill-rule="nonzero"/>
	<path id="path" d="" fill="#9C662C" fill-opacity="1.000000" fill-rule="nonzero"/>
	<path id="path" d="" fill="#C59B40" fill-opacity="1.000000" fill-rule="nonzero"/>
	<path id="path" d="" fill="#9C662C" fill-opacity="1.000000" fill-rule="nonzero"/>
	<path id="path" d="" fill="#784C4C" fill-opacity="1.000000" fill-rule="nonzero"/>
	<path id="path" d="" fill="#C59B40" fill-opacity="1.000000" fill-rule="nonzero"/>
	<path id="path" d="" fill="#BD782B" fill-opacity="1.000000" fill-rule="nonzero"/>
	<path id="path" d="" fill="#9C662C" fill-opacity="1.000000" fill-rule="nonzero"/>
	<path id="path" d="M76.5 96.18L76.74 96.42L76.5 96.18ZM77.47 96.18L77.71 96.42L77.47 96.18Z" fill="#BD782B" fill-opacity="1.000000" fill-rule="nonzero"/>
	<path id="path" d="" fill="#C59B40" fill-opacity="1.000000" fill-rule="nonzero"/>
	<path id="path" d="" fill="#C59B40" fill-opacity="1.000000" fill-rule="nonzero"/>
	<path id="path" d="" fill="#CFBFBF" fill-opacity="1.000000" fill-rule="nonzero"/>
	<path id="path" d="" fill="#9C662C" fill-opacity="1.000000" fill-rule="nonzero"/>
	<path id="path" d="" fill="#BD782B" fill-opacity="1.000000" fill-rule="nonzero"/>
	<path id="path" d="M80.7 96.82C80.68 96.84 80.67 97.09 80.78 96.98C80.79 96.97 80.81 96.72 80.7 96.82Z" fill="#9C7B7A" fill-opacity="1.000000" fill-rule="nonzero"/>
	<path id="path" d="M73.83 96.9L74.07 97.15L73.83 96.9ZM76.01 96.9L76.25 97.15L76.01 96.9ZM76.98 96.9L77.22 97.15L76.98 96.9ZM79.97 97.07C79.96 97.08 79.94 97.33 80.05 97.23C80.07 97.21 80.08 96.96 79.97 97.07Z" fill="#BD782B" fill-opacity="1.000000" fill-rule="nonzero"/>
	<path id="path" d="M61.78 97.31C61.77 97.32 61.76 97.58 61.86 97.47C61.88 97.46 61.89 97.2 61.78 97.31ZM71.89 97.15L72.13 97.39L71.89 97.15ZM72.86 97.15L73.1 97.39L72.86 97.15ZM74.07 97.15L74.31 97.39L74.07 97.15Z" fill="#BD782B" fill-opacity="1.000000" fill-rule="nonzero"/>
	<path id="path" d="M75.04 97.15L75.28 97.39L75.04 97.15ZM76.74 97.15L76.98 97.39L76.74 97.15Z" fill="#7F4923" fill-opacity="1.000000" fill-rule="nonzero"/>
	<path id="path" d="" fill="#7F4923" fill-opacity="1.000000" fill-rule="nonzero"/>
	<path id="path" d="" fill="#9C662C" fill-opacity="1.000000" fill-rule="nonzero"/>
	<path id="path" d="" fill="#C59B40" fill-opacity="1.000000" fill-rule="nonzero"/>
	<path id="path" d="" fill="#7F4923" fill-opacity="1.000000" fill-rule="nonzero"/>
	<path id="path" d="M76.5 97.63L76.74 97.87L76.5 97.63ZM77.47 97.63L77.71 97.87L77.47 97.63Z" fill="#BD782B" fill-opacity="1.000000" fill-rule="nonzero"/>
	<path id="path" d="" fill="#9C662C" fill-opacity="1.000000" fill-rule="nonzero"/>
	<path id="path" d="M80.94 97.79C80.93 97.81 80.91 98.06 81.02 97.95C81.04 97.94 81.05 97.69 80.94 97.79Z" fill="#BAA4A4" fill-opacity="1.000000" fill-rule="nonzero"/>
	<path id="path" d="" fill="#BD782B" fill-opacity="1.000000" fill-rule="nonzero"/>
	<path id="path" d="" fill="#9C662C" fill-opacity="1.000000" fill-rule="nonzero"/>
	<path id="path" d="" fill="#7F4923" fill-opacity="1.000000" fill-rule="nonzero"/>
	<path id="path" d="M80.21 98.28C80.2 98.29 80.19 98.55 80.29 98.44C80.31 98.43 80.32 98.17 80.21 98.28Z" fill="#9C662C" fill-opacity="1.000000" fill-rule="nonzero"/>
	<path id="path" d="M80.94 98.28C80.93 98.29 80.91 98.55 81.02 98.44C81.04 98.43 81.05 98.17 80.94 98.28Z" fill="#784C4C" fill-opacity="1.000000" fill-rule="nonzero"/>
	<path id="path" d="" fill="#BD782B" fill-opacity="1.000000" fill-rule="nonzero"/>
	<path id="path" d="" fill="#7F4923" fill-opacity="1.000000" fill-rule="nonzero"/>
	<path id="path" d="" fill="#C59B40" fill-opacity="1.000000" fill-rule="nonzero"/>
	<path id="path" d="" fill="#9C662C" fill-opacity="1.000000" fill-rule="nonzero"/>
	<path id="path" d="M75.69 98.68C75.58 98.79 75.83 98.78 75.85 98.76C75.96 98.66 75.7 98.67 75.69 98.68Z" fill="#C59B40" fill-opacity="1.000000" fill-rule="nonzero"/>
	<path id="path" d="" fill="#BD782B" fill-opacity="1.000000" fill-rule="nonzero"/>
	<path id="path" d="" fill="#9C662C" fill-opacity="1.000000" fill-rule="nonzero"/>
	<path id="path" d="M80.21 98.76C80.2 98.78 80.19 99.03 80.29 98.92C80.31 98.91 80.32 98.66 80.21 98.76Z" fill="#FFB53B" fill-opacity="1.000000" fill-rule="nonzero"/>
	<path id="path" d="" fill="#9C662C" fill-opacity="1.000000" fill-rule="nonzero"/>
	<path id="path" d="" fill="#C59B40" fill-opacity="1.000000" fill-rule="nonzero"/>
	<path id="path" d="" fill="#BD782B" fill-opacity="1.000000" fill-rule="nonzero"/>
	<path id="path" d="" fill="#CFBFBF" fill-opacity="1.000000" fill-rule="nonzero"/>
	<path id="path" d="M74.07 99.33L74.31 99.57L74.07 99.33ZM75.28 99.33L75.53 99.57L75.28 99.33Z" fill="#7F4923" fill-opacity="1.000000" fill-rule="nonzero"/>
	<path id="path" d="" fill="#9C662C" fill-opacity="1.000000" fill-rule="nonzero"/>
	<path id="path" d="" fill="#BD782B" fill-opacity="1.000000" fill-rule="nonzero"/>
	<path id="path" d="M81.18 99.49C81.17 99.5 81.16 99.76 81.26 99.65C81.28 99.64 81.29 99.38 81.18 99.49Z" fill="#9C7B7A" fill-opacity="1.000000" fill-rule="nonzero"/>
	<path id="path" d="M74.31 99.57L74.55 99.81L74.31 99.57ZM75.93 99.65C75.82 99.76 76.08 99.75 76.09 99.73C76.2 99.62 75.94 99.64 75.93 99.65Z" fill="#BD782B" fill-opacity="1.000000" fill-rule="nonzero"/>
	<path id="path" d="" fill="#7F4923" fill-opacity="1.000000" fill-rule="nonzero"/>
	<path id="path" d="M80.46 99.73C80.44 99.75 80.43 100 80.54 99.89C80.55 99.88 80.56 99.62 80.46 99.73Z" fill="#BD782B" fill-opacity="1.000000" fill-rule="nonzero"/>
	<path id="path" d="" fill="#BD782B" fill-opacity="1.000000" fill-rule="nonzero"/>
	<path id="path" d="" fill="#C59B40" fill-opacity="1.000000" fill-rule="nonzero"/>
	<path id="path" d="M75.77 100.54L76.01 100.78L75.77 100.54ZM76.25 100.54L76.5 100.78L76.25 100.54ZM28 100.78L28.24 101.03L28 100.78Z" fill="#9C662C" fill-opacity="1.000000" fill-rule="nonzero"/>
	<path id="path" d="M81.35 100.78L81.35 101.51L81.59 101.51C81.53 101.16 81.51 101.09 81.35 100.78Z" fill="#FFFFFF" fill-opacity="1.000000" fill-rule="nonzero"/>
	<path id="path" d="" fill="#BD782B" fill-opacity="1.000000" fill-rule="nonzero"/>
	<path id="path" d="M79.81 101.35C79.7 101.46 79.96 101.44 79.97 101.43C80.08 101.32 79.82 101.34 79.81 101.35Z" fill="#BD782B" fill-opacity="1.000000" fill-rule="nonzero"/>
	<path id="path" d="M80.29 101.35C80.19 101.46 80.44 101.44 80.46 101.43C80.56 101.32 80.31 101.34 80.29 101.35Z" fill="#7F4923" fill-opacity="1.000000" fill-rule="nonzero"/>
	<path id="path" d="M77.63 101.59C77.52 101.7 77.78 101.69 77.79 101.67C77.9 101.57 77.64 101.58 77.63 101.59Z" fill="#9C662C" fill-opacity="1.000000" fill-rule="nonzero"/>
	<path id="path" d="M74.72 101.83C74.61 101.94 74.86 101.93 74.88 101.92C74.99 101.81 74.73 101.82 74.72 101.83Z" fill="#C59B40" fill-opacity="1.000000" fill-rule="nonzero"/>
	<path id="path" d="M75.93 101.83C75.82 101.94 76.08 101.93 76.09 101.92C76.2 101.81 75.94 101.82 75.93 101.83Z" fill="#7F4923" fill-opacity="1.000000" fill-rule="nonzero"/>
	<path id="path" d="" fill="#784C4C" fill-opacity="1.000000" fill-rule="nonzero"/>
	<path id="path" d="M73.02 102.08C72.91 102.19 73.17 102.17 73.18 102.16C73.29 102.05 73.03 102.06 73.02 102.08Z" fill="#BD782B" fill-opacity="1.000000" fill-rule="nonzero"/>
	<path id="path" d="M73.5 102.08C73.4 102.19 73.65 102.17 73.67 102.16C73.77 102.05 73.52 102.06 73.5 102.08Z" fill="#7F4923" fill-opacity="1.000000" fill-rule="nonzero"/>
	<path id="path" d="M79.08 102.08C78.97 102.19 79.23 102.17 79.24 102.16C79.35 102.05 79.1 102.06 79.08 102.08Z" fill="#784C4C" fill-opacity="1.000000" fill-rule="nonzero"/>
	<path id="path" d="M79.41 102L79.41 102.24L80.13 102.24C79.83 102.07 79.76 102.06 79.41 102Z" fill="#9C7B7A" fill-opacity="1.000000" fill-rule="nonzero"/>
	<path id="path" d="M80.29 102.08C80.19 102.19 80.44 102.17 80.46 102.16C80.56 102.05 80.31 102.06 80.29 102.08Z" fill="#CFBFBF" fill-opacity="1.000000" fill-rule="nonzero"/>
	<path id="path" d="M76.74 102.24L76.74 102.48L77.47 102.48C77.16 102.32 77.09 102.3 76.74 102.24Z" fill="#784C4C" fill-opacity="1.000000" fill-rule="nonzero"/>
	<path id="path" d="M77.63 102.32C77.52 102.43 77.78 102.41 77.79 102.4C77.9 102.29 77.64 102.31 77.63 102.32Z" fill="#9C7B7A" fill-opacity="1.000000" fill-rule="nonzero"/>
	<path id="path" d="M78.11 102.32C78 102.43 78.26 102.41 78.27 102.4C78.38 102.29 78.13 102.31 78.11 102.32Z" fill="#CFBFBF" fill-opacity="1.000000" fill-rule="nonzero"/>
	<path id="path" d="M74.96 102.56C74.85 102.67 75.11 102.66 75.12 102.64C75.23 102.54 74.97 102.55 74.96 102.56Z" fill="#784C4C" fill-opacity="1.000000" fill-rule="nonzero"/>
	<path id="path" d="M75.44 102.56C75.34 102.67 75.59 102.66 75.61 102.64C75.71 102.54 75.46 102.55 75.44 102.56Z" fill="#9C7B7A" fill-opacity="1.000000" fill-rule="nonzero"/>
	<path id="path" d="M75.93 102.56C75.82 102.67 76.08 102.66 76.09 102.64C76.2 102.54 75.94 102.55 75.93 102.56Z" fill="#CFBFBF" fill-opacity="1.000000" fill-rule="nonzero"/>
	<path id="path" d="M72.78 102.81C72.67 102.91 72.92 102.9 72.94 102.89C73.05 102.78 72.79 102.79 72.78 102.81Z" fill="#784C4C" fill-opacity="1.000000" fill-rule="nonzero"/>
	<path id="path" d="M73.26 102.81C73.15 102.91 73.41 102.9 73.42 102.89C73.53 102.78 73.28 102.79 73.26 102.81Z" fill="#9C7B7A" fill-opacity="1.000000" fill-rule="nonzero"/>
	<path id="path" d="M71.4 102.97L71.4 103.21L72.13 103.21C71.83 103.04 71.75 103.03 71.4 102.97Z" fill="#CFBFBF" fill-opacity="1.000000" fill-rule="nonzero"/>
	<path id="path" d="M79.81 109.84C79.7 109.95 79.96 109.93 79.97 109.92C80.08 109.81 79.82 109.82 79.81 109.84Z" fill="#9C7B7A" fill-opacity="1.000000" fill-rule="nonzero"/>
	<path id="path" d="M80.29 109.84C80.19 109.95 80.44 109.93 80.46 109.92C80.56 109.81 80.31 109.82 80.29 109.84Z" fill="#784C4C" fill-opacity="1.000000" fill-rule="nonzero"/>
	<path id="path" d="M70.43 110.97C70.5 114.09 71.35 117.36 71.94 120.43C72.09 121.23 72.04 123.04 72.76 123.57C73.51 124.12 75.39 123.51 76.25 123.41L85.23 122.37C85.21 120.29 84.15 118.12 84.36 116.06C84.49 114.82 86.27 113.71 85.99 112.47C85.81 111.62 84.73 111.35 84.01 111.21L83.77 111.94C83.46 111.36 83.32 110.22 82.69 109.9C81.79 109.45 80.36 109.92 79.4 110C76.42 110.26 73.42 110.91 70.43 110.97Z" fill="#282D32" fill-opacity="1.000000" fill-rule="nonzero"/>
	<path id="path" d="M77.63 110.08C77.52 110.19 77.78 110.17 77.79 110.16C77.9 110.05 77.64 110.07 77.63 110.08Z" fill="#9C7B7A" fill-opacity="1.000000" fill-rule="nonzero"/>
	<path id="path" d="M78.11 110.08C78 110.19 78.26 110.17 78.27 110.16C78.38 110.05 78.13 110.07 78.11 110.08Z" fill="#784C4C" fill-opacity="1.000000" fill-rule="nonzero"/>
	<path id="path" d="M74.96 110.32C74.85 110.43 75.11 110.42 75.12 110.4C75.23 110.3 74.97 110.31 74.96 110.32Z" fill="#BAA4A4" fill-opacity="1.000000" fill-rule="nonzero"/>
	<path id="path" d="M75.44 110.32C75.34 110.43 75.59 110.42 75.61 110.4C75.71 110.3 75.46 110.31 75.44 110.32Z" fill="#9C7B7A" fill-opacity="1.000000" fill-rule="nonzero"/>
	<path id="path" d="M75.93 110.32C75.82 110.43 76.08 110.42 76.09 110.4C76.2 110.3 75.94 110.31 75.93 110.32Z" fill="#784C4C" fill-opacity="1.000000" fill-rule="nonzero"/>
	<path id="path" d="M72.78 110.56C72.67 110.67 72.92 110.66 72.94 110.65C73.05 110.54 72.79 110.55 72.78 110.56Z" fill="#BAA4A4" fill-opacity="1.000000" fill-rule="nonzero"/>
	<path id="path" d="M73.26 110.56C73.15 110.67 73.41 110.66 73.42 110.65C73.53 110.54 73.28 110.55 73.26 110.56Z" fill="#9C7B7A" fill-opacity="1.000000" fill-rule="nonzero"/>
	<path id="path" d="M73.75 110.56C73.64 110.67 73.89 110.66 73.91 110.65C74.02 110.54 73.76 110.55 73.75 110.56Z" fill="#784C4C" fill-opacity="1.000000" fill-rule="nonzero"/>
	<path id="path" d="M79.81 110.56C79.7 110.67 79.96 110.66 79.97 110.65C80.08 110.54 79.82 110.55 79.81 110.56Z" fill="#7F4923" fill-opacity="1.000000" fill-rule="nonzero"/>
	<path id="path" d="M81.02 110.56C80.91 110.67 81.17 110.66 81.18 110.65C81.29 110.54 81.04 110.55 81.02 110.56Z" fill="#C59B40" fill-opacity="1.000000" fill-rule="nonzero"/>
	<path id="path" d="M71.16 111.7C71.89 115.44 72.8 119.29 73.1 123.09C76.82 122.21 80.78 122.52 84.5 121.64C84.21 120.09 84.04 118.53 83.53 117.03C82.3 118.03 81.56 120.3 80.11 120.93C79.15 121.36 76.1 119.2 75.91 118.22C75.78 117.55 76.5 116.68 76.74 116.06C77.82 116.57 78.54 117.44 79.41 118.24C81.21 115.57 82.82 113.77 82.56 110.48C78.75 110.65 74.97 111.53 71.16 111.7Z" fill="#4880FF" fill-opacity="1.000000" fill-rule="nonzero"/>
	<path id="path" d="M77.63 110.81C77.52 110.92 77.78 110.9 77.79 110.89C77.9 110.78 77.64 110.79 77.63 110.81Z" fill="#7F4923" fill-opacity="1.000000" fill-rule="nonzero"/>
	<path id="path" d="M78.11 110.81C78 110.92 78.26 110.9 78.27 110.89C78.38 110.78 78.13 110.79 78.11 110.81Z" fill="#BD782B" fill-opacity="1.000000" fill-rule="nonzero"/>
	<path id="path" d="M75.44 111.05C75.34 111.16 75.59 111.14 75.61 111.13C75.71 111.02 75.46 111.04 75.44 111.05Z" fill="#7F4923" fill-opacity="1.000000" fill-rule="nonzero"/>
	<path id="path" d="M75.93 111.05C75.82 111.16 76.08 111.14 76.09 111.13C76.2 111.02 75.94 111.04 75.93 111.05Z" fill="#BD782B" fill-opacity="1.000000" fill-rule="nonzero"/>
	<path id="path" d="M73.26 111.29C73.15 111.4 73.41 111.39 73.42 111.37C73.53 111.27 73.28 111.28 73.26 111.29Z" fill="#7F4923" fill-opacity="1.000000" fill-rule="nonzero"/>
	<path id="path" d="M73.75 111.29C73.64 111.4 73.89 111.39 73.91 111.37C74.02 111.27 73.76 111.28 73.75 111.29Z" fill="#BD782B" fill-opacity="1.000000" fill-rule="nonzero"/>
	<path id="path" d="M71.56 111.53C71.46 111.64 71.71 111.63 71.73 111.62C71.83 111.51 71.58 111.52 71.56 111.53Z" fill="#BD782B" fill-opacity="1.000000" fill-rule="nonzero"/>
	<path id="path" d="M84.26 112.18C82.86 114.68 80.87 116.87 79.65 119.46C78.71 118.74 78.07 117.79 76.98 117.27L76.5 118.24C77.61 119 78.67 119.85 79.89 120.43C81.63 118 84.31 115.28 85.23 112.42L84.26 112.18Z" fill="#282D32" fill-opacity="1.000000" fill-rule="nonzero"/>
	<path id="path" d="" fill="#BD782B" fill-opacity="1.000000" fill-rule="nonzero"/>
	<path id="path" d="" fill="#BD782B" fill-opacity="1.000000" fill-rule="nonzero"/>
	<path id="path" d="" fill="#C59B40" fill-opacity="1.000000" fill-rule="nonzero"/>
	<path id="path" d="" fill="#BD782B" fill-opacity="1.000000" fill-rule="nonzero"/>
	<path id="path" d="" fill="#9C662C" fill-opacity="1.000000" fill-rule="nonzero"/>
	<path id="path" d="" fill="#9C662C" fill-opacity="1.000000" fill-rule="nonzero"/>
	<path id="path" d="" fill="#BD782B" fill-opacity="1.000000" fill-rule="nonzero"/>
	<path id="path" d="" fill="#9C662C" fill-opacity="1.000000" fill-rule="nonzero"/>
	<path id="path" d="M60 46.45C60.13 52.98 62.87 59.34 63.15 65.85C69.93 65.85 76.76 64.69 83.52 64.15C83.5 57.87 81.32 51.16 80.12 45C73.39 45 66.72 46.31 60 46.45Z" fill="#282D32" fill-opacity="1.000000" fill-rule="nonzero"/>
	<path id="path" d="M60.72 47.18C61.83 53.05 63.4 59.16 63.87 65.12C70.19 64.85 76.47 63.7 82.79 63.42C82.53 57.47 79.9 51.68 79.64 45.72C73.33 45.73 67.02 46.91 60.72 47.18Z" fill="#4880FF" fill-opacity="1.000000" fill-rule="nonzero"/>
	<path id="path" d="M88 42.48C88.41 45.27 91.97 49.12 94.65 46.07C95.64 44.94 95.75 43.42 95.76 42C92.73 42.3 91.07 43.36 88 42.48Z" fill="#282D32" fill-opacity="1.000000" fill-rule="nonzero"/>
	<path id="path" d="M89.21 43.69C90.51 47.51 94.53 46.66 95.03 42.97C92.97 43.27 91.33 44.09 89.21 43.69Z" fill="#4880FF" fill-opacity="1.000000" fill-rule="nonzero"/>
	<path id="path" d="M99.53 55.09L94.2 55.54L91.04 55.82C90.04 55.95 88.34 55.63 87.48 56.2C86.74 56.7 86.87 57.89 87.69 58.23C88.76 58.69 90.87 58.15 92.01 58C94.65 57.65 97.36 57.58 100.02 57.39C100.87 57.33 103.08 57.45 103.65 56.75C105.36 54.61 100.35 54.98 99.53 55.09Z" fill="#282D32" fill-opacity="1.000000" fill-rule="nonzero"/>
</svg>
