<svg width="92.860352" height="14.619141" viewBox="0 0 92.8604 14.6191" fill="none" xmlns="http://www.w3.org/2000/svg" xmlns:xlink="http://www.w3.org/1999/xlink">
	<desc>
			Created with Pixso.
	</desc>
	<defs/>
	<path id="Logo" d="M44.82 13.72Q46.44 14.61 48.72 14.61Q49.78 14.61 50.77 14.36Q51.08 14.27 51.39 14.16Q52.68 13.72 53.5 12.97L52.54 10.51Q51.64 11.22 50.72 11.55Q50.54 11.61 50.36 11.66Q49.62 11.87 48.81 11.87Q47.1 11.87 46.1 11.03Q45.92 10.88 45.76 10.7Q44.74 9.52 44.74 7.33Q44.74 5.16 45.76 3.98Q45.92 3.81 46.09 3.66Q47.1 2.81 48.81 2.81Q49.6 2.81 50.32 3.02Q50.53 3.07 50.72 3.14Q51.64 3.48 52.54 4.17L53.5 1.71Q52.68 0.95 51.39 0.51Q51.13 0.42 50.85 0.35Q49.82 0.07 48.72 0.07Q46.44 0.07 44.82 0.98Q43.99 1.43 43.36 2.08Q42.75 2.71 42.33 3.51Q41.46 5.14 41.46 7.33Q41.46 9.56 42.33 11.19Q42.74 11.97 43.33 12.58Q43.97 13.25 44.82 13.72ZM57.21 13.98Q58.38 14.61 59.96 14.61Q61.54 14.61 62.7 13.98Q63.32 13.65 63.8 13.17Q64.22 12.75 64.53 12.21Q65.17 11.05 65.17 9.47Q65.17 7.91 64.53 6.77Q64.21 6.2 63.76 5.76Q63.3 5.31 62.7 5Q61.54 4.37 59.96 4.37Q58.38 4.37 57.21 5Q56.6 5.32 56.13 5.78Q55.7 6.21 55.39 6.77Q54.75 7.91 54.75 9.47Q54.75 11.05 55.39 12.21Q55.69 12.73 56.1 13.15Q56.57 13.64 57.21 13.98ZM73.73 13.77Q75 14.61 76.83 14.61Q78.42 14.61 79.58 13.98Q80.22 13.64 80.69 13.15Q81.1 12.73 81.4 12.21Q82.04 11.05 82.04 9.47Q82.04 7.91 81.4 6.77Q81.09 6.21 80.66 5.78Q80.19 5.32 79.58 5Q78.42 4.37 76.83 4.37Q74.99 4.37 73.71 5.23Q73.59 5.31 73.47 5.4Q73.03 5.73 72.69 6.16Q72.01 7.01 71.78 8.21L70.25 8.21L70.25 4.58L67.31 4.58L67.31 14.39L70.25 14.39L70.25 10.56L71.76 10.56Q71.96 11.83 72.65 12.75Q72.97 13.18 73.4 13.53Q73.56 13.65 73.73 13.77ZM85.47 14.33Q86.67 14.61 88.04 14.61Q90.34 14.61 91.6 13.8Q92.36 13.31 92.66 12.62Q92.86 12.17 92.86 11.64Q92.86 10.73 92.42 10.16Q91.94 9.52 90.94 9.27Q91.5 9.07 91.87 8.68Q91.98 8.58 92.06 8.46Q92.2 8.27 92.29 8.06Q92.47 7.65 92.47 7.15Q92.47 6.48 92.19 5.97Q91.92 5.47 91.39 5.11Q90.3 4.37 88.26 4.37Q86.8 4.37 85.59 4.67Q84.39 4.96 83.57 5.45L84.32 7.33Q85.01 6.95 85.85 6.72Q86.69 6.49 87.71 6.49Q88.86 6.49 89.31 6.76Q89.57 6.91 89.68 7.13Q89.75 7.29 89.75 7.5Q89.75 7.8 89.61 8Q89.33 8.39 88.5 8.39L85.98 8.39L85.98 10.49L88.75 10.49Q89.67 10.49 89.98 10.93Q90.14 11.15 90.14 11.47Q90.14 11.71 90.03 11.89Q89.9 12.12 89.6 12.26Q89.08 12.5 87.97 12.5Q86.96 12.5 85.92 12.25Q84.88 11.99 84.17 11.55L83.44 13.48Q84.28 14.03 85.47 14.33ZM60.91 12.14Q60.49 12.35 59.96 12.35Q59.42 12.35 59 12.14Q58.66 11.97 58.4 11.66Q57.8 10.95 57.8 9.47Q57.8 8.01 58.4 7.32Q58.66 7.03 58.98 6.86Q59.41 6.64 59.96 6.64Q60.5 6.64 60.93 6.86Q61.26 7.03 61.53 7.32Q62.14 8.01 62.14 9.47Q62.14 10.95 61.53 11.66Q61.25 11.97 60.91 12.14ZM77.81 12.13Q77.38 12.35 76.83 12.35Q76.26 12.35 75.81 12.11Q75.5 11.94 75.25 11.66Q74.66 10.95 74.66 9.47Q74.66 8.01 75.25 7.32Q75.49 7.05 75.79 6.89Q76.24 6.64 76.83 6.64Q77.39 6.64 77.83 6.87Q78.14 7.03 78.39 7.32Q78.99 8.01 78.99 9.47Q78.99 10.95 78.39 11.66Q78.13 11.96 77.81 12.13Z" fill="#202224" fill-opacity="1.000000" fill-rule="evenodd"/>
	<path id="Logo" d="M31.68 2.53Q32.62 3.35 34.28 3.35Q35.5 3.35 36.39 2.81Q36.55 2.71 36.69 2.6Q36.91 2.43 37.1 2.23Q37.75 1.53 38.02 0.47L36.62 0.01Q36.3 0.87 35.76 1.31Q35.22 1.75 34.3 1.75Q33.4 1.75 32.85 1.33Q32.3 0.91 31.98 0L30.5 0.47Q30.63 1.13 30.95 1.68Q31.24 2.15 31.68 2.53ZM0 0.29L0 14.39L2.79 14.39L2.79 5.85L6.42 12.28L8.15 12.28L11.8 5.8L11.8 14.39L14.61 14.39L14.61 0.29L12.08 0.29L7.33 8.95L2.57 0.29L0 0.29ZM19.35 13.98Q20.52 14.61 22.1 14.61Q23.68 14.61 24.84 13.98Q25.46 13.65 25.94 13.17Q26.36 12.75 26.67 12.21Q27.31 11.05 27.31 9.47Q27.31 7.91 26.67 6.77Q26.35 6.2 25.9 5.76Q25.44 5.31 24.84 5Q23.68 4.37 22.1 4.37Q20.52 4.37 19.35 5Q18.74 5.32 18.27 5.78Q17.84 6.21 17.53 6.77Q16.89 7.91 16.89 9.47Q16.89 11.05 17.53 12.21Q17.83 12.73 18.24 13.15Q18.71 13.64 19.35 13.98ZM29.45 4.58L29.45 14.39L31.93 14.39L36.42 8.45L36.42 14.39L39.14 14.39L39.14 4.58L36.66 4.58L32.17 10.51L32.17 4.58L29.45 4.58ZM23.05 12.14Q22.63 12.35 22.1 12.35Q21.56 12.35 21.14 12.14Q20.8 11.97 20.54 11.66Q19.94 10.95 19.94 9.47Q19.94 8.01 20.54 7.32Q20.8 7.03 21.12 6.86Q21.55 6.64 22.1 6.64Q22.64 6.64 23.07 6.86Q23.4 7.03 23.67 7.32Q24.28 8.01 24.28 9.47Q24.28 10.95 23.67 11.66Q23.39 11.97 23.05 12.14Z" fill="#4880FF" fill-opacity="1.000000" fill-rule="evenodd"/>
</svg>
