<svg width="150.000000" height="150.000000" viewBox="0 0 150 150" fill="none" xmlns="http://www.w3.org/2000/svg" xmlns:xlink="http://www.w3.org/1999/xlink">
	<desc>
			Created with Pixso.
	</desc>
	<defs>
		<clipPath id="clip115_402">
			<rect id="Manager-Supervisor--Streamline-Lagos" width="150.000000" height="150.000000" fill="white" fill-opacity="0"/>
		</clipPath>
	</defs>
	<g clip-path="url(#clip115_402)">
		<path id="vector" d="M129.02 137.33L3.75 137.33L44.54 92.11L125.33 92.11L129.02 137.33Z" fill="#FFFFFF" fill-opacity="1.000000" fill-rule="nonzero"/>
		<path id="vector_2" d="M129.32 137.3L125.62 92.09C125.62 92.01 125.58 91.95 125.53 91.89C125.47 91.84 125.4 91.81 125.32 91.81C44.32 91.81 44.46 91.75 44.32 91.91L3.52 137.13C3.48 137.17 3.45 137.22 3.45 137.28C3.44 137.34 3.45 137.4 3.47 137.45C3.49 137.5 3.53 137.55 3.58 137.58C3.63 137.61 3.69 137.63 3.75 137.63C134.86 137.58 129.35 137.66 129.32 137.3ZM47.84 137.03L58.19 118.11L94.5 118.11L90.71 137.03L47.84 137.03ZM58.52 117.51L66.27 103.34L97.45 103.34L94.62 117.51L58.52 117.51ZM34.83 103.33L65.58 103.34L57.83 117.51L22.03 117.51L34.83 103.33ZM72.12 92.41L99.63 92.41L97.57 102.74L66.59 102.74C72.21 92.47 72.2 92.61 72.12 92.41ZM98.06 103.34L125.94 103.34L127.1 117.51L95.22 117.51L98.06 103.34ZM125.89 102.74L98.18 102.74L100.24 92.41L125.05 92.41L125.89 102.74ZM44.67 92.41L71.56 92.41L65.91 102.74L35.36 102.74L44.67 92.41ZM21.49 118.11L57.5 118.11C47.17 137 47.2 136.89 47.21 137.03L4.42 137.03L21.49 118.11ZM91.32 137.03L95.1 118.11L127.15 118.11L128.69 137.03L91.32 137.03Z" fill="#000000" fill-opacity="1.000000" fill-rule="nonzero"/>
		<path id="vector_3" d="M30.33 134.84C30.06 134.84 29.8 134.75 29.59 134.58C29.38 134.42 29.23 134.19 29.16 133.93C29.1 133.67 29.12 133.4 29.22 133.16C29.33 132.91 29.51 132.71 29.74 132.58C31.62 131.47 33.69 130.72 35.85 130.37C32.6 128.17 29.9 125.26 27.92 121.87C27.84 121.73 27.79 121.58 27.77 121.43C27.75 121.27 27.75 121.11 27.79 120.96C27.83 120.8 27.91 120.66 28 120.53C28.1 120.41 28.22 120.3 28.35 120.22C28.49 120.14 28.64 120.09 28.8 120.07C28.95 120.05 29.11 120.06 29.27 120.1C29.42 120.14 29.56 120.21 29.69 120.3C29.81 120.4 29.92 120.52 30 120.65C32.36 124.71 35.87 127.99 40.09 130.06C40.33 130.17 40.52 130.36 40.64 130.6C40.75 130.83 40.79 131.1 40.74 131.36C40.7 131.62 40.57 131.85 40.37 132.03C40.18 132.21 39.93 132.31 39.67 132.34C35.48 132.72 33.82 133.07 30.91 134.68C30.73 134.78 30.53 134.84 30.33 134.84Z" fill="#4880FF" fill-opacity="1.000000" fill-rule="nonzero"/>
		<path id="vector_4" d="M71.28 134.52C71.02 134.51 70.76 134.42 70.55 134.26C70.34 134.1 70.19 133.87 70.12 133.61C70.05 133.35 70.07 133.08 70.18 132.83C70.28 132.59 70.47 132.39 70.7 132.26C72.58 131.15 74.64 130.4 76.79 130.03C73.52 127.84 70.78 124.95 68.8 121.55C68.63 121.28 68.59 120.95 68.67 120.64C68.75 120.33 68.95 120.07 69.23 119.9C69.5 119.74 69.83 119.7 70.14 119.78C70.45 119.86 70.71 120.06 70.87 120.34C73.25 124.37 76.76 127.61 80.97 129.66C81.2 129.77 81.39 129.96 81.51 130.19C81.62 130.43 81.66 130.69 81.62 130.95C81.57 131.2 81.45 131.44 81.26 131.62C81.07 131.8 80.83 131.91 80.57 131.94C76.39 132.4 74.74 132.78 71.86 134.36C71.69 134.46 71.49 134.52 71.28 134.52Z" fill="#4880FF" fill-opacity="1.000000" fill-rule="nonzero"/>
		<path id="vector_5" d="M107.9 134.52C107.64 134.51 107.38 134.42 107.17 134.26C106.95 134.1 106.8 133.87 106.74 133.61C106.67 133.35 106.69 133.08 106.8 132.83C106.9 132.59 107.09 132.39 107.32 132.26C109.2 131.15 111.26 130.39 113.41 130.03C110.12 127.83 107.38 124.9 105.41 121.46C105.25 121.19 105.21 120.86 105.29 120.55C105.38 120.24 105.58 119.98 105.85 119.82C106.13 119.66 106.46 119.62 106.77 119.7C107.08 119.78 107.34 119.99 107.5 120.26C109.85 124.33 113.36 127.61 117.59 129.66C117.82 129.77 118.01 129.96 118.13 130.19C118.24 130.43 118.28 130.69 118.24 130.95C118.19 131.2 118.07 131.44 117.88 131.62C117.69 131.8 117.45 131.91 117.19 131.94C113 132.4 111.35 132.78 108.48 134.36C108.3 134.46 108.1 134.52 107.9 134.52Z" fill="#4880FF" fill-opacity="1.000000" fill-rule="nonzero"/>
		<path id="vector_6" d="M43.02 115.16C42.75 115.16 42.49 115.07 42.28 114.91C42.07 114.75 41.92 114.52 41.85 114.26C41.79 114 41.8 113.73 41.91 113.49C42.01 113.24 42.19 113.04 42.43 112.91C43.41 112.33 44.47 111.89 45.58 111.6C43.71 110.21 42.16 108.46 41 106.44C40.92 106.31 40.87 106.16 40.85 106C40.83 105.84 40.84 105.68 40.88 105.53C40.92 105.37 40.99 105.23 41.09 105.1C41.18 104.98 41.31 104.87 41.44 104.79C41.58 104.71 41.73 104.66 41.89 104.64C42.05 104.62 42.21 104.63 42.36 104.68C42.52 104.72 42.66 104.79 42.79 104.89C42.91 104.99 43.01 105.11 43.09 105.25C44.59 107.82 46.82 109.89 49.5 111.19C49.73 111.31 49.91 111.5 50.03 111.73C50.15 111.96 50.18 112.23 50.14 112.48C50.09 112.74 49.97 112.97 49.78 113.15C49.59 113.33 49.35 113.44 49.09 113.47C46.34 113.78 45.41 113.99 43.6 115.01C43.42 115.11 43.22 115.16 43.02 115.16Z" fill="#4880FF" fill-opacity="1.000000" fill-rule="nonzero"/>
		<path id="vector_7" d="M90.71 108.66C90.71 108.66 90.15 113.07 81.16 113.07C72.16 113.07 72 108.66 72 108.66L72 95.65C72 94.66 72.2 93.67 72.58 92.76C72.95 91.84 73.51 91.01 74.21 90.31C74.91 89.61 75.75 89.05 76.66 88.67C77.58 88.29 78.56 88.1 79.55 88.1L83.08 88.1C84.08 88.1 85.06 88.29 85.98 88.67C86.89 89.05 87.72 89.61 88.43 90.31C89.13 91.01 89.68 91.84 90.06 92.76C90.44 93.67 90.63 94.66 90.63 95.65L90.71 108.66Z" fill="#FFFFFF" fill-opacity="1.000000" fill-rule="nonzero"/>
		<path id="vector_8" d="M90.71 108.66C90.71 108.66 90.15 113.07 81.16 113.07C72.16 113.07 72 108.66 72 108.66L72 95.65C72 93.96 72.57 92.32 73.61 90.99C74.43 89.96 76.49 87.96 77.7 88.82C80.05 90.48 82.96 96.78 83.65 99.74C83.49 98.94 85.71 97.24 86.06 88.5C87.1 88.82 88.46 90.35 89.11 91.23C90.06 92.54 90.56 94.12 90.55 95.73L90.71 108.66Z" fill="#4880FF" fill-opacity="1.000000" fill-rule="nonzero"/>
		<path id="vector_9" d="M90.93 95.65C90.93 93.57 90.1 91.57 88.63 90.1C87.16 88.63 85.17 87.8 83.08 87.8L79.55 87.8C77.47 87.8 75.48 88.63 74 90.1C72.53 91.57 71.71 93.57 71.7 95.65L71.7 108.67C71.71 108.86 71.98 113.38 81.16 113.38C90.31 113.38 90.99 108.89 91.01 108.7L90.93 95.65ZM79.55 88.4C83.09 88.4 84.14 88.26 85.76 88.91C85.96 92.42 85.24 95.92 83.67 99.06C82.63 95.14 80.62 91.54 77.82 88.61C78.39 88.47 78.97 88.4 79.55 88.4ZM72.3 108.66L72.3 95.65C72.3 94.14 72.78 92.67 73.65 91.45C74.52 90.22 75.75 89.29 77.18 88.8C80.22 91.94 82.35 95.84 83.34 100.1C83.17 104.74 83.12 108.87 83.18 112.69C82.56 112.74 81.89 112.77 81.16 112.77C72.6 112.77 72.31 108.69 72.3 108.66ZM83.78 112.63C83.72 108.75 83.77 104.56 83.95 99.82C85.7 96.56 86.53 92.89 86.38 89.19C87.57 89.8 88.57 90.72 89.26 91.86C89.96 93 90.33 94.31 90.33 95.65L90.41 108.63C90.37 108.88 89.66 111.92 83.78 112.63Z" fill="#000000" fill-opacity="1.000000" fill-rule="nonzero"/>
		<path id="vector_10" d="M81.82 101.59L81.82 101.19C81.82 101.11 81.85 101.03 81.91 100.98C81.96 100.92 82.04 100.89 82.12 100.89C82.2 100.89 82.28 100.92 82.33 100.98C82.39 101.03 82.42 101.11 82.42 101.19L82.42 101.59C82.42 101.67 82.39 101.75 82.33 101.8C82.28 101.86 82.2 101.89 82.12 101.89C82.04 101.89 81.96 101.86 81.91 101.8C81.85 101.75 81.82 101.67 81.82 101.59Z" fill="#000000" fill-opacity="1.000000" fill-rule="nonzero"/>
		<path id="vector_11" d="M81.5 107.37L81.5 106.89C81.5 106.81 81.53 106.73 81.59 106.68C81.64 106.62 81.72 106.59 81.8 106.59C81.88 106.59 81.96 106.62 82.01 106.68C82.07 106.73 82.1 106.81 82.1 106.89L82.1 107.37C82.1 107.45 82.07 107.53 82.01 107.59C81.96 107.64 81.88 107.67 81.8 107.67C81.72 107.67 81.64 107.64 81.59 107.59C81.53 107.53 81.5 107.45 81.5 107.37Z" fill="#000000" fill-opacity="1.000000" fill-rule="nonzero"/>
		<path id="vector_12" d="M81.56 89.46C86.75 89.46 90.96 85.26 90.96 80.07C90.96 74.88 86.75 70.67 81.56 70.67C76.37 70.67 72.16 74.88 72.16 80.07C72.16 85.26 76.37 89.46 81.56 89.46Z" fill="#FFFFFF" fill-opacity="1.000000" fill-rule="nonzero"/>
		<path id="vector_13" d="M81.56 89.76C79.64 89.76 77.77 89.2 76.17 88.13C74.58 87.07 73.34 85.55 72.6 83.78C71.87 82.01 71.68 80.06 72.05 78.18C72.42 76.3 73.35 74.57 74.7 73.21C76.06 71.86 77.79 70.93 79.67 70.56C81.55 70.18 83.5 70.38 85.27 71.11C87.04 71.84 88.56 73.09 89.62 74.68C90.69 76.28 91.25 78.15 91.25 80.07C91.25 82.64 90.23 85.1 88.41 86.92C86.59 88.74 84.13 89.76 81.56 89.76ZM81.56 70.97C79.76 70.97 78 71.51 76.51 72.51C75.01 73.51 73.84 74.93 73.16 76.59C72.47 78.25 72.29 80.08 72.64 81.84C72.99 83.61 73.86 85.23 75.13 86.5C76.4 87.77 78.02 88.64 79.79 88.99C81.55 89.34 83.38 89.16 85.04 88.47C86.7 87.78 88.12 86.62 89.12 85.12C90.12 83.63 90.66 81.87 90.66 80.07C90.65 77.66 89.69 75.35 87.99 73.64C86.28 71.94 83.97 70.98 81.56 70.97Z" fill="#000000" fill-opacity="1.000000" fill-rule="nonzero"/>
		<path id="vector_14" d="M91.12 76.7C89.4 69.15 79.78 67.65 74.57 72.68C71.35 75.79 71.8 79.96 72.08 79.91C73.71 79.6 75.21 78.79 76.34 77.58C77.15 76.59 77.79 75.49 78.25 74.3C79.58 77.05 83.99 77.46 86.46 78.54C86.05 77.64 85.41 76.87 84.61 76.29C86.01 76.77 87.34 77.44 88.55 78.3C89.37 78.92 90.95 80.16 91.09 81.4C91.46 79.86 91.47 78.25 91.12 76.7Z" fill="#4880FF" fill-opacity="1.000000" fill-rule="nonzero"/>
		<path id="vector_15" d="M90.7 81.7C91.07 80.03 87.53 77.87 85.95 77.16C86.26 77.54 86.53 77.97 86.73 78.42C86.76 78.47 86.76 78.54 86.75 78.6C86.74 78.66 86.71 78.71 86.67 78.75C86.63 78.8 86.57 78.83 86.52 78.84C86.46 78.85 86.39 78.84 86.34 78.82C84.04 77.81 79.98 77.38 78.31 74.99C77.89 76.01 77.3 76.95 76.57 77.77C75.38 79.02 73.84 79.87 72.14 80.2C72.07 80.21 72 80.21 71.93 80.18C71.86 80.15 71.8 80.1 71.75 80.04C71.53 79.74 71.16 75.66 74.36 72.47C80.11 67.11 89.7 69.12 91.41 76.63C91.8 78.35 91.76 80.14 91.29 81.84C91.15 82.45 90.54 82.29 90.7 81.7ZM84.61 75.99C86.08 76.47 87.47 77.16 88.72 78.06C89.61 78.66 90.38 79.41 90.98 80.29C91.14 79.12 91.09 77.92 90.82 76.76C89.17 69.66 80.13 67.9 74.77 72.9C73.89 73.76 73.2 74.8 72.76 75.96C72.31 77.11 72.13 78.34 72.21 79.58C73.7 79.25 75.06 78.48 76.12 77.38C76.96 76.42 78.05 74.75 77.82 74.06C77.79 73.99 77.8 73.9 77.83 73.83C77.87 73.76 77.93 73.71 78 73.68C78.08 73.65 78.16 73.66 78.23 73.69C78.3 73.73 78.36 73.79 78.38 73.86C79.35 76.47 83.2 77.06 85.8 77.97C85.44 77.41 84.98 76.93 84.44 76.54C84.38 76.5 84.34 76.45 84.32 76.39C84.3 76.33 84.3 76.26 84.32 76.2C84.34 76.14 84.38 76.09 84.43 76.05C84.48 76.01 84.55 75.99 84.61 75.99Z" fill="#000000" fill-opacity="1.000000" fill-rule="nonzero"/>
		<path id="vector_16" d="M80.03 78.81C79.51 78.81 79.09 79.4 79.09 80.15C79.09 80.9 79.51 81.49 80.03 81.49C80.56 81.49 80.98 80.9 80.98 80.15C80.98 79.4 80.56 78.81 80.03 78.81Z" fill="#000000" fill-opacity="1.000000" fill-rule="nonzero"/>
		<path id="vector_17" d="M87.9 78.81C87.38 78.81 86.96 79.4 86.96 80.15C86.96 80.9 87.38 81.49 87.9 81.49C88.43 81.49 88.85 80.9 88.85 80.15C88.85 79.4 88.43 78.81 87.9 78.81Z" fill="#000000" fill-opacity="1.000000" fill-rule="nonzero"/>
		<path id="vector_18" d="M82.45 82.5C82.4 82.44 82.38 82.36 82.39 82.29C82.4 82.21 82.44 82.14 82.5 82.09C82.56 82.04 82.64 82.02 82.72 82.03C82.8 82.03 82.87 82.07 82.92 82.13C83.05 82.31 83.23 82.46 83.43 82.57C83.63 82.68 83.86 82.73 84.09 82.74C84.31 82.74 84.54 82.7 84.75 82.6C84.96 82.51 85.14 82.36 85.28 82.19C85.34 82.13 85.41 82.1 85.49 82.1C85.57 82.1 85.64 82.14 85.7 82.19C85.76 82.25 85.79 82.32 85.79 82.4C85.79 82.48 85.76 82.55 85.71 82.61C85.5 82.85 85.25 83.04 84.96 83.16C84.68 83.29 84.37 83.35 84.05 83.34C83.74 83.33 83.43 83.25 83.16 83.1C82.88 82.96 82.64 82.76 82.45 82.5Z" fill="#000000" fill-opacity="1.000000" fill-rule="nonzero"/>
		<path id="vector_19" d="M63.25 95.09C63.25 95.09 62.69 99.18 54.34 99.18C45.98 99.18 45.75 95.09 45.75 95.09L45.75 82.88C45.75 81.01 46.49 79.21 47.82 77.89C49.14 76.56 50.94 75.82 52.81 75.81L56.1 75.81C57.98 75.82 59.77 76.56 61.1 77.89C62.42 79.21 63.17 81.01 63.17 82.88L63.25 95.09Z" fill="#5A8CFF" fill-opacity="1.000000" fill-rule="nonzero"/>
		<path id="vector_20" d="M56.58 86.97C55.67 82.93 53.64 79.23 50.74 76.27C51.14 75.87 52.33 75.81 52.81 75.81C55.7 75.81 58.58 75.74 58.91 76.29C59.13 80 58.33 83.7 56.58 86.97Z" fill="#4880FF" fill-opacity="1.000000" fill-rule="nonzero"/>
		<path id="vector_21" d="M63.47 82.88C63.47 80.93 62.69 79.05 61.31 77.67C59.93 76.29 58.06 75.51 56.1 75.51L52.81 75.51C50.86 75.51 48.99 76.29 47.6 77.67C46.22 79.05 45.45 80.93 45.44 82.88L45.44 95.1C45.46 95.28 45.8 99.48 54.34 99.48C62.85 99.48 63.52 95.31 63.55 95.13L63.47 82.88ZM56.1 76.11C56.96 76.11 57.82 76.28 58.62 76.6C58.82 79.87 58.15 83.14 56.68 86.07C55.69 82.4 53.79 79.05 51.16 76.32C52.2 76.06 52.62 76.11 56.1 76.11ZM46.04 95.09L46.04 82.88C46.05 81.49 46.48 80.13 47.28 78.99C48.08 77.85 49.21 76.99 50.52 76.51C53.36 79.39 55.36 82.99 56.29 86.93C56.11 91.39 56.05 95.18 56.12 98.81C55.57 98.86 54.98 98.88 54.34 98.88C46.41 98.88 46.04 95.1 46.04 95.09ZM56.72 98.75C56.66 95.15 56.71 91.39 56.88 86.98C58.58 83.89 59.39 80.4 59.23 76.88C60.33 77.46 61.25 78.32 61.89 79.38C62.53 80.43 62.87 81.65 62.87 82.88L62.95 95.06C62.9 95.31 62.24 98.12 56.72 98.75Z" fill="#000000" fill-opacity="1.000000" fill-rule="nonzero"/>
		<path id="vector_22" d="M63.33 68.34C63.5 76.94 51.52 81.06 46.71 72.28C45.87 70.71 45.56 68.91 45.82 67.14C46.08 65.38 46.9 63.75 48.15 62.48C49.19 61.36 50.49 60.5 51.93 60C54.1 59.34 56.43 59.49 58.51 60.4C61.68 61.73 63.26 64.93 63.33 68.34Z" fill="#FFFFFF" fill-opacity="1.000000" fill-rule="nonzero"/>
		<path id="vector_23" d="M65.9 70.65C65.66 70.29 65.39 69.94 65.1 69.62C64.2 68.34 64.43 66.52 64.11 64.99C63.75 63.38 62.94 61.91 61.78 60.75C61.2 60.19 60.56 59.72 59.86 59.33C57.84 58.16 55.48 57.72 53.17 58.09C48.85 58.72 46.23 62.62 45.29 65.82C45.2 66.33 45.01 66.82 44.73 67.25C44.35 67.65 43.94 68.02 43.49 68.34C43.19 68.55 42.97 68.84 42.85 69.19C42.73 69.53 42.72 69.9 42.83 70.25C43.01 70.6 43.24 70.93 43.53 71.21C43.6 71.29 43.65 71.39 43.69 71.5C43.72 71.6 43.73 71.72 43.71 71.83C43.56 72.12 42.83 72.03 42.48 72.47C41.04 73.91 45.19 76.77 49.16 75.05C49.2 75.03 49.25 74.99 49.28 74.95C49.31 74.91 49.33 74.86 49.33 74.81C49.34 74.76 49.33 74.7 49.31 74.66C49.29 74.61 49.26 74.57 49.22 74.53C48.97 74.34 48.77 74.1 48.62 73.82C48.47 73.54 48.38 73.23 48.36 72.92C48.34 72.61 48.39 72.29 48.5 72C48.61 71.7 48.79 71.43 49.01 71.21C49.38 70.83 50.06 70.67 50.35 70.08C50.67 69.44 50.14 68.98 50.14 68.58C50.15 68.28 50.23 67.99 50.37 67.72C50.52 67.46 50.73 67.23 50.98 67.06C51.54 66.67 52.15 66.35 52.79 66.12C53.87 65.58 54.77 64.75 55.4 63.73C55.38 64.18 55.24 64.61 54.99 64.98C54.74 65.35 54.39 65.64 53.98 65.82C53.92 65.84 53.88 65.88 53.85 65.93C53.81 65.97 53.8 66.03 53.8 66.09C53.79 66.14 53.81 66.2 53.84 66.25C53.87 66.3 53.91 66.34 53.96 66.36C54.58 66.66 55.26 66.78 55.94 66.71C56.61 66.65 57.26 66.41 57.81 66.01C58.56 65.49 59.13 64.74 59.43 63.88C62.69 66.29 63.73 71.35 60.65 74.43C60.62 74.47 60.59 74.51 60.58 74.56C60.56 74.61 60.56 74.66 60.57 74.71C60.58 74.76 60.61 74.8 60.64 74.84C60.67 74.88 60.72 74.91 60.76 74.92C61.79 75.49 62.91 75.85 64.07 75.96C64.42 75.97 64.76 75.9 65.07 75.76C65.38 75.58 65.61 75.28 65.71 74.94C65.8 74.6 65.77 74.23 65.61 73.91C65.45 73.6 65.16 73.34 65.16 73.16C65.16 72.89 65.76 72.67 66 72.19C66.13 71.95 66.2 71.68 66.18 71.41C66.16 71.13 66.07 70.87 65.9 70.65Z" fill="#000000" fill-opacity="1.000000" fill-rule="nonzero"/>
		<path id="vector_24" d="M53.13 67.16C51.99 67.16 51.99 69.69 53.13 69.69C54.28 69.69 54.28 67.16 53.13 67.16Z" fill="#000000" fill-opacity="1.000000" fill-rule="nonzero"/>
		<path id="vector_25" d="M60.6 67.16C59.45 67.16 59.45 69.69 60.6 69.69C61.75 69.69 61.75 67.16 60.6 67.16Z" fill="#000000" fill-opacity="1.000000" fill-rule="nonzero"/>
		<path id="vector_26" d="M57.04 71.4C56.74 71.39 56.44 71.32 56.16 71.19C55.89 71.06 55.65 70.86 55.47 70.62C55.42 70.56 55.4 70.48 55.41 70.4C55.42 70.32 55.46 70.25 55.52 70.21C55.59 70.16 55.66 70.14 55.74 70.15C55.82 70.15 55.89 70.19 55.94 70.25C56.06 70.41 56.23 70.55 56.41 70.64C56.59 70.73 56.79 70.78 57 70.79C57.21 70.79 57.41 70.75 57.6 70.67C57.79 70.58 57.95 70.46 58.08 70.3C58.12 70.23 58.18 70.18 58.26 70.15C58.33 70.12 58.42 70.13 58.49 70.17C58.56 70.2 58.61 70.26 58.64 70.34C58.66 70.42 58.66 70.5 58.62 70.57C58.44 70.82 58.21 71.03 57.93 71.17C57.66 71.32 57.35 71.39 57.04 71.4Z" fill="#000000" fill-opacity="1.000000" fill-rule="nonzero"/>
		<path id="vector_27" d="M54.92 88.5L54.92 88.1C54.92 88.02 54.95 87.94 55.01 87.89C55.06 87.83 55.14 87.8 55.22 87.8C55.3 87.8 55.38 87.83 55.43 87.89C55.49 87.94 55.52 88.02 55.52 88.1L55.52 88.5C55.52 88.58 55.49 88.66 55.43 88.71C55.38 88.77 55.3 88.8 55.22 88.8C55.14 88.8 55.06 88.77 55.01 88.71C54.95 88.66 54.92 88.58 54.92 88.5Z" fill="#000000" fill-opacity="1.000000" fill-rule="nonzero"/>
		<path id="vector_28" d="M54.52 93.88L54.52 93.4C54.52 93.32 54.55 93.24 54.61 93.19C54.66 93.13 54.74 93.1 54.82 93.1C54.9 93.1 54.98 93.13 55.03 93.19C55.09 93.24 55.12 93.32 55.12 93.4L55.12 93.88C55.12 93.96 55.09 94.04 55.03 94.09C54.98 94.15 54.9 94.18 54.82 94.18C54.74 94.18 54.66 94.15 54.61 94.09C54.55 94.04 54.52 93.96 54.52 93.88Z" fill="#000000" fill-opacity="1.000000" fill-rule="nonzero"/>
		<path id="vector_29" d="M54.66 77.48C52.85 77.48 51.09 76.94 49.58 75.94C48.08 74.93 46.91 73.51 46.22 71.84C45.53 70.17 45.35 68.33 45.7 66.56C46.05 64.79 46.92 63.16 48.2 61.89C49.48 60.61 51.1 59.74 52.88 59.39C54.65 59.03 56.48 59.21 58.15 59.91C59.82 60.6 61.25 61.77 62.25 63.27C63.26 64.77 63.79 66.54 63.79 68.34C63.79 70.77 62.83 73.09 61.11 74.8C59.4 76.51 57.08 77.48 54.66 77.48ZM54.66 59.81C52.97 59.81 51.32 60.31 49.92 61.25C48.51 62.19 47.42 63.52 46.77 65.08C46.13 66.64 45.96 68.35 46.29 70.01C46.62 71.67 47.43 73.19 48.62 74.38C49.82 75.57 51.34 76.38 52.99 76.71C54.65 77.04 56.36 76.87 57.92 76.23C59.48 75.58 60.82 74.49 61.75 73.09C62.69 71.68 63.19 70.03 63.19 68.34C63.19 66.08 62.29 63.91 60.69 62.31C59.09 60.71 56.92 59.81 54.66 59.81Z" fill="#000000" fill-opacity="1.000000" fill-rule="nonzero"/>
		<path id="vector_30" d="M104.21 38.63L92.4 38.79C92.4 40.66 92.79 42.5 93.55 44.2C94.31 45.91 95.43 47.43 96.82 48.67C97.63 49.46 98.63 50.03 99.71 50.36C100.27 50.5 100.85 50.51 101.41 50.39C101.97 50.26 102.49 50 102.92 49.63C105.77 46.94 101.13 41.06 104.21 38.63Z" fill="#FFFFFF" fill-opacity="1.000000" fill-rule="nonzero"/>
		<path id="vector_31" d="M103.94 38.32C100.64 40.92 105.33 46.79 102.65 49.32C102.25 49.66 101.78 49.9 101.27 50.02C100.76 50.13 100.22 50.13 99.72 49.99C98.67 49.68 97.72 49.12 96.94 48.37C95.58 47.16 94.49 45.67 93.74 44.01C93 42.34 92.62 40.54 92.62 38.72L92.02 38.71C92.02 45.71 97.37 50.7 100.53 50.7C101.45 50.69 102.34 50.36 103.05 49.77C106.03 46.96 101.46 41.04 104.31 38.79C104.36 38.74 104.39 38.67 104.4 38.59C104.4 38.52 104.38 38.45 104.34 38.39C104.29 38.33 104.22 38.29 104.15 38.28C104.08 38.27 104 38.28 103.94 38.32Z" fill="#000000" fill-opacity="1.000000" fill-rule="nonzero"/>
		<path id="vector_32" d="M110.87 67.63C110.68 65.79 110.54 64.32 110.35 63.19C109.21 62.87 108.01 62.85 106.85 63.12C103.6 63.91 102.5 64.05 100.99 65.24C103.34 66.41 105.38 68.13 106.93 70.26C108.62 72.36 109.9 74.09 109.9 74.09C109.9 74.09 111.32 71.95 110.87 67.63Z" fill="#5A8CFF" fill-opacity="1.000000" fill-rule="nonzero"/>
		<path id="vector_33" d="M118.64 80.19L115.74 68.27C115.25 66.38 114.04 64.75 112.36 63.74C110.69 62.72 108.69 62.4 106.78 62.83L103.57 63.64C101.68 64.13 100.05 65.34 99.04 67.01C98.02 68.68 97.7 70.69 98.13 72.59L101.03 84.41C101.07 84.55 101.87 87.2 106.49 87.2C107.91 87.18 109.33 86.98 110.7 86.62C119.05 84.58 118.66 80.37 118.64 80.19ZM103.72 64.22C106.54 63.51 107.73 63.05 109.47 63.31C110.42 66.45 110.54 69.78 109.81 72.97C107.98 69.67 105.35 66.86 102.17 64.82C102.66 64.56 103.18 64.36 103.72 64.22Z" fill="#000000" fill-opacity="1.000000" fill-rule="nonzero"/>
		<path id="vector_34" d="M103.72 65.05C108.6 65.05 112.56 61.1 112.56 56.22C112.56 51.34 108.6 47.39 103.72 47.39C98.85 47.39 94.89 51.34 94.89 56.22C94.89 61.1 98.85 65.05 103.72 65.05Z" fill="#FFFFFF" fill-opacity="1.000000" fill-rule="nonzero"/>
		<path id="vector_35" d="M103.72 47.09C101.91 47.09 100.15 47.62 98.65 48.62C97.14 49.63 95.97 51.06 95.28 52.72C94.59 54.39 94.41 56.23 94.76 58C95.12 59.77 95.99 61.4 97.26 62.68C98.54 63.95 100.17 64.82 101.94 65.18C103.71 65.53 105.55 65.35 107.22 64.66C108.89 63.97 110.31 62.79 111.32 61.29C112.32 59.79 112.85 58.03 112.85 56.22C112.85 53.8 111.89 51.48 110.18 49.76C108.46 48.05 106.14 47.09 103.72 47.09ZM103.72 64.75C101.89 64.75 100.11 64.16 98.64 63.07C97.17 61.98 96.08 60.44 95.55 58.69C97.41 58.19 99.12 57.24 100.52 55.92C101.92 54.6 102.97 52.96 103.58 51.13C103.7 52.11 103.52 53.1 103.08 53.97C103.15 54.04 103.24 54.08 103.34 54.1C103.44 54.11 103.55 54.1 103.64 54.05C103.82 53.94 103.98 53.81 104.12 53.65C104.83 52.91 105.33 52 105.56 51C105.71 51.55 105.82 52.12 105.89 52.69C106.21 52.42 106.46 52.09 106.63 51.71C106.8 51.33 106.87 50.91 106.85 50.5C109.2 51.41 111.12 53.18 112.22 55.45C112.32 56.63 112.18 57.82 111.8 58.94C111.42 60.06 110.81 61.1 110.02 61.97C109.22 62.85 108.24 63.54 107.16 64.02C106.08 64.5 104.9 64.75 103.72 64.75Z" fill="#000000" fill-opacity="1.000000" fill-rule="nonzero"/>
		<path id="vector_36" d="M103.09 56.43C102.95 55.87 102.52 55.29 101.98 55.42C101.44 55.55 101.32 56.27 101.45 56.83C101.85 58.45 103.48 58.04 103.09 56.43Z" fill="#000000" fill-opacity="1.000000" fill-rule="nonzero"/>
		<path id="vector_37" d="M110.33 54.74C110.2 54.18 109.76 53.6 109.22 53.73C108.68 53.86 108.56 54.58 108.7 55.14C109.08 56.76 110.72 56.35 110.33 54.74Z" fill="#000000" fill-opacity="1.000000" fill-rule="nonzero"/>
		<path id="vector_38" d="M106.32 58.73C105.86 58.73 105.42 58.58 105.07 58.3C105.01 58.25 104.97 58.18 104.96 58.1C104.95 58.03 104.97 57.95 105.02 57.89C105.07 57.83 105.14 57.79 105.22 57.77C105.29 57.76 105.37 57.78 105.43 57.83C105.72 58.05 106.08 58.16 106.45 58.13C106.69 58.09 106.92 57.99 107.12 57.85C107.33 57.7 107.49 57.51 107.61 57.29C107.66 57.24 107.74 57.2 107.82 57.2C107.9 57.2 107.97 57.24 108.03 57.29C108.09 57.35 108.12 57.42 108.12 57.5C108.12 57.58 108.09 57.66 108.03 57.72C107.86 58.02 107.61 58.27 107.31 58.45C107.01 58.63 106.67 58.73 106.32 58.73Z" fill="#000000" fill-opacity="1.000000" fill-rule="nonzero"/>
		<path id="vector_39" d="M112.43 85.77C111.16 81 110.32 77.35 109.69 73.94C109.68 73.86 109.7 73.78 109.74 73.72C109.79 73.65 109.86 73.6 109.93 73.59C110.01 73.58 110.09 73.59 110.16 73.64C110.22 73.68 110.27 73.75 110.28 73.83C110.91 77.22 111.75 80.86 113.01 85.61C113.03 85.69 113.02 85.77 112.98 85.84C112.94 85.91 112.87 85.96 112.79 85.98C112.72 86 112.64 85.99 112.57 85.95C112.5 85.91 112.45 85.84 112.43 85.77Z" fill="#FFFFFF" fill-opacity="1.000000" fill-rule="nonzero"/>
		<path id="vector_40" d="M108.73 75.79L108.65 75.39C108.63 75.31 108.65 75.23 108.69 75.16C108.74 75.1 108.81 75.05 108.88 75.04C108.96 75.02 109.04 75.04 109.11 75.08C109.18 75.12 109.22 75.19 109.24 75.27L109.32 75.67C109.33 75.75 109.32 75.83 109.27 75.9C109.23 75.97 109.16 76.01 109.08 76.03C109.01 76.04 108.92 76.03 108.86 75.98C108.79 75.94 108.75 75.87 108.73 75.79Z" fill="#FFFFFF" fill-opacity="1.000000" fill-rule="nonzero"/>
		<path id="vector_41" d="M109.61 81.08L109.53 80.6C109.52 80.52 109.54 80.44 109.58 80.38C109.63 80.31 109.7 80.27 109.78 80.26C109.86 80.25 109.94 80.26 110 80.31C110.06 80.35 110.11 80.42 110.12 80.5L110.2 80.98C110.22 81.06 110.2 81.14 110.15 81.21C110.1 81.27 110.03 81.31 109.96 81.33C109.88 81.34 109.8 81.32 109.73 81.27C109.67 81.23 109.63 81.16 109.61 81.08Z" fill="#FFFFFF" fill-opacity="1.000000" fill-rule="nonzero"/>
		<path id="vector_42" d="M129.58 44.57C127.49 49.55 124.68 54.29 119.86 57.1C118.58 57.9 117.05 58.57 115.53 58.22C114.59 57.99 113.75 57.47 113.11 56.74C112.48 56 112.09 55.09 111.99 54.13C111.83 52.19 112.28 50.26 113.28 48.59C113.83 47.77 114.18 46.83 114.32 45.86C114.16 43.04 111.29 41.99 108.46 42.16C102.51 42.16 96.51 45.56 96.17 51.56C96.17 52.6 96.33 53.65 95.77 54.53C94.89 55.9 92.72 55.82 91.36 54.93C86.96 52.08 86.33 42.97 92.31 36.39C92.56 28.47 101.14 23.54 108.88 22.03C114.29 20.98 116.83 21.28 116.83 21.28C116.83 21.28 120.34 21.82 124.23 26.49C128.39 31.49 130.4 36.99 129.58 44.57Z" fill="#FFFFFF" fill-opacity="1.000000" fill-rule="nonzero"/>
		<path id="vector_43" d="M130.55 12.69C125.65 14.86 119.15 19.04 114.24 21.21C115.56 20.91 116.95 21.14 118.1 21.85C122.58 24.1 126.11 27.88 128.04 32.5C129.97 37.13 130.17 42.3 128.62 47.06L142.91 44.49C142.91 44.49 149.66 37.51 143.96 24.5C138.26 11.49 130.55 12.69 130.55 12.69Z" fill="#5A8CFF" fill-opacity="1.000000" fill-rule="nonzero"/>
		<path id="vector_44" d="M144.23 24.38C138.5 11.31 130.82 12.35 130.5 12.4C129.74 12.51 122.32 16.64 122.25 16.69C114.27 21.12 114.21 20.8 114.02 21C108.54 21.3 102.49 23.14 98.41 25.94C94.67 28.54 92.29 32.41 91.97 36.27C86.1 42.72 86.24 52.08 91.35 55.27C92.86 56.24 95.21 56.29 96.19 54.77C96.8 53.82 96.64 52.73 96.64 51.66C96.96 45.79 102.88 42.55 108.64 42.54C111.27 42.38 114.02 43.32 114.19 45.89C114.06 46.83 113.71 47.73 113.18 48.52C112.15 50.24 111.69 52.25 111.86 54.25C111.97 55.43 112.5 56.53 113.36 57.34C114.22 58.16 115.34 58.64 116.52 58.69C117.84 58.63 119.11 58.19 120.18 57.44C124.06 55.14 127.03 51.58 128.61 47.36C128.68 47.36 143.02 44.82 143.13 44.7C143.2 44.63 149.95 37.42 144.23 24.38ZM119.87 56.93C118.3 57.91 116.94 58.29 115.76 58.02C114.88 57.79 114.1 57.31 113.5 56.62C112.91 55.94 112.55 55.09 112.46 54.19C112.3 52.32 112.73 50.45 113.69 48.84C114.27 47.97 114.65 46.97 114.78 45.92C114.61 42.94 111.61 41.76 108.62 41.95C102.52 41.95 96.38 45.43 96.04 51.64C96.04 52.66 96.19 53.66 95.68 54.45C94.89 55.67 92.9 55.55 91.68 54.76C85.09 50.66 87.79 35.97 99.32 32.17C99.4 32.15 99.46 32.09 99.49 32.02C99.53 31.95 99.54 31.87 99.51 31.79C99.49 31.72 99.43 31.66 99.36 31.62C99.29 31.58 99.21 31.58 99.13 31.6C97.01 32.3 95.05 33.42 93.37 34.89C94.21 32.72 95.69 30.86 97.63 29.57C97.69 29.52 97.73 29.46 97.75 29.38C97.76 29.3 97.75 29.22 97.7 29.16C97.66 29.09 97.59 29.05 97.52 29.03C97.44 29.02 97.36 29.03 97.29 29.07C95.3 30.4 93.75 32.31 92.87 34.55C93.8 31.23 95.89 28.35 98.76 26.44C103.43 23.23 110.76 21.31 116.73 21.59C117.16 21.73 117.57 21.91 117.97 22.12C122.02 24.13 125.3 27.42 127.29 31.48C129.28 35.54 129.88 40.15 128.98 44.58C128.16 48.55 124.9 53.91 119.87 56.93ZM142.76 44.22L129.06 46.68C130.52 41.89 130.24 36.74 128.26 32.14C126.28 27.55 122.73 23.8 118.24 21.58C117.51 21.17 116.7 20.9 115.87 20.78C120.51 18.52 126.23 14.94 130.63 12.99C131.19 12.93 138.35 12.45 143.68 24.62C148.93 36.6 143.42 43.46 142.76 44.22Z" fill="#000000" fill-opacity="1.000000" fill-rule="nonzero"/>
		<path id="vector_45" d="M10.41 77.9C9.93 79.54 9.69 81.25 9.69 82.96C9.69 83.16 9.75 83.35 9.85 83.52C10.09 83.76 10.49 83.6 10.73 83.44C12.27 82.55 13.65 81.41 14.83 80.07L10.41 77.9Z" fill="#5A8CFF" fill-opacity="1.000000" fill-rule="nonzero"/>
		<path id="vector_46" d="M9.58 83.66C9.46 83.44 9.39 83.2 9.39 82.96C9.38 81.22 9.63 79.49 10.12 77.81C10.15 77.74 10.2 77.68 10.27 77.64C10.34 77.61 10.42 77.6 10.5 77.62C10.57 77.64 10.63 77.69 10.67 77.76C10.71 77.83 10.72 77.91 10.7 77.99C10.22 79.6 9.98 81.28 9.99 82.96C9.99 83.09 10.02 83.22 10.09 83.33C10.19 83.38 10.4 83.3 10.57 83.19C12.08 82.31 13.45 81.19 14.6 79.87C14.66 79.81 14.73 79.77 14.81 79.77C14.89 79.76 14.97 79.79 15.03 79.84C15.09 79.9 15.12 79.97 15.13 80.05C15.13 80.13 15.11 80.21 15.05 80.27C13.86 81.63 12.45 82.79 10.88 83.7C10.29 84.1 9.73 83.95 9.58 83.66Z" fill="#000000" fill-opacity="1.000000" fill-rule="nonzero"/>
		<path id="vector_47" d="M30.49 81.92C30.41 80.95 30.16 79.91 30.08 78.94L25.34 81.11C26.49 82.34 27.75 83.44 29.12 84.41C29.67 84.68 30.05 84.8 30.32 84.24C30.58 83.5 30.63 82.69 30.49 81.92Z" fill="#5A8CFF" fill-opacity="1.000000" fill-rule="nonzero"/>
		<path id="vector_48" d="M28.99 84.67C27.59 83.69 26.29 82.57 25.13 81.32C25.1 81.29 25.08 81.25 25.07 81.22C25.05 81.18 25.05 81.14 25.05 81.1C25.05 81.02 25.08 80.95 25.14 80.89C25.2 80.84 25.28 80.81 25.36 80.81C25.44 80.82 25.51 80.85 25.57 80.91C26.69 82.12 27.94 83.21 29.29 84.16C29.55 84.29 29.74 84.37 29.91 84.31C29.97 84.25 30.02 84.18 30.06 84.11C30.28 83.42 30.33 82.68 30.19 81.97C30.11 80.98 29.87 79.93 29.79 78.97C29.78 78.89 29.8 78.81 29.86 78.75C29.91 78.69 29.98 78.65 30.06 78.64C30.14 78.63 30.22 78.66 30.28 78.71C30.34 78.76 30.38 78.84 30.39 78.92C30.46 79.85 30.71 80.91 30.79 81.89C30.94 82.7 30.88 83.55 30.61 84.34C30.25 85.09 29.74 85.05 28.99 84.67Z" fill="#000000" fill-opacity="1.000000" fill-rule="nonzero"/>
		<path id="vector_49" d="M20.93 56.06C22.35 56.06 23.5 54.98 23.5 53.65C23.5 52.32 22.35 51.24 20.93 51.24C19.51 51.24 18.36 52.32 18.36 53.65C18.36 54.98 19.51 56.06 20.93 56.06Z" fill="#5A8CFF" fill-opacity="1.000000" fill-rule="nonzero"/>
		<path id="vector_50" d="M20.93 56.36C20.4 56.33 19.89 56.14 19.47 55.83C19.04 55.51 18.72 55.08 18.54 54.58C18.35 54.08 18.32 53.54 18.45 53.02C18.57 52.51 18.84 52.04 19.22 51.67C19.61 51.31 20.09 51.07 20.61 50.98C21.14 50.88 21.67 50.95 22.16 51.16C22.65 51.37 23.06 51.71 23.35 52.16C23.65 52.6 23.8 53.12 23.8 53.65C23.78 54.39 23.46 55.09 22.92 55.6C22.39 56.1 21.67 56.38 20.93 56.36ZM20.93 51.54C20.52 51.57 20.13 51.72 19.8 51.97C19.47 52.22 19.23 52.56 19.09 52.95C18.95 53.34 18.93 53.76 19.03 54.16C19.13 54.56 19.34 54.92 19.65 55.2C19.95 55.48 20.32 55.66 20.73 55.73C21.14 55.8 21.55 55.75 21.93 55.59C22.31 55.42 22.63 55.15 22.86 54.81C23.08 54.46 23.2 54.06 23.2 53.65C23.18 53.07 22.93 52.52 22.5 52.13C22.08 51.73 21.51 51.52 20.93 51.54Z" fill="#000000" fill-opacity="1.000000" fill-rule="nonzero"/>
		<path id="vector_51" d="M36.51 68.1C36.5 71.81 35.02 75.37 32.41 78C29.79 80.63 26.25 82.12 22.54 82.16L19.16 82.16C17.32 82.16 15.5 81.81 13.8 81.11C12.09 80.41 10.55 79.38 9.24 78.08C7.94 76.78 6.9 75.24 6.19 73.54C5.48 71.85 5.11 70.02 5.11 68.18C5.1 66.34 5.46 64.52 6.16 62.82C6.86 61.12 7.89 59.57 9.18 58.26C10.48 56.96 12.02 55.92 13.72 55.21C15.42 54.5 17.24 54.14 19.08 54.13L22.53 54.13C24.37 54.12 26.19 54.47 27.89 55.17C29.6 55.87 31.14 56.89 32.44 58.19C33.74 59.49 34.77 61.04 35.47 62.74C36.17 64.44 36.52 66.26 36.51 68.1Z" fill="#5A8CFF" fill-opacity="1.000000" fill-rule="nonzero"/>
		<path id="vector_52" d="M19.16 82.46C15.37 82.47 11.72 80.97 9.03 78.29C6.34 75.62 4.82 71.98 4.81 68.18C4.8 64.39 6.3 60.74 8.97 58.05C11.65 55.36 15.29 53.84 19.08 53.83L22.53 53.83C24.41 53.82 26.27 54.18 28.01 54.89C29.75 55.6 31.33 56.65 32.65 57.98C33.98 59.31 35.03 60.89 35.75 62.63C36.46 64.36 36.82 66.23 36.81 68.1C36.79 71.89 35.28 75.52 32.61 78.2C29.94 80.88 26.32 82.41 22.54 82.46L19.16 82.46ZM22.68 54.43L19.08 54.43C17.28 54.44 15.5 54.8 13.84 55.49C12.18 56.18 10.67 57.2 9.4 58.47C8.13 59.75 7.12 61.27 6.44 62.93C5.75 64.6 5.41 66.38 5.41 68.18C5.42 69.98 5.78 71.77 6.47 73.43C7.16 75.09 8.18 76.6 9.45 77.87C10.73 79.14 12.25 80.14 13.91 80.83C15.58 81.51 17.36 81.86 19.16 81.86L22.54 81.86C26.17 81.81 29.63 80.35 32.19 77.78C34.75 75.2 36.19 71.73 36.21 68.1C36.22 66.32 35.88 64.54 35.21 62.89C34.54 61.23 33.54 59.73 32.29 58.46C31.03 57.19 29.53 56.18 27.89 55.49C26.24 54.8 24.47 54.44 22.68 54.43Z" fill="#000000" fill-opacity="1.000000" fill-rule="nonzero"/>
		<path id="vector_53" d="M21.01 80.47C27.84 80.47 33.38 74.93 33.38 68.1C33.38 61.27 27.84 55.74 21.01 55.74C14.18 55.74 8.64 61.27 8.64 68.1C8.64 74.93 14.18 80.47 21.01 80.47Z" fill="#FFFFFF" fill-opacity="1.000000" fill-rule="nonzero"/>
		<path id="vector_54" d="M21.01 80.77C18.5 80.77 16.06 80.03 13.97 78.64C11.89 77.24 10.27 75.27 9.31 72.95C8.35 70.64 8.1 68.09 8.59 65.63C9.08 63.18 10.28 60.92 12.05 59.15C13.82 57.38 16.08 56.17 18.54 55.68C21 55.19 23.54 55.44 25.86 56.4C28.17 57.36 30.15 58.98 31.54 61.07C32.93 63.15 33.68 65.6 33.68 68.1C33.67 71.46 32.34 74.68 29.96 77.06C27.59 79.43 24.37 80.77 21.01 80.77ZM21.01 56.04C18.62 56.04 16.29 56.74 14.31 58.07C12.32 59.4 10.77 61.28 9.86 63.49C8.95 65.69 8.71 68.12 9.17 70.46C9.64 72.8 10.79 74.95 12.48 76.64C14.16 78.33 16.31 79.47 18.66 79.94C21 80.41 23.42 80.17 25.63 79.25C27.83 78.34 29.72 76.79 31.04 74.81C32.37 72.82 33.08 70.49 33.08 68.1C33.07 64.9 31.8 61.84 29.54 59.58C27.28 57.31 24.21 56.04 21.01 56.04Z" fill="#000000" fill-opacity="1.000000" fill-rule="nonzero"/>
		<path id="vector_55" d="M20.85 52.2C23.07 52.2 24.87 51.52 24.87 50.68C24.87 49.84 23.07 49.15 20.85 49.15C18.63 49.15 16.83 49.84 16.83 50.68C16.83 51.52 18.63 52.2 20.85 52.2Z" fill="#5A8CFF" fill-opacity="1.000000" fill-rule="nonzero"/>
		<path id="vector_56" d="M16.53 50.68C16.53 48.26 25.16 48.26 25.16 50.68C25.16 53.1 16.53 53.1 16.53 50.68ZM20.85 49.45C18.55 49.45 17.13 50.17 17.13 50.68C17.13 51.19 18.55 51.9 20.85 51.9C23.15 51.9 24.56 51.19 24.56 50.68C24.56 50.17 23.15 49.45 20.85 49.45Z" fill="#000000" fill-opacity="1.000000" fill-rule="nonzero"/>
		<path id="vector_57" d="M27.29 60.2L21.02 67.51C20.99 67.55 20.96 67.6 20.96 67.66C20.95 67.72 20.96 67.77 20.98 67.83C21 67.88 21.04 67.92 21.09 67.95C21.14 67.98 21.19 68 21.25 68L26.96 71.25C27 71.27 27.04 71.29 27.07 71.29C27.11 71.3 27.15 71.29 27.19 71.28C27.23 71.27 27.27 71.26 27.3 71.23C27.33 71.21 27.36 71.18 27.37 71.14C27.39 71.11 27.41 71.07 27.41 71.03C27.42 70.99 27.41 70.95 27.4 70.91C27.39 70.87 27.38 70.84 27.35 70.81C27.33 70.78 27.3 70.75 27.26 70.73L21.75 67.59L27.75 60.59C27.8 60.53 27.82 60.45 27.82 60.37C27.81 60.29 27.77 60.22 27.71 60.17C27.65 60.11 27.57 60.09 27.49 60.09C27.41 60.1 27.34 60.14 27.29 60.2Z" fill="#000000" fill-opacity="1.000000" fill-rule="nonzero"/>
	</g>
</svg>
