<svg width="86.213867" height="85.000000" viewBox="0 0 86.2139 85" fill="none" xmlns="http://www.w3.org/2000/svg" xmlns:xlink="http://www.w3.org/1999/xlink">
	<desc>
			Created with Pixso.
	</desc>
	<defs/>
	<rect id="фрейм 7" width="86.214287" height="85.000000" fill="#FFFFFF" fill-opacity="0"/>
	<path id="Ellipse 147" d="M0 42.5C0 30.76 6.8 21.69 14.5 14C22.19 6.3 30.76 0 42.5 0C54.23 0 62.8 6.3 70.5 14C78.19 21.69 85 30.76 85 42.5C85 54.23 78.19 63.3 70.5 71C62.8 78.69 54.23 85 42.5 85C30.76 85 22.19 78.69 14.5 71C6.8 63.3 0 54.23 0 42.5Z" fill="#4880FF" fill-opacity="1.000000" fill-rule="evenodd"/>
	<path id="Rectangle 4584" d="M55 41L55 44L30 44L30 41L55 41Z" fill="#FFFFFF" fill-opacity="1.000000" fill-rule="evenodd"/>
	<path id="Rectangle 4584" d="M44 55L41 55L41 30L44 30L44 55Z" fill="#FFFFFF" fill-opacity="1.000000" fill-rule="evenodd"/>
</svg>
