<svg width="73.978516" height="70.564453" viewBox="0 0 73.9785 70.5645" fill="none" xmlns="http://www.w3.org/2000/svg" xmlns:xlink="http://www.w3.org/1999/xlink">
	<desc>
			Created with Pixso.
	</desc>
	<defs/>
	<path id="path" d="M36.69 1.61C38.45 0.83 39.76 0.77 41.63 1.18C45.01 2.49 47.07 4.75 48.51 8.04C50.2 11.89 50.66 15.96 50.2 20.1C50.69 20.21 50.84 20.21 51.22 20.57C51.26 20.57 51.3 20.57 51.35 20.57C52.51 20.51 53.71 20.23 54.86 20.03C58.58 19.39 62.44 19.05 65.98 20.65C65.39 20.89 64.95 20.3 64.44 20.45C64.54 20.68 64.58 20.69 64.83 20.77C64.85 20.78 65.17 20.84 65.18 20.84C65.57 20.91 65.7 21.01 65.96 21.28L66.06 21.6C68.82 23.68 69.59 24.04 71.11 27.36C71.84 30.37 71.65 33.31 70 35.98C69.42 36.91 68.72 37.76 67.91 38.5C68.04 38.8 68.19 39.09 68.24 39.42C69.42 38.3 70.44 37.11 71.36 35.77C72.02 37.15 72.64 38.48 72.93 39.99C73.05 39.37 72.8 38.77 72.93 38.19C72.98 37.95 73.18 37.94 73.38 37.83C74.27 40.64 74.21 43.49 72.85 46.15C72.1 47.59 71.04 48.71 69.87 49.82C70.38 52.06 70.16 53.31 69.54 55.47C68.1 58.18 66.27 59.8 63.42 60.98C61.02 61.78 59.03 61.69 56.76 60.56L56.34 60.38C52.18 62 47.16 63.4 42.69 63.7C39.4 64.44 34.09 64.26 30.79 63.57C30.6 64.02 31.02 64.24 30.85 64.76C29.35 65.85 13.51 69.93 11 70.39C10.14 70.54 9.3 70.62 8.43 70.5C6.48 69.02 2.49 51.41 1.89 48.18C1.48 46.02 -0.72 35.08 0.23 33.69C2.23 32.17 19.52 27.96 22.41 27.78C22.39 28.02 22.3 28.36 22.46 28.56C22.58 28.7 22.65 28.74 22.82 28.8C26.64 27.51 30.55 24.83 33.2 21.79C35.68 18.96 36.82 15.06 35.73 11.41C35.18 9.59 34.35 7.85 34.24 5.93L34.23 5.71C34.24 5.52 34.26 5.34 34.29 5.15C34.54 3.54 35.41 2.53 36.69 1.61Z" fill="#FEFEFE" fill-opacity="1.000000" fill-rule="nonzero"/>
	<path id="path" d="M30.79 63.57C30.6 64.02 31.02 64.24 30.85 64.76C29.35 65.85 13.51 69.93 11 70.38C10.14 70.54 9.3 70.62 8.43 70.5C6.48 69.02 2.49 51.41 1.89 48.18C1.48 46.02 -0.72 35.08 0.23 33.69C2.23 32.17 19.52 27.95 22.41 27.78C22.39 28.02 22.3 28.36 22.46 28.55C22.58 28.7 22.65 28.74 22.82 28.8C22.59 29.31 22.79 29.85 22.9 30.39C24.32 37.53 26.17 44.67 27.82 51.76L29.39 58.46C29.66 59.65 29.85 60.96 30.29 62.09C30.38 62.34 30.41 62.39 30.67 62.49C31.06 62.64 31.56 62.65 31.97 62.7C31.51 62.82 31.07 62.88 30.73 63.24C30.74 63.35 30.73 63.48 30.79 63.57Z" fill="#4880FF" fill-opacity="1.000000" fill-rule="nonzero"/>
	<path id="path" d="M68.24 39.42C69.42 38.3 70.44 37.1 71.36 35.77C72.02 37.14 72.64 38.47 72.93 39.98C73.05 39.37 72.8 38.76 72.93 38.19C72.98 37.95 73.18 37.93 73.38 37.83C74.27 40.64 74.21 43.49 72.85 46.15C72.1 47.59 71.04 48.7 69.87 49.81C70.38 52.06 70.16 53.31 69.54 55.47C68.1 58.18 66.27 59.8 63.42 60.98C61.02 61.77 59.03 61.68 56.76 60.56L56.34 60.38C56.31 60.37 56.28 60.36 56.25 60.35C55.7 60.26 55.32 60.31 54.9 59.88L55.49 59.6C55.37 59.05 54.72 58.27 54.42 57.74C54.01 56.52 53.86 55.31 54.14 54.03C54.26 53.48 54.54 52.52 55.03 52.19C55.07 52.08 55.14 51.91 55.15 51.8C55.21 51.31 54.95 51.13 54.66 50.78C54.97 50.71 55.24 50.56 55.52 50.42C54.03 49.04 53.5 47.88 53.04 45.91C53.43 44.33 53.98 43.44 54.89 42.12C55.64 42.13 56.45 42.37 57.21 42.47C61.41 43.01 64.91 41.99 68.24 39.42Z" fill="#FEFEFE" fill-opacity="1.000000" fill-rule="nonzero"/>
	<path id="path" d="M68.78 50.52C69.18 50.88 69.15 51.28 69.16 51.81C69.19 53 68.91 54.23 68.48 55.33C68.87 55.49 69.12 55.5 69.54 55.47C68.1 58.18 66.27 59.8 63.42 60.98C61.02 61.78 59.03 61.69 56.76 60.56L56.34 60.38C56.31 60.37 56.28 60.36 56.25 60.36C55.7 60.27 55.32 60.31 54.9 59.88L55.49 59.6C55.37 59.06 54.73 58.27 54.42 57.75C54.01 56.52 53.86 55.32 54.14 54.04C54.26 53.48 54.54 52.52 55.03 52.2C55.37 52.3 55.59 52.24 55.92 52.16C56.44 52 57.29 52.33 57.84 52.45C61.68 53.28 65.46 52.65 68.78 50.52Z" fill="#FEFEFE" fill-opacity="1.000000" fill-rule="nonzero"/>
	<path id="path" d="M62.72 60.18C65.32 59.28 67.06 57.67 68.48 55.33C68.87 55.49 69.12 55.5 69.54 55.47C68.1 58.18 66.27 59.8 63.42 60.98C61.02 61.77 59.03 61.68 56.76 60.56C57.22 60.09 57.48 60.15 58.09 60.13C59.63 60.59 61.17 60.63 62.72 60.18Z" fill="#202224" fill-opacity="1.000000" fill-rule="nonzero"/>
	<path id="path" d="M54.42 57.75C54.01 56.52 53.86 55.31 54.14 54.03C54.26 53.48 54.54 52.52 55.03 52.19C55.37 52.3 55.59 52.24 55.92 52.16C55.14 53.76 54.63 55.15 55.14 56.93C54.89 57.19 54.65 57.46 54.42 57.75Z" fill="#202224" fill-opacity="1.000000" fill-rule="nonzero"/>
	<path id="path" d="M55.14 56.93C55.53 57.64 55.92 58.31 56.42 58.95C56.1 59.15 55.75 59.33 55.49 59.6C55.37 59.06 54.72 58.27 54.42 57.75C54.65 57.46 54.89 57.19 55.14 56.93Z" fill="#202224" fill-opacity="1.000000" fill-rule="nonzero"/>
	<path id="path" d="M56.42 58.95C56.96 59.39 57.49 59.78 58.09 60.13C57.48 60.15 57.22 60.09 56.76 60.56L56.34 60.38C56.31 60.37 56.28 60.36 56.25 60.35C55.7 60.26 55.32 60.31 54.9 59.88L55.49 59.6C55.75 59.33 56.1 59.15 56.42 58.95Z" fill="#202224" fill-opacity="1.000000" fill-rule="nonzero"/>
	<path id="path" d="M72.93 39.99C73.05 39.37 72.8 38.77 72.93 38.19C72.98 37.95 73.18 37.94 73.38 37.83C74.27 40.64 74.21 43.49 72.85 46.15C72.1 47.59 71.04 48.71 69.87 49.82C70.38 52.06 70.16 53.31 69.54 55.47C69.12 55.5 68.87 55.49 68.48 55.33C68.91 54.23 69.19 53 69.16 51.81C69.15 51.28 69.18 50.88 68.78 50.52C65.46 52.65 61.68 53.28 57.84 52.45C57.29 52.33 56.44 52 55.92 52.16C55.59 52.24 55.37 52.3 55.03 52.2C55.07 52.08 55.14 51.91 55.15 51.8C55.21 51.31 54.95 51.13 54.66 50.78C54.97 50.71 55.24 50.56 55.52 50.42C57.78 52 60.47 52.16 63.13 51.71C64.49 51.48 65.77 51.06 67.04 50.52C68.22 49.82 69.34 49.08 70.3 48.09C72.58 45.73 72.96 43.11 72.93 39.99Z" fill="#202224" fill-opacity="1.000000" fill-rule="nonzero"/>
	<path id="path" d="M50.07 21.1L50.38 21.85L50.84 21.68C50.21 24.91 50.66 26.14 50.97 29.25C51.4 33.43 50.59 37.85 48.86 41.67C47.36 44.96 45.16 47.89 42.42 50.26C41.96 50.65 41.36 51.25 40.77 51.43C40.51 51.51 40.54 51.48 40.32 51.37C40.36 50.65 42.7 48.73 43.27 48.15C47.94 43.46 50.39 37.02 50.01 30.43C49.82 27.16 49.34 24.37 50.07 21.1Z" fill="#202224" fill-opacity="1.000000" fill-rule="nonzero"/>
	<path id="path" d="M54.03 41.2C53.16 40.52 52.54 39.61 52.24 38.54C51.81 36.97 52.29 35.2 53.06 33.82C54.72 30.87 58.51 28.89 61.73 28.2C62.15 28.11 62.34 28.1 62.7 28.32C62.59 28.66 62.55 28.74 62.23 28.93C61.65 29.29 60.87 29.48 60.22 29.71C58.72 30.26 57.25 30.89 55.97 31.85C54.47 32.99 53.43 34.61 53.18 36.49C52.98 38.09 53.44 39.22 54.42 40.46C54.26 40.71 54.12 40.91 54.03 41.2Z" fill="#202224" fill-opacity="1.000000" fill-rule="nonzero"/>
	<path id="path" d="M51.22 20.57C51.26 20.57 51.3 20.57 51.35 20.57C52.51 20.51 53.71 20.23 54.86 20.03C58.58 19.39 62.44 19.05 65.98 20.65C65.39 20.89 64.95 20.3 64.44 20.45C64.54 20.68 64.58 20.69 64.83 20.77C64.85 20.78 65.17 20.84 65.18 20.84C65.57 20.91 65.7 21.01 65.96 21.28L66.06 21.6C62.11 20.21 58.52 20.25 54.45 21.01C53.27 21.23 52.03 21.57 50.84 21.68L50.38 21.85L50.07 21.1L50.2 20.1C50.69 20.21 50.84 20.21 51.22 20.57Z" fill="#202224" fill-opacity="1.000000" fill-rule="nonzero"/>
	<path id="path" d="M54.42 40.46C55.36 41.21 56.47 41.57 57.65 41.7C61.39 42.12 65.01 40.77 67.91 38.5C68.04 38.8 68.19 39.09 68.24 39.42C64.91 41.99 61.41 43.01 57.21 42.47C56.45 42.37 55.64 42.13 54.89 42.13L54.44 41.87L54.33 41.44L54.03 41.2C54.12 40.91 54.26 40.71 54.42 40.46Z" fill="#202224" fill-opacity="1.000000" fill-rule="nonzero"/>
	<path id="path" d="M43.31 62.66C47.26 62.12 51.11 61.13 54.9 59.88C55.32 60.31 55.7 60.27 56.25 60.36C56.28 60.36 56.31 60.37 56.34 60.38C52.18 62.01 47.16 63.4 42.69 63.7C42.96 63.51 43.22 63.32 43.46 63.08L43.31 62.66Z" fill="#202224" fill-opacity="1.000000" fill-rule="nonzero"/>
	<path id="path" d="M31.97 62.7C35.74 63.2 39.55 63.18 43.31 62.66L43.46 63.08C43.22 63.32 42.96 63.51 42.69 63.7C39.4 64.44 34.09 64.26 30.79 63.57C30.73 63.48 30.74 63.35 30.73 63.25C31.07 62.89 31.51 62.82 31.97 62.7Z" fill="#202224" fill-opacity="1.000000" fill-rule="nonzero"/>
	<path id="path" d="M54.33 41.44L54.44 41.87L54.89 42.13C53.98 43.44 53.43 44.33 53.04 45.91C53.5 47.88 54.03 49.04 55.52 50.42C55.24 50.56 54.97 50.71 54.66 50.78C54.45 50.68 54.47 50.71 54.33 50.6C53.09 49.51 52.41 48.35 52.29 46.69C52.13 44.56 52.98 43.03 54.33 41.44Z" fill="#202224" fill-opacity="1.000000" fill-rule="nonzero"/>
	<path id="path" d="M42.27 0.39L42.34 1.01C42.1 1.13 41.9 1.16 41.63 1.18C39.76 0.77 38.45 0.83 36.69 1.61C35.41 2.53 34.54 3.54 34.29 5.15C34.26 5.34 34.24 5.52 34.23 5.71L34.24 5.93C34.35 7.85 35.18 9.59 35.73 11.41C36.82 15.06 35.68 18.96 33.2 21.79C30.55 24.83 26.64 27.51 22.82 28.8C22.65 28.74 22.58 28.7 22.46 28.56C22.3 28.36 22.39 28.02 22.41 27.78C25.9 27.13 30.93 23.26 33 20.45C34.93 17.83 35.68 14.41 34.64 11.29C34.22 10.03 33.53 8.62 33.36 7.33C33.35 7.25 33.34 7.17 33.33 7.1C32.98 5.95 33.26 4.43 33.78 3.36C34.56 1.78 35.83 0.87 37.47 0.33C38.81 -0.13 39.96 -0.03 41.34 0.13L42.27 0.39Z" fill="#202224" fill-opacity="1.000000" fill-rule="evenodd"/>
	<path id="path" d="M66.06 21.6L65.96 21.28C65.7 21 65.57 20.91 65.18 20.84C65.17 20.83 64.85 20.78 64.83 20.77C64.58 20.69 64.54 20.68 64.44 20.45C64.95 20.3 65.39 20.89 65.98 20.65C68.77 21.66 70.42 23.74 71.64 26.36C71.78 26.66 71.89 26.97 72.08 27.25L72.3 28.07C72.3 28.15 72.29 28.22 72.29 28.3C72.28 28.8 72.4 29.29 72.41 29.79C72.46 31.46 72.26 33.08 71.88 34.71C72.42 35.7 73.07 36.74 73.38 37.83C73.18 37.93 72.98 37.95 72.93 38.19C72.8 38.76 73.05 39.37 72.93 39.98C72.64 38.47 72.02 37.14 71.36 35.77C70.44 37.1 69.42 38.3 68.24 39.42C68.19 39.09 68.04 38.8 67.91 38.5C68.72 37.76 69.42 36.91 70 35.98C71.65 33.3 71.84 30.37 71.11 27.36C69.59 24.04 68.82 23.68 66.06 21.6Z" fill="#202224" fill-opacity="1.000000" fill-rule="evenodd"/>
	<path id="path" d="M41.63 1.18C41.9 1.15 42.1 1.13 42.34 1.01L42.27 0.39C45.8 1.86 48.05 4.41 49.49 7.92C51.46 12.71 51.07 15.72 51.22 20.57C50.84 20.21 50.69 20.21 50.2 20.1C50.66 15.96 50.2 11.89 48.51 8.04C47.07 4.75 45.01 2.49 41.63 1.18Z" fill="#202224" fill-opacity="1.000000" fill-rule="nonzero"/>
</svg>
