<svg width="150.000000" height="150.000000" viewBox="0 0 150 150" fill="none" xmlns="http://www.w3.org/2000/svg" xmlns:xlink="http://www.w3.org/1999/xlink">
	<desc>
			Created with Pixso.
	</desc>
	<defs>
		<clipPath id="clip115_288">
			<rect id="Time-Out-For-Work--Streamline-Lagos" width="150.000000" height="150.000000" fill="white" fill-opacity="0"/>
		</clipPath>
	</defs>
	<g clip-path="url(#clip115_288)">
		<path id="vector" d="M122.62 113.58L26.96 112.51L3.75 138.37L146.25 134.81L122.62 113.58Z" fill="#FFFFFF" fill-opacity="1.000000" fill-rule="nonzero"/>
		<path id="vector_2" d="M3.75 138.67C3.67 138.67 3.59 138.64 3.53 138.58C3.47 138.53 3.44 138.45 3.44 138.37C3.44 138.29 3.47 138.22 3.53 138.16C3.58 138.1 3.66 138.07 3.74 138.07L145.48 134.53L122.5 113.88L26.95 112.81C26.91 112.81 26.87 112.8 26.84 112.78C26.8 112.77 26.77 112.75 26.74 112.72C26.71 112.69 26.69 112.66 26.67 112.62C26.66 112.58 26.65 112.54 26.65 112.5C26.66 112.43 26.7 112.35 26.75 112.3C26.81 112.25 26.88 112.21 26.96 112.21L122.62 113.28C122.8 113.28 122.67 113.23 146.44 134.58C146.49 134.62 146.52 134.68 146.53 134.74C146.55 134.79 146.55 134.86 146.53 134.91C146.5 134.97 146.47 135.02 146.42 135.05C146.37 135.09 146.31 135.11 146.25 135.11L3.75 138.67Z" fill="#000000" fill-opacity="1.000000" fill-rule="nonzero"/>
		<path id="vector_3" d="M98.08 103.47L122.62 113.58L122.62 18.58L98.08 11.62L98.08 103.47Z" fill="#5A8CFF" fill-opacity="1.000000" fill-rule="nonzero"/>
		<path id="vector_4" d="M122.62 113.88L97.97 103.75C97.91 103.72 97.87 103.69 97.83 103.64C97.8 103.59 97.78 103.53 97.78 103.47L97.78 11.62C97.78 11.57 97.79 11.53 97.81 11.49C97.83 11.45 97.86 11.41 97.9 11.38C97.94 11.35 97.98 11.33 98.03 11.33C98.07 11.32 98.12 11.32 98.16 11.33L122.7 18.29C122.76 18.31 122.82 18.35 122.86 18.4C122.9 18.45 122.92 18.52 122.92 18.58C122.92 113.86 123.09 113.88 122.62 113.88ZM98.38 103.27L122.32 113.14L122.32 18.81L98.38 12.02L98.38 103.27Z" fill="#000000" fill-opacity="1.000000" fill-rule="nonzero"/>
		<path id="vector_5" d="M100.24 64.01C101 65.33 102.22 64.76 102.56 63.51C102.8 62.61 102.74 61.65 102.39 60.78C101.29 58.57 98.77 61.49 100.24 64.01Z" fill="#FFFFFF" fill-opacity="1.000000" fill-rule="nonzero"/>
		<path id="vector_6" d="M103.36 60.64C103.22 60.4 103.03 60.19 102.8 60.02C102.57 59.86 102.31 59.74 102.03 59.69C101.76 59.63 101.47 59.64 101.2 59.71C100.92 59.77 100.66 59.89 100.44 60.07C98.69 61.81 99.66 64.6 100.91 65.01C101.17 65.11 101.46 65.16 101.75 65.15C102.03 65.13 102.31 65.05 102.56 64.92C102.81 64.78 103.03 64.59 103.2 64.37C103.37 64.14 103.49 63.87 103.55 63.59C103.81 62.62 103.74 61.58 103.36 60.64ZM100.5 63.86C99.26 61.79 101.2 59.08 102.12 60.89C102.44 61.7 102.49 62.6 102.27 63.44C102 64.45 101.1 64.93 100.5 63.86Z" fill="#000000" fill-opacity="1.000000" fill-rule="nonzero"/>
		<path id="vector_7" d="M32.43 55.47C32.82 55.21 33.19 54.91 33.51 54.56C33.67 54.38 33.75 54.14 33.75 53.9C33.75 53.65 33.67 53.42 33.51 53.23C33.27 53.11 33.01 53.04 32.75 53.06C32.48 53.07 32.23 53.16 32.01 53.32C31.49 53.57 31.02 53.91 30.6 54.31C31.21 53.7 31.77 53.03 32.26 52.32C32.3 52.19 32.3 52.04 32.26 51.91C32.21 51.78 32.13 51.66 32.01 51.58C31.92 51.54 31.82 51.51 31.72 51.51C31.62 51.51 31.52 51.54 31.43 51.58C30.11 51.83 29.11 52.99 28.45 54.06C28.49 53.59 28.57 53.12 28.7 52.65C28.78 52.16 28.45 51.58 27.95 51.74C27.77 51.84 27.63 51.98 27.54 52.16C26.88 53.57 26.46 55.08 26.29 56.63C26.08 58.17 25.97 59.72 25.96 61.28C25.96 62.04 26.11 61.84 26.38 62.1C27.22 62.46 28.16 62.56 29.06 62.38C29.96 62.21 30.79 61.76 31.43 61.11C31.28 60.71 31.17 60.29 31.1 59.87C30.72 57.81 31.29 56.47 32.43 55.47Z" fill="#4880FF" fill-opacity="1.000000" fill-rule="nonzero"/>
		<path id="vector_8" d="M35.9 73.86C33.25 70.43 31.21 66.58 29.85 62.47C30.52 62.23 31.14 61.83 31.65 61.32C31.69 61.28 31.71 61.23 31.73 61.17C31.74 61.11 31.73 61.05 31.71 61C31.57 60.62 31.46 60.22 31.4 59.82C31.1 58.02 31.48 56.71 32.61 55.72C33.02 55.44 33.4 55.11 33.74 54.75C33.95 54.5 34.06 54.18 34.05 53.86C34.04 53.54 33.91 53.23 33.69 53C33.48 52.85 33.24 52.77 32.99 52.75C32.73 52.72 32.48 52.77 32.25 52.87C32.36 52.72 32.46 52.57 32.54 52.41C32.6 52.25 32.61 52.07 32.57 51.9C32.53 51.73 32.44 51.58 32.31 51.46C32.18 51.34 32.02 51.26 31.85 51.23C31.68 51.2 31.5 51.22 31.34 51.29C30.4 51.52 29.56 52.06 28.97 52.83C29.24 51.41 27.82 50.93 27.26 52.03C26.03 54.65 25.66 58.41 25.66 61.28C25.66 61.84 25.73 62.15 26.26 62.38C27.21 62.79 28.27 62.88 29.28 62.65C30.66 66.83 32.74 70.74 35.43 74.23C35.48 74.28 35.55 74.31 35.62 74.32C35.7 74.32 35.77 74.3 35.83 74.25C35.89 74.21 35.93 74.14 35.94 74.07C35.95 74 35.94 73.92 35.9 73.86ZM26.3 61.68C26.25 60 26.35 58.32 26.6 56.66C26.77 55.15 27.18 53.68 27.81 52.29C27.87 52.18 27.95 52.09 28.05 52.03C28.3 51.94 28.45 52.34 28.41 52.6C28.28 53.08 28.19 53.57 28.15 54.06C28.15 54.13 28.18 54.19 28.21 54.24C28.25 54.3 28.31 54.33 28.37 54.35C28.43 54.37 28.5 54.37 28.56 54.34C28.62 54.32 28.67 54.28 28.71 54.22C30.1 51.97 31.65 51.74 31.85 51.83C31.91 51.87 31.95 51.93 31.98 51.99C32 52.06 32.01 52.13 31.99 52.2C31.51 52.88 30.97 53.52 30.38 54.12C30.33 54.17 30.31 54.25 30.31 54.33C30.32 54.4 30.35 54.47 30.41 54.53C30.47 54.58 30.54 54.61 30.62 54.61C30.69 54.61 30.77 54.58 30.82 54.52C31.31 54.04 32.75 53.02 33.28 53.42C33.39 53.55 33.46 53.71 33.46 53.88C33.47 54.05 33.41 54.22 33.3 54.35C32.99 54.7 32.63 55 32.24 55.25C30.92 56.4 30.47 57.88 30.81 59.93C30.88 60.3 30.97 60.67 31.09 61.03C29.54 62.44 27.32 62.42 26.3 61.68Z" fill="#000000" fill-opacity="1.000000" fill-rule="nonzero"/>
		<path id="vector_9" d="M31.27 53.65C31.01 53.62 30.75 53.68 30.52 53.82C29.67 54.13 28.96 54.75 28.53 55.56L30.44 56.05C30.77 55.64 32.59 53.9 31.27 53.65Z" fill="#4880FF" fill-opacity="1.000000" fill-rule="nonzero"/>
		<path id="vector_10" d="M30.2 55.87C30.39 55.63 31.56 54.42 31.44 54.05C31.4 53.94 30.97 53.88 30.69 54.06C29.88 54.36 29.21 54.94 28.8 55.69C28.76 55.76 28.7 55.82 28.63 55.84C28.55 55.87 28.47 55.86 28.4 55.82C28.33 55.79 28.27 55.73 28.25 55.65C28.22 55.58 28.23 55.49 28.26 55.42C28.72 54.55 29.49 53.88 30.41 53.54C30.88 53.21 31.82 53.29 32.01 53.86C32.27 54.63 31.11 55.69 30.67 56.24C30.62 56.3 30.55 56.34 30.47 56.35C30.39 56.36 30.31 56.34 30.25 56.29C30.19 56.24 30.15 56.17 30.14 56.09C30.13 56.01 30.15 55.93 30.2 55.87Z" fill="#000000" fill-opacity="1.000000" fill-rule="nonzero"/>
		<path id="vector_11" d="M56.47 125.69C57.8 127.01 60.45 124.36 60.7 123.12C61.03 121.46 59.23 120.9 58.21 121.96C57.8 122.38 56.05 125.27 56.47 125.69Z" fill="#5A8CFF" fill-opacity="1.000000" fill-rule="nonzero"/>
		<path id="vector_12" d="M61.96 64.3C61.92 64.23 61.85 64.17 61.77 64.14C61.68 64.11 61.6 64.1 61.51 64.13C61.37 64.16 57.8 62.96 57.65 62.9C57.61 62.89 57.57 62.88 57.53 62.88C57.49 62.88 57.46 62.89 57.42 62.91C57.38 62.93 57.35 62.95 57.33 62.98C57.3 63.01 57.28 63.04 57.27 63.08L56.53 65.12C56.44 65.36 56.42 65.61 56.46 65.86C56.5 66.11 56.6 66.35 56.76 66.55C57.59 67.36 58.64 67.91 59.79 68.12C60.17 68.27 60.69 68.09 60.98 67.27C61.96 64.47 62.07 64.49 61.96 64.3Z" fill="#000000" fill-opacity="1.000000" fill-rule="nonzero"/>
		<path id="vector_13" d="M55.97 66.17C55.23 66 54.56 65.75 53.82 65.59C63.6 69.23 68.47 82.08 64.67 95.1C60.14 110.66 46.59 117.48 36.9 113.33C38.54 114 40.23 114.53 41.96 114.91C59.96 118.79 69.9 110.85 73.71 97.42C77.53 84 74.82 70.5 55.97 66.17Z" fill="#4880FF" fill-opacity="1.000000" fill-rule="nonzero"/>
		<path id="vector_14" d="M64.65 95.12C68.51 81.7 63.19 68.39 52.77 65.39C42.34 62.38 30.76 70.83 26.89 84.24C23.03 97.66 28.34 110.98 38.77 113.98C49.2 116.98 60.78 108.54 64.65 95.12Z" fill="#FFFFFF" fill-opacity="1.000000" fill-rule="nonzero"/>
		<path id="vector_15" d="M72.74 76.66C67.29 67.37 55.5 65.87 52.85 65.11C42.29 62.07 30.52 70.61 26.61 84.16C24.71 90.38 24.92 97.04 27.2 103.12C29.2 108.13 32.92 112.32 37.83 114.02C42.03 115.46 46.42 116.24 50.86 116.34C62.41 116.34 70.49 109.86 74 97.5C76.34 89.26 75.9 82.05 72.74 76.66ZM27.74 102.91C21.21 86.55 32.99 65.07 48.47 65.07C60.61 65.07 68.94 79.17 64.37 95.04C60.94 106.96 49.86 117.2 38.46 113.58C33.69 112.06 29.89 108.3 27.74 102.91ZM73.42 97.34C69.27 111.94 58.59 118.14 43.25 114.9C47.46 114.75 51.51 113.25 54.79 110.6C69.43 99.33 70.03 74.79 56.7 66.66C72.56 70.74 77.81 81.89 73.42 97.34Z" fill="#000000" fill-opacity="1.000000" fill-rule="nonzero"/>
		<path id="vector_16" d="M53.5 98.58C55.69 90.97 52.69 83.42 46.8 81.72C40.9 80.02 34.34 84.81 32.15 92.42C29.96 100.04 32.96 107.58 38.85 109.28C44.75 110.98 51.3 106.19 53.5 98.58Z" fill="#FFFFFF" fill-opacity="1.000000" fill-rule="nonzero"/>
		<path id="vector_17" d="M38.76 109.54C32.72 107.81 29.62 100.08 31.86 92.33C32.83 88.75 34.95 85.58 37.9 83.33C43.78 79.03 50.75 81.04 53.44 87.81C57.68 98.49 48.65 112.39 38.76 109.54ZM32.41 92.49C30.27 99.94 33.19 107.34 38.92 108.99C41.68 109.79 44.69 109.14 47.38 107.17C52.99 103.07 55.46 94.49 52.89 88.03C50.34 81.62 43.81 79.73 38.24 83.8C35.39 85.98 33.35 89.03 32.41 92.49Z" fill="#000000" fill-opacity="1.000000" fill-rule="nonzero"/>
		<path id="vector_18" d="M48.92 59.37C53.9 64.76 64.01 68.16 71.14 66.66C71.14 66.66 73.3 55.7 63.35 52.24C54.73 49.24 48.92 59.37 48.92 59.37Z" fill="#4880FF" fill-opacity="1.000000" fill-rule="nonzero"/>
		<path id="vector_19" d="M48.7 59.57C48.66 59.53 48.63 59.47 48.63 59.4C48.62 59.34 48.63 59.28 48.66 59.22C48.72 59.12 54.69 48.93 63.45 51.96C73.52 55.48 71.46 66.61 71.43 66.72C71.42 66.78 71.4 66.83 71.35 66.87C71.31 66.92 71.26 66.95 71.2 66.96C64.08 68.45 53.78 65.07 48.7 59.57ZM49.3 59.33C54.25 64.54 64.02 67.75 70.88 66.41C71.12 64.9 72.23 55.67 63.25 52.52C55.61 49.88 50.15 57.98 49.3 59.33Z" fill="#000000" fill-opacity="1.000000" fill-rule="nonzero"/>
		<path id="vector_20" d="M44.08 104.48L41.18 95.61C41.13 95.44 41.12 95.58 45.75 84.21C45.78 84.14 45.84 84.08 45.91 84.06C45.98 84.03 46.06 84.03 46.13 84.06C46.2 84.09 46.26 84.14 46.29 84.21C46.32 84.28 46.33 84.36 46.3 84.43L41.78 95.52L44.65 104.29C44.68 104.36 44.67 104.44 44.63 104.51C44.6 104.59 44.54 104.64 44.46 104.67C44.38 104.69 44.3 104.69 44.23 104.65C44.16 104.61 44.11 104.55 44.08 104.48Z" fill="#000000" fill-opacity="1.000000" fill-rule="nonzero"/>
		<path id="vector_21" d="M44.69 71.84C44.54 70.6 43.09 70.6 42.44 71.99C41.9 73.14 42.41 74.02 43.13 74.02C44 74.02 44.81 72.82 44.69 71.84Z" fill="#000000" fill-opacity="1.000000" fill-rule="nonzero"/>
		<path id="vector_22" d="M54.2 75.42C54.05 74.18 52.61 74.18 51.95 75.58C51.63 76.27 51.62 77.22 52.28 77.53C53.22 77.97 54.34 76.58 54.2 75.42Z" fill="#000000" fill-opacity="1.000000" fill-rule="nonzero"/>
		<path id="vector_23" d="M43.65 76.05C43.65 75.97 43.67 75.89 43.72 75.83C43.78 75.77 43.85 75.74 43.93 75.73C44.01 75.73 44.09 75.75 44.15 75.8C44.21 75.86 44.25 75.93 44.25 76.01C44.31 76.73 44.57 77.41 45 77.99C45.43 78.57 46.02 79.01 46.69 79.28C47.36 79.54 48.09 79.62 48.8 79.49C49.51 79.36 50.17 79.04 50.7 78.56C50.76 78.5 50.83 78.47 50.91 78.47C50.99 78.47 51.06 78.51 51.12 78.56C51.18 78.62 51.21 78.69 51.21 78.77C51.21 78.85 51.18 78.92 51.13 78.98C50.51 79.54 49.75 79.92 48.92 80.08C48.1 80.23 47.25 80.15 46.48 79.85C45.7 79.54 45.02 79.02 44.52 78.35C44.02 77.68 43.72 76.89 43.65 76.05Z" fill="#000000" fill-opacity="1.000000" fill-rule="nonzero"/>
		<path id="vector_24" d="M61.95 125.98C59.45 125.32 57.25 123.86 55.65 121.84C54.06 119.81 53.16 117.33 53.1 114.75C53.1 114.71 53.11 114.67 53.12 114.63C53.14 114.6 53.16 114.56 53.19 114.54C53.21 114.51 53.25 114.49 53.28 114.47C53.32 114.45 53.36 114.45 53.4 114.44C53.48 114.44 53.55 114.48 53.61 114.53C53.67 114.59 53.7 114.66 53.7 114.74C53.76 117.19 54.61 119.55 56.12 121.47C57.64 123.39 59.74 124.77 62.1 125.4C62.14 125.41 62.18 125.42 62.21 125.45C62.24 125.47 62.26 125.5 62.28 125.54C62.3 125.57 62.32 125.61 62.32 125.65C62.33 125.69 62.32 125.73 62.31 125.77C62.3 125.8 62.29 125.84 62.26 125.87C62.24 125.9 62.21 125.93 62.17 125.95C62.14 125.97 62.1 125.98 62.06 125.98C62.02 125.99 61.98 125.99 61.95 125.98Z" fill="#000000" fill-opacity="1.000000" fill-rule="nonzero"/>
		<path id="vector_25" d="M27.33 102.51C24.54 102.86 21.86 103.81 19.47 105.3C18.82 104.7 18.08 104.22 17.26 103.88C17.14 103.79 17 103.74 16.84 103.75C16.75 103.76 16.67 103.79 16.59 103.83C16.51 103.87 16.44 103.93 16.38 104C15.89 104.5 14.03 107.74 13.37 107.58C12.11 107.18 10.82 106.9 9.51 106.74C9.18 106.69 8.85 106.72 8.54 106.82C8.22 106.93 7.95 107.12 7.72 107.37C7.61 107.53 7.54 107.72 7.5 107.91C7.46 108.11 7.47 108.31 7.51 108.51C7.78 109.73 8.45 110.83 9.41 111.63C10.65 112.96 11.9 114.19 13.52 114.61C13.84 114.75 14.19 114.78 14.53 114.7C14.81 114.6 15.07 114.45 15.28 114.24C17.18 112.84 19.02 111.16 20.99 109.85C21.02 109.83 21.05 109.8 21.07 109.77C21.09 109.74 21.11 109.7 21.12 109.66C21.24 108.96 21.2 108.24 20.99 107.55C20.78 106.87 20.41 106.25 19.91 105.74C22.19 104.33 24.75 103.44 27.41 103.1C27.48 103.09 27.55 103.05 27.6 102.99C27.65 102.93 27.67 102.85 27.66 102.77C27.65 102.69 27.61 102.62 27.55 102.57C27.49 102.52 27.41 102.5 27.33 102.51Z" fill="#000000" fill-opacity="1.000000" fill-rule="nonzero"/>
		<path id="vector_26" d="M64.84 124.45C64.29 123.49 63.44 122.73 62.43 122.28C61.78 121.87 61.07 121.56 60.33 121.37C59.96 121.15 59.52 121.07 59.1 121.14C58.67 121.21 58.28 121.42 58 121.75C57.77 121.98 55.56 125.21 56.26 125.9C56.5 126.13 56.8 126.28 57.13 126.34C57.46 126.39 57.8 126.35 58.1 126.21C58.61 126.3 59.12 126.42 59.61 126.56C59.27 126.84 58.89 127.06 58.48 127.22C58.02 127.34 57.59 127.57 57.24 127.89C57.05 128.07 56.93 128.29 56.89 128.54C56.84 128.79 56.88 129.05 57 129.27C57.28 129.66 57.65 129.97 58.08 130.17C58.5 130.38 58.98 130.48 59.45 130.46C61.04 130.45 62.57 129.9 63.79 128.9C64.42 128.36 64.86 127.65 65.05 126.85C65.24 126.04 65.16 125.21 64.84 124.45ZM58.43 122.16C59.44 121.11 59.84 122.47 59.34 123.75C58.78 125.19 56.08 126.71 56.9 124.77C57.31 123.85 57.82 122.97 58.43 122.16Z" fill="#000000" fill-opacity="1.000000" fill-rule="nonzero"/>
		<path id="vector_27" d="M81.34 113.67L62.27 115.91C62.15 115.91 62.03 115.88 61.94 115.8C61.84 115.72 61.79 115.61 61.77 115.49L61.77 115.41C62.44 114.74 62.44 106.46 62.1 99.49L78.6 97.92C79.77 97.83 81.17 97.25 81.67 98.58C81.73 98.68 81.76 98.79 81.75 98.91C82.59 102.8 82.26 105.16 82.17 112.76C82.17 112.98 82.08 113.2 81.93 113.37C81.78 113.54 81.56 113.65 81.34 113.67Z" fill="#5A8CFF" fill-opacity="1.000000" fill-rule="nonzero"/>
		<path id="vector_28" d="M73.88 98.08C73.71 98.75 72.88 98.58 72.3 98.5C72.38 98.17 72.38 97.83 72.3 97.5C71.8 96.51 69.65 96.51 69.23 97.58C69.15 97.99 69.15 98.42 69.23 98.83C69.07 98.83 67.41 98.99 67.41 98.83C67.41 97.55 67.32 96.93 67.83 96.26C68.49 95.51 70.06 95.68 70.89 95.6C71.36 95.51 71.84 95.51 72.3 95.6C72.8 95.78 73.22 96.13 73.51 96.57C73.79 97.02 73.92 97.55 73.88 98.08Z" fill="#5A8CFF" fill-opacity="1.000000" fill-rule="nonzero"/>
		<path id="vector_29" d="M67.22 99.07C67.15 99.01 67.11 98.92 67.11 98.83C67.11 97.75 66.98 96.88 67.58 96.08C68.37 95.19 70 95.38 70.86 95.3C71.36 95.21 71.87 95.21 72.36 95.3C72.94 95.5 73.44 95.9 73.77 96.42C74.09 96.94 74.24 97.56 74.17 98.17C73.91 99.16 72.63 98.85 72.26 98.79C72.22 98.79 72.18 98.77 72.14 98.75C72.11 98.73 72.08 98.7 72.05 98.67C72.03 98.63 72.02 98.59 72.01 98.55C72 98.51 72 98.47 72.01 98.43C72.08 98.15 72.08 97.86 72.01 97.58C71.65 96.9 69.84 96.86 69.52 97.69C69.45 98.05 69.46 98.42 69.53 98.77C69.54 98.81 69.54 98.86 69.53 98.9C69.52 98.95 69.5 98.99 69.47 99.02C69.44 99.05 69.4 99.08 69.36 99.1C69.32 99.12 69.28 99.13 69.24 99.13C68.75 99.13 67.5 99.33 67.22 99.07ZM67.71 98.6C68.02 98.62 68.62 98.57 68.89 98.55C68.86 98.21 68.87 97.86 68.94 97.53C69.47 96.11 71.97 96.16 72.57 97.37C72.65 97.65 72.68 97.95 72.65 98.25C73.22 98.32 73.52 98.29 73.59 98.01C73.6 97.56 73.48 97.1 73.23 96.72C72.99 96.35 72.63 96.05 72.21 95.88C71.56 95.82 70.9 95.84 70.25 95.93C69.46 95.95 68.48 95.98 68.05 96.46C67.84 96.77 67.72 97.13 67.71 97.5L67.71 98.6Z" fill="#000000" fill-opacity="1.000000" fill-rule="nonzero"/>
		<path id="vector_30" d="M65.92 109.85C65.94 110 65.99 110.15 66.07 110.28C66.15 110.41 66.25 110.52 66.38 110.61C66.5 110.69 66.65 110.75 66.8 110.78C66.95 110.81 67.1 110.8 67.25 110.77C67.33 110.77 74.71 109.85 78.35 109.36C78.93 109.31 79.48 109.06 79.89 108.65C80.3 108.24 80.55 107.7 80.59 107.12C81.17 104.8 81.46 102.55 81.92 100.24C82.07 99.49 82.34 98.74 81.75 98C81.02 97.08 79.43 97.59 78.44 97.67C63.86 98.87 64.3 98.69 60.7 99.16C60.32 99.2 59.96 99.36 59.68 99.63C59.4 99.9 59.22 100.25 59.17 100.63C59.7 100.07 60.42 99.72 61.2 99.66C62.94 99.82 63.02 101.73 63.52 103.06L65.92 109.85Z" fill="#5A8CFF" fill-opacity="1.000000" fill-rule="nonzero"/>
		<path id="vector_31" d="M82.27 100.05C82.41 99.68 82.46 99.28 82.41 98.89C82.36 98.5 82.21 98.13 81.98 97.81C81.28 96.95 80.05 97.14 79.06 97.29C77.39 97.54 64.97 98.3 60.66 98.86C60.14 98.97 59.66 99.24 59.3 99.64C58.94 100.04 58.71 100.55 58.66 101.08C58.06 103.62 57.62 106.2 57.34 108.79C56.96 110.53 56.76 112.3 56.76 114.07C56.87 114.53 57.27 115.15 58.45 115.44C59.25 115.71 60.05 115.92 60.86 116.11C61.45 116.34 62.1 116.36 62.7 116.16L81.36 113.97C81.66 113.94 81.94 113.8 82.15 113.58C82.35 113.36 82.47 113.07 82.47 112.76C82.56 105.22 82.82 103.28 82.27 100.05ZM79.15 97.88C80.03 97.75 81.03 97.6 81.51 98.19C81.69 98.45 81.79 98.75 81.82 99.06C81.84 99.37 81.79 99.68 81.67 99.97C81.38 101.25 81.03 104.11 80.29 107.09C80.25 107.6 80.03 108.08 79.67 108.44C79.3 108.8 78.82 109.02 78.31 109.06C74.78 109.54 67.47 110.45 67.25 110.47C67.13 110.5 67.01 110.51 66.89 110.5C66.78 110.48 66.66 110.44 66.56 110.38C66.46 110.3 66.38 110.21 66.32 110.11C66.25 110 66.21 109.88 66.2 109.76C66.2 109.76 63.61 102.38 63.52 102.08C63.19 100.91 62.82 99.59 61.32 99.38C63.33 99.09 78.42 97.99 79.15 97.88ZM81.87 112.76C81.87 112.91 81.81 113.05 81.72 113.16C81.62 113.27 81.49 113.35 81.34 113.37C61.38 115.71 62.1 115.69 62.08 115.5C62.82 114.13 62.65 105.53 62.47 100.88C62.77 101.62 63.02 102.39 63.24 103.16L65.63 109.93C65.66 110.12 65.72 110.3 65.83 110.46C65.93 110.62 66.06 110.76 66.22 110.86C66.38 110.97 66.56 111.04 66.74 111.08C66.93 111.11 67.12 111.11 67.31 111.06C68.05 110.99 75.16 110.1 78.36 109.66C79 109.62 79.62 109.35 80.08 108.9C80.54 108.44 80.83 107.84 80.89 107.19C81.33 105.43 81.62 103.74 81.92 101.97C82.13 104.08 81.96 104.77 81.87 112.76Z" fill="#000000" fill-opacity="1.000000" fill-rule="nonzero"/>
		<path id="vector_32" d="M76.7 107.53C76.2 107.45 72.38 106.87 72.38 107.12C72.46 108.21 72.32 109.31 71.97 110.35C71.66 111.27 69.9 110.52 69.65 111.43C69.62 111.54 69.62 111.65 69.64 111.76C69.65 111.87 69.7 111.98 69.76 112.07C69.82 112.17 69.9 112.25 70 112.31C70.09 112.37 70.2 112.41 70.31 112.42C70.75 112.5 71.2 112.5 71.64 112.42C71.47 113.08 71.13 113.69 70.64 114.16C70.48 114.33 70.15 114.5 70.06 114.74C70.04 114.84 70.04 114.95 70.06 115.05C70.08 115.15 70.13 115.24 70.19 115.32C70.26 115.4 70.34 115.46 70.43 115.51C70.52 115.55 70.62 115.57 70.73 115.57C71.12 115.56 71.5 115.42 71.8 115.16C72.27 114.82 72.64 114.36 72.88 113.83C72.79 114.42 72.53 114.97 72.13 115.41C71.72 116.07 71.72 116.9 72.79 116.73C73.87 116.57 74.2 115.24 74.37 114.41L74.29 115.74C74.29 116.58 75.19 116.43 75.45 115.66C75.62 115.14 77.1 107.53 76.7 107.53Z" fill="#4880FF" fill-opacity="1.000000" fill-rule="nonzero"/>
		<path id="vector_33" d="M76.95 107.35C76.9 107.29 76.82 107.25 76.74 107.24C76.26 107.16 75.52 107.04 74.78 106.94C74.67 102.12 72.84 97.49 69.62 93.9C69.6 93.87 69.56 93.85 69.53 93.83C69.49 93.81 69.45 93.81 69.41 93.8C69.38 93.8 69.34 93.81 69.3 93.82C69.26 93.83 69.23 93.85 69.2 93.88C69.17 93.91 69.15 93.94 69.13 93.97C69.11 94.01 69.1 94.05 69.1 94.09C69.1 94.13 69.1 94.17 69.12 94.2C69.13 94.24 69.15 94.27 69.18 94.3C72.28 97.77 74.05 102.22 74.17 106.87C73.52 106.73 72.85 106.73 72.2 106.87C72.16 106.91 72.13 106.95 72.11 106.99C72.09 107.04 72.08 107.09 72.08 107.14C72.16 108.19 72.03 109.25 71.69 110.25C71.47 110.89 69.67 110.18 69.35 111.38C69.32 111.52 69.31 111.68 69.34 111.83C69.37 111.97 69.43 112.12 69.51 112.24C69.6 112.37 69.71 112.47 69.83 112.56C69.96 112.64 70.1 112.69 70.25 112.71C70.57 112.77 70.89 112.79 71.21 112.78C71.01 113.29 70.69 113.74 70.27 114.09C70.04 114.23 69.87 114.44 69.77 114.69C69.59 115.6 70.56 116.28 71.71 115.59C71.35 116.45 71.75 117.19 72.85 117.03C73.1 116.98 73.34 116.89 73.55 116.74C73.76 116.59 73.93 116.41 74.06 116.18C74.14 116.32 74.26 116.43 74.4 116.51C74.54 116.58 74.7 116.62 74.86 116.61C75.07 116.54 75.25 116.43 75.4 116.28C75.56 116.13 75.67 115.95 75.74 115.75C75.9 115.26 75.8 115.75 76.33 112.89C77.29 107.72 77.1 107.52 76.95 107.35ZM75.17 115.56C75.1 115.75 74.97 115.92 74.79 116.02C74.75 116.02 74.71 116.01 74.68 115.99C74.64 115.97 74.62 115.94 74.59 115.91C74.59 115.69 74.59 115.86 74.68 114.43C74.68 114.36 74.66 114.28 74.61 114.22C74.56 114.17 74.49 114.13 74.41 114.12C74.34 114.11 74.26 114.13 74.2 114.17C74.14 114.22 74.1 114.28 74.08 114.36C73.9 115.26 73.59 116.31 72.76 116.44C72.48 116.48 72.29 116.45 72.22 116.35C72.19 116.22 72.18 116.09 72.21 115.96C72.23 115.83 72.29 115.7 72.37 115.6C72.8 115.12 73.09 114.52 73.18 113.87C73.19 113.8 73.18 113.73 73.14 113.67C73.1 113.61 73.04 113.57 72.98 113.55C72.91 113.53 72.84 113.53 72.77 113.56C72.71 113.58 72.65 113.63 72.62 113.7C72.41 114.19 72.06 114.61 71.63 114.92C71.37 115.14 71.05 115.27 70.71 115.28C70.66 115.27 70.6 115.26 70.56 115.23C70.51 115.21 70.47 115.18 70.44 115.13C70.4 115.09 70.38 115.05 70.37 115C70.35 114.94 70.35 114.89 70.35 114.84C70.4 114.71 70.7 114.54 70.86 114.38C71.38 113.86 71.75 113.21 71.93 112.5C71.94 112.45 71.94 112.39 71.93 112.35C71.91 112.3 71.89 112.25 71.85 112.21C71.62 111.98 71.33 112.32 70.36 112.13C70.29 112.12 70.22 112.09 70.16 112.06C70.1 112.02 70.05 111.97 70.01 111.91C69.97 111.85 69.94 111.79 69.93 111.72C69.92 111.65 69.92 111.58 69.94 111.51C70.1 110.91 71.88 111.57 72.26 110.44C72.59 109.45 72.74 108.4 72.7 107.35C73.37 107.35 75.39 107.63 76.46 107.8C76.18 110.41 75.75 113 75.17 115.56Z" fill="#000000" fill-opacity="1.000000" fill-rule="nonzero"/>
		<path id="vector_34" d="M146.25 134.81L122.62 113.58L122.62 18.58L146.25 30.6L146.25 134.81Z" fill="#FFFFFF" fill-opacity="1.000000" fill-rule="nonzero"/>
		<path id="vector_35" d="M146.25 135.11C146.06 135.11 146.19 135.16 122.42 113.81L122.32 18.58C122.32 18.53 122.33 18.48 122.36 18.44C122.38 18.39 122.42 18.35 122.46 18.33C122.51 18.3 122.56 18.29 122.61 18.28C122.66 18.28 122.71 18.29 122.76 18.32L146.38 30.34C146.43 30.36 146.47 30.4 146.5 30.45C146.53 30.49 146.55 30.55 146.55 30.6L146.55 134.81C146.55 134.89 146.51 134.96 146.46 135.02C146.4 135.07 146.33 135.11 146.25 135.11ZM122.92 113.45L145.95 134.13L145.95 30.79L122.92 19.07L122.92 113.45Z" fill="#000000" fill-opacity="1.000000" fill-rule="nonzero"/>
		<path id="vector_36" d="M146.25 57.96C141.35 56.8 136.47 57.47 132.48 60.2C123.54 66.34 122.59 80.61 130.41 92.11C134.54 98.18 140.28 102.31 146.08 103.97L146.25 57.96Z" fill="#FFFFFF" fill-opacity="1.000000" fill-rule="nonzero"/>
		<path id="vector_37" d="M146.16 73.8C137.54 73.8 134.03 84.39 140.03 93.36C141.58 95.67 143.65 97.57 146.08 98.91L146.16 73.8Z" fill="#FFFFFF" fill-opacity="1.000000" fill-rule="nonzero"/>
		<path id="vector_38" d="M145.93 99.17C143.46 97.8 141.35 95.87 139.78 93.52C133.64 84.38 137.39 73.5 146.16 73.5C146.24 73.5 146.32 73.53 146.38 73.58C146.43 73.64 146.46 73.72 146.46 73.8L146.38 98.91C146.38 98.96 146.37 99.02 146.34 99.06C146.31 99.11 146.28 99.14 146.23 99.17C146.19 99.2 146.14 99.21 146.08 99.21C146.03 99.21 145.98 99.2 145.93 99.17ZM145.86 74.1C134.9 74.45 134.26 91.54 145.78 98.39L145.86 74.1Z" fill="#000000" fill-opacity="1.000000" fill-rule="nonzero"/>
		<path id="vector_39" d="M145.81 84.13L142.68 78.16C142.23 77.31 142.89 77.27 143.17 77.81L146.35 83.85C146.36 83.88 146.38 83.92 146.38 83.96C146.38 84 146.38 84.04 146.37 84.08C146.35 84.12 146.34 84.15 146.31 84.18C146.28 84.21 146.25 84.24 146.22 84.26C146.18 84.27 146.14 84.28 146.11 84.29C146.07 84.29 146.03 84.29 145.99 84.28C145.95 84.26 145.92 84.25 145.89 84.22C145.86 84.2 145.83 84.16 145.81 84.13Z" fill="#000000" fill-opacity="1.000000" fill-rule="nonzero"/>
		<path id="vector_40" d="M133.02 71.49C132.69 70.8 131.97 70.19 131.31 70.5C130.38 70.93 130.7 72.68 131.7 73.32C132.73 73.99 133.68 72.91 133.02 71.49Z" fill="#000000" fill-opacity="1.000000" fill-rule="nonzero"/>
		<path id="vector_41" d="M141.79 66.44C141.41 65.62 140.66 65.18 140.08 65.45C139.51 65.72 139.36 66.57 139.75 67.4C140.08 68.1 140.81 68.7 141.46 68.4C142.03 68.12 142.18 67.27 141.79 66.44Z" fill="#000000" fill-opacity="1.000000" fill-rule="nonzero"/>
		<path id="vector_42" d="M134.39 74.37C134.34 74.34 134.31 74.3 134.29 74.26C134.27 74.21 134.25 74.16 134.26 74.11C134.26 74.06 134.28 74.01 134.3 73.97C134.33 73.92 134.37 73.89 134.41 73.86L140.96 70.21C141 70.19 141.05 70.18 141.1 70.18C141.15 70.18 141.2 70.19 141.25 70.21C141.29 70.24 141.33 70.27 141.36 70.31C141.38 70.35 141.4 70.4 141.41 70.45C141.46 71.29 141.28 72.13 140.88 72.87C140.47 73.61 139.87 74.22 139.14 74.63C138.4 75.04 137.56 75.24 136.72 75.19C135.88 75.14 135.07 74.86 134.39 74.37ZM135.15 74.14C135.72 74.44 136.36 74.6 137 74.59C137.65 74.59 138.28 74.42 138.85 74.11C139.41 73.79 139.89 73.34 140.23 72.8C140.58 72.25 140.78 71.62 140.82 70.98L135.15 74.14Z" fill="#000000" fill-opacity="1.000000" fill-rule="nonzero"/>
		<path id="vector_43" d="M118.72 68.57C118.31 68.35 117.95 68.04 117.67 67.67C117.38 67.3 117.17 66.87 117.06 66.42C116.55 63.87 117.26 63.29 116.73 62.77C115.65 61.86 115.16 64.92 114.99 65.5C114.85 64.87 114.74 64.24 114.66 63.6C114.67 63.34 114.64 63.09 114.58 62.85C114.54 62.73 114.47 62.63 114.37 62.56C114.28 62.48 114.16 62.45 114.04 62.45C113.92 62.45 113.8 62.48 113.7 62.56C113.6 62.63 113.53 62.73 113.5 62.85C113.16 63.64 113.1 64.51 113.31 65.34C113.2 65.1 113.07 64.88 112.92 64.67C112.75 64.42 112.34 64.09 112.09 64.34C111.84 64.58 111.92 65.25 112.01 65.5C112.39 67.83 113.6 69.94 115.4 71.47C115.47 71.54 115.54 71.6 115.63 71.64C115.71 71.68 115.81 71.71 115.9 71.71C116.43 71.68 116.93 71.51 117.37 71.22C117.81 70.93 118.16 70.53 118.39 70.06C118.61 69.65 118.75 69.19 118.8 68.73C118.81 68.63 118.82 68.67 118.72 68.57Z" fill="#4880FF" fill-opacity="1.000000" fill-rule="nonzero"/>
		<path id="vector_44" d="M127.79 76.31C126.1 76.14 124.48 75.61 123.01 74.77C121.14 73.81 119.41 72.63 117.83 71.25C118.17 70.96 118.45 70.6 118.65 70.21C118.9 69.75 119.06 69.25 119.1 68.74C119.11 68.65 119.09 68.56 119.04 68.48C119 68.41 118.93 68.34 118.86 68.3C118.48 68.1 118.16 67.82 117.9 67.49C117.64 67.15 117.46 66.77 117.36 66.36C117.18 65.53 117.13 64.68 117.19 63.84C117.46 62.74 116.72 62.13 116.12 62.34C115.6 62.51 115.28 63.24 115.03 64.09C115.02 63.98 114.98 63.72 114.96 63.6C114.97 63.31 114.94 63.03 114.86 62.75C114.81 62.58 114.7 62.43 114.55 62.32C114.41 62.21 114.23 62.15 114.05 62.15C113.86 62.15 113.69 62.2 113.54 62.31C113.39 62.41 113.28 62.56 113.22 62.73C113.02 63.2 112.91 63.7 112.89 64.2C112.83 64.13 112.76 64.07 112.67 64.03C112.59 63.99 112.49 63.96 112.4 63.95C112.3 63.95 112.21 63.96 112.12 63.99C112.03 64.02 111.95 64.07 111.88 64.13C111.47 64.53 111.65 65.39 111.71 65.55C112.1 67.95 113.34 70.12 115.19 71.68C115.28 71.78 115.39 71.86 115.51 71.92C115.63 71.98 115.77 72.01 115.9 72.02C116.41 72 116.9 71.86 117.34 71.59C118.96 73.06 120.77 74.3 122.72 75.3C124.26 76.17 125.96 76.72 127.73 76.91C127.77 76.91 127.81 76.91 127.84 76.9C127.88 76.88 127.92 76.86 127.95 76.84C127.98 76.81 128 76.78 128.02 76.75C128.04 76.71 128.05 76.68 128.06 76.64C128.06 76.6 128.06 76.56 128.04 76.52C128.03 76.48 128.01 76.45 127.99 76.42C127.96 76.38 127.93 76.36 127.9 76.34C127.86 76.32 127.83 76.32 127.79 76.31ZM115.6 71.24C113.84 69.75 112.66 67.68 112.29 65.41C112.2 65.13 112.2 64.83 112.3 64.55C112.56 64.55 112.92 65.21 113.03 65.45C113.08 65.65 113.14 65.85 113.22 66.04C113.25 66.1 113.31 66.16 113.37 66.19C113.44 66.22 113.52 66.23 113.59 66.21C113.66 66.18 113.72 66.14 113.76 66.07C113.8 66.01 113.81 65.93 113.8 65.86C113.75 65.65 113.68 65.45 113.6 65.25C113.41 64.5 113.47 63.7 113.77 62.99C113.93 62.67 114.21 62.7 114.29 62.95C114.35 63.17 114.38 63.41 114.36 63.64C114.44 64.29 114.56 64.94 114.7 65.58C114.72 65.64 114.75 65.7 114.81 65.74C114.86 65.78 114.92 65.81 114.99 65.81C115.05 65.81 115.12 65.79 115.17 65.75C115.22 65.71 115.26 65.65 115.28 65.59C115.45 65 115.91 62.47 116.52 62.98C116.59 63.09 116.64 63.22 116.65 63.35C116.66 63.48 116.64 63.62 116.6 63.74C116.52 64.66 116.58 65.59 116.77 66.5C116.89 66.97 117.11 67.42 117.4 67.82C117.7 68.21 118.07 68.54 118.5 68.79C118.45 69.19 118.33 69.58 118.13 69.93C117.91 70.34 117.6 70.7 117.21 70.96C116.82 71.22 116.37 71.38 115.91 71.42C115.79 71.4 115.68 71.34 115.6 71.24Z" fill="#000000" fill-opacity="1.000000" fill-rule="nonzero"/>
		<path id="vector_45" d="M115.91 66C115.89 65.64 115.84 65.28 115.74 64.92C115.22 63.98 114.25 64.85 114.25 65.92C114.15 66.55 114.1 67.19 114.08 67.82L116.24 67.58C116.09 67.06 115.98 66.53 115.91 66Z" fill="#4880FF" fill-opacity="1.000000" fill-rule="nonzero"/>
		<path id="vector_46" d="M113.78 67.82C113.79 67.24 113.84 66.66 113.93 66.08C113.94 65.74 114 65.4 114.13 65.08C114.52 64.15 115.5 63.87 116 64.78C116.12 65.18 116.19 65.59 116.21 66C116.28 66.5 116.38 67 116.52 67.48C116.55 67.56 116.54 67.64 116.51 67.71C116.47 67.78 116.41 67.84 116.33 67.86C116.26 67.89 116.18 67.88 116.1 67.85C116.03 67.81 115.98 67.75 115.95 67.67C115.8 67.14 115.68 66.6 115.61 66.05C115.6 65.71 115.55 65.37 115.46 65.04C115.39 64.93 115.3 64.81 115.18 64.82C115.01 64.83 114.81 65.03 114.69 65.29C114.61 65.49 114.56 65.7 114.55 65.92C114.46 66.55 114.4 67.19 114.38 67.83C114.38 67.91 114.35 67.98 114.29 68.04C114.24 68.09 114.16 68.13 114.08 68.13C114 68.13 113.93 68.09 113.87 68.04C113.81 67.98 113.78 67.9 113.78 67.82Z" fill="#000000" fill-opacity="1.000000" fill-rule="nonzero"/>
		<path id="vector_47" d="M119.31 65.07C119.74 64.48 119.95 63.75 119.89 63.02C119.84 62.29 119.53 61.6 119.01 61.07C118.96 61.02 118.93 60.94 118.93 60.86C118.93 60.79 118.96 60.71 119.02 60.65C119.07 60.6 119.15 60.57 119.23 60.57C119.3 60.57 119.38 60.6 119.44 60.65C120.06 61.27 120.44 62.1 120.5 62.98C120.57 63.85 120.32 64.73 119.8 65.43C119.75 65.5 119.68 65.54 119.6 65.55C119.52 65.56 119.44 65.54 119.37 65.5C119.31 65.45 119.27 65.38 119.26 65.3C119.24 65.22 119.27 65.14 119.31 65.07Z" fill="#000000" fill-opacity="1.000000" fill-rule="nonzero"/>
		<path id="vector_48" d="M120.44 66.29C120.93 65.25 121.23 64.14 121.33 63C121.37 62.45 121.28 61.9 121.07 61.4C120.86 60.9 120.53 60.45 120.11 60.1C120.05 60.05 120.01 59.98 120 59.9C119.99 59.82 120.02 59.74 120.07 59.68C120.12 59.61 120.19 59.58 120.27 59.57C120.35 59.56 120.43 59.58 120.49 59.63C120.98 60.05 121.37 60.57 121.62 61.16C121.87 61.75 121.97 62.4 121.92 63.04C121.83 64.25 121.51 65.44 120.99 66.54C120.95 66.61 120.89 66.66 120.82 66.69C120.74 66.72 120.66 66.71 120.59 66.68C120.52 66.65 120.47 66.59 120.44 66.51C120.41 66.44 120.41 66.36 120.44 66.29Z" fill="#000000" fill-opacity="1.000000" fill-rule="nonzero"/>
		<path id="vector_49" d="M146.25 52.74C142.77 53.57 139.12 55.39 135.14 58.37C134.56 58.87 133.89 59.2 133.31 59.62C137.13 57.38 141.69 56.97 146.25 57.96L146.25 52.74Z" fill="#4880FF" fill-opacity="1.000000" fill-rule="nonzero"/>
		<path id="vector_50" d="M146.55 52.74C146.55 52.69 146.53 52.65 146.52 52.61C146.5 52.57 146.47 52.53 146.43 52.5C146.39 52.47 146.35 52.45 146.31 52.44C146.27 52.43 146.22 52.43 146.17 52.44C140.62 53.77 136.86 56.83 132.31 59.95C123.27 66.15 122.3 80.65 130.16 92.28C134.2 98.17 139.97 102.53 146 104.26C146.04 104.27 146.09 104.27 146.13 104.26C146.18 104.25 146.22 104.24 146.26 104.21C146.3 104.18 146.33 104.14 146.35 104.1C146.37 104.06 146.38 104.02 146.38 103.97L146.55 52.74ZM136.14 58.01C139.08 55.79 142.4 54.13 145.95 53.12L145.95 57.58C142.7 56.84 139.31 56.98 136.14 58.01ZM130.66 91.95C119.21 75.01 127.57 54.39 145.95 58.2L145.78 103.57C140.02 101.81 134.53 97.59 130.66 91.95Z" fill="#000000" fill-opacity="1.000000" fill-rule="nonzero"/>
		<path id="vector_51" d="M145.95 112.51L145.95 46.36C145.95 46.28 145.98 46.2 146.03 46.14C146.09 46.09 146.17 46.06 146.25 46.06C146.33 46.06 146.4 46.09 146.46 46.14C146.51 46.2 146.55 46.28 146.55 46.36L146.55 112.51C146.55 112.59 146.51 112.66 146.46 112.72C146.4 112.78 146.33 112.81 146.25 112.81C146.17 112.81 146.09 112.78 146.03 112.72C145.98 112.66 145.95 112.59 145.95 112.51Z" fill="#000000" fill-opacity="1.000000" fill-rule="nonzero"/>
		<path id="vector_52" d="M107.97 69.18C107.44 68.57 107.12 67.81 107.04 67.01C106.96 66.21 107.13 65.4 107.52 64.69C107.56 64.62 107.62 64.57 107.7 64.55C107.78 64.53 107.86 64.54 107.93 64.58C108 64.62 108.05 64.68 108.07 64.76C108.09 64.84 108.08 64.92 108.04 64.99C107.71 65.58 107.57 66.27 107.64 66.95C107.7 67.63 107.98 68.27 108.42 68.79C108.48 68.85 108.5 68.93 108.5 69.01C108.49 69.09 108.45 69.16 108.39 69.21C108.33 69.27 108.25 69.29 108.17 69.28C108.09 69.28 108.02 69.24 107.97 69.18Z" fill="#000000" fill-opacity="1.000000" fill-rule="nonzero"/>
		<path id="vector_53" d="M109.77 68.46C109.25 68.46 107.91 66.26 109.19 64.26C109.23 64.2 109.3 64.16 109.38 64.14C109.45 64.13 109.53 64.14 109.6 64.18C109.66 64.23 109.71 64.29 109.72 64.37C109.74 64.44 109.73 64.52 109.69 64.59C109.35 65.1 109.2 65.71 109.25 66.32C109.3 66.93 109.56 67.5 109.98 67.94C110.03 67.99 110.05 68.04 110.06 68.1C110.08 68.16 110.07 68.22 110.05 68.27C110.03 68.33 109.99 68.37 109.94 68.41C109.89 68.44 109.83 68.46 109.77 68.46Z" fill="#000000" fill-opacity="1.000000" fill-rule="nonzero"/>
	</g>
</svg>
