<svg width="120.250000" height="123.931763" viewBox="0 0 120.25 123.932" fill="none" xmlns="http://www.w3.org/2000/svg" xmlns:xlink="http://www.w3.org/1999/xlink">
	<desc>
			Created with Pixso.
	</desc>
	<defs/>
	<path id="Vector 6" d="M6.56 117.36Q7.5 118.3 7.5 120.18Q7.5 122.05 6.56 122.99Q5.62 123.93 3.75 123.93Q1.87 123.93 0.93 122.99Q0 122.05 0 120.18Q0 118.3 0.93 117.36Q1.87 116.43 3.75 116.43Q5.62 116.43 6.56 117.36ZM5.08 109.48Q4.82 112.08 4.67 114.6L3.17 114.52Q3.32 111.96 3.59 109.33L5.08 109.48ZM6.2 101.31Q5.77 103.86 5.44 106.39L3.96 106.2Q4.29 103.64 4.72 101.06L6.2 101.31ZM7.84 93.21Q7.25 95.73 6.76 98.26L5.29 97.97Q5.78 95.41 6.38 92.87L7.84 93.21ZM9.97 85.22Q9.23 87.7 8.58 90.22L7.12 89.84Q7.78 87.3 8.54 84.79L9.97 85.22ZM12.59 77.39Q11.7 79.82 10.89 82.3L9.46 81.83C10.01 80.16 10.58 78.51 11.19 76.87L12.59 77.39ZM15.69 69.78Q14.65 72.13 13.69 74.53L12.3 73.98Q13.26 71.55 14.32 69.17L15.69 69.78ZM19.29 62.38C18.49 63.88 17.73 65.41 16.99 66.96L15.64 66.31Q16.75 63.96 17.96 61.68L19.29 62.38ZM23.39 55.23C22.49 56.68 21.62 58.15 20.77 59.65L19.47 58.92C20.32 57.4 21.2 55.91 22.12 54.44L23.39 55.23ZM28 48.39Q26.49 50.47 25.05 52.64L23.8 51.81C24.77 50.35 25.77 48.91 26.79 47.51L28 48.39ZM33.1 41.95C31.99 43.25 30.9 44.58 29.84 45.94L28.66 45.02C29.73 43.64 30.83 42.29 31.96 40.97L33.1 41.95ZM38.68 35.93C37.47 37.13 36.3 38.36 35.15 39.62L34.04 38.62C35.2 37.33 36.4 36.08 37.62 34.86L38.68 35.93ZM44.74 30.36C43.44 31.46 42.16 32.6 40.91 33.77L39.88 32.68C41.15 31.49 42.45 30.33 43.77 29.22L44.74 30.36ZM49.37 26.68Q48.23 27.53 47.12 28.42L46.19 27.24C47.56 26.15 48.96 25.1 50.39 24.08L51.26 25.3Q50.31 25.98 49.37 26.68ZM58.11 20.84C56.64 21.71 55.2 22.62 53.78 23.57L52.95 22.32C54.38 21.36 55.85 20.44 57.34 19.55L58.11 20.84ZM65.34 16.92C63.81 17.67 62.3 18.46 60.81 19.28L60.08 17.97C61.59 17.14 63.12 16.34 64.68 15.57L65.34 16.92ZM72.89 13.57C71.28 14.21 69.68 14.89 68.11 15.61L67.49 14.24C69.08 13.52 70.7 12.83 72.34 12.18L72.89 13.57ZM80.58 10.84C78.95 11.35 77.35 11.89 75.77 12.47L75.26 11.06C76.86 10.48 78.48 9.93 80.13 9.41L80.58 10.84ZM88.6 8.62C86.89 9.03 85.21 9.47 83.55 9.95L83.14 8.5C84.82 8.02 86.52 7.58 88.25 7.16L88.6 8.62ZM112.79 3.65C111.06 3.75 109.35 3.87 107.65 4.03L107.79 5.52C109.45 5.37 111.13 5.25 112.82 5.15L112.89 8.59L120.25 4.15L112.72 0L112.79 3.65ZM96.57 6.98C94.87 7.28 93.19 7.6 91.53 7.96L91.22 6.49C92.9 6.13 94.59 5.8 96.31 5.51L96.57 6.98ZM104.78 5.82C103.06 6.01 101.36 6.24 99.67 6.49L99.45 5Q102.01 4.62 104.62 4.33L104.78 5.82Z" fill="#000000" fill-opacity="1.000000" fill-rule="evenodd"/>
</svg>
