<svg width="120.250000" height="123.931763" viewBox="0 0 120.25 123.932" fill="none" xmlns="http://www.w3.org/2000/svg" xmlns:xlink="http://www.w3.org/1999/xlink">
	<desc>
			Created with Pixso.
	</desc>
	<defs/>
	<path id="Vector 1" d="M6.56 6.56Q7.5 5.62 7.5 3.75Q7.5 1.87 6.56 0.93Q5.62 0 3.75 0Q1.87 0 0.93 0.93Q0 1.87 0 3.75Q0 5.62 0.93 6.56Q1.87 7.5 3.75 7.5Q5.62 7.5 6.56 6.56ZM5.08 14.44Q4.82 11.84 4.67 9.32L3.17 9.41Q3.32 11.96 3.59 14.59L5.08 14.44ZM6.2 22.62Q5.77 20.06 5.44 17.53L3.96 17.72Q4.29 20.28 4.72 22.87L6.2 22.62ZM7.84 30.71Q7.25 28.19 6.76 25.67L5.29 25.95Q5.78 28.51 6.38 31.05L7.84 30.71ZM9.97 38.7Q9.23 36.22 8.58 33.7L7.12 34.08Q7.78 36.62 8.54 39.13L9.97 38.7ZM12.59 46.53Q11.7 44.1 10.89 41.62L9.46 42.09C10.01 43.76 10.58 45.41 11.19 47.05L12.59 46.53ZM15.69 54.14Q14.65 51.79 13.69 49.39L12.3 49.94Q13.26 52.38 14.32 54.75L15.69 54.14ZM19.29 61.54C18.49 60.04 17.73 58.51 16.99 56.96L15.64 57.61Q16.75 59.96 17.96 62.24L19.29 61.54ZM23.39 68.69C22.49 67.24 21.62 65.77 20.77 64.27L19.47 65C20.32 66.52 21.2 68.02 22.12 69.48L23.39 68.69ZM28 75.53Q26.49 73.45 25.05 71.29L23.8 72.11C24.77 73.58 25.77 75.01 26.79 76.41L28 75.53ZM33.1 81.98C31.99 80.68 30.9 79.34 29.84 77.98L28.66 78.9C29.73 80.28 30.83 81.63 31.96 82.95L33.1 81.98ZM38.68 88C37.47 86.8 36.3 85.56 35.15 84.3L34.04 85.31C35.2 86.59 36.4 87.84 37.62 89.06L38.68 88ZM44.74 93.56C43.44 92.46 42.16 91.32 40.91 90.15L39.88 91.25C41.15 92.43 42.45 93.59 43.77 94.71L44.74 93.56ZM49.37 97.24Q48.23 96.39 47.12 95.51L46.19 96.68C47.56 97.77 48.96 98.83 50.39 99.84L51.26 98.62Q50.31 97.94 49.37 97.24ZM58.11 103.08C56.64 102.21 55.2 101.3 53.78 100.36L52.95 101.6C54.38 102.56 55.85 103.49 57.34 104.37L58.11 103.08ZM65.34 107C63.81 106.25 62.3 105.46 60.81 104.64L60.08 105.95C61.59 106.79 63.12 107.59 64.68 108.35L65.34 107ZM72.89 110.35C71.28 109.71 69.68 109.03 68.11 108.31L67.49 109.68C69.08 110.4 70.7 111.09 72.34 111.75L72.89 110.35ZM80.58 113.08C78.95 112.57 77.35 112.03 75.77 111.45L75.26 112.86C76.86 113.44 78.48 114 80.13 114.51L80.58 113.08ZM88.6 115.3C86.89 114.89 85.21 114.45 83.55 113.98L83.14 115.42C84.82 115.9 86.52 116.35 88.25 116.76L88.6 115.3ZM112.79 120.27C111.06 120.17 109.35 120.05 107.65 119.9L107.79 118.4C109.45 118.55 111.13 118.67 112.82 118.77L112.89 115.33L120.25 119.77L112.72 123.93L112.79 120.27ZM96.57 116.94C94.87 116.64 93.19 116.32 91.53 115.97L91.22 117.43C92.9 117.79 94.59 118.12 96.31 118.42L96.57 116.94ZM104.78 118.1C103.06 117.91 101.36 117.69 99.67 117.44L99.45 118.92Q102.01 119.3 104.62 119.59L104.78 118.1Z" fill="#000000" fill-opacity="1.000000" fill-rule="evenodd"/>
</svg>
