<svg width="61.000000" height="47.276855" viewBox="0 0 61 47.2769" fill="none" xmlns="http://www.w3.org/2000/svg" xmlns:xlink="http://www.w3.org/1999/xlink">
	<desc>
			Created with Pixso.
	</desc>
	<defs/>
	<path id="path" d="M26.42 0L2.64 0C1.18 0 0 1.18 0 2.64L0 44.63C0 46.09 1.18 47.27 2.64 47.27L34.35 47.27C35.81 47.27 36.99 46.09 36.99 44.63L36.99 10.57L26.42 0ZM26.42 3.73L33.26 10.57L26.42 10.57L26.42 3.73ZM34.35 44.63L2.64 44.63L2.64 2.64L23.78 2.64L23.78 10.57C23.78 12.03 24.96 13.21 26.42 13.21L34.35 13.21L34.35 44.63Z" fill="#4D9717" fill-opacity="1.000000" fill-rule="nonzero"/>
	<path id="Union" d="M61 35.02L57 35.02L57 27.02L49 27.02L49 35.02L45 35.02L53 43.02L61 35.02ZM46 45.02L60 45.02L60 47.02L46 47.02L46 45.02Z" fill="#4D9717" fill-opacity="1.000000" fill-rule="evenodd"/>
	<path id="xlsx" d="M14.48 40.15Q14.56 40.2 14.66 40.2L15.96 40.2Q16.04 40.2 16.1 40.17Q16.15 40.15 16.18 40.11Q16.22 40.07 16.24 40.04Q16.28 39.96 16.28 39.87L16.28 31.24Q16.28 31.15 16.23 31.07Q16.21 31.04 16.18 31.01Q16.14 30.97 16.09 30.94Q16.03 30.92 15.96 30.92L14.66 30.92Q14.56 30.92 14.49 30.96Q14.45 30.98 14.42 31.01Q14.4 31.04 14.38 31.07Q14.33 31.14 14.33 31.24L14.33 39.87Q14.33 39.97 14.37 40.04Q14.39 40.08 14.42 40.11Q14.45 40.13 14.48 40.15ZM19.21 40.14Q19.79 40.33 20.6 40.33Q21.62 40.33 22.32 40.06Q23.02 39.79 23.39 39.31Q23.56 39.09 23.65 38.84Q23.75 38.55 23.75 38.22Q23.75 37.98 23.69 37.76Q23.64 37.54 23.52 37.34Q23.3 36.93 22.77 36.62Q22.25 36.3 21.36 36.14Q20.62 36 20.25 35.87Q19.88 35.74 19.77 35.58Q19.69 35.48 19.66 35.36Q19.65 35.3 19.65 35.24Q19.65 35.11 19.7 35Q19.76 34.87 19.88 34.77Q20.11 34.58 20.54 34.58Q20.89 34.58 21.11 34.68Q21.33 34.78 21.5 34.92Q21.66 35.06 21.82 35.16Q21.83 35.18 21.84 35.19Q21.87 35.21 21.91 35.22Q21.96 35.24 22.03 35.24L23.19 35.24Q23.23 35.24 23.27 35.23Q23.34 35.21 23.4 35.15Q23.44 35.11 23.46 35.05Q23.49 34.99 23.48 34.93Q23.47 34.72 23.27 34.44Q23.09 34.16 22.72 33.89Q22.36 33.62 21.81 33.45Q21.27 33.27 20.55 33.27Q19.61 33.27 18.98 33.58Q18.36 33.88 18.04 34.36Q17.78 34.74 17.73 35.14Q17.72 35.24 17.72 35.33Q17.72 35.89 17.96 36.29Q18.21 36.69 18.71 36.95Q19.2 37.22 19.91 37.37Q20.66 37.53 21.04 37.66Q21.41 37.79 21.55 37.95Q21.59 37.99 21.62 38.04Q21.69 38.17 21.69 38.34Q21.69 38.48 21.63 38.6Q21.56 38.74 21.39 38.84Q21.09 39.02 20.66 39.02Q20.29 39.02 20.05 38.92Q19.81 38.81 19.62 38.66Q19.44 38.51 19.27 38.39Q19.23 38.34 19.19 38.33Q19.15 38.31 19.11 38.31L17.85 38.31Q17.74 38.31 17.64 38.41Q17.59 38.45 17.57 38.5Q17.54 38.56 17.55 38.64Q17.56 38.84 17.73 39.12Q17.91 39.4 18.27 39.67Q18.63 39.95 19.21 40.14ZM6.43 40.18Q6.47 40.2 6.53 40.2L7.92 40.2Q8.07 40.2 8.15 40.12Q8.23 40.04 8.27 39.98L9.75 38.05L11.19 39.98Q11.25 40.05 11.33 40.12Q11.41 40.2 11.55 40.2L12.97 40.2Q13.03 40.2 13.08 40.17Q13.13 40.15 13.17 40.11Q13.22 40.06 13.24 40.01Q13.26 39.96 13.26 39.91Q13.26 39.86 13.24 39.81Q13.22 39.75 13.18 39.7L10.95 36.72L13.01 33.9Q13.06 33.84 13.08 33.79Q13.09 33.74 13.09 33.69Q13.09 33.63 13.07 33.58Q13.05 33.53 13 33.49Q12.96 33.44 12.91 33.42Q12.86 33.4 12.8 33.4L11.51 33.4Q11.34 33.4 11.26 33.49L11.26 33.49Q11.18 33.57 11.13 33.64L9.78 35.45L8.44 33.62Q8.4 33.56 8.31 33.48Q8.31 33.48 8.31 33.48Q8.22 33.4 8.07 33.4L6.71 33.4Q6.66 33.4 6.61 33.42Q6.56 33.44 6.51 33.49Q6.47 33.53 6.45 33.58Q6.43 33.63 6.43 33.69Q6.43 33.71 6.43 33.74Q6.43 33.76 6.44 33.79Q6.46 33.84 6.51 33.9L8.53 36.71L6.32 39.7Q6.28 39.75 6.26 39.81Q6.26 39.81 6.26 39.81Q6.24 39.87 6.24 39.91Q6.24 39.96 6.26 40.01Q6.28 40.07 6.33 40.11Q6.37 40.16 6.43 40.18ZM24.51 40.18Q24.56 40.2 24.62 40.2L26 40.2Q26.16 40.2 26.23 40.12Q26.31 40.04 26.35 39.98L27.83 38.05L29.28 39.98Q29.33 40.05 29.41 40.12Q29.49 40.2 29.63 40.2L31.06 40.2Q31.12 40.2 31.17 40.17Q31.22 40.15 31.26 40.11Q31.3 40.06 31.33 40.01Q31.34 39.96 31.34 39.91Q31.34 39.86 31.32 39.81Q31.3 39.75 31.27 39.7L29.03 36.72L31.1 33.9Q31.15 33.84 31.16 33.79Q31.17 33.74 31.17 33.69Q31.17 33.63 31.15 33.58Q31.13 33.53 31.09 33.49Q31.04 33.44 30.99 33.42Q30.94 33.4 30.89 33.4L29.6 33.4Q29.42 33.4 29.34 33.49L29.34 33.49Q29.27 33.57 29.22 33.64L27.87 35.45L26.52 33.62Q26.48 33.56 26.4 33.48Q26.4 33.48 26.39 33.48Q26.31 33.4 26.16 33.4L24.8 33.4Q24.74 33.4 24.7 33.42Q24.64 33.44 24.59 33.49Q24.55 33.53 24.53 33.58Q24.51 33.63 24.51 33.69Q24.51 33.71 24.51 33.74Q24.52 33.76 24.53 33.79Q24.55 33.84 24.59 33.9L26.62 36.71L24.4 39.7Q24.37 39.75 24.35 39.81Q24.35 39.81 24.35 39.81Q24.33 39.87 24.33 39.91Q24.33 39.96 24.35 40.01Q24.37 40.07 24.41 40.11Q24.46 40.16 24.51 40.18Z" fill="#4D9717" fill-opacity="1.000000" fill-rule="evenodd"/>
	<path id="x" d="M6.43 40.18Q6.47 40.2 6.53 40.2L7.92 40.2Q8.07 40.2 8.15 40.12Q8.23 40.04 8.27 39.98L9.75 38.05L11.19 39.98Q11.25 40.05 11.33 40.13Q11.41 40.2 11.55 40.2L12.97 40.2Q13.03 40.2 13.08 40.17Q13.13 40.15 13.17 40.11Q13.22 40.06 13.24 40.01Q13.26 39.96 13.26 39.91Q13.26 39.86 13.24 39.81Q13.22 39.75 13.18 39.7L10.95 36.72L13.01 33.9Q13.06 33.84 13.08 33.79Q13.09 33.74 13.09 33.69Q13.09 33.63 13.07 33.58Q13.05 33.53 13 33.49Q12.96 33.44 12.91 33.42Q12.86 33.4 12.8 33.4L11.51 33.4Q11.34 33.4 11.26 33.49L11.26 33.49Q11.18 33.57 11.13 33.64L9.78 35.45L8.44 33.62Q8.4 33.56 8.31 33.48Q8.31 33.48 8.31 33.48Q8.22 33.4 8.07 33.4L6.71 33.4Q6.66 33.4 6.61 33.42Q6.56 33.44 6.51 33.49Q6.47 33.53 6.45 33.58Q6.43 33.63 6.43 33.69Q6.43 33.71 6.43 33.74Q6.43 33.77 6.44 33.79Q6.46 33.84 6.51 33.9L8.53 36.71L6.32 39.7Q6.28 39.75 6.26 39.81Q6.26 39.81 6.26 39.81Q6.24 39.87 6.24 39.91Q6.24 39.96 6.26 40.01Q6.28 40.07 6.33 40.11Q6.37 40.16 6.43 40.18Z" fill="#4D9717" fill-opacity="1.000000" fill-rule="evenodd"/>
	<rect id="Rectangle 4571" x="7.000000" y="18.000000" rx="1.000000" width="7.000000" height="3.000000" fill="#4D9717" fill-opacity="1.000000"/>
	<rect id="Rectangle 4573" x="7.000000" y="23.000000" rx="1.000000" width="7.000000" height="3.000000" fill="#4D9717" fill-opacity="1.000000"/>
	<rect id="Rectangle 4572" x="17.000000" y="18.000000" rx="1.000000" width="7.000000" height="3.000000" fill="#4D9717" fill-opacity="1.000000"/>
	<rect id="Rectangle 4574" x="17.000000" y="23.000000" rx="1.000000" width="7.000000" height="3.000000" fill="#4D9717" fill-opacity="1.000000"/>
</svg>
